<?xml version="1.0" encoding="utf-8"?>
<!-- Generator: Adobe Illustrator 25.4.0, SVG Export Plug-In . SVG Version: 6.00 Build 0)  -->
<svg version="1.1" id="Layer_1" xmlns="http://www.w3.org/2000/svg" xmlns:xlink="http://www.w3.org/1999/xlink" x="0px" y="0px"
	 viewBox="0 0 612 792" style="enable-background:new 0 0 612 792;" xml:space="preserve">
<style type="text/css">
	.st0{fill:#174998;}
	.st1{fill:#21966A;}
	.st2{fill:#174998;stroke:#1A50A3;stroke-width:0.5616;stroke-miterlimit:10;}
</style>
<g>
	<rect width="100%" height="100%" fill="#FFFFFF"/>
	
	<path class="st0" d="M83.5,611.3l0.2,5.6c-2.5,0.7-4.8,1-6.9,1c-2.4,0-4.5-0.3-6.5-1c-2-0.7-3.8-1.7-5.3-3c-1.5-1.3-2.7-3-3.5-5
		c-0.8-2-1.2-4.3-1.2-6.9c0-2.6,0.4-4.9,1.1-7s1.8-3.8,3.2-5.2c1.4-1.4,3.1-2.5,5.1-3.2c2-0.7,4.2-1.1,6.6-1.1
		c2.2,0,4.6,0.5,7.3,1.4l-0.5,5.5c-2-1.1-4.1-1.7-6.5-1.7c-2,0-3.7,0.4-5.2,1.3s-2.7,2.1-3.5,3.7c-0.8,1.6-1.2,3.4-1.2,5.5
		c0,2.2,0.4,4.1,1.3,5.8c0.8,1.7,2,3.1,3.6,4c1.6,0.9,3.4,1.4,5.5,1.4C79.1,612.6,81.2,612.2,83.5,611.3z"/>
	<path class="st0" d="M109.5,606.1c0,1.8-0.3,3.5-0.8,5s-1.4,2.8-2.4,3.9c-1,1.1-2.2,1.9-3.7,2.5c-1.4,0.6-3,0.9-4.8,0.9
		c-2.3,0-4.3-0.5-6.1-1.6c-1.8-1.1-3.1-2.5-4.1-4.5s-1.4-4.1-1.4-6.5s0.5-4.5,1.5-6.4s2.3-3.3,4.1-4.3c1.8-1,3.8-1.5,6.1-1.5
		c1.8,0,3.4,0.3,4.8,0.9c1.4,0.6,2.7,1.5,3.7,2.6c1,1.1,1.8,2.5,2.3,4S109.5,604.3,109.5,606.1z M103.5,606c0-1.3-0.2-2.5-0.6-3.7
		c-0.4-1.2-1-2.2-1.9-3c-0.9-0.8-1.9-1.2-3.2-1.2c-1.2,0-2.2,0.4-3.1,1.2s-1.5,1.8-1.9,3s-0.6,2.4-0.6,3.6c0,1.3,0.2,2.6,0.6,3.8
		c0.4,1.2,1,2.2,1.9,3c0.9,0.8,1.9,1.2,3.2,1.2c0.9,0,1.7-0.2,2.5-0.7c0.7-0.5,1.3-1.1,1.7-1.8c0.4-0.7,0.8-1.6,1-2.5
		C103.4,607.9,103.5,606.9,103.5,606z"/>
	<path class="st0" d="M119.6,594.1l0.1,3.8c1.8-2.8,4.3-4.1,7.5-4.1c3,0,5,0.9,6.1,2.8s1.6,4.5,1.6,7.9v13.3h-5.8v-11.9
		c0-2.1-0.3-3.8-0.8-5.1c-0.5-1.3-1.6-2-3.3-2c-1.8,0-3.1,0.8-3.8,2.3c-0.7,1.5-1.1,3.3-1.1,5.4v11.2h-5.8v-15
		c0-3.3-0.1-6.2-0.2-8.6H119.6z"/>
	<path class="st0" d="M146.1,594.1l0.1,3.8c1.8-2.8,4.3-4.1,7.5-4.1c3,0,5,0.9,6.1,2.8s1.6,4.5,1.6,7.9v13.3h-5.8v-11.9
		c0-2.1-0.3-3.8-0.8-5.1c-0.5-1.3-1.6-2-3.3-2c-1.8,0-3.1,0.8-3.8,2.3c-0.7,1.5-1.1,3.3-1.1,5.4v11.2h-5.8v-15
		c0-3.3-0.1-6.2-0.2-8.6H146.1z"/>
	<path class="st0" d="M185,611.4l0.1,5.3c-2.4,1.1-4.9,1.6-7.7,1.6c-1.8,0-3.5-0.3-4.9-0.8c-1.4-0.6-2.7-1.4-3.7-2.4
		c-1-1.1-1.8-2.4-2.3-3.9c-0.5-1.5-0.8-3.3-0.8-5.2c0-1.8,0.2-3.5,0.7-5c0.5-1.5,1.2-2.8,2.1-3.9c0.9-1.1,2.1-2,3.4-2.6
		c1.4-0.6,2.9-0.9,4.6-0.9c1.7,0,3.2,0.3,4.4,1c1.3,0.6,2.3,1.5,3.1,2.6c0.8,1.1,1.4,2.4,1.8,3.9c0.4,1.5,0.6,3.1,0.6,4.8
		c0,0.3,0,0.5,0,0.7s0,0.3,0,0.6c0,0.2,0,0.5-0.1,0.8h-15.1c0.1,1.9,0.8,3.3,2.1,4.4c1.2,1,2.8,1.6,4.6,1.6
		C180.1,613.8,182.4,613,185,611.4z M181.1,603.6c0-1.1-0.2-2-0.5-2.9c-0.3-0.9-0.8-1.6-1.5-2.1c-0.7-0.5-1.5-0.8-2.5-0.8
		c-1,0-1.9,0.3-2.7,0.8s-1.3,1.2-1.7,2.1c-0.4,0.9-0.7,1.9-0.7,2.9H181.1z"/>
	<path class="st0" d="M206.4,611.8l0.3,5.2c-1.9,0.6-3.7,0.9-5.2,0.9c-1.7,0-3.3-0.3-4.7-0.8c-1.4-0.6-2.7-1.4-3.7-2.4
		c-1-1.1-1.8-2.3-2.3-3.9c-0.5-1.5-0.8-3.2-0.8-5c0-2.3,0.5-4.4,1.4-6.2c0.9-1.8,2.3-3.2,4-4.2s3.7-1.5,5.9-1.5
		c1.6,0,3.3,0.3,4.9,0.8l-0.4,4.9c-1.3-0.5-2.5-0.8-3.6-0.8c-1.2,0-2.3,0.3-3.2,0.9c-1,0.6-1.7,1.5-2.2,2.5c-0.5,1-0.8,2.2-0.8,3.5
		c0,2.1,0.6,3.8,1.8,5.1c1.2,1.3,2.8,1.9,4.7,1.9C203.7,612.8,205,612.5,206.4,611.8z"/>
	<path class="st0" d="M226.8,612.7l0.2,4.8c-1.5,0.3-2.8,0.5-3.9,0.5c-1.9,0-3.4-0.4-4.5-1.1c-1.1-0.7-1.9-1.8-2.3-3.1s-0.7-3-0.7-5
		v-9.9h-4.2v-4.5h4.3v-4.8l5.8-2v6.8h5.1v4.5h-5.1v8.6c0,1.8,0.2,3.2,0.6,4.2c0.4,1,1.3,1.4,2.8,1.4
		C225.4,613,226.1,612.9,226.8,612.7z"/>
	<path class="st0" d="M236.9,589.8h-6V584h6V589.8z M236.8,617.7H231v-23.6h5.8V617.7z"/>
	<path class="st0" d="M257.8,611.8l0.3,5.2c-1.9,0.6-3.7,0.9-5.2,0.9c-1.7,0-3.3-0.3-4.7-0.8c-1.4-0.6-2.7-1.4-3.7-2.4
		c-1-1.1-1.8-2.3-2.3-3.9c-0.5-1.5-0.8-3.2-0.8-5c0-2.3,0.5-4.4,1.4-6.2c0.9-1.8,2.3-3.2,4-4.2s3.7-1.5,5.9-1.5
		c1.6,0,3.3,0.3,4.9,0.8l-0.4,4.9c-1.3-0.5-2.5-0.8-3.6-0.8c-1.2,0-2.3,0.3-3.2,0.9c-1,0.6-1.7,1.5-2.2,2.5c-0.5,1-0.8,2.2-0.8,3.5
		c0,2.1,0.6,3.8,1.8,5.1c1.2,1.3,2.8,1.9,4.7,1.9C255.2,612.8,256.5,612.5,257.8,611.8z"/>
	<path class="st0" d="M282.3,594.1v14.4c0,0.7,0.1,1.7,0.1,3.1c0,1.4,0.1,2.5,0.1,3.4c0,0.8,0.1,1.8,0.1,2.8h-5.5l-0.2-3.6
		c-0.5,0.9-1.1,1.6-1.9,2.2c-0.7,0.6-1.5,1-2.5,1.4c-0.9,0.3-1.8,0.5-2.7,0.5c-2.1,0-3.7-0.5-4.9-1.4s-2-2.1-2.4-3.7
		c-0.4-1.6-0.7-3.4-0.7-5.6v-13.3h5.8v11.4c0,1.5,0.1,2.7,0.2,3.7c0.1,1,0.5,1.9,1.1,2.7c0.6,0.8,1.5,1.1,2.7,1.1
		c1.8,0,3-0.8,3.6-2.3c0.7-1.6,1-3.4,1-5.5v-11.1H282.3z"/>
	<path class="st0" d="M300.9,612.7l0.2,4.8c-1.5,0.3-2.8,0.5-3.9,0.5c-1.9,0-3.4-0.4-4.5-1.1c-1.1-0.7-1.9-1.8-2.3-3.1s-0.7-3-0.7-5
		v-9.9h-4.2v-4.5h4.3v-4.8l5.8-2v6.8h5.1v4.5h-5.1v8.6c0,1.8,0.2,3.2,0.6,4.2c0.4,1,1.3,1.4,2.8,1.4
		C299.5,613,300.2,612.9,300.9,612.7z"/>
	<path class="st0" d="M318.4,617.7v-31.8h6.9c1.9,0,3.5,0.1,5,0.2c1.5,0.1,2.9,0.4,4.4,0.9c1.5,0.5,2.8,1.1,4,2
		c1,0.7,1.9,1.6,2.6,2.5c0.7,1,1.3,2,1.7,3.1s0.7,2.2,0.9,3.5c0.2,1.3,0.3,2.5,0.3,3.8c0,2.7-0.4,5.1-1.3,7.4
		c-0.9,2.3-2.3,4.1-4.2,5.5c-1,0.8-2.1,1.4-3.4,1.8c-1.3,0.4-2.6,0.7-3.9,0.9c-1.3,0.1-2.7,0.2-4.2,0.2H318.4z M324.5,612.8
		c0.3,0,0.6,0,0.8,0c0.2,0,0.5,0,0.7,0c1.8,0,3.4-0.2,4.8-0.7c1.4-0.5,2.6-1.2,3.6-2.1c1-0.9,1.8-2.1,2.3-3.5c0.5-1.4,0.8-3.1,0.8-5
		s-0.4-3.7-1.2-5.4c-0.8-1.7-1.9-3-3.4-3.8c-0.6-0.4-1.2-0.7-1.9-0.9s-1.4-0.4-2.1-0.5c-0.7-0.1-1.6-0.2-2.5-0.2c-0.9,0-1.6,0-2.1,0
		V612.8z"/>
	<path class="st0" d="M367.2,611.4l0.1,5.3c-2.4,1.1-4.9,1.6-7.7,1.6c-1.8,0-3.5-0.3-4.9-0.8c-1.4-0.6-2.7-1.4-3.7-2.4
		c-1-1.1-1.8-2.4-2.3-3.9c-0.5-1.5-0.8-3.3-0.8-5.2c0-1.8,0.2-3.5,0.7-5s1.2-2.8,2.1-3.9c0.9-1.1,2.1-2,3.4-2.6
		c1.4-0.6,2.9-0.9,4.6-0.9c1.7,0,3.2,0.3,4.4,1c1.3,0.6,2.3,1.5,3.1,2.6c0.8,1.1,1.4,2.4,1.8,3.9c0.4,1.5,0.6,3.1,0.6,4.8
		c0,0.3,0,0.5,0,0.7s0,0.3,0,0.6c0,0.2,0,0.5-0.1,0.8h-15.1c0.1,1.9,0.8,3.3,2.1,4.4c1.2,1,2.8,1.6,4.6,1.6
		C362.3,613.8,364.6,613,367.2,611.4z M363.2,603.6c0-1.1-0.2-2-0.5-2.9c-0.3-0.9-0.8-1.6-1.5-2.1c-0.7-0.5-1.5-0.8-2.5-0.8
		c-1,0-1.9,0.3-2.7,0.8s-1.3,1.2-1.7,2.1c-0.4,0.9-0.7,1.9-0.7,2.9H363.2z"/>
	<path class="st0" d="M379.4,627.4h-5.8V601c0-2.7-0.1-5-0.2-6.9h5.6l0.1,3.7c1.7-2.7,4.2-4.1,7.3-4.1c1.5,0,2.9,0.3,4,1
		s2.1,1.5,2.8,2.7c0.7,1.1,1.3,2.4,1.7,3.8c0.4,1.4,0.5,2.9,0.5,4.4c0,2.3-0.3,4.3-0.9,6.2c-0.6,1.9-1.6,3.4-3,4.6
		c-1.4,1.2-3.2,1.7-5.3,1.7c-1.4,0-2.7-0.3-3.9-1c-1.2-0.6-2.2-1.6-2.9-2.7c0.1,0.8,0.1,2,0.1,3.6V627.4z M389.4,606
		c0-1.3-0.2-2.4-0.5-3.5s-0.8-2-1.5-2.7s-1.7-1-2.9-1c-1.2,0-2.1,0.4-2.9,1.1s-1.3,1.6-1.7,2.7c-0.4,1.1-0.5,2.3-0.5,3.5
		c0,2,0.4,3.6,1.2,5.1c0.8,1.4,2.1,2.1,3.8,2.1c1.1,0,2.1-0.4,2.8-1.1c0.7-0.7,1.3-1.6,1.6-2.8C389.2,608.2,389.4,607.1,389.4,606z"
		/>
	<path class="st0" d="M418.7,617.7h-5.2l-0.1-3.5c-0.7,1.3-1.7,2.2-2.9,2.9c-1.2,0.7-2.6,1-4.1,1c-1.5,0-2.8-0.3-4-0.8
		c-1.2-0.5-2.1-1.4-2.8-2.5c-0.7-1.1-1-2.5-1-4c0-3,1.1-5,3.3-6.1c2.2-1.1,4.9-1.6,8-1.6c0.5,0,0.8,0,0.9,0c0.1,0,0.4,0,0.9,0
		c0.5,0,0.9,0.1,1.4,0.1c0-1.8-0.4-3.1-1.2-3.9c-0.8-0.9-2.1-1.3-3.8-1.3c-2.6,0-4.9,0.9-6.9,2.6l-0.2-5.3c2.4-1.1,5-1.6,7.8-1.6
		c1,0,2.1,0.1,3.1,0.3s2,0.6,2.9,1.1c0.9,0.5,1.6,1.2,2.2,2c0.6,0.8,1,1.8,1.1,2.9s0.3,2.4,0.3,3.9c0,1.5,0,3.1,0,4.6s0,3,0,4.3
		C418.5,614,418.6,615.7,418.7,617.7z M413.2,607c-0.1,0-0.4,0-0.7,0h-0.7c-1.3,0-2.4,0.1-3.5,0.2s-2,0.5-2.8,1.1
		c-0.8,0.6-1.2,1.5-1.2,2.6c0,0.9,0.3,1.7,1,2.2s1.5,0.8,2.4,0.8c1.8,0,3.1-0.7,4-2.1C412.8,610.5,413.2,608.9,413.2,607z"/>
	<path class="st0" d="M430.3,617.7h-5.8v-16.5c-0.1-3.9-0.1-6.3-0.2-7.1h5.3l0.1,6c0.5-1.9,1.3-3.4,2.3-4.5c1-1.1,2.4-1.7,4-1.7
		c0.5,0,1.1,0.1,1.7,0.2v5.7c-0.8-0.2-1.4-0.3-2-0.3c-1.4,0-2.5,0.4-3.3,1.1c-0.8,0.8-1.4,1.7-1.7,2.9c-0.3,1.2-0.5,2.5-0.5,3.9v0.5
		V617.7z"/>
	<path class="st0" d="M453.8,612.7l0.2,4.8c-1.5,0.3-2.8,0.5-3.9,0.5c-1.9,0-3.4-0.4-4.5-1.1c-1.1-0.7-1.9-1.8-2.3-3.1s-0.7-3-0.7-5
		v-9.9h-4.2v-4.5h4.3v-4.8l5.8-2v6.8h5.1v4.5h-5.1v8.6c0,1.8,0.2,3.2,0.6,4.2c0.4,1,1.3,1.4,2.8,1.4
		C452.3,613,453,612.9,453.8,612.7z"/>
	<path class="st0" d="M463.5,594.1l0.1,3.6c0.7-1.2,1.7-2.2,2.9-2.9c1.2-0.7,2.6-1,4-1c1.6,0,2.9,0.3,3.9,1c1,0.7,1.8,1.7,2.5,3.2
		c0.8-1.4,1.7-2.4,3-3.1c1.2-0.7,2.6-1.1,4.1-1.1c2.8,0,4.7,0.9,5.6,2.8c1,1.9,1.5,4.4,1.5,7.5v13.7h-5.8v-11.5v-0.9
		c0-1.9-0.2-3.5-0.6-4.7c-0.4-1.2-1.3-1.8-2.7-1.8c-2.9,0-4.4,2.7-4.4,8v10.9h-5.8v-12.1v-1.7c0-1.4-0.2-2.6-0.8-3.6
		c-0.5-1-1.4-1.5-2.6-1.5c-1.6,0-2.7,0.7-3.4,2.2c-0.7,1.4-1,3.1-1,5v11.8h-5.8v-17.9c0-2.2-0.1-4.1-0.2-5.8H463.5z"/>
	<path class="st0" d="M514.7,611.4l0.1,5.3c-2.4,1.1-4.9,1.6-7.7,1.6c-1.8,0-3.5-0.3-4.9-0.8c-1.4-0.6-2.7-1.4-3.7-2.4
		c-1-1.1-1.8-2.4-2.3-3.9c-0.5-1.5-0.8-3.3-0.8-5.2c0-1.8,0.2-3.5,0.7-5s1.2-2.8,2.1-3.9c0.9-1.1,2.1-2,3.4-2.6
		c1.4-0.6,2.9-0.9,4.6-0.9c1.7,0,3.2,0.3,4.4,1c1.3,0.6,2.3,1.5,3.1,2.6c0.8,1.1,1.4,2.4,1.8,3.9c0.4,1.5,0.6,3.1,0.6,4.8
		c0,0.3,0,0.5,0,0.7s0,0.3,0,0.6c0,0.2,0,0.5-0.1,0.8h-15.1c0.1,1.9,0.8,3.3,2.1,4.4c1.2,1,2.8,1.6,4.6,1.6
		C509.8,613.8,512.1,613,514.7,611.4z M510.8,603.6c0-1.1-0.2-2-0.5-2.9c-0.3-0.9-0.8-1.6-1.5-2.1c-0.7-0.5-1.5-0.8-2.5-0.8
		c-1,0-1.9,0.3-2.7,0.8s-1.3,1.2-1.7,2.1c-0.4,0.9-0.7,1.9-0.7,2.9H510.8z"/>
	<path class="st0" d="M526.4,594.1l0.1,3.8c1.8-2.8,4.3-4.1,7.5-4.1c3,0,5,0.9,6.1,2.8c1,1.9,1.6,4.5,1.6,7.9v13.3h-5.8v-11.9
		c0-2.1-0.3-3.8-0.8-5.1c-0.5-1.3-1.6-2-3.3-2c-1.8,0-3.1,0.8-3.8,2.3c-0.7,1.5-1.1,3.3-1.1,5.4v11.2h-5.8v-15
		c0-3.3-0.1-6.2-0.2-8.6H526.4z"/>
	<path class="st0" d="M559.8,612.7l0.2,4.8c-1.5,0.3-2.8,0.5-3.9,0.5c-1.9,0-3.4-0.4-4.5-1.1c-1.1-0.7-1.9-1.8-2.3-3.1s-0.7-3-0.7-5
		v-9.9h-4.2v-4.5h4.3v-4.8l5.8-2v6.8h5.1v4.5h-5.1v8.6c0,1.8,0.2,3.2,0.6,4.2c0.4,1,1.3,1.4,2.8,1.4
		C558.4,613,559.1,612.9,559.8,612.7z"/>
	<path class="st0" d="M173.9,651.4c0,1.8-0.3,3.5-0.8,5s-1.4,2.8-2.4,3.9c-1,1.1-2.2,1.9-3.7,2.5c-1.4,0.6-3,0.9-4.8,0.9
		c-2.3,0-4.3-0.5-6.1-1.6c-1.8-1.1-3.1-2.5-4.1-4.5s-1.4-4.1-1.4-6.5s0.5-4.5,1.5-6.4s2.3-3.3,4.1-4.3c1.8-1,3.8-1.5,6.1-1.5
		c1.8,0,3.4,0.3,4.8,0.9c1.4,0.6,2.7,1.5,3.7,2.6c1,1.1,1.8,2.5,2.3,4S173.9,649.6,173.9,651.4z M167.9,651.2c0-1.3-0.2-2.5-0.6-3.7
		c-0.4-1.2-1-2.2-1.9-3c-0.9-0.8-1.9-1.2-3.2-1.2c-1.2,0-2.2,0.4-3.1,1.2s-1.5,1.8-1.9,3s-0.6,2.4-0.6,3.6c0,1.3,0.2,2.6,0.6,3.8
		c0.4,1.2,1,2.2,1.9,3c0.9,0.8,1.9,1.2,3.2,1.2c0.9,0,1.7-0.2,2.5-0.7c0.7-0.5,1.3-1.1,1.7-1.8c0.4-0.7,0.8-1.6,1-2.5
		C167.8,653.1,167.9,652.2,167.9,651.2z"/>
	<path class="st0" d="M184.3,663h-5.8V644h-4.5v-4.5h4.5c0-1.9,0.1-3.5,0.2-4.6c0.1-1.1,0.5-2.2,1-3.2c0.7-1.1,1.6-2,2.8-2.5
		c1.2-0.5,2.5-0.8,3.9-0.8c1.1,0,2.1,0.1,3.1,0.4l-0.4,4.9c-0.6-0.2-1.1-0.3-1.7-0.3c-1,0-1.7,0.3-2.2,0.9c-0.5,0.6-0.8,1.3-0.9,2.1
		c-0.1,0.8-0.2,1.8-0.2,3h5.1v4.5h-5.1V663z"/>
	<path class="st0" d="M212.5,650.9V663h-6.1v-31.8h8.3c1.7,0,3.2,0.1,4.6,0.4c1.4,0.3,2.6,0.8,3.7,1.6c1.1,0.9,2,2,2.7,3.3
		s1,2.8,1,4.3c0,1.8-0.3,3.3-0.9,4.6c-0.6,1.3-1.4,2.4-2.5,3.2c-1,0.8-2.3,1.4-3.7,1.8c-1.4,0.4-2.9,0.6-4.5,0.6
		C214.5,651,213.6,651,212.5,650.9z M212.5,646c1.1,0,2,0,2.9-0.1c0.9-0.1,1.7-0.3,2.4-0.6c0.7-0.3,1.3-0.8,1.7-1.5s0.7-1.6,0.7-2.8
		c0-1.5-0.4-2.7-1.1-3.4c-0.7-0.7-1.6-1.1-2.6-1.3c-1-0.2-2.3-0.3-3.9-0.3V646z"/>
	<path class="st0" d="M250.6,639.3v14.4c0,0.7,0.1,1.7,0.1,3.1c0,1.4,0.1,2.5,0.1,3.4c0,0.8,0.1,1.8,0.1,2.8h-5.5l-0.2-3.6
		c-0.5,0.9-1.1,1.6-1.9,2.2c-0.7,0.6-1.5,1-2.5,1.4c-0.9,0.3-1.8,0.5-2.7,0.5c-2.1,0-3.7-0.5-4.9-1.4s-2-2.1-2.4-3.7
		c-0.4-1.6-0.7-3.4-0.7-5.6v-13.3h5.8v11.4c0,1.5,0.1,2.7,0.2,3.7c0.1,1,0.5,1.9,1.1,2.7c0.6,0.8,1.5,1.1,2.7,1.1
		c1.8,0,3-0.8,3.6-2.3c0.7-1.6,1-3.4,1-5.5v-11.1H250.6z"/>
	<path class="st0" d="M262.2,663h-5.4v-34.4h5.8v10.5c0,1.7-0.1,3.2-0.2,4.4c0.8-1.6,1.7-2.7,2.9-3.4c1.2-0.7,2.6-1.1,4.3-1.1
		c1.6,0,2.9,0.3,4.1,0.9c1.1,0.6,2.1,1.5,2.8,2.6c0.7,1.1,1.3,2.4,1.6,3.7c0.4,1.4,0.5,2.9,0.5,4.5c0,1.7-0.2,3.3-0.5,4.8
		c-0.3,1.5-0.8,2.8-1.5,4c-0.7,1.2-1.7,2.1-2.9,2.8c-1.2,0.7-2.6,1.1-4.3,1.1c-3.3,0-5.7-1.4-7-4.1L262.2,663z M272.6,651.2
		c0-1.9-0.4-3.6-1.2-5s-2-2.2-3.6-2.2c-1.7,0-3,0.7-3.9,2.2c-0.9,1.5-1.3,3.2-1.3,5.1s0.4,3.6,1.3,5c0.9,1.4,2.1,2.2,3.8,2.2
		c1.1,0,2-0.4,2.8-1.1c0.7-0.8,1.3-1.7,1.6-2.9C272.4,653.4,272.6,652.3,272.6,651.2z"/>
	<path class="st0" d="M289,663h-5.8v-34.4h5.8V663z"/>
	<path class="st0" d="M300.7,635.1h-6v-5.8h6V635.1z M300.6,663h-5.8v-23.6h5.8V663z"/>
	<path class="st0" d="M321.6,657.1l0.3,5.2c-1.9,0.6-3.7,0.9-5.2,0.9c-1.7,0-3.3-0.3-4.7-0.8c-1.4-0.6-2.7-1.4-3.7-2.4
		c-1-1.1-1.8-2.3-2.3-3.9c-0.5-1.5-0.8-3.2-0.8-5c0-2.3,0.5-4.4,1.4-6.2c0.9-1.8,2.3-3.2,4-4.2c1.7-1,3.7-1.5,5.9-1.5
		c1.6,0,3.3,0.3,4.9,0.8l-0.4,4.9c-1.3-0.5-2.5-0.8-3.6-0.8c-1.2,0-2.3,0.3-3.2,0.9c-1,0.6-1.7,1.5-2.2,2.5c-0.5,1-0.8,2.2-0.8,3.5
		c0,2.1,0.6,3.8,1.8,5.1c1.2,1.3,2.8,1.9,4.7,1.9C319,658.1,320.3,657.7,321.6,657.1z"/>
	<path class="st0" d="M363.4,663h-6.1v-13.7h-12V663h-6.1v-31.8h6.1v12.9h12v-12.9h6.1V663z"/>
	<path class="st0" d="M387.9,656.7l0.1,5.3c-2.4,1.1-4.9,1.6-7.7,1.6c-1.8,0-3.5-0.3-4.9-0.8c-1.4-0.6-2.7-1.4-3.7-2.4
		c-1-1.1-1.8-2.4-2.3-3.9c-0.5-1.5-0.8-3.3-0.8-5.2c0-1.8,0.2-3.5,0.7-5s1.2-2.8,2.1-3.9c0.9-1.1,2.1-2,3.4-2.6
		c1.4-0.6,2.9-0.9,4.6-0.9c1.7,0,3.2,0.3,4.4,1c1.3,0.6,2.3,1.5,3.1,2.6c0.8,1.1,1.4,2.4,1.8,3.9c0.4,1.5,0.6,3.1,0.6,4.8
		c0,0.3,0,0.5,0,0.7s0,0.3,0,0.6c0,0.2,0,0.5-0.1,0.8h-15.1c0.1,1.9,0.8,3.3,2.1,4.4c1.2,1,2.8,1.6,4.6,1.6
		C383.1,659.1,385.4,658.3,387.9,656.7z M384,648.9c0-1.1-0.2-2-0.5-2.9c-0.3-0.9-0.8-1.6-1.5-2.1c-0.7-0.5-1.5-0.8-2.5-0.8
		c-1,0-1.9,0.3-2.7,0.8s-1.3,1.2-1.7,2.1c-0.4,0.9-0.7,1.9-0.7,2.9H384z"/>
	<path class="st0" d="M412.8,663h-5.2l-0.1-3.5c-0.7,1.3-1.7,2.2-2.9,2.9c-1.2,0.7-2.6,1-4.1,1c-1.5,0-2.8-0.3-4-0.8
		c-1.2-0.5-2.1-1.4-2.8-2.5c-0.7-1.1-1-2.5-1-4c0-3,1.1-5,3.3-6.1c2.2-1.1,4.9-1.6,8-1.6c0.5,0,0.8,0,0.9,0c0.1,0,0.4,0,0.9,0
		c0.5,0,0.9,0.1,1.4,0.1c0-1.8-0.4-3.1-1.2-3.9c-0.8-0.9-2.1-1.3-3.8-1.3c-2.6,0-4.9,0.9-6.9,2.6l-0.2-5.3c2.4-1.1,5-1.6,7.8-1.6
		c1,0,2.1,0.1,3.1,0.3s2,0.6,2.9,1.1c0.9,0.5,1.6,1.2,2.2,2c0.6,0.8,1,1.8,1.1,2.9s0.3,2.4,0.3,3.9c0,1.5,0,3.1,0,4.6s0,3,0,4.3
		C412.7,659.3,412.7,660.9,412.8,663z M407.4,652.2c-0.1,0-0.4,0-0.7,0H406c-1.3,0-2.4,0.1-3.5,0.2s-2,0.5-2.8,1.1
		c-0.8,0.6-1.2,1.5-1.2,2.6c0,0.9,0.3,1.7,1,2.2s1.5,0.8,2.4,0.8c1.8,0,3.1-0.7,4-2.1C406.9,655.8,407.4,654.1,407.4,652.2z"/>
	<path class="st0" d="M424.2,663h-5.8v-34.4h5.8V663z"/>
	<path class="st0" d="M442.6,657.9l0.2,4.8c-1.5,0.3-2.8,0.5-3.9,0.5c-1.9,0-3.4-0.4-4.5-1.1c-1.1-0.7-1.9-1.8-2.3-3.1s-0.7-3-0.7-5
		V644h-4.2v-4.5h4.3v-4.8l5.8-2v6.8h5.1v4.5h-5.1v8.6c0,1.8,0.2,3.2,0.6,4.2c0.4,1,1.3,1.4,2.8,1.4
		C441.2,658.2,441.8,658.1,442.6,657.9z"/>
	<path class="st0" d="M467.3,663h-5.8v-11.5c0-2.3-0.2-4.1-0.7-5.4c-0.5-1.4-1.6-2-3.3-2c-1.9,0-3.2,0.8-3.9,2.4
		c-0.8,1.6-1.1,3.5-1.1,5.7v1.2v9.7h-5.8v-34.4h5.8v14.1c0.8-1.3,1.8-2.2,3-2.8c1.2-0.6,2.5-0.9,4-0.9c1.6,0,2.9,0.3,3.9,0.8
		c1,0.5,1.8,1.3,2.4,2.2c0.6,0.9,0.9,2,1.1,3.2c0.2,1.2,0.3,2.7,0.3,4.3V663z"/>
</g>
<g>
	<path class="st0" d="M57.4,437l-0.1-166l39.6,0c10.8,0,20.4,0.3,28.9,1c8.5,0.6,17,2.1,25.5,4.5c8.5,2.3,16.2,5.8,23.1,10.4
		c5.8,3.7,10.7,8.1,14.8,13.2c4.1,5.1,7.3,10.4,9.6,16c2.3,5.6,4.1,11.6,5.2,18.2c1.2,6.6,1.7,13.3,1.7,20c0,13.9-2.5,26.8-7.6,38.5
		c-5,11.8-13,21.4-24,28.9c-5.8,4.1-12.3,7.2-19.6,9.5c-7.3,2.3-14.8,3.8-22.6,4.6c-7.7,0.8-15.8,1.2-24.3,1.2L57.4,437z
		 M92.5,411.4c2,0,3.6,0,4.8,0.1c1.3,0,2.6,0.1,4.1,0.2c10.3,0,19.5-1.2,27.7-3.6c8.2-2.4,15.1-6,21-10.8
		c5.8-4.8,10.3-10.9,13.4-18.2c3.1-7.3,4.7-15.9,4.7-25.8c0-9.9-2.3-19.2-6.8-28c-4.5-8.7-11-15.4-19.4-20c-3.5-2-7.2-3.6-11-4.7
		c-3.9-1.1-7.9-1.9-12.2-2.4c-4.3-0.5-9.1-0.8-14.3-1c-5.2-0.2-9.2-0.2-12-0.2L92.5,411.4z"/>
	<path class="st0" d="M260,374l0.1,62.9l-37.7,0L222.2,271l51.2,0c10.6,0,20.1,0.7,28.6,2.2c8.5,1.5,16.2,4.3,23.2,8.5
		c7,4.4,12.5,10.2,16.5,17.2c4,7,6,14.6,6,22.6c0,9.2-1.9,17.2-5.6,24.1c-3.7,6.8-8.8,12.3-15.3,16.6c-6.5,4.3-14.1,7.4-22.8,9.4
		c-8.7,2-18,3-27.9,3C272.6,374.4,267.1,374.3,260,374z M260,348.3c6.6,0,12.5-0.3,18-0.7c5.4-0.5,10.3-1.5,14.7-3.2
		c4.4-1.6,7.9-4.3,10.7-7.9c2.8-3.6,4.2-8.4,4.2-14.3c0-8-2.3-13.9-6.8-17.5c-4.6-3.7-10-5.9-16.3-6.8c-6.3-0.8-14.5-1.3-24.4-1.5
		L260,348.3z"/>
	<path class="st0" d="M492.4,436.7l-33.2,0l-0.1-71.3l-65.5,0.1l0.1,71.3l-33.2,0l-0.1-165.7l33.2,0l0.1,67.3l65.5-0.1l-0.1-67.3
		l33.2,0L492.4,436.7z"/>
</g>
<polygon class="st1" points="55.5,519.2 57.6,460 151.3,460.4 152.6,507.1 151.8,510.6 151.1,511.8 150.4,512.6 149.4,513.6 
	146.7,514.1 138,515.3 131.3,516.5 128.4,517.1 123.5,517.8 118.3,518.2 107.1,519.2 96.8,520.1 94.8,520.7 92.4,521.1 89,522 
	86.1,522.9 83,524.3 78.1,527 50.9,541.8 45.5,533.7 59.3,525.5 "/>
<path class="st1" d="M366.1,150.8c-76.1,0-142.8,39.5-179.4,98.6h42.8c33.4-39.1,85.2-63.4,142.4-61.4
	c96.9,3.3,172.8,80.5,169.7,172.3s-84.3,163.6-181.2,160.2c-50.5-1.7-95.4-23.6-126.3-57.1h-44.7c37.2,56.7,102.4,94.2,176.7,94.2
	c115.6,0,209.4-91.1,209.4-203.4S481.7,150.8,366.1,150.8z"/>
<g>
	<path class="st2" d="M195.4,219.3l-3.1,4.4l-11.2,0.2c-0.1,0-0.7,0-1.7,0c0.6,0.3,1.1,0.7,1.6,1l6.9,4.9l-2.4,3.4l-17.8-12.7
		l2.4-3.4l6.3,4.5c0.5,0.3,0.9,0.7,1.4,1.1c-0.3-1-0.5-1.6-0.6-1.8l-2.8-9.9l2.9-4.1l3.3,12.8L195.4,219.3z"/>
	<path class="st2" d="M201,206.1l2.8,2.3c-0.5,1.7-1.3,3.3-2.5,4.8c-0.8,1-1.7,1.7-2.6,2.2c-0.9,0.5-1.9,0.8-2.9,0.8
		c-1,0.1-2-0.1-3.1-0.5c-1-0.4-2.1-1-3.1-1.9c-0.9-0.8-1.7-1.7-2.3-2.6s-1-1.9-1.1-2.9c-0.2-1-0.1-2,0.2-3c0.3-1,0.8-1.9,1.6-2.8
		c0.7-0.9,1.6-1.5,2.5-1.9c0.9-0.4,1.8-0.5,2.8-0.5c0.9,0.1,1.9,0.3,2.8,0.8c0.9,0.4,1.9,1,2.8,1.8c0.2,0.1,0.3,0.2,0.4,0.3
		c0.1,0.1,0.2,0.2,0.3,0.3s0.2,0.2,0.4,0.4l-6.7,7.9c1,0.7,2.1,1,3.2,0.8c1.1-0.2,2-0.8,2.8-1.7C200,209.8,200.7,208.2,201,206.1z
		 M195.1,204.8c-0.6-0.5-1.2-0.8-1.8-1c-0.6-0.2-1.2-0.3-1.8-0.1c-0.6,0.1-1.1,0.4-1.6,1c-0.5,0.5-0.7,1.1-0.8,1.8
		c0,0.6,0.1,1.2,0.4,1.8c0.3,0.6,0.7,1.2,1.2,1.7L195.1,204.8z"/>
	<path class="st2" d="M212.9,193.8l2.6,2.5c-0.6,1.7-1.6,3.2-2.9,4.5c-0.9,0.9-1.8,1.6-2.8,2s-2,0.6-3,0.6c-1,0-2-0.3-3-0.8
		c-1-0.5-2-1.2-2.9-2.1c-0.9-0.9-1.6-1.8-2.1-2.8c-0.5-1-0.8-2-0.9-2.9c-0.1-1,0-2,0.4-2.9c0.4-1,0.9-1.9,1.8-2.7
		c0.8-0.8,1.7-1.4,2.6-1.7c0.9-0.3,1.9-0.4,2.8-0.3c0.9,0.1,1.9,0.5,2.8,1c0.9,0.5,1.8,1.2,2.6,2c0.2,0.2,0.3,0.3,0.3,0.3
		s0.2,0.2,0.3,0.3c0.1,0.1,0.2,0.3,0.4,0.4l-7.3,7.3c1,0.8,2,1.2,3.1,1.1c1.1-0.1,2.1-0.6,3-1.5
		C211.7,197.3,212.4,195.8,212.9,193.8z M207.2,192c-0.5-0.5-1.1-0.9-1.7-1.1c-0.6-0.3-1.2-0.4-1.8-0.3c-0.6,0.1-1.1,0.4-1.6,0.9
		c-0.5,0.5-0.8,1.1-0.9,1.7c-0.1,0.6,0,1.2,0.2,1.9c0.2,0.6,0.6,1.2,1.1,1.8L207.2,192z"/>
	<path class="st2" d="M226.7,196.2l-3,2.6l-11.8-13.8c-1.2-1.4-2.3-2.6-3.2-3.5l2.9-2.5l1.7,1.9c-0.3-2.2,0.3-4,2-5.4
		c0.8-0.7,1.6-1.1,2.5-1.3c0.9-0.2,1.8-0.1,2.7,0.1c0.9,0.3,1.7,0.7,2.6,1.3c0.8,0.6,1.6,1.3,2.3,2.1c1,1.2,1.8,2.4,2.3,3.7
		c0.5,1.3,0.7,2.5,0.4,3.7c-0.2,1.2-0.9,2.3-2,3.3c-0.7,0.6-1.6,1-2.5,1.3c-0.9,0.2-1.8,0.2-2.7-0.2c0.4,0.4,0.9,1,1.7,1.8
		L226.7,196.2z M222.3,180.5c-0.6-0.7-1.2-1.2-1.8-1.6c-0.6-0.4-1.3-0.7-2-0.7c-0.7,0-1.3,0.2-2,0.7c-0.6,0.5-1,1.1-1.1,1.9
		c-0.1,0.7,0,1.4,0.3,2.2c0.3,0.7,0.7,1.4,1.3,2c0.9,1,1.8,1.7,2.9,2.1c1.1,0.4,2,0.2,2.9-0.6c0.6-0.5,0.9-1.1,1-1.8
		c0.1-0.7-0.1-1.4-0.4-2.2C223.2,181.8,222.8,181.1,222.3,180.5z"/>
	<path class="st2" d="M225.2,164.2l-3.3,2.5l-2.4-3.2l3.3-2.5L225.2,164.2z M236.7,179.6l-3.2,2.4l-9.7-13l3.2-2.4L236.7,179.6z"/>
	<path class="st2" d="M234.4,161.4l1.5,2.1c0-2.3,0.9-4,2.8-5.2c1.7-1.1,3.2-1.4,4.5-0.7c1.3,0.7,2.6,2,3.9,3.9l5,7.6l-3.3,2.2
		l-4.5-6.8c-0.8-1.2-1.6-2.1-2.4-2.6c-0.8-0.6-1.7-0.5-2.6,0.1c-1,0.7-1.5,1.6-1.3,2.8c0.2,1.2,0.6,2.3,1.4,3.5l4.2,6.4l-3.3,2.2
		l-5.7-8.6c-1.3-1.9-2.4-3.5-3.4-4.9L234.4,161.4z"/>
	<path class="st2" d="M258.2,147.4l3.3-1.8l6.7,12.6c1.4,2.6,1.8,4.8,1.4,6.8c-0.4,1.9-1.9,3.5-4.3,4.8c-1.6,0.8-3.4,1.3-5.3,1.5
		l-1.4-3.4c0.9,0,1.8-0.1,2.6-0.2s1.5-0.4,2.2-0.8c0.8-0.4,1.4-1,1.9-1.7c0.5-0.7,0.7-1.5,0.6-2.3c0-0.6-0.2-1.1-0.4-1.7
		s-0.6-1.4-1.2-2.4c0,1.1-0.2,2.1-0.8,3.1c-0.5,0.9-1.3,1.7-2.2,2.2c-1.2,0.6-2.4,0.9-3.6,0.6c-1.2-0.2-2.3-0.8-3.2-1.7
		c-1-0.9-1.8-2-2.5-3.3c-0.7-1.3-1.1-2.6-1.3-3.9c-0.2-1.3-0.1-2.5,0.4-3.6c0.5-1.1,1.3-2,2.6-2.7c1-0.5,2-0.8,2.9-0.7
		c1,0,1.9,0.4,2.8,1L258.2,147.4z M261.7,154.4c-0.3-0.5-0.6-0.9-1-1.4c-0.4-0.4-0.8-0.8-1.3-1.1c-0.5-0.3-1-0.4-1.5-0.4
		c-0.5,0-1.1,0.1-1.6,0.3c-1,0.5-1.5,1.3-1.6,2.4c-0.1,1.1,0.2,2.2,0.8,3.3c0.6,1.1,1.4,2,2.4,2.6c1,0.6,2,0.7,2.9,0.2
		c0.7-0.4,1.2-0.9,1.4-1.6c0.2-0.7,0.3-1.4,0.2-2.2C262.3,155.8,262.1,155.1,261.7,154.4z"/>
	<path class="st2" d="M299.2,143.2l1.4,3.6c-1.5,1-2.9,1.8-4.2,2.2c-1.5,0.5-3,0.8-4.5,0.8c-1.4,0-2.8-0.2-4.1-0.7
		c-1.3-0.5-2.4-1.3-3.4-2.4c-1-1.1-1.8-2.5-2.4-4.2c-0.6-1.7-0.9-3.3-0.9-4.8c0-1.5,0.3-2.9,0.9-4.1c0.6-1.2,1.4-2.3,2.6-3.2
		c1.1-0.9,2.5-1.6,4.1-2.2c1.4-0.5,3.1-0.7,5-0.8l0.9,3.6c-1.5-0.3-3.1-0.2-4.6,0.3c-1.3,0.4-2.3,1.1-3.1,2c-0.8,0.9-1.2,2-1.4,3.2
		c-0.2,1.2,0,2.5,0.5,3.9c0.5,1.4,1.2,2.6,2.1,3.5c0.9,0.9,2,1.5,3.2,1.8c1.2,0.3,2.5,0.2,3.9-0.3
		C296.6,145.1,297.9,144.3,299.2,143.2z"/>
	<path class="st2" d="M316.2,135.1c0.3,1.2,0.4,2.4,0.3,3.5c-0.1,1.1-0.4,2.1-0.9,3c-0.5,0.9-1.2,1.6-2,2.3c-0.8,0.6-1.9,1.1-3,1.4
		c-1.5,0.4-3,0.4-4.3,0c-1.3-0.4-2.5-1.2-3.5-2.3c-1-1.1-1.6-2.5-2.1-4.1c-0.4-1.6-0.5-3.1-0.1-4.5c0.3-1.4,1-2.6,2-3.6
		c1-1,2.2-1.7,3.8-2.1c1.2-0.3,2.3-0.4,3.4-0.2c1.1,0.2,2,0.5,2.9,1.1c0.9,0.6,1.6,1.3,2.2,2.3S315.8,133.9,316.2,135.1z M312.1,136
		c-0.2-0.8-0.6-1.6-1-2.4c-0.5-0.7-1.1-1.3-1.8-1.7c-0.7-0.4-1.5-0.5-2.3-0.2c-0.8,0.2-1.4,0.6-1.9,1.3c-0.4,0.7-0.7,1.4-0.8,2.3
		c-0.1,0.9,0,1.7,0.2,2.5c0.2,0.9,0.6,1.7,1,2.4c0.5,0.7,1.1,1.3,1.8,1.7c0.7,0.4,1.5,0.5,2.4,0.2c0.6-0.2,1.1-0.5,1.5-0.9
		c0.4-0.4,0.7-0.9,0.8-1.5c0.2-0.6,0.2-1.2,0.2-1.8C312.4,137.3,312.3,136.7,312.1,136z"/>
	<path class="st2" d="M322.4,125.5l0.5,2.5c0.9-2.1,2.4-3.3,4.6-3.7c2-0.3,3.5,0.1,4.4,1.2c0.9,1.1,1.6,2.9,2,5.2l1.5,9l-3.9,0.7
		l-1.4-8c-0.2-1.4-0.6-2.5-1.1-3.4c-0.5-0.8-1.3-1.1-2.5-0.9c-1.2,0.2-2,0.9-2.3,2c-0.3,1.1-0.4,2.4-0.1,3.8l1.3,7.6l-3.9,0.7
		l-1.7-10.2c-0.4-2.3-0.8-4.2-1.1-5.8L322.4,125.5z"/>
	<path class="st2" d="M341.9,122.8l0.3,2.6c1.1-2,2.7-3.1,4.9-3.3c2.1-0.2,3.5,0.3,4.3,1.6s1.3,3,1.5,5.3l0.8,9.1l-4,0.3l-0.7-8.1
		c-0.1-1.4-0.4-2.6-0.8-3.4c-0.4-0.9-1.2-1.2-2.4-1.1c-1.2,0.1-2.1,0.7-2.5,1.8c-0.4,1.1-0.6,2.4-0.4,3.8l0.6,7.7l-4,0.3l-0.9-10.3
		c-0.2-2.3-0.4-4.2-0.6-5.9L341.9,122.8z"/>
	<path class="st2" d="M370.2,133.5l0.1,3.6c-1.6,0.8-3.4,1.1-5.3,1.1c-1.3,0-2.4-0.2-3.4-0.6c-1-0.4-1.8-0.9-2.5-1.7
		c-0.7-0.7-1.2-1.6-1.6-2.7c-0.4-1-0.6-2.2-0.6-3.6c0-1.2,0.2-2.4,0.5-3.4c0.3-1,0.8-1.9,1.5-2.7c0.6-0.8,1.4-1.4,2.3-1.8
		c0.9-0.4,2-0.6,3.2-0.7c1.2,0,2.2,0.2,3.1,0.6c0.9,0.4,1.6,1,2.2,1.8c0.6,0.8,1,1.7,1.2,2.7c0.3,1,0.4,2.1,0.4,3.3
		c0,0.2,0,0.4,0,0.5c0,0.1,0,0.2,0,0.4s0,0.3,0,0.6l-10.3,0c0.1,1.3,0.6,2.3,1.4,3c0.8,0.7,1.9,1.1,3.2,1.1
		C366.8,135.2,368.4,134.6,370.2,133.5z M367.5,128.2c0-0.7-0.2-1.4-0.4-2c-0.2-0.6-0.6-1.1-1.1-1.5c-0.5-0.4-1.1-0.6-1.8-0.6
		c-0.7,0-1.3,0.2-1.8,0.6c-0.5,0.4-0.9,0.9-1.2,1.5c-0.3,0.6-0.4,1.3-0.5,2L367.5,128.2z"/>
	<path class="st2" d="M385.4,134.7l0,3.5c-1.4,0.3-2.6,0.5-3.6,0.4c-1.2-0.1-2.2-0.3-3.2-0.8c-1-0.4-1.8-1-2.4-1.8
		c-0.7-0.8-1.1-1.7-1.4-2.7c-0.3-1.1-0.4-2.2-0.3-3.5c0.1-1.6,0.5-3,1.3-4.2c0.7-1.2,1.7-2.1,2.9-2.7c1.2-0.6,2.6-0.9,4.1-0.8
		c1.1,0.1,2.2,0.3,3.3,0.7l-0.5,3.4c-0.9-0.4-1.7-0.7-2.4-0.7c-0.8-0.1-1.6,0.1-2.3,0.5c-0.7,0.4-1.2,0.9-1.6,1.6
		c-0.4,0.7-0.6,1.5-0.7,2.4c-0.1,1.5,0.2,2.7,1,3.6c0.8,0.9,1.8,1.4,3.2,1.5C383.5,135.2,384.4,135.1,385.4,134.7z"/>
	<path class="st2" d="M399.2,136.9l-0.3,3.3c-1,0.1-1.9,0.1-2.7,0c-1.3-0.2-2.3-0.6-3-1.2c-0.7-0.6-1.1-1.4-1.3-2.3
		c-0.2-1-0.2-2.1,0-3.5l0.9-6.7l-2.9-0.4l0.4-3.1l2.9,0.4l0.4-3.3l4.1-0.8l-0.6,4.6l3.5,0.5l-0.4,3.1l-3.5-0.5l-0.8,5.9
		c-0.2,1.2-0.2,2.2,0,2.9c0.2,0.7,0.8,1.1,1.8,1.2C398.2,137,398.6,137,399.2,136.9z"/>
	<path class="st2" d="M406.4,141.8l-3.9-0.7l2.9-16l3.9,0.7L406.4,141.8z M409.9,122.9l-4-0.7l0.7-3.9l4,0.7L409.9,122.9z"/>
	<path class="st2" d="M422.4,141.2l-0.6,3.5c-1.4,0.1-2.6,0-3.6-0.2c-1.1-0.3-2.1-0.7-3-1.3c-0.9-0.6-1.6-1.3-2.1-2.2
		c-0.5-0.9-0.8-1.8-1-2.9c-0.1-1.1,0-2.3,0.3-3.5c0.4-1.6,1-2.9,1.9-3.9c0.9-1.1,2-1.8,3.3-2.2c1.3-0.4,2.7-0.4,4.2-0.1
		c1.1,0.3,2.1,0.7,3.2,1.3l-1.1,3.2c-0.8-0.6-1.6-0.9-2.3-1.1c-0.8-0.2-1.6-0.2-2.3,0.1c-0.7,0.3-1.4,0.7-1.9,1.3
		c-0.5,0.6-0.9,1.4-1.1,2.2c-0.3,1.4-0.2,2.7,0.4,3.7c0.6,1,1.5,1.7,2.9,2C420.5,141.4,421.4,141.4,422.4,141.2z"/>
	<path class="st2" d="M443.8,135l-3,9.4c-0.1,0.4-0.3,1.1-0.6,2c-0.3,0.9-0.5,1.7-0.6,2.2c-0.2,0.6-0.3,1.2-0.5,1.8l-3.6-1.1
		l0.6-2.4c-0.5,0.5-1.1,0.8-1.7,1c-0.6,0.2-1.2,0.4-1.9,0.4c-0.7,0-1.3-0.1-1.9-0.3c-1.4-0.4-2.3-1.1-2.9-1.9
		c-0.6-0.8-0.8-1.8-0.8-2.9c0-1.1,0.3-2.4,0.7-3.8l2.8-8.7l3.8,1.2l-2.4,7.4c-0.3,1-0.5,1.8-0.6,2.5c-0.1,0.7-0.1,1.4,0.2,2
		c0.2,0.6,0.8,1.1,1.6,1.3c1.1,0.4,2.1,0.1,2.9-0.8c0.8-0.9,1.4-2,1.8-3.4l2.3-7.2L443.8,135z"/>
	<path class="st2" d="M452.9,152.2l-1.1,3.1c-1-0.2-1.9-0.4-2.6-0.7c-1.2-0.5-2.1-1.1-2.6-1.8c-0.5-0.8-0.7-1.6-0.7-2.6
		c0.1-1,0.3-2.1,0.8-3.4l2.5-6.3l-2.7-1.1l1.2-2.9l2.7,1.1l1.2-3.1l4.2,0.2l-1.7,4.3l3.3,1.3l-1.2,2.9L453,142l-2.2,5.5
		c-0.5,1.2-0.7,2.1-0.7,2.8c0,0.7,0.5,1.2,1.4,1.6C451.9,152,452.4,152.1,452.9,152.2z"/>
	<path class="st2" d="M485.5,173.3l-3.6-2.2l4.9-8l-7-4.3l-4.9,8l-3.6-2.2l11.4-18.7l3.6,2.2l-4.6,7.6l7,4.3l4.6-7.6l3.6,2.2
		L485.5,173.3z"/>
	<path class="st2" d="M501.9,179.4l-2.1,3c-1.8-0.3-3.4-1-5-2.1c-1-0.7-1.8-1.5-2.4-2.4c-0.6-0.9-0.9-1.8-1.1-2.8s-0.1-2,0.3-3.1
		c0.3-1.1,0.9-2.1,1.6-3.2c0.7-1,1.5-1.8,2.4-2.5c0.9-0.7,1.8-1.1,2.8-1.4c1-0.3,1.9-0.3,3-0.1s2,0.6,3,1.3c0.9,0.7,1.6,1.4,2.1,2.3
		c0.5,0.9,0.7,1.8,0.7,2.7c0,0.9-0.2,1.9-0.5,2.9c-0.4,1-0.9,2-1.6,2.9c-0.1,0.2-0.2,0.3-0.3,0.4c-0.1,0.1-0.2,0.2-0.3,0.3
		c-0.1,0.1-0.2,0.3-0.4,0.4l-8.4-6c-0.7,1.1-0.9,2.2-0.6,3.3c0.3,1.1,0.9,2,1.9,2.7C498.2,178.8,499.9,179.3,501.9,179.4z
		 M502.8,173.5c0.4-0.6,0.7-1.2,0.9-1.8c0.2-0.6,0.2-1.2,0-1.8c-0.2-0.6-0.5-1.1-1.1-1.5c-0.6-0.4-1.2-0.6-1.8-0.6s-1.2,0.2-1.8,0.5
		c-0.6,0.3-1.1,0.8-1.6,1.3L502.8,173.5z"/>
	<path class="st2" d="M512.9,193.8l-2.7-2.3l1.5-1.9c-0.9,0.4-1.9,0.4-2.8,0.3c-1-0.2-1.8-0.6-2.6-1.2c-0.8-0.7-1.4-1.4-1.8-2.2
		c-0.4-0.8-0.5-1.6-0.4-2.5c0.1-0.9,0.5-1.7,1.2-2.6c1.3-1.6,2.8-2.1,4.4-1.8c1.6,0.4,3.3,1.3,5,2.7c0.2,0.2,0.4,0.3,0.5,0.4
		c0.1,0.1,0.2,0.2,0.4,0.4c0.2,0.2,0.5,0.4,0.7,0.7c0.8-0.9,1.1-1.8,1.1-2.6s-0.5-1.6-1.4-2.3c-1.4-1.1-3-1.7-4.8-1.7l2.2-2.9
		c1.7,0.5,3.3,1.3,4.8,2.6c0.6,0.5,1.1,1,1.5,1.5c0.5,0.6,0.8,1.2,1,1.8c0.2,0.7,0.3,1.3,0.3,2c-0.1,0.7-0.3,1.4-0.7,2
		c-0.4,0.7-0.9,1.4-1.5,2.2c-0.7,0.8-1.4,1.6-2,2.5c-0.7,0.8-1.3,1.6-1.8,2.3C514.4,191.8,513.7,192.7,512.9,193.8z M514.7,185.8
		c-0.1-0.1-0.2-0.2-0.3-0.3l-0.4-0.3c-0.7-0.6-1.3-1-1.9-1.4c-0.6-0.4-1.3-0.6-2-0.6c-0.7,0-1.3,0.3-1.8,0.9c-0.4,0.5-0.5,1-0.4,1.6
		s0.4,1.1,0.9,1.5c0.9,0.8,1.9,1,3,0.7S513.9,186.8,514.7,185.8z"/>
	<path class="st2" d="M518.8,199.4l-2.9-2.7l16.1-17.3l2.9,2.7L518.8,199.4z"/>
	<path class="st2" d="M530.5,206.1l-2.2,2.4c-0.9-0.6-1.6-1.1-2.1-1.7c-0.9-0.9-1.5-1.8-1.6-2.7c-0.2-0.9,0-1.8,0.4-2.6
		c0.5-0.9,1.2-1.8,2.1-2.7l4.8-4.8l-2-2.1l2.2-2.2l2.1,2.1l2.4-2.3l3.8,1.9l-3.3,3.3l2.5,2.5l-2.2,2.2l-2.5-2.5l-4.2,4.1
		c-0.9,0.9-1.5,1.6-1.8,2.3s-0.1,1.3,0.6,2C529.6,205.6,530,205.9,530.5,206.1z"/>
	<path class="st2" d="M539.4,221.6l-2.6-3l6-5.1c1.2-1,2-1.9,2.5-2.8c0.5-0.8,0.4-1.7-0.4-2.6c-0.8-1-1.8-1.3-3-1
		c-1.2,0.3-2.3,1-3.5,1.9l-0.6,0.5l-5.1,4.3l-2.6-3l17.9-15.4l2.6,3l-7.4,6.3c1-0.1,2,0,2.8,0.3c0.9,0.3,1.6,0.9,2.3,1.7
		c0.7,0.8,1.1,1.6,1.3,2.4c0.2,0.8,0.2,1.5-0.1,2.2c-0.2,0.7-0.6,1.4-1.2,2c-0.5,0.7-1.2,1.4-2.1,2.1L539.4,221.6z"/>
	<path class="st2" d="M536.3,228l2.7-1.6c0.2,0.6,0.4,1.1,0.7,1.6c0.5,0.7,1,1,1.7,1.1c0.7,0.1,1.4,0,2.4-0.2l10.2-15l2.6,3.6
		l-6.1,8.4c-0.1,0.2-0.3,0.4-0.6,0.8c-0.2,0.3-0.5,0.7-0.8,1.1c0.6-0.2,1.1-0.4,1.5-0.6s0.8-0.3,1.1-0.4l9.4-3.1l2.4,3.3l-17.6,5.3
		c-1.3,0.4-2.4,0.6-3.3,0.7c-0.9,0.1-1.8,0-2.6-0.4c-0.8-0.3-1.6-0.9-2.2-1.8C537.2,229.9,536.7,229.1,536.3,228z"/>
</g>
</svg>
