<?xml version="1.0" encoding="UTF-8" standalone="no"?>
<svg
   xmlns:dc="http://purl.org/dc/elements/1.1/"
   xmlns:cc="http://creativecommons.org/ns#"
   xmlns:rdf="http://www.w3.org/1999/02/22-rdf-syntax-ns#"
   xmlns:svg="http://www.w3.org/2000/svg"
   xmlns="http://www.w3.org/2000/svg"
   viewBox="0 0 251.64 169.50667"
   height="169.50667"
   width="251.64"
   xml:space="preserve"
   id="svg2"
   version="1.1"><metadata
     id="metadata8"><rdf:RDF><cc:Work
         rdf:about=""><dc:format>image/svg+xml</dc:format><dc:type
           rdf:resource="http://purl.org/dc/dcmitype/StillImage" /></cc:Work></rdf:RDF></metadata><defs
     id="defs6" /><g
     transform="matrix(1.3333333,0,0,-1.3333333,0,169.50667)"
     id="g10"><g
       transform="scale(0.1)"
       id="g12"><path
         id="path14"
         style="fill:#ffffff;fill-opacity:1;fill-rule:nonzero;stroke:none"
         d="M 254.609,704.25 474.855,485.301 c 36.114,-36.098 66.954,-60.703 92.5,-73.774 25.543,-13.082 51.102,-20.464 76.637,-22.246 V 372.992 H 359.883 v 16.289 c 17.019,0 29.297,2.856 36.789,8.598 7.488,5.723 11.226,12.109 11.226,19.156 0,7.055 -1.394,13.363 -4.187,18.949 -2.805,5.567 -11.965,15.996 -27.527,31.27 L 170.027,671.203 V 478.719 c 0,-30.254 1.907,-50.235 5.735,-59.922 2.922,-7.348 9.093,-13.652 18.496,-18.93 12.617,-7.066 25.996,-10.586 40.09,-10.586 h 20.261 V 372.992 H 0 v 16.289 h 21.1328 c 24.6758,0 42.5781,7.192 53.75,21.606 7.0625,9.375 10.5664,31.972 10.5664,67.832 V 864.57 c 0,30.246 -1.8945,50.364 -5.7226,60.352 -2.9493,7.051 -8.9532,13.215 -18.0586,18.496 -12.9297,7.043 -26.4141,10.578 -40.5352,10.578 H 0 v 16.297 h 254.609 v -16.297 h -20.261 c -13.813,0 -27.168,-3.371 -40.09,-10.148 -9.113,-4.676 -15.418,-11.746 -18.938,-21.133 -3.535,-9.402 -5.293,-28.777 -5.293,-58.145 v -182.8 c 5.871,5.566 25.996,24.218 60.356,55.945 87.222,79.855 139.93,133.164 158.133,159.894 7.937,11.739 11.906,22.032 11.906,30.821 0,6.777 -3.109,12.703 -9.262,17.859 -6.172,5.129 -16.59,7.707 -31.277,7.707 h -13.66 v 16.297 h 219.363 v -16.297 c -12.918,-0.293 -24.668,-2.062 -35.227,-5.285 -10.574,-3.231 -23.504,-9.461 -38.765,-18.719 -15.285,-9.258 -34.074,-24.16 -56.391,-44.699 -6.465,-5.879 -36.277,-35.996 -89.41,-90.313 l -91.184,-90.73" /><path
         id="path16"
         style="fill:#ffffff;fill-opacity:1;fill-rule:nonzero;stroke:none"
         d="m 691.105,508.133 v 110.43 c -31.847,-12.661 -52.421,-21.622 -61.703,-26.915 -16.66,-9.281 -28.582,-18.964 -35.75,-29.101 -7.168,-10.117 -10.754,-21.192 -10.754,-33.227 0,-15.172 4.536,-27.769 13.606,-37.793 9.062,-10.015 19.504,-15.015 31.328,-15.015 16.023,0 37.117,10.523 63.273,31.621 z m 0,-20.567 c -29.75,-22.992 -48.41,-36.289 -56.007,-39.867 -11.387,-5.269 -23.528,-7.91 -36.375,-7.91 -20.051,0 -36.543,6.84 -49.535,20.57 -12.95,13.711 -19.442,31.739 -19.442,54.121 0,14.122 3.176,26.329 9.492,36.676 8.645,14.336 23.672,27.856 45.078,40.492 21.414,12.672 57,28.047 106.789,46.211 v 11.383 c 0,28.883 -4.601,48.707 -13.761,59.461 -9.18,10.762 -22.531,16.152 -40.031,16.152 -13.282,0 -23.836,-3.605 -31.629,-10.753 -8.016,-7.176 -12.032,-15.418 -12.032,-24.707 l 0.645,-18.321 c 0,-9.715 -2.481,-17.203 -7.449,-22.472 -4.953,-5.278 -11.426,-7.911 -19.453,-7.911 -7.805,0 -14.192,2.735 -19.141,8.219 -4.961,5.492 -7.441,12.977 -7.441,22.469 0,18.152 9.285,34.812 27.871,50 18.535,15.184 44.597,22.773 78.125,22.773 25.718,0 46.812,-4.336 63.257,-12.988 12.454,-6.543 21.633,-16.758 27.539,-30.684 3.801,-9.074 5.696,-27.636 5.696,-55.667 V 546.41 c 0,-27.633 0.539,-44.547 1.582,-50.758 1.055,-6.23 2.793,-10.39 5.234,-12.5 2.41,-2.129 5.203,-3.164 8.379,-3.164 3.367,0 6.328,0.723 8.848,2.207 4.433,2.735 12.976,10.45 25.617,23.082 v -17.711 c -23.613,-31.621 -46.184,-47.461 -67.695,-47.461 -10.332,0 -18.555,3.59 -24.668,10.758 -6.125,7.168 -9.289,19.414 -9.493,36.703" /><path
         id="path18"
         style="fill:#ffffff;fill-opacity:1;fill-rule:nonzero;stroke:none"
         d="m 898.953,682.785 c 33.945,40.906 66.34,61.367 97.141,61.367 15.786,0 29.416,-3.957 40.786,-11.886 11.42,-7.879 20.47,-20.926 27.23,-39.063 4.62,-12.644 6.95,-32.051 6.95,-58.195 V 511.297 c 0,-18.344 1.5,-30.805 4.44,-37.324 2.31,-5.278 6.07,-9.399 11.24,-12.344 5.17,-2.973 14.71,-4.434 28.63,-4.434 V 445.809 H 972.051 v 11.386 h 6.015 c 13.477,0 22.914,2.071 28.304,6.168 5.37,4.125 9.12,10.176 11.23,18.188 0.84,3.183 1.27,13.086 1.27,29.746 V 629.93 c 0,26.367 -3.42,45.519 -10.29,57.425 -6.83,11.922 -18.404,17.879 -34.635,17.879 -25.129,0 -50.117,-13.711 -74.992,-41.132 V 511.297 c 0,-19.609 1.164,-31.738 3.481,-36.391 2.949,-6.09 7,-10.601 12.156,-13.433 5.176,-2.856 15.691,-4.278 31.496,-4.278 V 445.809 H 802.773 v 11.386 h 6.336 c 14.758,0 24.719,3.75 29.895,11.231 5.168,7.476 7.754,21.773 7.754,42.871 v 107.558 c 0,34.825 -0.801,56 -2.371,63.598 -1.606,7.586 -4.028,12.762 -7.278,15.496 -3.281,2.746 -7.656,4.114 -13.125,4.114 -5.918,0 -12.976,-1.583 -21.211,-4.727 l -4.738,11.367 87.309,35.449 h 13.609 v -61.367" /><path
         id="path20"
         style="fill:#ffffff;fill-opacity:1;fill-rule:nonzero;stroke:none"
         d="m 1325.75,744.152 v -98.714 h -10.44 c -8.02,31.007 -18.29,52.101 -30.86,63.265 -12.56,11.18 -28.5,16.777 -47.9,16.777 -14.76,0 -26.7,-3.898 -35.77,-11.71 -9.07,-7.801 -13.59,-16.434 -13.59,-25.926 0,-11.817 3.36,-21.953 10.11,-30.383 6.54,-8.645 19.82,-17.824 39.88,-27.531 l 46.17,-22.461 c 42.8,-20.879 64.23,-48.399 64.23,-82.563 0,-26.367 -9.98,-47.617 -29.87,-63.75 -19.96,-16.129 -42.27,-24.195 -66.94,-24.195 -17.71,0 -37.96,3.144 -60.75,9.488 -6.96,2.09 -12.63,3.149 -17.1,3.149 -4.82,0 -8.65,-2.735 -11.39,-8.203 h -10.42 v 103.433 h 10.42 c 5.94,-29.527 17.21,-51.773 33.88,-66.773 16.64,-14.942 35.33,-22.442 56.01,-22.442 14.55,0 26.39,4.278 35.56,12.813 9.2,8.554 13.76,18.847 13.76,30.855 0,14.535 -5.11,26.782 -15.32,36.703 -10.24,9.903 -30.64,22.461 -61.22,37.633 -30.6,15.199 -50.64,28.891 -60.13,41.137 -9.47,12.027 -14.21,27.203 -14.21,45.57 0,23.828 8.18,43.739 24.53,59.785 16.33,16.024 37.48,24.043 63.41,24.043 11.39,0 25.21,-2.433 41.44,-7.277 10.74,-3.164 17.93,-4.746 21.5,-4.746 3.41,0 6.02,0.734 7.93,2.207 1.9,1.477 4.08,4.746 6.64,9.816 h 10.44" /><path
         id="path22"
         style="fill:#ffffff;fill-opacity:1;fill-rule:nonzero;stroke:none"
         d="m 1554.8,508.133 v 110.43 c -31.84,-12.661 -52.42,-21.622 -61.67,-26.915 -16.68,-9.281 -28.61,-18.964 -35.75,-29.101 -7.18,-10.117 -10.76,-21.192 -10.76,-33.227 0,-15.172 4.52,-27.769 13.58,-37.793 9.07,-10.015 19.53,-15.015 31.33,-15.015 16.02,0 37.1,10.523 63.27,31.621 z m 0,-20.567 c -29.75,-22.992 -48.39,-36.289 -56,-39.867 -11.39,-5.269 -23.52,-7.91 -36.37,-7.91 -20.04,0 -36.55,6.84 -49.53,20.57 -12.94,13.711 -19.43,31.739 -19.43,54.121 0,14.122 3.15,26.329 9.49,36.676 8.61,14.336 23.68,27.856 45.07,40.492 21.42,12.672 56.99,28.047 106.77,46.211 v 11.383 c 0,28.883 -4.58,48.707 -13.76,59.461 -9.15,10.762 -22.52,16.152 -40.02,16.152 -13.27,0 -23.84,-3.605 -31.64,-10.753 -8.02,-7.176 -12,-15.418 -12,-24.707 l 0.62,-18.321 c 0,-9.715 -2.49,-17.203 -7.46,-22.472 -4.95,-5.278 -11.45,-7.911 -19.44,-7.911 -7.8,0 -14.18,2.735 -19.13,8.219 -4.97,5.492 -7.44,12.977 -7.44,22.469 0,18.152 9.28,34.812 27.84,50 18.57,15.184 44.62,22.773 78.16,22.773 25.71,0 46.79,-4.336 63.27,-12.988 12.43,-6.543 21.6,-16.758 27.52,-30.684 3.78,-9.074 5.67,-27.636 5.67,-55.667 V 546.41 c 0,-27.633 0.54,-44.547 1.59,-50.758 1.07,-6.23 2.8,-10.39 5.23,-12.5 2.41,-2.129 5.21,-3.164 8.39,-3.164 3.36,0 6.32,0.723 8.87,2.207 4.41,2.735 12.93,10.45 25.61,23.082 v -17.711 c -23.63,-31.621 -46.21,-47.461 -67.72,-47.461 -10.34,0 -18.56,3.59 -24.65,10.758 -6.15,7.168 -9.28,19.414 -9.51,36.703" /><path
         id="path24"
         style="fill:#ffffff;fill-opacity:1;fill-rule:nonzero;stroke:none"
         d="m 1865.48,744.152 v -98.714 h -10.44 c -8.01,31.007 -18.29,52.101 -30.84,63.265 -12.56,11.18 -28.51,16.777 -47.94,16.777 -14.77,0 -26.68,-3.898 -35.75,-11.71 -9.07,-7.801 -13.61,-16.434 -13.61,-25.926 0,-11.817 3.37,-21.953 10.13,-30.383 6.55,-8.645 19.84,-17.824 39.87,-27.531 l 46.17,-22.461 c 42.83,-20.879 64.25,-48.399 64.25,-82.563 0,-26.367 -9.98,-47.617 -29.91,-63.75 -19.94,-16.129 -42.22,-24.195 -66.89,-24.195 -17.75,0 -37.98,3.144 -60.75,9.488 -6.99,2.09 -12.66,3.149 -17.1,3.149 -4.85,0 -8.66,-2.735 -11.39,-8.203 h -10.42 v 103.433 h 10.42 c 5.92,-29.527 17.18,-51.773 33.86,-66.773 16.64,-14.942 35.34,-22.442 56,-22.442 14.54,0 26.42,4.278 35.57,12.813 9.2,8.554 13.76,18.847 13.76,30.855 0,14.535 -5.09,26.782 -15.3,36.703 -10.27,9.903 -30.67,22.461 -61.24,37.633 -30.6,15.199 -50.64,28.891 -60.13,41.137 -9.46,12.027 -14.21,27.203 -14.21,45.57 0,23.828 8.17,43.739 24.5,59.785 16.36,16.024 37.48,24.043 63.43,24.043 11.39,0 25.21,-2.433 41.44,-7.277 10.75,-3.164 17.93,-4.746 21.51,-4.746 3.4,0 6.01,0.734 7.93,2.207 1.91,1.477 4.1,4.746 6.64,9.816 h 10.44" /><g
         transform="scale(10)"
         id="g26"><text
           id="text32"
           style="font-variant:normal;font-weight:normal;font-size:16.92140007px;font-family:TimesNewRomanPSMT;-inkscape-font-specification:TimesNewRomanPSMT;writing-mode:lr-tb;fill:#ffffff;fill-opacity:1;fill-rule:nonzero;stroke:none"
           transform="matrix(1,0,0,-1,20.5938,22.1879)"><tspan
             id="tspan28"
             y="0"
             x="0 12.220199 19.73045 28.191151 35.701401 41.336227 46.037888 59.19949 66.710228 75.170929 79.872093 84.10244 92.563141 98.197968 102.42832 114.64801 122.15876 129.66951 134.37067 139.07184">Department of Health</tspan><tspan
             id="tspan30"
             y="17"
             x="15.2609 22.771639 31.23234 39.693039 43.923389 54.259789 62.72049 71.18119 75.882355 81.517181 89.977882 98.438583 111.59968 119.11043 127.57113">and Environment</tspan></text>
</g><path
         id="path34"
         style="fill:#ffffff;fill-opacity:1;fill-rule:nonzero;stroke:none"
         d="m 668.27,796.027 c 15.253,42.637 34.882,83.172 58.39,121.063 H 612.371 c -19.742,-38.524 -36.187,-79.004 -49.004,-121.063 0,0 32.199,7.246 77.961,53.016 0,0 20.945,-22.012 26.942,-53.016" /><path
         id="path36"
         style="fill:none;stroke:#ffffff;stroke-width:3.75;stroke-linecap:round;stroke-linejoin:round;stroke-miterlimit:10;stroke-dasharray:none;stroke-opacity:1"
         d="m 668.27,796.027 c 15.253,42.637 34.882,83.172 58.39,121.063 H 612.371 c -19.742,-38.524 -36.187,-79.004 -49.004,-121.063 0,0 32.199,7.246 77.961,53.016 0,0 20.945,-22.012 26.942,-53.016 z" /><path
         id="path38"
         style="fill:#918f90;fill-opacity:1;fill-rule:nonzero;stroke:none"
         d="M 677.219,887.668 726.66,917.09 H 612.371 l -14.258,-29.422 h 79.106" /><path
         id="path40"
         style="fill:none;stroke:#918f90;stroke-width:3.75;stroke-linecap:round;stroke-linejoin:round;stroke-miterlimit:10;stroke-dasharray:none;stroke-opacity:1"
         d="M 677.219,887.668 726.66,917.09 H 612.371 l -14.258,-29.422 z" /><path
         id="path42"
         style="fill:#ffffff;fill-opacity:1;fill-rule:nonzero;stroke:none"
         d="m 1747.61,796.027 c -15.29,42.637 -34.92,83.172 -58.42,121.063 h 114.31 c 19.73,-38.524 36.17,-79.004 49,-121.063 0,0 -32.21,7.246 -77.97,53.016 0,0 -20.95,-22.012 -26.92,-53.016" /><path
         id="path44"
         style="fill:none;stroke:#ffffff;stroke-width:3.75;stroke-linecap:round;stroke-linejoin:round;stroke-miterlimit:10;stroke-dasharray:none;stroke-opacity:1"
         d="m 1747.61,796.027 c -15.29,42.637 -34.92,83.172 -58.42,121.063 h 114.31 c 19.73,-38.524 36.17,-79.004 49,-121.063 0,0 -32.21,7.246 -77.97,53.016 0,0 -20.95,-22.012 -26.92,-53.016 z" /><path
         id="path46"
         style="fill:#918f90;fill-opacity:1;fill-rule:nonzero;stroke:none"
         d="m 1738.61,887.668 -49.42,29.422 h 114.31 l 14.25,-29.422 h -79.14" /><path
         id="path48"
         style="fill:none;stroke:#918f90;stroke-width:3.75;stroke-linecap:round;stroke-linejoin:round;stroke-miterlimit:10;stroke-dasharray:none;stroke-opacity:1"
         d="m 1738.61,887.668 -49.42,29.422 h 114.31 l 14.25,-29.422 z" /><path
         id="path50"
         style="fill:#ffffff;fill-opacity:1;fill-rule:nonzero;stroke:none"
         d="m 1208.35,1269.43 c -278.846,0 -521.592,-154.29 -647.674,-382.133 h 116.543 c 115.027,170.493 310,282.623 531.131,282.623 221.17,0 416.1,-112.13 531.15,-282.623 h 116.54 C 1729.97,1115.14 1487.2,1269.43 1208.35,1269.43" /><path
         id="path52"
         style="fill:none;stroke:#ffffff;stroke-width:3.75;stroke-linecap:round;stroke-linejoin:round;stroke-miterlimit:10;stroke-dasharray:none;stroke-opacity:1"
         d="m 1208.35,1269.43 c -278.846,0 -521.592,-154.29 -647.674,-382.133 h 116.543 c 115.027,170.493 310,282.623 531.131,282.623 221.17,0 416.1,-112.13 531.15,-282.623 h 116.54 C 1729.97,1115.14 1487.2,1269.43 1208.35,1269.43" /><path
         id="path54"
         style="fill:#231f20;fill-opacity:1;fill-rule:nonzero;stroke:none"
         d="m 734.805,1017.41 c 1.496,1.51 1.621,2.04 -0.617,3.2 l -7.02,3.54 c -3.738,1.86 -8.469,4.17 -10.438,4.95 0.997,-2.03 3.258,-6.84 5.321,-10.82 l 3.32,-6.51 c 1.192,-2.34 1.719,-2.21 3.34,-0.56 z m -3.899,-10.95 c -1.558,-1.58 -1.687,-1.85 -0.816,-3.48 l 5.113,-10.089 c 0.93,-1.696 1.391,-2.278 1.914,-2.797 0.403,-0.387 1.645,0.078 3.781,1.601 l 2.278,1.657 c 0.847,-0.059 2.5,-1.422 2.176,-2.403 -2.403,-2.179 -4.739,-4.551 -7.52,-7.258 -2.207,-2.242 -3.508,-3.949 -6.484,-6.98 -1.114,-0.34 -2.43,1.09 -2.5,2.07 l 1.55,1.973 c 1.36,1.777 2.129,3.613 0.657,7.266 -1.535,3.714 -3.465,8.082 -6.453,14.53 l -10.188,21.82 c -2.668,5.6 -3.867,8.99 -5.976,10.68 2.39,3.87 1.562,9.49 1.691,9.62 0.84,0.86 1.559,0.93 2.809,0.22 2.433,-1.35 5.648,-2.96 11.945,-5.92 l 34.668,-16.45 c 5.312,-2.51 7.414,-3.41 10.207,-1.36 l 2.859,2.11 c 0.723,0.08 2.434,-1.35 2.246,-2.32 -3.254,-3.04 -6.816,-6.53 -10.183,-9.96 -3.242,-3.29 -5.715,-5.93 -8.559,-9.1 -1.109,-0.34 -2.625,0.9 -2.437,2.13 l 1.746,2.44 c 1.218,1.78 1.023,2.5 0.625,2.88 -0.457,0.46 -2.492,1.55 -5.711,3.16 l -7.422,3.8 c -1.379,0.7 -2.031,0.31 -4.301,-2 l -7.715,-7.84" /><path
         id="path56"
         style="fill:#231f20;fill-opacity:1;fill-rule:nonzero;stroke:none"
         d="m 783.887,1050.76 c 3.215,-3.94 5.461,-6.4 7.976,-6.86 2.461,-0.38 5.071,0.67 7.649,2.77 12.414,10.11 7.644,24.61 -0.301,34.36 -10.527,12.91 -23.598,15.03 -36.574,4.45 -1.934,-1.58 -3.008,-3.05 -2.969,-3.97 0.039,-0.92 1.074,-2.35 2.891,-4.57 z m -28.782,14.38 c -5.554,6.81 -6.804,8.06 -10.398,5.73 l -1.477,-0.97 c -1.011,-0.22 -2.703,1.86 -1.902,2.63 5.735,5.27 11.094,10.11 18.692,16.31 5.886,4.79 12.238,9.01 18.64,11.25 12.141,4.29 24.199,0.03 31.508,-8.94 7.828,-9.61 9.551,-21.09 4.637,-31.9 -2.891,-6.41 -8.008,-12.14 -15.403,-18.16 -3.367,-2.74 -7.3,-5.23 -9.882,-7.34 -3.446,-2.8 -7.04,-5.85 -11.012,-9.33 -0.93,-0.04 -2.324,1.69 -2.043,2.51 l 1.926,2.17 c 2.82,3.13 2.781,4.06 -2.598,10.65 l -20.688,25.39" /><path
         id="path58"
         style="fill:#231f20;fill-opacity:1;fill-rule:nonzero;stroke:none"
         d="m 871.621,1124.09 c 1.836,1.08 2.09,1.55 0.234,3.25 l -5.878,5.23 c -3.133,2.76 -7.11,6.22 -8.809,7.47 0.437,-2.21 1.387,-7.45 2.352,-11.82 l 1.535,-7.15 c 0.547,-2.57 1.093,-2.58 3.078,-1.4 z m -6.594,-9.58 c -1.902,-1.13 -2.097,-1.35 -1.687,-3.15 l 2.351,-11.07 c 0.461,-1.88 0.754,-2.56 1.133,-3.19 0.285,-0.48 1.606,-0.35 4.067,0.57 l 2.625,1.01 c 0.8,-0.28 2.043,-2.02 1.484,-2.88 -2.883,-1.49 -5.754,-3.18 -9.141,-5.08 -2.714,-1.59 -4.406,-2.91 -8.066,-5.08 -1.152,-0.03 -2.063,1.68 -1.887,2.65 l 2.016,1.51 c 1.766,1.37 2.984,2.95 2.508,6.85 -0.528,3.99 -1.27,8.7 -2.5,15.71 l -4.219,23.71 c -1.133,6.09 -1.426,9.68 -3.027,11.85 3.308,3.13 3.957,8.78 4.113,8.87 1.031,0.61 1.746,0.49 2.769,-0.51 2.004,-1.94 4.7,-4.32 10.024,-8.8 l 29.258,-24.83 c 4.492,-3.79 6.289,-5.2 9.519,-3.94 l 3.313,1.31 c 0.711,-0.12 2,-1.94 1.558,-2.84 -3.914,-2.09 -8.258,-4.56 -12.41,-7 -3.973,-2.35 -7.043,-4.26 -10.605,-6.58 -1.16,-0.04 -2.305,1.54 -1.805,2.69 l 2.312,1.91 c 1.641,1.4 1.629,2.14 1.348,2.62 -0.32,0.55 -2.012,2.13 -4.707,4.52 l -6.191,5.58 c -1.153,1.04 -1.883,0.82 -4.668,-0.82 l -9.485,-5.59" /><path
         id="path60"
         style="fill:#231f20;fill-opacity:1;fill-rule:nonzero;stroke:none"
         d="m 932.715,1125.79 c -7.676,-3.65 -13.469,-3.75 -15.695,-3.58 -2.457,1.09 -6.407,6.58 -9.098,12.25 0.066,1.36 1.949,2.36 3.055,1.76 4.25,-4.63 13.488,-9.65 20.586,-6.28 6.171,2.94 6.984,8.54 5,12.72 -3.211,6.75 -11.458,7.75 -17.657,7.87 -7.441,0.15 -16.418,2.02 -20.343,10.29 -4.559,9.39 -0.309,19.39 11.789,25.14 2.753,1.31 6.336,2.61 10.156,3.19 1.238,0.18 2.07,0.37 3.152,0.68 1.535,-1.52 4.516,-5.63 7.168,-11.22 0.063,-1.2 -1.98,-2.27 -3.133,-1.8 -3.437,3.59 -9.922,7.97 -15.937,5.12 -5.508,-2.62 -6.809,-7.64 -4.824,-11.81 1.828,-3.84 6.914,-5.72 12.121,-5.91 l 6.902,-0.3 c 6.477,-0.3 15.371,-2 19.734,-11.18 4.883,-10.27 -0.371,-20.95 -12.976,-26.94" /><path
         id="path62"
         style="fill:#231f20;fill-opacity:1;fill-rule:nonzero;stroke:none"
         d="m 962.938,1199.23 c -0.77,2.09 -0.934,2.52 -3.016,1.76 l -5.379,-1.99 c -6.34,-2.34 -6.887,-6.48 -7.148,-13.79 -0.852,-0.9 -2.559,-1.33 -3.5,-0.4 -0.387,6.67 -1.942,12.21 -2.586,15.82 0.254,0.39 0.625,0.72 1.054,0.88 0.442,0.16 0.907,0.24 1.348,0.1 0.977,-1.32 1.367,-1.56 7.969,0.87 l 32.297,11.92 c 5.73,2.12 7,2.68 7.109,4.8 0.281,0.3 0.508,0.48 1.031,0.67 0.52,0.2 1.25,0.07 1.528,-0.13 0.222,-3.27 2.207,-10.53 4.207,-15.41 -0.149,-0.94 -2.422,-1.98 -3.118,-1.45 -3.523,5.02 -6.25,8.65 -12.761,6.24 l -5.203,-1.92 c -2.09,-0.77 -2.25,-1.13 -1.418,-3.38 l 14.128,-38.29 c 2.981,-8.07 3.762,-8.58 7.856,-7.66 l 3.644,0.85 c 0.79,-0.29 1.53,-2.29 1.11,-3.04 -5.703,-1.9 -10.078,-3.42 -13.985,-4.86 -4.167,-1.54 -8.652,-3.29 -14.667,-5.71 -0.879,0.26 -1.622,2.26 -1.114,3.03 l 3.739,1.89 c 3.75,1.87 3.988,2.84 1.007,10.92 l -14.132,38.28" /><path
         id="path64"
         style="fill:#231f20;fill-opacity:1;fill-rule:nonzero;stroke:none"
         d="m 1033.68,1201.3 c 0.8,-3.14 1.14,-3.34 6.43,-1.98 3.22,0.83 4.9,2.13 6.16,4.27 1.13,1.91 2.1,5.21 0.74,10.5 -2.08,8.06 -8.16,12.03 -15.14,10.23 -3.68,-0.94 -3.79,-1.26 -2.68,-5.55 z m -15.19,8.22 c -2.31,8.96 -2.75,9.89 -6.64,9.46 l -2.51,-0.26 c -1.02,0.22 -1.6,2.46 -0.63,3.18 6.6,2.18 13.5,4.33 22,6.52 7.62,1.96 14.46,2.48 18.39,1.29 5.98,-1.71 9.82,-5.5 11.29,-11.23 2.05,-7.96 -2.45,-12.75 -6.03,-15.87 -0.79,-0.68 -0.65,-1.22 0.05,-2.09 9,-10.48 14.4,-16.25 19.64,-18.82 2.82,-1.28 5.29,-1.22 6.65,-0.97 0.92,-0.23 1.27,-1.58 0.96,-2.23 -1.27,-1 -4.09,-1.91 -6.87,-2.62 -8.24,-2.13 -14.19,-0.51 -19.8,4.93 -4.08,4.01 -7.28,7.87 -10.56,12.08 -1.69,2.15 -3.31,2.49 -5.54,1.91 -3.14,-0.8 -3.27,-1.02 -2.82,-2.82 l 2.84,-11.01 c 2.12,-8.24 2.82,-8.73 7.04,-8.41 l 2.53,0.17 c 0.74,-0.28 1.3,-2.43 0.81,-3.13 -4.8,-1.05 -8.94,-2.01 -13.25,-3.12 -4.47,-1.15 -8.39,-2.25 -13,-3.63 -0.85,0.35 -1.41,2.5 -0.8,3.13 l 2.3,1.07 c 3.84,1.75 4.22,2.52 2.1,10.76 l -8.15,31.71" /><path
         id="path66"
         style="fill:#231f20;fill-opacity:1;fill-rule:nonzero;stroke:none"
         d="m 1112.29,1208.79 c 2.11,0.31 2.52,0.65 1.45,2.92 l -3.47,7.07 c -1.86,3.75 -4.23,8.45 -5.34,10.25 -0.42,-2.21 -1.53,-7.43 -2.28,-11.83 l -1.28,-7.21 c -0.47,-2.59 0.03,-2.8 2.32,-2.46 z m -9.72,-6.39 c -2.2,-0.32 -2.46,-0.45 -2.76,-2.27 l -2.01,-11.15 c -0.28,-1.9 -0.26,-2.65 -0.15,-3.38 0.07,-0.55 1.34,-0.92 3.98,-1.01 l 2.81,-0.05 c 0.65,-0.56 1.14,-2.65 0.29,-3.24 -3.24,-0.28 -6.53,-0.76 -10.38,-1.24 -3.12,-0.45 -5.19,-1.04 -9.4,-1.65 -1.08,0.39 -1.28,2.33 -0.74,3.16 l 2.43,0.64 c 2.16,0.59 3.88,1.59 4.91,5.4 1.03,3.89 2.12,8.53 3.63,15.49 l 5.04,23.56 c 1.26,6.07 2.36,9.51 1.69,12.12 4.24,1.65 6.98,6.64 7.16,6.66 1.19,0.18 1.81,-0.2 2.38,-1.52 1.12,-2.54 2.71,-5.78 5.95,-11.94 l 17.72,-34.06 c 2.73,-5.21 3.86,-7.2 7.33,-7.25 l 3.56,-0.04 c 0.61,-0.38 1.12,-2.54 0.38,-3.22 -4.43,-0.46 -9.39,-1.09 -14.14,-1.79 -4.58,-0.67 -8.14,-1.28 -12.33,-2.08 -1.08,0.4 -1.54,2.29 -0.64,3.17 l 2.86,0.89 c 2.05,0.67 2.32,1.36 2.24,1.92 -0.09,0.64 -1.06,2.74 -2.65,5.97 l -3.62,7.51 c -0.68,1.39 -1.44,1.47 -4.64,1 l -10.9,-1.6" /><path
         id="path68"
         style="fill:#231f20;fill-opacity:1;fill-rule:nonzero;stroke:none"
         d="m 1186.11,1235.79 c -0.09,9.34 -0.29,10.45 -4.18,10.88 l -2.87,0.34 c -0.84,0.45 -0.86,2.48 0.16,3.14 6.09,0.53 13.31,0.96 21.35,1.05 7.86,0.07 13.04,-0.8 16.95,-2.24 5.65,-2.07 11.35,-6.92 11.44,-15.89 0.14,-15.16 -15.09,-17.53 -20,-17.58 -1.1,-0.01 -1.93,-0.02 -2.95,0.06 -0.75,0.46 -0.94,1.94 -0.31,2.5 7.66,2.48 9.17,7.95 9.1,14.79 -0.06,6.84 -3.65,14.21 -11.97,14.12 -3.42,-0.03 -3.59,-1.05 -3.56,-4.75 l 0.39,-39.02 c 0.09,-8.6 0.64,-9.33 4.81,-9.94 l 2.96,-0.43 c 1.03,-0.46 1.05,-2.58 0.04,-3.14 -5.18,0.12 -9.72,0.18 -14.15,0.13 -4.44,-0.04 -8.88,-0.18 -13.87,-0.42 -1.02,0.55 -1.23,2.68 -0.21,3.15 l 2.58,0.49 c 4.16,0.78 4.7,1.43 4.62,10.03 l -0.33,32.73" /><path
         id="path70"
         style="fill:#231f20;fill-opacity:1;fill-rule:nonzero;stroke:none"
         d="m 1261.27,1224.97 c -0.22,-2.58 -0.14,-2.77 2.35,-2.98 l 6.36,-0.51 c 4.8,-0.39 5.96,0.17 7.24,4.52 l 0.64,2.26 c 0.7,0.69 3.01,0.5 3.4,-0.37 -0.42,-2.93 -0.78,-6.24 -1.06,-9.75 -0.29,-3.5 -0.46,-6.82 -0.52,-9.78 -0.53,-0.8 -2.84,-0.7 -3.42,0.18 l -0.27,2.34 c -0.57,4.5 -1.61,5.33 -6.4,5.71 l -6.37,0.52 c -2.48,0.2 -2.59,0.12 -2.81,-2.65 l -0.89,-10.96 c -0.34,-4.25 -0.21,-7.22 0.77,-8.88 1.06,-1.76 2.76,-2.64 9.49,-3.18 8.01,-0.65 11.17,-0.63 17.08,9.37 0.82,0.96 3.09,0.4 3.37,-0.74 -0.76,-4.76 -3.57,-12.04 -5.06,-14.43 -4.88,0.59 -13.71,1.39 -21.27,2.01 l -11.99,0.97 c -4.42,0.36 -8.94,0.63 -15.87,1.01 -0.69,0.61 -0.51,2.82 0.27,3.22 l 4.37,0.3 c 4.2,0.31 4.81,0.81 5.49,9.29 l 2.79,34.38 c 0.68,8.39 0.17,8.99 -3.9,10.15 l -2.28,0.65 c -0.78,0.62 -0.51,2.73 0.45,3.21 4.32,-0.54 8.83,-0.99 13.25,-1.35 l 19.55,-1.59 c 5.89,-0.48 11.15,-0.81 12.36,-0.72 -0.02,-1.49 0.09,-8.17 0.05,-14.38 -0.46,-0.99 -2.59,-1 -3.45,-0.1 -0.75,3.31 -1.82,6.18 -2.91,7.56 -1.61,1.9 -4.29,3.23 -8.8,3.6 l -7.37,0.6 c -3.04,0.25 -3.06,0.06 -3.33,-3.35 l -1.31,-16.13" /><path
         id="path72"
         style="fill:#231f20;fill-opacity:1;fill-rule:nonzero;stroke:none"
         d="m 1322.6,1214.8 c -0.58,-3.18 -0.35,-3.5 5.03,-4.48 3.27,-0.59 5.34,-0.11 7.38,1.3 1.83,1.27 4.08,3.88 5.06,9.25 1.48,8.19 -2.39,14.35 -9.49,15.64 -3.74,0.67 -3.98,0.44 -4.77,-3.94 z m -10.38,13.83 c 1.65,9.12 1.64,10.15 -2.08,11.39 l -2.4,0.81 c -0.83,0.62 -0.42,2.9 0.76,3.15 6.91,-0.78 14.09,-1.7 22.74,-3.27 7.74,-1.4 14.18,-3.78 17.27,-6.5 4.71,-4.06 6.63,-9.1 5.57,-14.94 -1.47,-8.1 -7.56,-10.58 -12.13,-11.91 -0.99,-0.29 -1.09,-0.84 -0.82,-1.92 3.81,-13.3 6.3,-20.81 10,-25.33 2.02,-2.34 4.29,-3.32 5.65,-3.66 0.73,-0.6 0.49,-1.97 -0.07,-2.43 -1.57,-0.38 -4.52,-0.03 -7.34,0.48 -8.38,1.52 -13.13,5.48 -15.94,12.76 -2.05,5.36 -3.33,10.2 -4.55,15.41 -0.66,2.65 -1.99,3.65 -4.26,4.06 -3.18,0.57 -3.4,0.43 -3.73,-1.4 l -2.03,-11.2 c -1.52,-8.38 -1.09,-9.12 2.89,-10.59 l 2.37,-0.9 c 0.56,-0.57 0.16,-2.76 -0.58,-3.19 -4.79,1.06 -8.97,1.91 -13.33,2.7 -4.57,0.82 -8.59,1.46 -13.35,2.14 -0.64,0.67 -0.24,2.85 0.57,3.18 l 2.54,0.01 c 4.23,-0.01 4.89,0.52 6.41,8.91 l 5.84,32.24" /><path
         id="path74"
         style="fill:#231f20;fill-opacity:1;fill-rule:nonzero;stroke:none"
         d="m 1421.08,1181.29 c 2.03,-0.67 2.55,-0.56 2.61,1.96 l 0.09,7.87 c 0.03,4.18 0.04,9.45 -0.14,11.55 -1.37,-1.78 -4.71,-5.93 -7.38,-9.53 l -4.38,-5.85 c -1.59,-2.1 -1.24,-2.51 0.95,-3.25 z m -11.55,-1.31 c -2.11,0.7 -2.4,0.7 -3.49,-0.78 l -6.81,-9.04 c -1.11,-1.58 -1.44,-2.25 -1.67,-2.96 -0.18,-0.52 0.79,-1.43 3.09,-2.69 l 2.49,-1.31 c 0.33,-0.8 -0.17,-2.87 -1.2,-3.02 -3.01,1.2 -6.17,2.26 -9.82,3.58 -2.99,0.99 -5.09,1.4 -9.13,2.75 -0.78,0.85 -0.09,2.66 0.76,3.16 l 2.46,-0.53 c 2.2,-0.44 4.18,-0.32 6.82,2.6 2.66,3.01 5.73,6.67 10.21,12.19 l 15.14,18.75 c 3.86,4.85 6.38,7.43 6.96,10.05 4.53,-0.44 9.22,2.78 9.4,2.72 1.13,-0.38 1.51,-1 1.42,-2.43 -0.14,-2.78 -0.17,-6.37 -0.06,-13.34 l 0.44,-38.38 c 0.09,-5.87 0.21,-8.16 3.27,-9.76 l 3.17,-1.65 c 0.38,-0.61 -0.15,-2.78 -1.11,-3.04 -4.16,1.58 -8.87,3.26 -13.43,4.78 -4.39,1.46 -7.83,2.52 -11.94,3.69 -0.78,0.85 -0.34,2.75 0.85,3.13 l 2.96,-0.5 c 2.14,-0.32 2.69,0.18 2.86,0.7 0.21,0.62 0.31,2.92 0.34,6.52 l 0.14,8.34 c 0.03,1.55 -0.61,1.96 -3.68,2.99 l -10.44,3.48" /><path
         id="path76"
         style="fill:#231f20;fill-opacity:1;fill-rule:nonzero;stroke:none"
         d="m 1462.33,1136.25 c -7.78,3.41 -11.65,7.73 -12.98,9.52 -0.8,2.57 0.78,9.15 3.3,14.91 1.07,0.84 3.05,0.07 3.33,-1.16 -0.72,-6.24 1.54,-16.52 8.74,-19.67 6.27,-2.74 11.04,0.31 12.9,4.55 3,6.86 -1.66,13.74 -5.63,18.51 -4.76,5.72 -9.23,13.73 -5.55,22.11 4.1,9.61 14.44,12.95 26.72,7.57 2.8,-1.22 6.12,-3.08 9.07,-5.58 0.94,-0.82 1.64,-1.33 2.57,-1.94 -0.13,-2.16 -1.28,-7.1 -3.77,-12.77 -0.87,-0.84 -3.02,0 -3.41,1.19 0.45,4.94 -0.49,12.72 -6.58,15.39 -5.6,2.45 -10.24,0.14 -12.09,-4.09 -1.7,-3.9 0.21,-8.97 3.47,-13.03 l 4.3,-5.41 c 4.02,-5.09 8.56,-12.94 4.49,-22.25 -4.57,-10.42 -16.08,-13.45 -28.88,-7.85" /><path
         id="path78"
         style="fill:#231f20;fill-opacity:1;fill-rule:nonzero;stroke:none"
         d="m 1522.41,1160.68 c 4.48,8.19 4.86,9.25 1.67,11.52 l -2.34,1.71 c -0.51,0.8 0.47,2.59 1.67,2.67 5.58,-2.53 12.09,-5.67 19.16,-9.53 6.89,-3.77 10.99,-7.07 13.7,-10.24 3.93,-4.57 6.52,-11.58 2.22,-19.45 -7.29,-13.32 -21.74,-7.94 -26.05,-5.59 -0.98,0.53 -1.7,0.94 -2.55,1.5 -0.43,0.77 0.12,2.16 0.95,2.33 7.9,-1.58 11.89,2.46 15.19,8.47 3.28,6 3.75,14.18 -3.56,18.18 -3.01,1.64 -3.65,0.84 -5.43,-2.41 l -18.74,-34.25 c -4.13,-7.55 -3.99,-8.47 -0.65,-11.03 l 2.37,-1.83 c 0.67,-0.9 -0.35,-2.76 -1.5,-2.76 -4.47,2.65 -8.4,4.91 -12.3,7.03 -3.9,2.14 -7.83,4.19 -12.3,6.43 -0.63,0.96 0.23,2.93 1.34,2.84 l 2.49,-0.83 c 4.02,-1.36 4.82,-1.05 8.94,6.49 l 15.72,28.75" /><path
         id="path80"
         style="fill:#231f20;fill-opacity:1;fill-rule:nonzero;stroke:none"
         d="m 1582.82,1114.49 c -1.44,-2.15 -1.46,-2.35 0.61,-3.74 l 5.29,-3.56 c 3.99,-2.68 5.27,-2.76 8.52,0.4 l 1.68,1.66 c 0.94,0.26 2.86,-1.03 2.78,-1.97 -1.81,-2.36 -3.73,-5.07 -5.69,-7.99 -1.97,-2.91 -3.74,-5.73 -5.24,-8.29 -0.85,-0.44 -2.82,0.78 -2.9,1.83 l 0.91,2.18 c 1.71,4.19 1.2,5.43 -2.79,8.11 l -5.3,3.56 c -2.07,1.39 -2.19,1.37 -3.75,-0.94 l -6.13,-9.13 c -2.37,-3.53 -3.72,-6.2 -3.67,-8.12 0.07,-2.05 1.11,-3.65 6.72,-7.41 6.68,-4.49 9.44,-6.01 19.49,-0.17 1.18,0.43 2.89,-1.17 2.58,-2.3 -2.99,-3.78 -9.01,-8.75 -11.48,-10.11 -3.96,2.89 -11.28,7.92 -17.57,12.14 l -9.98,6.71 c -3.69,2.47 -7.5,4.93 -13.36,8.64 -0.3,0.88 0.93,2.72 1.81,2.69 l 3.97,-1.89 c 3.81,-1.78 4.59,-1.63 9.32,5.43 l 19.24,28.63 c 4.7,6.98 4.54,7.76 1.55,10.76 l -1.66,1.68 c -0.38,0.92 0.89,2.64 1.97,2.58 3.5,-2.58 7.21,-5.18 10.89,-7.66 l 16.27,-10.93 c 4.92,-3.3 9.34,-6.17 10.44,-6.68 -0.75,-1.28 -3.92,-7.17 -6.99,-12.57 -0.88,-0.64 -2.74,0.4 -3.05,1.61 0.96,3.25 1.43,6.27 1.16,8.02 -0.48,2.43 -2.16,4.91 -5.92,7.43 l -6.14,4.12 c -2.53,1.71 -2.64,1.55 -4.54,-1.28 l -9.04,-13.44" /><path
         id="path82"
         style="fill:#231f20;fill-opacity:1;fill-rule:nonzero;stroke:none"
         d="m 1631.43,1075.69 c -2.05,-2.5 -2.02,-2.89 2.19,-6.36 2.57,-2.11 4.6,-2.7 7.07,-2.46 2.22,0.22 5.45,1.38 8.92,5.6 5.29,6.42 4.91,13.68 -0.65,18.26 -2.93,2.41 -3.26,2.31 -6.08,-1.12 z m -2.33,17.12 c 5.88,7.14 6.39,8.04 3.73,10.94 l -1.69,1.87 c -0.42,0.94 1.05,2.73 2.2,2.38 5.65,-4.05 11.45,-8.35 18.24,-13.93 6.07,-4.99 10.52,-10.21 11.89,-14.08 2.14,-5.83 1.34,-11.17 -2.42,-15.74 -5.23,-6.35 -11.74,-5.54 -16.38,-4.48 -1.01,0.23 -1.36,-0.2 -1.65,-1.28 -3.16,-13.45 -4.63,-21.21 -3.62,-26.96 0.63,-3.03 2.13,-4.98 3.14,-5.93 0.35,-0.89 -0.53,-1.96 -1.24,-2.1 -1.55,0.44 -3.96,2.18 -6.17,4 -6.57,5.41 -8.77,11.17 -7.69,18.9 0.83,5.66 2.07,10.51 3.55,15.65 0.72,2.63 0.05,4.14 -1.73,5.61 -2.5,2.06 -2.77,2.04 -3.94,0.6 l -7.22,-8.78 c -5.41,-6.57 -5.39,-7.42 -2.65,-10.64 l 1.63,-1.94 c 0.21,-0.77 -1.2,-2.49 -2.05,-2.5 -3.67,3.26 -6.9,6.03 -10.32,8.85 -3.58,2.94 -6.78,5.45 -10.61,8.36 -0.21,0.9 1.19,2.62 2.06,2.5 l 2.22,-1.23 c 3.68,-2.07 4.52,-1.92 9.93,4.65 l 20.79,25.28" /><path
         id="path84"
         style="fill:#231f20;fill-opacity:1;fill-rule:nonzero;stroke:none"
         d="m 1683.71,1016.93 c 1.5,-1.52 2.01,-1.64 3.2,0.57 l 3.66,6.98 c 1.92,3.72 4.31,8.41 5.11,10.37 -2.04,-0.97 -6.89,-3.16 -10.9,-5.16 l -6.57,-3.23 c -2.37,-1.16 -2.23,-1.68 -0.61,-3.33 z m -10.91,4.07 c -1.56,1.58 -1.81,1.71 -3.46,0.88 l -10.18,-4.97 c -1.71,-0.91 -2.3,-1.36 -2.83,-1.88 -0.39,-0.39 0.06,-1.64 1.54,-3.81 l 1.62,-2.3 c -0.07,-0.85 -1.45,-2.48 -2.43,-2.15 -2.15,2.44 -4.48,4.81 -7.15,7.65 -2.21,2.24 -3.9,3.56 -6.89,6.6 -0.32,1.11 1.13,2.41 2.11,2.47 l 1.95,-1.59 c 1.76,-1.38 3.58,-2.18 7.27,-0.77 3.74,1.48 8.13,3.35 14.63,6.25 l 22.01,9.86 c 5.64,2.58 9.06,3.73 10.77,5.82 3.85,-2.45 9.48,-1.7 9.61,-1.84 0.85,-0.85 0.91,-1.58 0.18,-2.81 -1.39,-2.42 -3.05,-5.61 -6.11,-11.87 l -16.99,-34.45 c -2.6,-5.285 -3.53,-7.371 -1.52,-10.203 l 2.07,-2.891 c 0.06,-0.723 -1.38,-2.418 -2.37,-2.223 -2.99,3.297 -6.42,6.922 -9.81,10.352 -3.25,3.297 -5.85,5.801 -8.97,8.711 -0.32,1.113 0.93,2.613 2.18,2.406 l 2.4,-1.785 c 1.76,-1.258 2.48,-1.066 2.88,-0.676 0.46,0.457 1.58,2.477 3.24,5.679 l 3.92,7.36 c 0.73,1.38 0.34,2.03 -1.93,4.34 l -7.74,7.84" /><path
         id="path86"
         style="fill:#ffffff;fill-opacity:1;fill-rule:nonzero;stroke:none"
         d="m 1227.23,1067.65 -18.5,10.19 -18.87,-9.35 4.03,20.65 -14.7,15.02 20.89,2.56 9.73,18.68 8.9,-19.1 20.79,-3.48 -15.43,-14.36 3.16,-20.81" /><path
         id="path88"
         style="fill:#ffffff;fill-opacity:1;fill-rule:nonzero;stroke:none"
         d="m 1295.98,1060.04 -17.4,11.83 -19.62,-7.6 5.85,20.2 -13.3,16.31 21.02,0.64 11.44,17.7 7.11,-19.83 20.31,-5.34 -16.6,-12.91 1.19,-21" /><path
         id="path90"
         style="fill:#ffffff;fill-opacity:1;fill-rule:nonzero;stroke:none"
         d="m 1363.66,1039.72 -15.04,14.77 -20.67,-3.99 9.4,18.84 -10.09,18.41 20.74,-3.13 14.43,15.36 3.45,-20.75 19.04,-8.93 -18.68,-9.7 -2.58,-20.88" /><path
         id="path92"
         style="fill:#ffffff;fill-opacity:1;fill-rule:nonzero;stroke:none"
         d="m 1430.69,1010.01 -12.76,16.75 -21.03,-1.03 12,17.29 -7.46,19.71 20.15,-6.05 16.41,13.16 0.47,-21.04 17.59,-11.53 -19.83,-6.94 -5.54,-20.32" /><path
         id="path94"
         style="fill:#ffffff;fill-opacity:1;fill-rule:nonzero;stroke:none"
         d="m 1492.49,971.125 -10.81,18.051 -20.99,1.301 13.82,15.863 -5.25,20.4 19.34,-8.24 17.82,11.28 -1.87,-20.95 16.24,-13.416 -20.51,-4.715 -7.79,-19.574" /><path
         id="path96"
         style="fill:#ffffff;fill-opacity:1;fill-rule:nonzero;stroke:none"
         d="m 1577.24,950.813 -20.67,-3.606 -8.83,-19.125 -9.86,18.59 -20.85,2.457 14.62,15.098 -4.13,20.648 18.87,-9.258 18.39,10.297 -3.03,-20.82 15.49,-14.281" /><path
         id="path98"
         style="fill:#ffffff;fill-opacity:1;fill-rule:nonzero;stroke:none"
         d="m 1627.9,886.832 -21.03,0.234 -12.15,-17.199 -6.27,20.102 -20.1,6.219 17.21,12.175 -0.3,21.032 16.86,-12.559 19.88,6.777 -6.7,-19.941 12.6,-16.84" /><path
         id="path100"
         style="fill:#ffffff;fill-opacity:1;fill-rule:nonzero;stroke:none"
         d="m 1520.26,832.402 -8.87,19.114 -20.76,3.496 15.41,14.332 -3.1,20.808 18.46,-10.218 18.81,9.363 -4.06,-20.652 14.76,-15.04 -20.9,-2.554 -9.75,-18.649" /><path
         id="path102"
         style="fill:#ffffff;fill-opacity:1;fill-rule:nonzero;stroke:none"
         d="m 1466.71,888.91 -10.31,18.395 -20.88,1.968 14.27,15.426 -4.56,20.531 19.1,-8.835 18.08,10.718 -2.5,-20.902 15.8,-13.93 -20.63,-4.058 -8.37,-19.313" /><path
         id="path104"
         style="fill:#ffffff;fill-opacity:1;fill-rule:nonzero;stroke:none"
         d="m 1404.04,928.496 -11.51,17.629 -21.06,0.496 13.23,16.383 -6.06,20.172 19.66,-7.485 17.34,11.954 -1.08,-21.008 16.74,-12.805 -20.31,-5.473 -6.95,-19.863" /><path
         id="path106"
         style="fill:#ffffff;fill-opacity:1;fill-rule:nonzero;stroke:none"
         d="m 1340.22,963.578 -15.64,14.035 -20.51,-4.965 8.54,19.254 -11.08,17.898 20.96,-2.11 13.64,16.02 4.41,-20.55 19.48,-8.015 -18.14,-10.579 -1.66,-20.988" /><path
         id="path108"
         style="fill:#ffffff;fill-opacity:1;fill-rule:nonzero;stroke:none"
         d="m 1361.26,861.406 -13.52,16.153 -20.93,-1.965 11.2,17.82 -8.33,19.32 20.41,-5.129 15.77,13.895 1.45,-20.984 18.08,-10.754 -19.53,-7.813 -4.6,-20.543" /><path
         id="path110"
         style="fill:#ffffff;fill-opacity:1;fill-rule:nonzero;stroke:none"
         d="m 1291.85,892.977 -15.2,14.55 -20.64,-4.32 9.14,18.961 -10.47,18.246 20.82,-2.797 14.14,15.602 3.77,-20.703 19.16,-8.618 -18.45,-10 -2.27,-20.921" /><path
         id="path112"
         style="fill:#ffffff;fill-opacity:1;fill-rule:nonzero;stroke:none"
         d="m 1268.58,978.934 -17.18,12.121 -19.81,-7.309 6.27,20.114 -13.08,16.51 21.09,0.31 11.68,17.52 6.77,-19.95 20.27,-5.68 -16.82,-12.613 0.81,-21.023" /><path
         id="path114"
         style="fill:#ffffff;fill-opacity:1;fill-rule:nonzero;stroke:none"
         d="m 1125.17,1060.05 17.38,11.84 19.63,-7.61 -5.92,20.19 13.31,16.31 -21.03,0.66 -11.39,17.69 -7.09,-19.8 -20.38,-5.37 16.66,-12.89 -1.17,-21.02" /><path
         id="path116"
         style="fill:#ffffff;fill-opacity:1;fill-rule:nonzero;stroke:none"
         d="m 1052.16,1039.72 14.98,14.77 20.66,-3.99 -9.41,18.82 10.15,18.43 -20.8,-3.11 -14.37,15.34 -3.44,-20.75 -19.09,-8.92 18.7,-9.7 2.62,-20.89" /><path
         id="path118"
         style="fill:#ffffff;fill-opacity:1;fill-rule:nonzero;stroke:none"
         d="m 987.219,1010.01 12.73,16.73 21.041,-1.01 -11.99,17.31 7.46,19.69 -20.159,-6.05 -16.406,13.16 -0.469,-21.05 -17.602,-11.52 19.875,-6.97 5.52,-20.29" /><path
         id="path120"
         style="fill:#ffffff;fill-opacity:1;fill-rule:nonzero;stroke:none"
         d="m 923.918,971.094 10.812,18.062 21,1.305 -13.796,15.859 5.257,20.39 -19.382,-8.24 -17.743,11.28 1.825,-20.93 -16.207,-13.422 20.504,-4.742 7.73,-19.562" /><path
         id="path122"
         style="fill:#ffffff;fill-opacity:1;fill-rule:nonzero;stroke:none"
         d="m 840.68,950.863 20.711,-3.644 8.797,-19.121 9.824,18.629 20.929,2.421 -14.648,15.106 4.121,20.648 -18.887,-9.261 -18.343,10.297 2.984,-20.844 -15.488,-14.231" /><path
         id="path124"
         style="fill:#ffffff;fill-opacity:1;fill-rule:nonzero;stroke:none"
         d="m 789.199,886.773 21.031,0.235 12.165,-17.156 6.234,20.066 20.121,6.227 -17.18,12.152 0.289,21.066 -16.882,-12.59 -19.926,6.79 6.758,-19.934 -12.61,-16.856" /><path
         id="path126"
         style="fill:#ffffff;fill-opacity:1;fill-rule:nonzero;stroke:none"
         d="m 751.699,816.223 20.336,5.355 15.973,-13.672 1.164,20.981 18.008,10.949 -19.629,7.598 -4.863,20.496 -13.301,-16.328 -20.981,1.718 11.414,-17.675 -8.121,-19.422" /><path
         id="path128"
         style="fill:#ffffff;fill-opacity:1;fill-rule:nonzero;stroke:none"
         d="m 819.512,791.715 20.926,2.125 13.644,-15.992 4.43,20.543 19.476,8.011 -18.199,10.555 -1.609,21.012 -15.684,-14.067 -20.461,4.981 8.524,-19.242 -11.047,-17.926" /><path
         id="path130"
         style="fill:#ffffff;fill-opacity:1;fill-rule:nonzero;stroke:none"
         d="m 949.043,830.594 20.852,-2.723 9.625,-18.691 9.003,18.984 20.807,3.332 -15.299,14.449 3.242,20.809 -18.484,-10.094 -18.769,9.535 3.886,-20.687 -14.863,-14.914" /><path
         id="path132"
         style="fill:#ffffff;fill-opacity:1;fill-rule:nonzero;stroke:none"
         d="m 1454.21,830.594 -20.87,-2.723 -9.62,-18.691 -9.01,18.984 -20.79,3.332 15.29,14.449 -3.25,20.809 18.5,-10.094 18.75,9.535 -3.86,-20.687 14.86,-14.914" /><path
         id="path134"
         style="fill:#ffffff;fill-opacity:1;fill-rule:nonzero;stroke:none"
         d="m 1597.59,791.715 -20.94,2.125 -13.64,-15.992 -4.43,20.543 -19.48,8.011 18.2,10.555 1.62,21.012 15.68,-14.067 20.46,4.981 -8.53,-19.242 11.06,-17.926" /><path
         id="path136"
         style="fill:#ffffff;fill-opacity:1;fill-rule:nonzero;stroke:none"
         d="m 1665.09,816.223 -20.35,5.355 -15.98,-13.672 -1.16,20.981 -18,10.949 19.63,7.598 4.86,20.496 13.28,-16.328 21.01,1.718 -11.44,-17.675 8.15,-19.422" /><path
         id="path138"
         style="fill:#ffffff;fill-opacity:1;fill-rule:nonzero;stroke:none"
         d="m 896.16,832.383 8.891,19.097 20.75,3.508 -15.387,14.344 3.063,20.805 -18.399,-10.231 -18.867,9.367 4.078,-20.648 -14.762,-15.023 20.903,-2.567 9.73,-18.652" /><path
         id="path140"
         style="fill:#ffffff;fill-opacity:1;fill-rule:nonzero;stroke:none"
         d="m 954.656,888.91 10.246,18.379 20.957,2.004 -14.328,15.422 4.574,20.531 -19.062,-8.851 -18.156,10.695 2.543,-20.879 -15.762,-13.91 20.617,-4.078 8.371,-19.313" /><path
         id="path142"
         style="fill:#ffffff;fill-opacity:1;fill-rule:nonzero;stroke:none"
         d="m 1015.57,928.496 11.5,17.609 21.06,0.516 -13.22,16.371 6.02,20.184 -19.67,-7.485 -17.32,11.954 1.06,-21.028 -16.73,-12.785 20.33,-5.496 6.97,-19.84" /><path
         id="path144"
         style="fill:#ffffff;fill-opacity:1;fill-rule:nonzero;stroke:none"
         d="m 1083.9,963.609 15.68,14.028 20.47,-4.977 -8.5,19.262 11.04,17.918 -20.95,-2.13 -13.6,16.03 -4.45,-20.56 -19.46,-8.02 18.16,-10.558 1.61,-20.993" /><path
         id="path146"
         style="fill:#ffffff;fill-opacity:1;fill-rule:nonzero;stroke:none"
         d="m 1046.27,861.418 10.95,17.973 21,1.14 -13.7,15.957 5.43,20.332 -19.43,-8.043 -17.69,11.399 1.69,-20.965 -16.33,-13.313 20.47,-4.863 7.61,-19.617" /><path
         id="path148"
         style="fill:#ffffff;fill-opacity:1;fill-rule:nonzero;stroke:none"
         d="m 1118.45,892.949 14.89,14.883 20.67,-3.797 -9.57,18.731 10.04,18.504 -20.78,-3.282 -14.53,15.246 -3.22,-20.781 -19.02,-9.098 18.75,-9.539 2.77,-20.867" /><path
         id="path150"
         style="fill:#ffffff;fill-opacity:1;fill-rule:nonzero;stroke:none"
         d="m 1159.27,978.938 17.22,12.101 19.77,-7.328 -6.23,20.139 13.03,16.53 -21.06,0.27 -11.66,17.54 -6.78,-19.94 -20.27,-5.68 16.83,-12.636 -0.85,-20.996" /><path
         id="path152"
         style="fill:#ffffff;fill-opacity:1;fill-rule:nonzero;stroke:none"
         d="m 1225.79,912.004 -18.46,10.195 -18.86,-9.375 4.02,20.664 -14.73,15.02 20.86,2.531 9.75,18.695 8.92,-19.082 20.81,-3.504 -15.43,-14.335 3.12,-20.809" /></g></g></svg>