
        <svg xmlns="http://www.w3.org/2000/svg" xmlns:xlink="http://www.w3.org/1999/xlink" version="1.1" width="3187.5" 
        height="742.5039890219444" viewBox="0 0 3187.5 742.5039890219444">
			<rect fill="#842f01" width="3187.5" height="742.5039890219444"/>
			<g transform="scale(9.375) translate(10, 10)">
				<defs id="SvgjsDefs1908"><linearGradient id="SvgjsLinearGradient1913"><stop id="SvgjsStop1914" stop-color="#8f5e25" offset="0"></stop><stop id="SvgjsStop1915" stop-color="#fbf4a1" offset="0.5"></stop><stop id="SvgjsStop1916" stop-color="#8f5e25" offset="1"></stop></linearGradient><linearGradient id="SvgjsLinearGradient1917"><stop id="SvgjsStop1918" stop-color="#8f5e25" offset="0"></stop><stop id="SvgjsStop1919" stop-color="#fbf4a1" offset="0.5"></stop><stop id="SvgjsStop1920" stop-color="#8f5e25" offset="1"></stop></linearGradient></defs><g id="SvgjsG1909" featureKey="symbolFeature-0" transform="matrix(1.0943989205635647,0,0,1.0943989205635647,-6.1567020787167,-25.170315164044613)" fill="url(#SvgjsLinearGradient1913)"><g xmlns="http://www.w3.org/2000/svg"><path d="M94.912,49.069c0.326,0.291,0.674,0.453,1.641,0.597c-0.295-0.195-0.877-0.684-1.006-1.118   c0.344,0.259,0.801,0.401,1.453,0.597c-0.57-0.597-0.912-0.707-1.193-0.969c-0.1-0.092-0.277-0.297-0.369-0.396   c-0.17-0.181-0.535-0.519-0.676-0.722c-0.141-0.205-0.141-0.205-0.445-0.895c0.691,0.591,0.541,0.316,1.564,1.268   c-0.367-1.071-1.043-1.715-1.715-2.312c-0.67-0.596-0.818-1.416-0.818-1.416s-0.299-3.205-0.969-4.249   c-0.672-1.043-1.943-2.749-5.592-3.801c-0.285-0.083-1.051-0.26-2.012-0.447c-1.715-0.334-3.137-0.874-5.74-2.014   c-1.727-0.756-3.996-0.8-5.217-1.267c-0.563-0.214-1.641-0.969-1.641-0.969l-0.895-0.522l-0.674-0.249l-0.816-0.198   c0,0-1.49-0.895-1.789-0.895s-1.938-0.596-2.162-0.67c-0.223-0.075-1.193-0.522-1.641-0.82s-2.234-0.895-2.234-0.895   s-1.566-0.596-1.865-0.596c-0.297,0-1.938-0.522-2.385-0.597c-0.445-0.074-1.787-0.522-1.787-0.522l-1.77-0.521l-1.555-0.218   c0,0-1.451,0.003-1.895-0.154c-0.352-0.125-1.47-0.52-1.992-0.52s-1.586,0.228-1.884,0.004c-0.298-0.224-2.087-0.522-2.311-0.522   s-1.417,0-1.714,0c-0.298,0-1.118-0.074-1.417,0c-0.298,0.075-2.13,0-2.13,0s-0.88-0.155-1.398,0.026   c-0.521,0.181-2.434,0.639-2.658,0.639s-0.671,0.223-1.043,0.373c-0.373,0.149-1.789,0.522-1.789,0.522l-1.64,0.746   c0,0-1.228,0.366-1.601,0.441c-0.372,0.074-1.224,0.861-1.373,1.085c-0.149,0.224-0.33,0.449-0.777,0.598s-0.933,0.537-0.933,0.537   s-0.162,0.469-0.684,0.469c-0.521,0-0.671,0.074-0.895,0.149c-0.223,0.075-0.372,0.298-0.82,0.373   c-0.447,0.074-0.894,0.596-0.894,0.596s-0.438,0.658-0.438,0.882c0,0.223-0.673,0.362-0.673,0.362l-0.492,0.363   c0,0-0.291,0.484-0.409,0.63c-0.132,0.164-0.387,0.57-0.596,0.596c-0.216,0.026-0.536-0.389-0.746-0.447   c-0.162-0.045-0.503,0-0.671,0c-0.167,0-0.509,0.043-0.67,0c-0.25-0.068-0.587-0.578-0.812-0.449   c-0.105,0.061,0.017,0.343-0.083,0.412c-0.594,0.406-0.663-0.543-0.942-0.35c-0.199,0.138-0.09,0.774-0.325,0.833   c-0.267,0.068-0.426-0.843-0.701-0.835c-0.266,0.008-0.355,0.575-0.443,0.827c-0.205,0.58-0.107,1.159-0.421,1.35   c-0.143,0.087-0.315,0.111-0.434,0.23c-0.159,0.159-0.238,0.431-0.389,0.596c-0.555,0.608-0.351,0.296-0.466,0.44   c-0.162,0.204-0.587-0.482-0.829-0.388c-0.466,0.181-0.703,0.233-0.841,0.432c-0.286,0.411-0.635-0.017-0.543,0.111   c0.064,0.09-0.324,0.156-0.403,0.234c-0.171,0.171-0.432,0.065-0.673,0.078c-0.674,0.037-0.287,0.681-0.415,0.906   c-0.338,0.599-0.895,0.094-1.008,0.423c-0.174,0.509-0.231,0.615-0.261,0.821c-0.1,0.68-0.75,0.541-0.881,0.726   c-0.091,0.128,0.198,0.613,0.137,0.758c-0.201,0.488-0.179,0.904,0,1.118c0.12,0.143,0.495,0.291,0.597,0.447   c0.093,0.145-0.028,0.481-0.112,0.63c-0.348,0.616-0.093,0.776-0.13,1.037c-0.036,0.251-0.416,0.488-0.521,0.719   c-0.084,0.187,0.01,0.616,0,0.82c-0.029,0.598-0.614,0.863-0.58,1.192c0.078,0.742,0.1,0.749,0,0.969   c-0.077,0.17,0.049,0.565,0,0.746c-0.068,0.25-0.555,0.637-0.521,0.894c0.068,0.523-0.26,0.847-0.373,1.119   c-0.058,0.137-0.105,0.49,0,0.597c0.145,0.145,0.601,0.171,0.777,0.275c0.262,0.157,0.788,0.694,1.012,0.694   s0.184,0.354,0.224,0.521c0.065,0.271,0.075,1.117,0.075,1.117v1.045c0,0-0.254,0.68-0.149,1.043   c0.394,1.357,1.43,2.082,2.607,1.941c0,0,1.056,0.922,1.363,1.047c0.372,0.148,1.023,0.066,1.322,0.588   c0.298,0.525,1.152,2.928,1.697,3.25c0.582,0.344,1.084,2.459,1.583,2.863c0.617,0.5,1.892,0.572,2.012,0.521   c0.098-0.039-0.023-0.275,0.071-0.322c0.117-0.059,0.695,0.072,0.749-0.051c0.083-0.184-0.298-0.496-0.188-0.664   c0.115-0.176,0.505,0.197,0.655,0.053c0.095-0.092-0.19-0.4-0.114-0.508c0.054-0.078,0.255,0.074,0.318,0.002   c0.172-0.195-0.056-0.986,0.184-1.092c0.109-0.047,0.225,0.201,0.332,0.148c0.218-0.104-0.141-0.688,0.018-0.871   c0.086-0.1,0.263,0.225,0.349,0.127c0.086-0.102-0.099-0.398,0.086-0.623c0.155-0.189,0.385,0.031,0.481-0.037   c0.136-0.1-0.179-0.4-0.034-0.484c0.465-0.271,0.678-0.076,1.239-0.184c0.374-0.072,0.589-0.389,0.774-0.412   c0.144-0.02,0.391,0.283,0.628,0.133c0.126-0.082,0.238,0.398,0.388,0.387c0.264-0.021,0.41-0.426,0.539-0.195   c0.107,0.195,0.474,0.381,0.625,0.238c0.17-0.16,0.319-0.098,0.539,0.107c0.077,0.072,0.377,0.068,0.475,0.107   c0.103,0.043,0.278,0.438,0.366,0.367c0.194-0.15,0.279-0.666,0.302-0.561c0.065,0.303,0.216,0.734,0.61,0.832   c0.167,0.041,0.507,0.201,0.671,0.148c0.188-0.061,0.336-0.666,0.521-0.596c0.209,0.078-0.203,0.988,0,0.895   c0.29-0.137,0.376-0.287,0.597,0c0.089,0.115,0.223,0.373,0.447,0.373c0.224,0,0.64,0.068,0.597,0.223   c-0.229,0.82-0.078,2.674-0.143,2.869c-0.236,0.707-0.245,1.012-0.305,1.381c-0.047,0.291-0.256,0.846-0.373,1.117   c-0.125,0.289-0.493,0.818-0.596,1.117c-0.105,0.305-0.248,2.348-0.329,2.754c-0.05,0.252-0.447,0.68-0.612,0.879   c-0.254,0.311-0.839,0.48-1.147,0.736c-0.435,0.361-1.016,1.006-0.803,1.223c0.262,0.268,2.098,0.676,2.383,0.674   c0.389,0,2.332-0.154,2.766-0.543c0.292-0.26,0.834-0.484,1.042-0.82c0.187-0.301,0.213-1.051,0.259-1.402   c0.066-0.496,0.587-1.443,0.518-1.939c-0.03-0.215-0.187-0.572-0.108-0.777c0.07-0.18,0.131-0.061,0.28-0.188   c0.287-0.24,0.298-1.301,0.671-1.34c0.237-0.025,0.455,0.553,0.596,0.744c0.164,0.223,0.584,0.6,0.82,0.746   c0.221,0.137,0.755,0.52,0.969,0.373c0.139-0.096-0.125-0.559,0-0.67c0.126-0.115,0.523,0.154,0.671,0.072   c0.183-0.1,0.184-0.658,0.373-0.746c0.07-0.029,0.225,0.053,0.298,0.078c0.162,0.047,0.5,0.318,0.638,0.221   c0.076-0.053-0.09-0.348,0-0.373c0.188-0.053,0.26,0.49,0.441,0.416c0.108-0.047,0.193-0.705,0.388-0.885   c0.116-0.109,0.499,0.053,0.619-0.051c0.176-0.154,0.221-0.879,0.447-0.82c0.126,0.031,0.082,0.361,0.14,0.246   c0.638-1.291,1.276-2.26,1.724-2.408c0.447-0.15,0.478-0.418,0.895-0.15c0.145,0.094,0.185-0.514,0.354-0.479   c0.164,0.031,0.334,0.287,0.372,0.449c0.039,0.162,0.096,0.398,0.254,0.453c0.201,0.066,0.246-0.402,0.458-0.391   c0.217,0.016,0.294,0.654,0.352,0.863c0.055,0.197,0.121,0.584,0.188,0.775c0.137,0.404,0.558,1.014,0.632,1.535   c0.074,0.52,0.022,1.67,0,1.938c-0.029,0.346,0.141,0.867,0.016,1.416c-0.122,0.533-0.467,1.229-0.612,1.639   c-0.088,0.254-1.201,0.938-1.345,1.162c-0.093,0.145-0.782,0.84-0.761,1.012c0.019,0.158,1.217,0.332,1.658,0.414   c0.57,0.104,1.644,0.051,2.073,0.051c0.279,0,1.506-0.594,1.643-0.838c0.335-0.598,0.392-1.305,0.481-1.545   c0.195-0.527,0.806-1.617,0.881-1.916s0.176-0.869,0.57-1.141c0.582-0.402,0.641-0.252,0.764-0.105   c0.126,0.152,0.224,0.354,0.41,0.283c0.209-0.078-0.104-0.521,0.113-0.582c0.209-0.057,0.266,0.412,0.475,0.354   c0.313-0.088-0.158-0.486-0.029-0.576c0.168-0.111,0.545,0.221,0.686,0.076c0.127-0.131-0.361-0.313-0.236-0.447   c0.117-0.133,0.699,0.182,0.805,0.039c0.137-0.182-0.555-0.543-0.533-0.768c0.016-0.184,0.379-0.273,0.529-0.381   c0.135-0.098,0.377-0.092,0.465-0.232c0.078-0.127-0.021-0.313,0.115-0.371c0.174-0.074,0.492,0.195,0.428,0.021   c-0.084-0.221-0.611-0.506-0.691-0.77c-0.053-0.174,0.295,0.313,0.4,0.166c0.148-0.209-0.467-0.547-0.326-0.762   c0.088-0.133,0.492,0.246,0.617,0.148c0.162-0.129-0.109-0.473,0-0.594c0.096-0.109,0.316,0.258,0.414,0.15   c0.141-0.156-0.037-0.66,0.041-0.855c0.049-0.115,0,0,0.047-0.117c0.068-0.182-0.492-0.252-0.424-0.434   c0.076-0.209,0.533-0.17,0.795-0.313c0.217-0.117-0.746-0.236-0.873-0.447c-0.068-0.111,0.189-0.404,0.111-0.51   c-0.072-0.098-0.584-0.037-0.58-0.162c0.008-0.229,0.887,0.008,0.895-0.223c0.01-0.234-0.891-0.063-0.895-0.297   c-0.002-0.219-0.254-0.199-0.238-0.416c0.02-0.275,0.301-0.229,0.09-0.404c-0.092-0.076-0.584-0.275-0.65-0.373   c-0.086-0.125-0.207-0.27-0.129-0.475c0.057-0.156-0.193-0.16-0.152-0.324c0.068-0.266,0.178-0.008,0.037-0.244   c-0.105-0.18,0.031-0.635,0.092-0.834c0.039-0.125,0.076-0.441,0.207-0.434c0.486,0.029-0.018-0.57,0.053-0.666   c0.146-0.197,0.816-0.238,1.014-0.389c0.396-0.295,0.797-0.51,1.916-0.586c1.117-0.074,1.49,0.223,2.16,0.297   c0.672,0.078,2.012,0.078,2.758,0.225c0.746,0.15,3.258,1.016,4.033,0.949c0.674-0.055,0.549,0.398,1.035,0.604   c0.477,0.203,1.191,0.145,1.789,0c1.719-0.414,2.994-1.158,3.516-1.531s2.738-2.311,3.193-2.182   c0.625,0.178,0.646,3.813,0.797,4.576c0.139,0.701,0.688,5.053,0.539,5.65c-0.148,0.596-1.262,2.967-1.484,3.488   c-0.225,0.521-1.865,2.906-2.313,3.279s-1.639,1.344-2.012,1.863c-0.371,0.521-0.672,0.82,0.074,0.969s1.193,0.373,2.313,0.373   c1.117,0,1.787,0.074,2.533-0.373c0.744-0.447,1.268-0.82,1.416-1.488c0.148-0.672,0.373-1.492,0.67-2.088   c0.299-0.598,1.797-3.191,2.447-4.041c0.674-0.879,1.205-1.998,1.652-2.297c0.449-0.297,0.598-0.67,0.672-1.117   c0.074-0.445-0.318-1.254-0.318-1.998s0.096-2.648,0.096-3.084c0-0.434,0.969-1.553,0.969-1.553s3.055,3.355,3.576,3.951   c0.521,0.598,2.236,1.641,2.609,2.086c0.373,0.447,2.014,2.164,2.162,3.059s1.268,4.621,1.342,5.217   c0.074,0.598-0.451,1.818-0.512,2.121c-0.086,0.43-0.621,1.766-0.756,1.979c-0.113,0.18-0.332,0.637-0.223,0.82   c0.234,0.393,1.576,0.373,1.793,0.373c0.219,0,1.434-0.152,1.969-0.436c0.4-0.209,0.83-0.832,0.926-1.119   c0.137-0.406-0.172-1.531-0.129-1.963c0.039-0.4-0.109-2.086-0.109-2.459s0.17-0.58,0.314-0.668   c0.092-0.057-0.236-0.023-0.248-0.131c-0.025-0.215,0.035-0.328-0.043-0.531c-0.057-0.139,0.418-0.432,0.297-0.521   c-0.988-0.736-0.621-0.758-0.074-0.895c0.121-0.029-0.416-0.102-0.447-0.225c-0.023-0.092,0.166-0.236,0.221-0.314   c0.074-0.107-0.404-0.121-0.428-0.25c-0.063-0.332-0.195-0.65-0.389-0.924c-0.164-0.23-0.15-0.598-0.15-1.119   s-0.373-1.566-0.373-2.236c0-0.672-0.371-1.713-0.371-2.012s0.082-1.127-0.299-1.416c-1.156-0.877-3.695-3.496-4.025-5.592   c-0.279-1.775,0.691-4.407,0.928-5.679c0.199-1.067-0.184-4.213-0.26-4.809c-0.074-0.596,0.227-2.705-0.295-3.749   s-1.193-2.013-1.193-2.013s1.492,0.149,2.162,0.82c0.672,0.671,1.564,1.789,1.715,2.833c0.148,1.043,0.596,2.459,0.521,2.757   c-0.074,0.298-1.043,2.013-1.043,2.236s-0.238,1.232-0.225,1.715c0.006,0.167,0.15,0.428,0.252,0.708   c0.102,0.28,1.256,0.989,1.643,1.162c-0.408-0.626-0.793-0.941-1.148-1.721c1.018,1.072,1.084,1.347,2.076,1.906   c0.408,0.23,1.504,0.275,1.963,0.31c-0.393-0.164-0.73-0.303-1.207-0.577c-0.273-0.156-0.447-0.705-0.582-0.976   c-0.1-0.2-0.182-0.841-0.238-1.229C94.414,48.279,94.693,48.876,94.912,49.069z M22.945,40.174c-0.168,1.17-1.28,2.325-2.655,2.485   c-1.128,0.132-2.499-1.469-2.232-2.461c0.122-0.455,1.069-0.102,1.889-0.848c0.819-0.745-0.166-6.002,0.12-6.018   c0.267-0.013,1.754,2.349,2.383,3.911C22.887,38.329,23.091,39.157,22.945,40.174z"></path></g></g><g id="SvgjsG1910" featureKey="nameFeature-0" transform="matrix(0.4856726350341633,0,0,0.4856726350341633,119.26177690925127,16.77416233587076)" fill="url(#SvgjsLinearGradient1917)"><path d="M15.56 10.760000000000002 c3.3333 0 6.1332 0.94 8.4 2.82 s3.5734 4.3668 3.92 7.46 l-6.08 0 c-0.21332 -1.4133 -0.92 -2.6 -2.12 -3.56 s-2.5733 -1.44 -4.12 -1.44 c-2.4533 0 -4.36 0.88 -5.72 2.64 s-2.04 4.1468 -2.04 7.16 c0 2.9333 0.68668 5.26 2.06 6.98 s3.2733 2.58 5.7 2.58 c1.8133 0 3.28 -0.55332 4.4 -1.66 s1.8133 -2.6867 2.08 -4.74 l6.08 0 c-0.32 3.6267 -1.62 6.48 -3.9 8.56 s-5.1668 3.12 -8.66 3.12 c-4.1868 0 -7.5732 -1.38 -10.16 -4.14 s-3.88 -6.3268 -3.88 -10.7 c0 -4.4268 1.28 -8.0468 3.84 -10.86 s5.96 -4.22 10.2 -4.22 z M46.64 11.440000000000001 l10.68 28.56 l-6.52 0 l-2.16 -6.36 l-10.68 0 l-2.24 6.36 l-6.36 0 l10.84 -28.56 l6.44 0 z M43.32 18.48 l-3.72 10.48 l7.4 0 l-3.6 -10.48 l-0.08 0 z M72.72 11.440000000000001 c3.04 0 5.44 0.82668 7.2 2.48 s2.64 3.88 2.64 6.68 c0 2.8267 -0.88 5.06 -2.64 6.7 s-4.1468 2.46 -7.16 2.46 l-6.68 0 l0 10.24 l-6.28 0 l0 -28.56 l12.92 0 z M71.08000000000001 24.880000000000003 c1.8133 0 3.1667 -0.33332 4.06 -1 s1.34 -1.76 1.34 -3.28 c0 -1.4667 -0.43332 -2.5467 -1.3 -3.24 s-2.22 -1.04 -4.06 -1.04 l-5.04 0 l0 8.56 l5 0 z M99.4 11.440000000000001 c3.04 0 5.44 0.82668 7.2 2.48 s2.64 3.88 2.64 6.68 c0 2.8267 -0.88 5.06 -2.64 6.7 s-4.1468 2.46 -7.16 2.46 l-6.68 0 l0 10.24 l-6.28 0 l0 -28.56 l12.92 0 z M97.75999999999999 24.880000000000003 c1.8133 0 3.1667 -0.33332 4.06 -1 s1.34 -1.76 1.34 -3.28 c0 -1.4667 -0.43332 -2.5467 -1.3 -3.24 s-2.22 -1.04 -4.06 -1.04 l-5.04 0 l0 8.56 l5 0 z M124.44000000000001 11.440000000000001 l10.68 28.56 l-6.52 0 l-2.16 -6.36 l-10.68 0 l-2.24 6.36 l-6.36 0 l10.84 -28.56 l6.44 0 z M121.12 18.48 l-3.72 10.48 l7.4 0 l-3.6 -10.48 l-0.08 0 z M157.04000000000002 11.440000000000001 c2.64 0 4.8668 0.74664 6.68 2.24 s2.72 3.3333 2.72 5.52 c0 1.3867 -0.33332 2.5934 -1 3.62 s-1.64 1.7267 -2.92 2.1 l0 0.08 c1.5733 0.34668 2.7933 1.1 3.66 2.26 s1.3 2.5267 1.3 4.1 c0 2.72 -0.98668 4.9332 -2.96 6.64 s-4.4532 2.56 -7.44 2.56 c-3.2 0 -5.7332 -0.9 -7.6 -2.7 s-2.8 -4.1932 -2.8 -7.18 l0 -0.32 l5.4 0 c0.08 1.76 0.55332 3.12 1.42 4.08 s2.0334 1.44 3.5 1.44 c1.3333 0 2.4266 -0.40668 3.28 -1.22 s1.28 -1.8733 1.28 -3.18 c0 -1.6267 -0.49332 -2.7267 -1.48 -3.3 s-2.36 -0.86 -4.12 -0.86 l-0.88 0 l0 -4 l1.04 0 c1.6 0 2.82 -0.3 3.66 -0.9 s1.26 -1.46 1.26 -2.58 c0 -1.2 -0.39332 -2.12 -1.18 -2.76 s-1.7134 -0.96 -2.78 -0.96 c-1.36 0 -2.42 0.44 -3.18 1.32 s-1.14 2.1067 -1.14 3.68 l-5.4 0 c0.10668 -2.96 1.0334 -5.3132 2.78 -7.06 s4.0468 -2.62 6.9 -2.62 z M180.04000000000002 11.440000000000001 c2.48 0 4.5332 0.68 6.16 2.04 s2.6 3.2667 2.92 5.72 l-5.4 0 c-0.21332 -1.0667 -0.66664 -1.9134 -1.36 -2.54 s-1.4933 -0.94 -2.4 -0.94 c-1.5467 0 -2.8 0.77332 -3.76 2.32 s-1.4933 3.6134 -1.6 6.2 l0.08 0.08 c1.44 -2.08 3.5333 -3.12 6.28 -3.12 c2.4 0 4.44 0.84 6.12 2.52 s2.52 3.88 2.52 6.6 c0 2.9067 -0.90668 5.34 -2.72 7.3 s-4.1732 2.94 -7.08 2.94 c-3.4667 0 -6.1268 -1.2333 -7.98 -3.7 s-2.78 -6.06 -2.78 -10.78 c0 -4.16 0.94668 -7.64 2.84 -10.44 s4.6132 -4.2 8.16 -4.2 z M175.12 30.68 c0 1.44 0.41336 2.6667 1.24 3.68 s1.92 1.52 3.28 1.52 c1.2533 0 2.28 -0.50668 3.08 -1.52 s1.2 -2.2133 1.2 -3.6 c0 -1.5467 -0.39332 -2.8134 -1.18 -3.8 s-1.8334 -1.48 -3.14 -1.48 c-1.36 0 -2.4467 0.48 -3.26 1.44 s-1.22 2.2133 -1.22 3.76 z M201.52000000000004 11.440000000000001 c3.36 0 5.92 1.2133 7.68 3.64 s2.64 6.0268 2.64 10.8 c0 4.8532 -0.87332 8.5132 -2.62 10.98 s-4.3132 3.7 -7.7 3.7 c-6.8268 0 -10.24 -4.8932 -10.24 -14.68 c0 -4.7468 0.86 -8.34 2.58 -10.78 s4.2732 -3.66 7.66 -3.66 z M196.96000000000004 25.72 c0 3.7867 0.39328 6.4268 1.18 7.92 s1.9134 2.24 3.38 2.24 c1.1733 0 2.0866 -0.4 2.74 -1.2 s1.1333 -1.8467 1.44 -3.14 s0.46 -3.2333 0.46 -5.82 c0 -3.4667 -0.40668 -5.9332 -1.22 -7.4 s-1.9666 -2.2 -3.46 -2.2 c-1.4667 0 -2.5867 0.74668 -3.36 2.24 s-1.16 3.9466 -1.16 7.36 z M240.80000000000004 11.440000000000001 l10.68 28.56 l-6.52 0 l-2.16 -6.36 l-10.68 0 l-2.24 6.36 l-6.36 0 l10.84 -28.56 l6.44 0 z M237.48000000000005 18.48 l-3.72 10.48 l7.4 0 l-3.6 -10.48 l-0.08 0 z M266.20000000000005 11.440000000000001 c4.0532 0 7.24 1.2533 9.56 3.76 s3.48 5.96 3.48 10.36 c0 4.56 -1.1667 8.1068 -3.5 10.64 s-5.46 3.8 -9.38 3.8 l-12.4 0 l0 -28.56 l12.24 0 z M265.80000000000007 34.72 c2.2667 0 4.0268 -0.74668 5.28 -2.24 s1.88 -3.6133 1.88 -6.36 c0 -3.1467 -0.67332 -5.5 -2.02 -7.06 s-3.42 -2.34 -6.22 -2.34 l-4.48 0 l0 18 l5.56 0 z M297.84000000000003 11.440000000000001 l10.68 28.56 l-6.52 0 l-2.16 -6.36 l-10.68 0 l-2.24 6.36 l-6.36 0 l10.84 -28.56 l6.44 0 z M294.52000000000004 18.48 l-3.72 10.48 l7.4 0 l-3.6 -10.48 l-0.08 0 z M323.92 11.440000000000001 c3.04 0 5.44 0.82668 7.2 2.48 s2.64 3.88 2.64 6.68 c0 2.8267 -0.88 5.06 -2.64 6.7 s-4.1468 2.46 -7.16 2.46 l-6.68 0 l0 10.24 l-6.28 0 l0 -28.56 l12.92 0 z M322.28000000000003 24.880000000000003 c1.8133 0 3.1667 -0.33332 4.06 -1 s1.34 -1.76 1.34 -3.28 c0 -1.4667 -0.43332 -2.5467 -1.3 -3.24 s-2.22 -1.04 -4.06 -1.04 l-5.04 0 l0 8.56 l5 0 z M358.84000000000003 11.440000000000001 l0 5.28 l-8.56 0 l0 23.28 l-6.28 0 l0 -23.28 l-8.56 0 l0 -5.28 l23.4 0 z M383.48 11.440000000000001 l0 5.28 l-15.08 0 l0 6.12 l13.84 0 l0 4.88 l-13.84 0 l0 7 l15.4 0 l0 5.28 l-21.68 0 l0 -28.56 l21.36 0 z M400.28000000000003 11.440000000000001 c4.0532 0 7.24 1.2533 9.56 3.76 s3.48 5.96 3.48 10.36 c0 4.56 -1.1667 8.1068 -3.5 10.64 s-5.46 3.8 -9.38 3.8 l-12.4 0 l0 -28.56 l12.24 0 z M399.88000000000005 34.72 c2.2667 0 4.0268 -0.74668 5.28 -2.24 s1.88 -3.6133 1.88 -6.36 c0 -3.1467 -0.67332 -5.5 -2.02 -7.06 s-3.42 -2.34 -6.22 -2.34 l-4.48 0 l0 18 l5.56 0 z"></path></g>
			</g>
		</svg>
	