<?xml version="1.0" encoding="utf-8"?>
<!-- Generator: Adobe Illustrator 19.1.0, SVG Export Plug-In . SVG Version: 6.00 Build 0)  -->
<svg version="1.1" id="Layer_1" xmlns="http://www.w3.org/2000/svg" xmlns:xlink="http://www.w3.org/1999/xlink" x="0px" y="0px"
	 viewBox="0 0 210 239.5" style="enable-background:new 0 0 210 239.5;" xml:space="preserve">
<style type="text/css">
	.st0{fill:#DADEE0;}
</style>
<g>
	<path class="st0" d="M13.8,51.5h39.7v27.6H13.8C6.2,79.1,0,72.9,0,65.3v0C0,57.6,6.2,51.5,13.8,51.5z"/>
	<path class="st0" d="M23.4,95h30.2v27.6H23.4c-7.6,0-13.8-6.2-13.8-13.8v0C9.5,101.1,15.7,95,23.4,95z"/>
	<path class="st0" d="M29.2,138.5h50.8L73,166.1H29.2c-5.6,0-10.1-4.5-10.1-10.1v-7.5C19.2,143,23.7,138.5,29.2,138.5z"/>
	<circle class="st0" cx="157.3" cy="21.3" r="21.3"/>
	<path class="st0" d="M147.8,89.9l-8.4,30.2c-0.1,0.2,0,0.5,0.1,0.7l28.6,47.6c0.1,0.1,0.1,0.3,0.1,0.4v70.2c0,0.2-0.2,0.4-0.4,0.4
		H146c-0.2,0-0.4-0.2-0.4-0.4v-51.8c0-0.2,0-0.3-0.1-0.5l-22-34.5L108.9,200c-0.1,0.2-0.2,0.4-0.4,0.5l-54.5,27.3
		c-0.2,0.1-0.4,0-0.6-0.2l-11.7-21.9c-0.1-0.2,0-0.5,0.2-0.6l44-22L112.6,75c0.2-0.6-0.4-1.2-1-1l-16.4,4.8
		c-0.4,0.1-0.6,0.4-0.6,0.8l-0.4,40.4c0,0.2-0.2,0.4-0.4,0.4H73.2c-0.2,0-0.4-0.2-0.4-0.4l1.6-60.4c0-0.4,0.3-0.7,0.6-0.8l61.8-14.8
		c3.5-0.8,7.1,0.6,9.1,3.6l27,40.3c0.2,0.2,0.4,0.4,0.7,0.4h35.9c0.2,0,0.4,0.2,0.4,0.4v22.2c0,0.2-0.2,0.4-0.4,0.4h-51.7
		c-0.4,0-0.7-0.2-0.8-0.5l-7.7-20.9C149.1,89.1,148,89.1,147.8,89.9z"/>
</g>
</svg>
