<?xml version="1.0" encoding="utf-8"?>
<!-- Generator: Adobe Illustrator 19.1.0, SVG Export Plug-In . SVG Version: 6.00 Build 0)  -->
<svg version="1.1" id="Layer_1" xmlns="http://www.w3.org/2000/svg" xmlns:xlink="http://www.w3.org/1999/xlink" x="0px" y="0px"
	 viewBox="0 0 412.5 92.5" style="enable-background:new 0 0 412.5 92.5;" xml:space="preserve">
<style type="text/css">
	.st0{fill:#4E5056;}
	.st1{fill:#FFFFFF;}
</style>
<g>
	<path class="st0" d="M399.5,94H13C5.8,94,0,88.2,0,81V14.5c0-7.2,5.8-13,13-13h386.5c7.1,0,13,5.8,13,13V81
		C412.5,88.2,406.6,94,399.5,94z"/>
	<g>
		<path class="st1" d="M133.4,56.1l-4.1,12.5H124l13.5-39.8h6.2l13.6,39.8h-5.5l-4.3-12.5H133.4z M146.5,52.1l-3.9-11.5
			c-0.9-2.6-1.5-5-2.1-7.3h-0.1c-0.6,2.4-1.2,4.8-2,7.2l-3.9,11.5H146.5z"/>
		<path class="st1" d="M162.8,49.4c0-3.7-0.1-6.6-0.2-9.3h4.7l0.2,4.9h0.1c2.1-3.5,5.5-5.6,10.2-5.6c6.9,0,12.1,5.9,12.1,14.5
			c0,10.3-6.3,15.4-13,15.4c-3.8,0-7.1-1.7-8.8-4.5H168v15.5h-5.1V49.4z M168,57c0,0.8,0.1,1.5,0.2,2.1c0.9,3.6,4.1,6.1,7.8,6.1
			c5.5,0,8.7-4.5,8.7-11.1c0-5.7-3-10.6-8.5-10.6c-3.5,0-6.9,2.5-7.9,6.4c-0.2,0.7-0.4,1.4-0.4,2.1V57z"/>
		<path class="st1" d="M196.5,49.4c0-3.7-0.1-6.6-0.2-9.3h4.7l0.2,4.9h0.1c2.1-3.5,5.5-5.6,10.2-5.6c6.9,0,12.1,5.9,12.1,14.5
			c0,10.3-6.3,15.4-13,15.4c-3.8,0-7.1-1.7-8.8-4.5h-0.1v15.5h-5.1V49.4z M201.6,57c0,0.8,0.1,1.5,0.2,2.1c0.9,3.6,4.1,6.1,7.8,6.1
			c5.5,0,8.7-4.5,8.7-11.1c0-5.7-3-10.6-8.5-10.6c-3.5,0-6.9,2.5-7.9,6.4c-0.2,0.7-0.4,1.4-0.4,2.1V57z"/>
		<path class="st1" d="M242.1,62.4c2.3,1.4,5.7,2.6,9.2,2.6c5.3,0,8.3-2.8,8.3-6.8c0-3.7-2.1-5.9-7.5-7.9
			c-6.5-2.3-10.5-5.7-10.5-11.3c0-6.2,5.1-10.8,12.9-10.8c4.1,0,7,0.9,8.8,2l-1.4,4.2c-1.3-0.7-4-1.9-7.6-1.9c-5.4,0-7.5,3.3-7.5,6
			c0,3.7,2.4,5.6,7.9,7.7c6.7,2.6,10.2,5.9,10.2,11.7c0,6.1-4.6,11.5-14,11.5c-3.8,0-8-1.1-10.2-2.5L242.1,62.4z"/>
		<path class="st1" d="M277.9,31.8V40h7.4v4h-7.4v15.4c0,3.5,1,5.6,3.9,5.6c1.4,0,2.4-0.2,3-0.4l0.2,3.9c-1,0.4-2.6,0.7-4.6,0.7
			c-2.4,0-4.4-0.8-5.6-2.2c-1.5-1.5-2-4.1-2-7.4V44h-4.4v-4h4.4v-6.9L277.9,31.8z"/>
		<path class="st1" d="M316.7,54.1c0,10.6-7.3,15.2-14.2,15.2c-7.7,0-13.7-5.7-13.7-14.7c0-9.6,6.3-15.2,14.2-15.2
			C311.1,39.4,316.7,45.4,316.7,54.1z M294,54.4c0,6.3,3.6,11,8.7,11c5,0,8.7-4.7,8.7-11.1c0-4.8-2.4-11-8.6-11
			C296.7,43.3,294,49,294,54.4z"/>
		<path class="st1" d="M323.3,49c0-3.4-0.1-6.3-0.2-8.9h4.6l0.2,5.6h0.2c1.3-3.8,4.4-6.3,7.9-6.3c0.6,0,1,0.1,1.5,0.2v4.9
			c-0.5-0.1-1.1-0.2-1.8-0.2c-3.7,0-6.3,2.8-7,6.7c-0.1,0.7-0.2,1.5-0.2,2.4v15.3h-5.1V49z"/>
		<path class="st1" d="M344.9,55.3c0.1,7,4.6,9.9,9.8,9.9c3.7,0,6-0.7,7.9-1.5l0.9,3.7c-1.8,0.8-5,1.8-9.5,1.8
			c-8.8,0-14.1-5.8-14.1-14.4c0-8.6,5.1-15.4,13.4-15.4c9.3,0,11.8,8.2,11.8,13.5c0,1.1-0.1,1.9-0.2,2.4H344.9z M360.2,51.6
			c0.1-3.3-1.4-8.5-7.2-8.5c-5.3,0-7.6,4.8-8,8.5H360.2z"/>
	</g>
	<g>
		<path class="st1" d="M60,32c0,0,11.4-0.3,12-13.8C72,18.2,60.1,18.1,60,32z"/>
		<path class="st1" d="M83,38.4c0,0-6.8,3.3-6.8,11.6s8,11.4,8,11.4s-5.8,15.9-13.1,15.9c-4.9,0-3.6-2.3-10-2.3
			c-4.8,0-4.9,2.3-9.6,2.3c-6.1,0-15.7-12.3-15.7-27.4s11.7-17.6,14.6-17.6c4.9-0.1,7.2,2.6,10.9,2.6C63.4,35,73.9,26.5,83,38.4z"/>
	</g>
</g>
</svg>
