<?xml version="1.0" encoding="utf-8"?>
<!-- Generator: Adobe Illustrator 18.1.1, SVG Export Plug-In . SVG Version: 6.00 Build 0)  -->
<!DOCTYPE svg PUBLIC "-//W3C//DTD SVG 1.1//EN" "http://www.w3.org/Graphics/SVG/1.1/DTD/svg11.dtd">
<svg version="1.1" id="Layer_1" xmlns="http://www.w3.org/2000/svg" xmlns:xlink="http://www.w3.org/1999/xlink" x="0px" y="0px"
	 viewBox="0 0 360.3 360.3" enable-background="new 0 0 360.3 360.3" xml:space="preserve">
<path d="M180.1,0C80.7,0,0,80.7,0,180.1s80.7,180.1,180.1,180.1s180.1-80.7,180.1-180.1S279.6,0,180.1,0z M180.1,319.2
	c-76.8,0-139.1-62.3-139.1-139.1S103.3,41.1,180.1,41.1s139.1,62.3,139.1,139.1S257,319.2,180.1,319.2z"/>
<circle cx="180.1" cy="180.1" r="29.8"/>
<g>
	<path d="M151.9,128.2c8.4-4.6,18-7.2,28.3-7.2s19.9,2.6,28.3,7.2L244.6,92c-18.1-13.2-40.3-21-64.4-21s-46.4,7.8-64.4,21
		L151.9,128.2z"/>
	<path d="M128.2,151.9L92,115.7c-13.2,18.1-21,40.3-21,64.4s7.8,46.4,21,64.4l36.1-36.1c-4.6-8.4-7.2-18-7.2-28.3
		S123.6,160.3,128.2,151.9z"/>
</g>
<g>
	<path d="M232.1,208.4l36.1,36.1c13.2-18.1,21-40.3,21-64.4s-7.8-46.4-21-64.4l-36.1,36.1c4.6,8.4,7.2,18,7.2,28.3
		S236.7,200,232.1,208.4z"/>
	<path d="M208.4,232.1c-8.4,4.6-18,7.2-28.3,7.2s-19.9-2.6-28.3-7.2l-36.1,36.1c18.1,13.2,40.3,21,64.4,21s46.4-7.8,64.4-21
		L208.4,232.1z"/>
</g>
</svg>
