<?xml version="1.0" encoding="utf-8"?>
<!-- Generator: Adobe Illustrator 18.1.0, SVG Export Plug-In . SVG Version: 6.00 Build 0)  -->
<!DOCTYPE svg PUBLIC "-//W3C//DTD SVG 1.1//EN" "http://www.w3.org/Graphics/SVG/1.1/DTD/svg11.dtd">
<svg version="1.1" id="Layer_1" xmlns="http://www.w3.org/2000/svg" xmlns:xlink="http://www.w3.org/1999/xlink" x="0px" y="0px"
	 viewBox="0 0 63.4 64" enable-background="new 0 0 63.4 64" xml:space="preserve">
<g>
	<path fill="none" d="M9.1,27h34.6c0.7,0,1.4-0.6,1.4-1.3V23c0-0.7-0.6-1-1.4-1H9.1C8.3,22,8,22.3,8,23v2.7C8,26.4,8.3,27,9.1,27z"
		/>
	<path fill="none" d="M9.1,38h34.6c0.7,0,1.4-0.9,1.4-1.7v-2.7c0-0.7-0.6-1.7-1.4-1.7H9.1C8.3,32,8,32.9,8,33.7v2.7
		C8,37.1,8.3,38,9.1,38z"/>
	<path fill="none" d="M9.1,16h34.6c0.7,0,1.4-0.2,1.4-1v-2.7c0-0.7-0.6-1.4-1.4-1.4H9.1C8.3,11,8,11.6,8,12.4V15
		C8,15.8,8.3,16,9.1,16z"/>
	<path d="M63,36l-3.3-3.3c-0.2-0.2-0.5-0.3-0.8-0.3s-0.6,0.1-0.8,0.3L40.9,49.8c-0.2,0.2-0.5,0.3-0.8,0.3c-0.3,0-0.6-0.1-0.8-0.3
		l-7.6-7.6C31.4,42,31.2,42,30.9,42c0,0,0,0,0,0c-0.3,0-0.6,0-0.8,0.2l-1.4,1.2c0,0,0,0,0,0l-2,1.7c-0.2,0.2-0.3,0.5-0.3,0.8
		c0,0.3,0.1,0.6,0.3,0.8l1.4,1.4c0,0,0,0,0,0l6.3,6.6c0.5,0.5,1.2,1.2,1.6,1.6l3.3,3.3c0.2,0.2,0.5,0.3,0.8,0.3
		c0.3,0,0.6-0.1,0.8-0.3L53,47.7v0l10-10C63.5,37.2,63.5,36.4,63,36z"/>
	<path d="M40.1,63.1c-1.1,0-2.2-0.4-3-1.2l-3.3-3.3l-0.4-0.4c-0.4-0.4-0.9-0.9-1.2-1.3l0,0l0,0l-7.6-8.1c-0.2-0.2-0.3-0.7-0.5-0.7
		h-15C8.3,48,8,47.7,8,47v-2.7C8,43.6,8.3,43,9.1,43h15.6l0.1-0.1l3.3-3c0.8-0.7,1.8-1.2,2.9-1.2c1.1,0,2.1,0.4,2.9,1.2l6.3,6.4
		L53,33.6V5.7C53,2.8,50.6,0,47.6,0H5.1C2.1,0,0,2.8,0,5.7v53.2C0,61.9,2.1,64,5.1,64h42.6c2.9,0,5.4-2.1,5.4-5.1v-7l-10,9.9
		C42.2,62.6,41.2,63.1,40.1,63.1z M8,12.4C8,11.6,8.3,11,9.1,11h34.6c0.7,0,1.4,0.6,1.4,1.4V15c0,0.7-0.6,1-1.4,1H9.1
		C8.3,16,8,15.8,8,15V12.4z M8,23c0-0.7,0.3-1,1.1-1h34.6c0.7,0,1.4,0.3,1.4,1v2.7c0,0.7-0.6,1.3-1.4,1.3H9.1C8.3,27,8,26.4,8,25.7
		V23z M8,33.7C8,32.9,8.3,32,9.1,32h34.6c0.7,0,1.4,0.9,1.4,1.7v2.7c0,0.7-0.6,1.7-1.4,1.7H9.1C8.3,38,8,37.1,8,36.3V33.7z"/>
</g>
</svg>
