<?xml version="1.0" encoding="utf-8"?>
<!-- Generator: Adobe Illustrator 18.1.0, SVG Export Plug-In . SVG Version: 6.00 Build 0)  -->
<!DOCTYPE svg PUBLIC "-//W3C//DTD SVG 1.1//EN" "http://www.w3.org/Graphics/SVG/1.1/DTD/svg11.dtd">
<svg version="1.1" id="Layer_1" xmlns="http://www.w3.org/2000/svg" xmlns:xlink="http://www.w3.org/1999/xlink" x="0px" y="0px"
	 viewBox="94 -166.3 836.5 897.5" enable-background="new 94 -166.3 836.5 897.5" xml:space="preserve">
<g>
	<path d="M94-116.3v797.5c0,27.6,22.4,50,50,50h140.7c27.6,0,50-22.4,50-50v-797.5c0-27.6-22.4-50-50-50H144
		C116.4-166.3,94-143.9,94-116.3z M290.5,632.1c0,11-9,20-20,20H158.2c-11,0-20-9-20-20v-3.8c0-11,9-20,20-20h112.3c11,0,20,9,20,20
		V632.1z M290.5,63.7c0,11-9,20-20,20H158.2c-11,0-20-9-20-20v-3.8c0-11,9-20,20-20h112.3c11,0,20,9,20,20V63.7z M158.2-76h112.3
		c11,0,20,9,20,20v3.8c0,11-9,20-20,20H158.2c-11,0-20-9-20-20V-56C138.2-67,147.2-76,158.2-76z"/>
	<path d="M620.4-131.9c-10.6-25.5-39.9-37.6-65.4-27l-129.9,54c-25.5,10.6-37.6,39.9-27,65.4l306.3,736.3
		c10.6,25.5,39.9,37.6,65.4,27l129.9-54c25.5-10.6,37.6-39.9,27-65.4L620.4-131.9z M463.6,2.8l-1.5-3.5
		c-4.2-10.2,0.6-21.9,10.8-26.1L576.7-70c10.2-4.2,21.9,0.6,26.1,10.8l1.5,3.5c4.2,10.2-0.6,21.9-10.8,26.1L489.8,13.5
		C479.6,17.8,467.9,13,463.6,2.8z M638,77.4l-103.7,43.1c-10.2,4.2-21.9-0.6-26.1-10.8l-1.5-3.5c-4.2-10.2,0.6-21.9,10.8-26.1
		L621.2,37c10.2-4.2,21.9,0.6,26.1,10.8l1.5,3.5C653,61.4,648.2,73.1,638,77.4z M856.3,602.1l-103.7,43.1
		c-10.2,4.2-21.9-0.6-26.1-10.8l-1.5-3.5c-4.2-10.2,0.6-21.9,10.8-26.1l103.7-43.1c10.2-4.2,21.9,0.6,26.1,10.8l1.5,3.5
		C871.3,586.2,866.5,597.9,856.3,602.1z"/>
</g>
</svg>
