<?xml version="1.0" encoding="utf-8"?>
<!-- Generator: Adobe Illustrator 18.1.0, SVG Export Plug-In . SVG Version: 6.00 Build 0)  -->
<!DOCTYPE svg PUBLIC "-//W3C//DTD SVG 1.1//EN" "http://www.w3.org/Graphics/SVG/1.1/DTD/svg11.dtd">
<svg version="1.1" id="Layer_2" xmlns="http://www.w3.org/2000/svg" xmlns:xlink="http://www.w3.org/1999/xlink" x="0px" y="0px"
	 viewBox="-411.4 243.1 63.8 75.9" enable-background="new -411.4 243.1 63.8 75.9" xml:space="preserve">
<path d="M-401.7,303.6h51.7c0.2,0,0.3,0,0.5-0.1c0,0,0,0,0,0c1.1,0,2-0.9,2-2v-56.5c0-1.1-0.9-2-2-2h-0.5h-48.5h-3.2
	c-5.3,0-9.7,4.3-9.7,9.7c0,0.1,0,0.1,0,0.2c0,4.9-0.1,50.1,0,56c0,0.1,0,0.2,0,0.3c0,5.1,4,9.3,9,9.6c0.1,0,0.2,0,0.3,0h52.5
	c1.1,0,2-0.9,2-2v-7.5c0-1.1-0.9-2-2-2c-1.1,0-2,0.9-2,2v5.5h-50.2c-3,0-5.5-2.4-5.6-5.4c0-0.1,0-0.1,0-0.2c0-0.1,0-0.2,0-0.4
	C-407.2,306-404.7,303.6-401.7,303.6z M-400.3,252.7c0-1.1,0.9-2,2-2s2,0.9,2,2v40.6c0,1.1-0.9,2-2,2s-2-0.9-2-2V252.7z"/>
</svg>
