<?xml version="1.0" encoding="utf-8"?>
<!-- Generator: Adobe Illustrator 25.4.0, SVG Export Plug-In . SVG Version: 6.00 Build 0)  -->
<svg version="1.1" id="Layer_1" xmlns="http://www.w3.org/2000/svg" xmlns:xlink="http://www.w3.org/1999/xlink" x="0px" y="0px"
	 viewBox="0 0 512 512" style="enable-background:new 0 0 512 512;" xml:space="preserve">
<style type="text/css">
	.st0{fill:#45B5FF;}
</style>
<g id="_x23_000000ff">
	<path class="st0" d="M435.8,0h3c17.7,0.5,35,8,47.6,20.6C502.9,36.8,511.3,60,512,82.9v4.2c-0.8,16.1-5.4,31.7-11.3,46.6
		c-6.1,14.2-14.1,27.9-24.9,39.1c-7.6,8-17,14.6-27.8,17.6c-0.1,67.8,0,135.7,0,203.6c0,20.9-5.5,41.8-16.1,59.8
		c-10.1,17.3-24.7,31.9-42,42c-17.4,10.3-37.4,15.7-57.6,16.1h-2.6c-19.7-0.4-39.3-5.4-56.4-15.2c-19.8-11.1-36.2-28.2-46.6-48.5
		c-7.4-14.1-11.6-29.8-12.8-45.6c-22.2,1.7-44.5,2.6-66.7,2.6c-23.1-0.4-46.2-0.8-69.1-3.3c-15.1-1.3-30.3-3.3-45-6.9
		c-9.6-2.5-19.5-5.4-27.4-11.6c-2.9-2.2-4.9-5.5-5.5-9.1V74c0.4-3.5,2.2-6.8,5-9c6.7-5.5,15-8.4,23.3-10.8c11.1-3.1,22.5-5,33.9-6.5
		c41.4-5,83.3-5.7,125-4.1c26.4,1.5,53,3.2,78.8,9.4c9.6,2.5,19.6,5.4,27.4,11.7c3.4,2.6,5.6,6.8,5.4,11.2c0,20.4,0,40.8,0,61.1
		c26.8,11.8,48.4,34.8,58,62.5c8.7,24.7,7.9,52.6-2.4,76.7c-10.5,24.9-30.8,45.3-55.5,56.1c0,13.3,0,26.5,0,39.8
		c0.1,3.6-1.2,7.2-3.8,9.8c-4.7,4.5-10.7,7.2-16.7,9.4c-13.9,4.9-28.4,7.2-43,9.2c1.2,17,6.7,33.8,16.3,47.9
		c12.8,19.1,32.7,33.3,55,39.1c19.7,5.2,41.1,3.8,60-3.9c15.9-6.4,30-17.1,40.4-30.8c11.4-14.9,18.4-33.2,19.5-51.9
		c0.5-9.3,0.2-18.7,0.3-28c0-60.8,0-121.7,0-182.5c-6.2-1.9-12.2-4.7-17.5-8.6c-15.4-11.4-26-28-33.9-45.2
		c-5.6-13-9.8-26.6-11.9-40.5c-3.3-27.2,5.3-56.3,25.1-75.7C401,7.9,418.2,0.5,435.8,0 M32.8,74.7C71,82.8,110.1,84.7,149,85.3
		c39.1-0.5,78.5-2.5,116.8-10.6c-37.7-8-76.4-10-114.9-10.6C111.4,64.5,71.6,66.4,32.8,74.7 M245.2,150.1
		c-20.3,2.5-39.4,12.7-52.9,28.1c-12.7,14.2-20.4,32.9-21.4,51.9c-1.1,20.1,5.2,40.6,17.5,56.5c11.5,15,28,26.1,46.4,30.7
		c19.1,5,40,3,57.9-5.6c20-9.5,36-27,43.5-47.8c6-16.2,6.8-34.3,2.3-51c-5.5-21.1-19.5-39.8-38.2-51.1
		C283.9,151.8,264.1,147.6,245.2,150.1z"/>
	<path class="st0" d="M248.2,174.2c3.9-4.6,11.7-4.6,15.6,0c2.3,2.3,2.9,5.6,2.9,8.8c0,11.2,0,22.4,0,33.6
		c5.3,3.4,9.6,8.9,10.3,15.3c1.4,8.4-3.2,17.2-10.6,21.3c-6.5,3.7-14.9,3.6-21.3-0.3c-7.1-4.1-11.4-12.7-10.1-20.9
		c0.7-6.4,5-12,10.4-15.4c0-11.2,0-22.4,0-33.7C245.4,179.9,245.9,176.6,248.2,174.2z"/>
</g>
</svg>
