<?xml version="1.0" encoding="utf-8"?>
<!-- Generator: Adobe Illustrator 18.1.1, SVG Export Plug-In . SVG Version: 6.00 Build 0)  -->
<!DOCTYPE svg PUBLIC "-//W3C//DTD SVG 1.1//EN" "http://www.w3.org/Graphics/SVG/1.1/DTD/svg11.dtd">
<svg version="1.1" id="Layer_1" xmlns="http://www.w3.org/2000/svg" xmlns:xlink="http://www.w3.org/1999/xlink" x="0px" y="0px"
	 viewBox="-365.166626 381.5 72.4772339 63.666626" enable-background="new -365.166626 381.5 72.4772339 63.666626"
	 xml:space="preserve">
<circle fill="#FFFFFF" cx="-306.2727356" cy="432" r="12.2210703"/>
<path d="M-306.2727051,418c-7.500061,0-13.583313,5.4758301-13.583313,13.583313
	c0,8.7097778,6.083252,13.583313,13.583313,13.583313c7.5025635,0,13.583313-6.0806885,13.583313-13.583313
	S-298.7701416,418-306.2727051,418z M-298.1227417,432.9416504c0,0.7481689-0.6115112,1.3583374-1.3582764,1.3583374h-4.0750122
	V438.375c0,0.7481689-0.6115723,1.3583374-1.3583374,1.3583374h-2.7166748c-0.7468262,0-1.3583374-0.6101685-1.3583374-1.3583374
	v-4.0750122h-4.0750122c-0.7468262,0-1.3583374-0.6101685-1.3583374-1.3583374v-2.7166748
	c0-0.7481689,0.6115112-1.3583374,1.3583374-1.3583374h4.0750122v-4.0750122c0-0.7481689,0.6115112-1.3583374,1.3583374-1.3583374
	h2.7166748c0.7467651,0,1.3583374,0.6101685,1.3583374,1.3583374v4.0750122h4.0750122
	c0.7467651,0,1.3582764,0.6101685,1.3582764,1.3583374V432.9416504z"/>
<g>
	<path d="M-326.7575684,425.0302734h4.090332c0.8209229-2.1665039,2.0426025-4.0987549,3.5914917-5.7188721v-1.9629517h-7.6818237
		V425.0302734z"/>
	<path d="M-323.8560181,431.583313c0-0.4841919,0.0328369-0.9571533,0.0675049-1.4292603h-33.6962891V394.305603h5.1211548
		v1.2802734c0,2.1201782,1.7182007,3.8383789,3.8409424,3.8383789s3.8408813-1.7182007,3.8408813-3.8409424v-1.2802734h17.9242554
		v1.2802734c0,2.1227417,1.7207642,3.8409424,3.8409424,3.8409424s3.8408813-1.7182007,3.8408813-3.8409424v-1.2802734h5.1212158
		v21.3644409C-311.6548462,414.6044312-309.0650635,414-306.2727051,414v-19.4486084
		c0-4.3786011-3.4389038-7.9301758-7.6818237-7.9301758h-5.1212158v-1.2803345c0-2.1227417-1.7207031-3.8408813-3.8408813-3.8408813
		s-3.8409424,1.7181396-3.8409424,3.8408813v1.2803345h-17.9242554v-1.2803345c0-2.1227417-1.7181396-3.8408813-3.8408813-3.8408813
		s-3.8409424,1.7181396-3.8409424,3.8408813v1.2803345h-5.1211548c-4.242981,0-7.6818237,3.5515747-7.6818237,7.9301758v35.6026611
		c0,4.2403564,3.4388428,7.6792603,7.6818237,7.6792603h34.628479
		C-323.4963989,435.9213867-323.8560181,433.8319092-323.8560181,431.583313z"/>
	<rect x="-326.7575684" y="404.5454712" width="7.6818237" height="7.6843262"/>
	<rect x="-339.5606079" y="417.3484497" width="7.6818237" height="7.6818237"/>
	<rect x="-352.3636475" y="417.3484497" width="7.6818237" height="7.6818237"/>
	<rect x="-339.5606079" y="404.5454712" width="7.6818237" height="7.6843262"/>
	<rect x="-352.3636475" y="404.5454712" width="7.6818237" height="7.6843262"/>
</g>
</svg>
