<?xml version="1.0" encoding="utf-8"?>
<!-- Generator: Adobe Illustrator 19.1.0, SVG Export Plug-In . SVG Version: 6.00 Build 0)  -->
<svg version="1.1" id="Icon" xmlns="http://www.w3.org/2000/svg" xmlns:xlink="http://www.w3.org/1999/xlink" x="0px" y="0px"
	 viewBox="0 0 55.5 64" style="enable-background:new 0 0 55.5 64;" xml:space="preserve">
<style type="text/css">
	.st0{fill:#33BEFF;}
</style>
<g>
	<path class="st0" d="M55.5,34.8c0-12.6-8.5-23.3-20-26.6V4c0-2.2-1.8-4-4-4H24c-2.2,0-4,1.8-4,4v4.1C8.5,11.5,0,22.1,0,34.8
		C0,45,5.6,54,14,58.8l-1.4,2c-0.6,0.9-0.4,2.2,0.5,2.8c0.3,0.2,0.7,0.4,1.1,0.4c0.6,0,1.3-0.3,1.6-0.9l1.8-2.6
		c3.1,1.2,6.6,1.9,10.1,1.9s7-0.7,10.1-1.9l1.8,2.6c0.4,0.6,1,0.9,1.6,0.9c0.4,0,0.8-0.1,1.1-0.4c0.9-0.6,1.1-1.9,0.5-2.8l-1.4-2
		C49.8,54,55.5,45,55.5,34.8z M24,4h7.4v3.3C30.2,7.1,29,7,27.7,7S25.3,7.1,24,7.3V4z M27.7,58.5C14.6,58.5,4,47.9,4,34.8
		C4,21.7,14.6,11,27.7,11s23.7,10.6,23.7,23.7C51.5,47.9,40.8,58.5,27.7,58.5z"/>
	<path class="st0" d="M47,27.3c-0.3-0.7-1-1-1.7-0.8c-0.7,0.3-1,1-0.8,1.7c0.8,2.1,1.2,4.3,1.2,6.5c0,9.9-8.1,18-18,18
		c-9.9,0-18-8.1-18-18c0-9.9,8.1-18,18-18c0.7,0,1.3-0.6,1.3-1.3c0-0.7-0.6-1.3-1.3-1.3C16.3,14.1,7,23.4,7,34.8
		c0,11.4,9.3,20.7,20.7,20.7s20.7-9.3,20.7-20.7C48.4,32.2,47.9,29.7,47,27.3z"/>
	<path class="st0" d="M32.9,17.5c3.6,1.1,6.7,3.2,9,6.1c0.3,0.3,0.7,0.5,1,0.5c0.3,0,0.6-0.1,0.8-0.3c0.6-0.5,0.7-1.3,0.2-1.9
		c-2.7-3.4-6.2-5.8-10.3-7c-0.7-0.2-1.4,0.2-1.7,0.9C31.8,16.5,32.2,17.3,32.9,17.5z"/>
	<circle class="st0" cx="27.7" cy="34.8" r="2.3"/>
	<path class="st0" d="M29.1,29V21c0-0.7-0.6-1.3-1.3-1.3s-1.3,0.6-1.3,1.3V29c0,0.7,0.6,1.3,1.3,1.3S29.1,29.8,29.1,29z"/>
	<path class="st0" d="M41.7,33.4h-8.1c-0.7,0-1.3,0.6-1.3,1.3c0,0.7,0.6,1.3,1.3,1.3h8.1c0.7,0,1.3-0.6,1.3-1.3
		C43,34,42.4,33.4,41.7,33.4z"/>
</g>
</svg>
