<svg id="Icon" xmlns="http://www.w3.org/2000/svg" viewBox="0 0 53.54 64"><defs><style>.cls-1{fill:#33beff;}</style></defs><title>Vector Smart Object</title><path class="cls-1" d="M26.77,30.76A15.38,15.38,0,1,0,11.39,15.38,15.4,15.4,0,0,0,26.77,30.76ZM26.77,4A11.37,11.37,0,1,1,15.4,15.38,11.38,11.38,0,0,1,26.77,4Z"/><path class="cls-1" d="M53.27,46.69A30.55,30.55,0,0,0,36,32.81a2,2,0,0,0-2.41,1,19.45,19.45,0,0,1-6.78,7.76A19.45,19.45,0,0,1,20,33.85a2,2,0,0,0-2.41-1A30.55,30.55,0,0,0,.27,46.69a2,2,0,0,0,0,2,30.6,30.6,0,0,0,53,0A2,2,0,0,0,53.27,46.69Zm-17-9.5a26.57,26.57,0,0,1,3.21,1.49,35.8,35.8,0,0,1-6.85,8.77l-1-.91c-0.72-.65-1.45-1.31-2.21-1.9A23.41,23.41,0,0,0,36.31,37.19ZM24.1,44.63c-0.76.59-1.5,1.25-2.21,1.9l-1,.91A35.8,35.8,0,0,1,14,38.68a26.57,26.57,0,0,1,3.21-1.49A23.41,23.41,0,0,0,24.1,44.63Zm4,15.31V51.09a1.34,1.34,0,1,0-2.68,0v8.85A26.7,26.7,0,0,1,4.36,47.69a26.57,26.57,0,0,1,7.37-7.62A36.91,36.91,0,0,0,20,50.23a1.34,1.34,0,0,0,1.66,0c0.66-.52,1.31-1.1,2-1.72A24.42,24.42,0,0,1,26.77,46a24.42,24.42,0,0,1,3.09,2.5c0.69,0.62,1.34,1.21,2,1.72a1.34,1.34,0,0,0,1.66,0,36.91,36.91,0,0,0,8.29-10.16,26.57,26.57,0,0,1,7.37,7.62A26.7,26.7,0,0,1,28.11,59.94Z"/></svg>