<?xml version="1.0" encoding="utf-8"?>
<!-- Generator: Adobe Illustrator 19.1.0, SVG Export Plug-In . SVG Version: 6.00 Build 0)  -->
<svg version="1.1" id="Icon" xmlns="http://www.w3.org/2000/svg" xmlns:xlink="http://www.w3.org/1999/xlink" x="0px" y="0px"
	 viewBox="0 0 64 63.1" style="enable-background:new 0 0 64 63.1;" xml:space="preserve">
<style type="text/css">
	.st0{fill:#33BEFF;}
</style>
<g>
	<path class="st0" d="M19.1,32.2c0,7.1,5.8,12.9,12.9,12.9c7.1,0,12.9-5.8,12.9-12.9S39.1,19.4,32,19.4
		C24.9,19.4,19.1,25.1,19.1,32.2z M40.8,32.2c0,4.9-4,8.8-8.8,8.8c-4.9,0-8.8-4-8.8-8.8c0-4.9,4-8.8,8.8-8.8
		C36.9,23.4,40.8,27.3,40.8,32.2z"/>
	<path class="st0" d="M61.8,32L57.9,30c-0.2-2.1-0.6-4.1-1.3-6l2.8-3.6c1-1.3,1.1-3.1,0.3-4.5c-1.3-2.2-2.9-4.3-4.7-6.2
		c-0.8-0.8-1.8-1.2-2.9-1.2c-0.6,0-1.1,0.1-1.7,0.4l-4.1,1.9c-1.9-1.2-3.9-2.2-6.1-3l-1.1-4.5c-0.4-1.6-1.8-2.8-3.4-3
		C34.5,0.1,33.2,0,32,0c-1.2,0-2.5,0.1-3.8,0.2c-1.7,0.2-3,1.4-3.4,3l-1.1,4.5c-2.1,0.7-4.2,1.7-6.1,3l-4.1-1.9
		c-0.5-0.2-1.1-0.4-1.7-0.4c-1.1,0-2.1,0.4-2.9,1.2c-1.8,1.9-3.4,3.9-4.7,6.2c-0.8,1.4-0.7,3.2,0.3,4.5L7.3,24c-0.7,2-1.1,4-1.3,6
		L2.2,32c-1.5,0.8-2.4,2.4-2.2,4.1c0.3,2.7,1,5.3,2,7.8c0.6,1.5,2.1,2.5,3.7,2.6l4.6,0.1c1,1.5,2.2,2.9,3.5,4.2l-0.9,4.3
		c-0.3,1.6,0.4,3.3,1.8,4.2c2.3,1.5,4.9,2.7,7.5,3.5c0.4,0.1,0.8,0.2,1.2,0.2c1.2,0,2.3-0.5,3.1-1.5l2.9-3.5
		c0.9,0.1,1.7,0.1,2.6,0.1c0.9,0,1.7,0,2.6-0.1l2.9,3.5c0.8,0.9,1.9,1.5,3.1,1.5c0.4,0,0.8-0.1,1.2-0.2c2.6-0.8,5.2-2,7.5-3.5
		c1.4-0.9,2.1-2.6,1.8-4.2l-0.9-4.3c1.3-1.3,2.5-2.7,3.5-4.2l4.6-0.1c1.6,0,3.1-1,3.7-2.6c1-2.5,1.6-5.1,2-7.8
		C64.2,34.4,63.3,32.7,61.8,32z M45.9,15.4l6.2-2.9c1.6,1.6,3,3.4,4.1,5.4l-2.4,3.2c-0.3-0.5-0.5-1-0.8-1.5
		c-0.4-0.6-1.2-0.8-1.8-0.5c-0.6,0.4-0.8,1.2-0.5,1.8c1.6,2.7,2.6,5.6,3,8.8c1.3,12-7.3,22.8-19.2,24.1c-5.8,0.7-11.5-1-16.1-4.6
		c-4.6-3.6-7.4-8.8-8.1-14.6c-0.7-5.8,1-11.5,4.6-16.1c1.1-1.4,2.4-2.6,3.8-3.7c0,0,0.1-0.1,0.1-0.1c0.2-0.1,0.3-0.2,0.5-0.3
		c2.3-1.6,4.9-2.8,7.7-3.5l0,0c0.8-0.2,1.7-0.3,2.5-0.4c2.5-0.3,5-0.1,7.4,0.4l0,0C40.3,11.8,43.4,13.3,45.9,15.4z M28.7,4.2
		C29.8,4.1,30.9,4,32,4c1.1,0,2.2,0.1,3.3,0.2l0.9,3.8c-2.3-0.4-4.7-0.5-7-0.2c-0.5,0.1-1,0.1-1.5,0.2L28.7,4.2z M11.8,12.5l3.6,1.6
		c-0.9,0.8-1.8,1.8-2.6,2.8c-1,1.3-1.9,2.7-2.7,4.1l-2.4-3.1C8.9,16,10.3,14.2,11.8,12.5z M4,35.6l3.5-1.8c0,0.4,0.1,0.7,0.1,1.1
		c0.3,2.7,1,5.2,2.1,7.5l-4-0.1C4.9,40.3,4.3,38,4,35.6z M16.8,55.9l0.8-3.9c2.5,1.8,5.3,3.1,8.3,3.9L23.4,59
		C21,58.3,18.8,57.2,16.8,55.9z M40.6,59l-2.6-3.1c3-0.8,5.8-2.1,8.3-3.9l0.8,3.9C45.2,57.2,43,58.3,40.6,59z M58.3,42.4l-4,0.1
		c1.2-2.7,2-5.6,2.2-8.7l3.5,1.8C59.7,38,59.1,40.3,58.3,42.4z"/>
	<path class="st0" d="M13.3,32.2c0,4.2,1.4,8.4,4.1,11.6c0.3,0.3,0.7,0.5,1.1,0.5c0.3,0,0.6-0.1,0.8-0.3c0.6-0.5,0.7-1.3,0.2-1.9
		c-2.3-2.9-3.5-6.3-3.5-10c0-8.8,7.2-16,16-16c1.7,0,3.4,0.3,5,0.8c0.7,0.2,1.5-0.2,1.7-0.9c0.2-0.7-0.2-1.5-0.9-1.7
		C36,13.8,34,13.5,32,13.5C21.7,13.5,13.3,21.9,13.3,32.2z"/>
	<path class="st0" d="M48,32.2c0,8.8-7.2,16-16,16c-2.6,0-5-0.6-7.3-1.7c-0.7-0.3-1.5-0.1-1.8,0.6c-0.3,0.7-0.1,1.5,0.6,1.8
		c2.6,1.3,5.5,2,8.5,2c10.3,0,18.7-8.4,18.7-18.7c0-4.5-1.6-8.9-4.6-12.3c-0.5-0.6-1.3-0.6-1.9-0.1c-0.6,0.5-0.6,1.3-0.1,1.9
		C46.6,24.6,48,28.3,48,32.2z"/>
</g>
</svg>
