<?xml version="1.0" encoding="utf-8"?>
<!-- Generator: Adobe Illustrator 18.1.0, SVG Export Plug-In . SVG Version: 6.00 Build 0)  -->
<!DOCTYPE svg PUBLIC "-//W3C//DTD SVG 1.1//EN" "http://www.w3.org/Graphics/SVG/1.1/DTD/svg11.dtd">
<svg version="1.1" id="Layer_1" xmlns="http://www.w3.org/2000/svg" xmlns:xlink="http://www.w3.org/1999/xlink" x="0px" y="0px"
	 viewBox="0 0 49 41.3" enable-background="new 0 0 49 41.3" xml:space="preserve">
<g>
	<path d="M34.5,34.4c0,0.9,0,2.8-0.1,2.9c-3.4,3.4-10.3,4-17.2,4c-6.2,0-14.1-1.1-17-3.9C0,37.1,0,35.5,0,34.4
		C0,28.7,7.7,24,17.3,24S34.5,28.7,34.5,34.4z"/>
	<path d="M25.7,0.3c0.8,0.9,1.4,1.9,1.8,3H46v16H26.3c-0.7,1.2-1.6,2.2-2.6,3H35v6l6.1-6H49v-22H25.7z"/>
	<path d="M16.9,0C10,0,8.2,4.9,8.2,10.9s3.9,10.9,8.8,10.9c4.8,0,8.8-4.9,8.8-10.9S24.5,0,16.9,0z"/>
</g>
</svg>
