<?xml version="1.0" encoding="utf-8"?>
<!-- Generator: Adobe Illustrator 18.1.1, SVG Export Plug-In . SVG Version: 6.00 Build 0)  -->
<!DOCTYPE svg PUBLIC "-//W3C//DTD SVG 1.1//EN" "http://www.w3.org/Graphics/SVG/1.1/DTD/svg11.dtd">
<svg version="1.1" id="Layer_9" xmlns="http://www.w3.org/2000/svg" xmlns:xlink="http://www.w3.org/1999/xlink" x="0px" y="0px"
	 viewBox="-421.5 240.6 85 80.8" enable-background="new -421.5 240.6 85 80.8" xml:space="preserve">
<path d="M-372.2,245.3c-0.4-0.6-0.5-0.9-0.5-0.9l0.2-0.2c0,0,0.3,0.1,0.9,0.4c0.3,0.1,0.6,0.2,1,0.4c0.4,0.1,0.8,0.3,1.3,0.4
	c0.2,0.1,0.4,0.1,0.7,0.2c0.1,0,0.2,0,0.3,0.1c0.1,0,0.2,0,0.3,0c0.5,0.1,0.9,0,1.4,0c0.2-0.1,0.5-0.1,0.7-0.2
	c0.2-0.1,0.5-0.2,0.7-0.4c0.1-0.1,0.2-0.1,0.3-0.2c0.1-0.1,0.3-0.1,0.4-0.3l0.8-0.7c0,0,0,0.1,0,0l0,0l0,0l0,0l0.1,0l0.1-0.1
	l0.2-0.2l0.4-0.4c0.3-0.3,0.6-0.5,0.8-0.7c0.3-0.3,0.6-0.4,0.9-0.7c0.3-0.2,0.6-0.4,1-0.6c0.7-0.3,1.5-0.6,2.2-0.5
	c0.2,0,0.4,0,0.5,0.1c0.2,0,0.3,0.1,0.5,0.2c0.3,0.1,0.6,0.3,0.9,0.4c0.5,0.3,0.9,0.6,1.3,1c0.3,0.3,0.6,0.7,0.8,1
	c0.2,0.3,0.3,0.5,0.4,0.7c0.1,0.2,0.1,0.3,0.1,0.3l-0.2,0.2c0,0-0.4-0.1-0.9-0.4c-0.3-0.1-0.6-0.3-1-0.4c-0.4-0.2-0.8-0.3-1.2-0.5
	c-0.2-0.1-0.4-0.2-0.7-0.2c-0.1,0-0.2-0.1-0.3-0.1c-0.1,0-0.2-0.1-0.3-0.1c-0.5-0.2-1-0.3-1.5-0.4c-0.3,0-0.6,0-0.9,0.1
	c-0.3,0.1-0.6,0.2-0.8,0.5c-0.2,0.2-0.5,0.4-0.6,0.8l-0.2,0.5l-0.1,0.2l-0.1,0.1l0,0.1l0,0l0,0l0,0c0,0,0,0.1,0,0l-0.4,1
	c-0.1,0.3-0.5,0.7-0.8,1c-0.3,0.3-0.7,0.5-1,0.8c-0.3,0.2-0.8,0.4-1.2,0.6c-0.8,0.2-1.7,0.3-2.4,0.1c-0.4-0.1-0.7-0.2-1-0.3
	c-0.3-0.1-0.6-0.3-0.8-0.5c-0.5-0.3-0.9-0.7-1.2-1C-371.7,245.9-372,245.6-372.2,245.3z M-336.5,301.1v20.3h-85v-20.3h5.8v-22.8
	l16.3-11.5v11.5l16.3-11.5v11.5l16.3-11.5v22.5h5.6l3.1-39.8h9.3l2.7,39.8h6.3v11.7L-336.5,301.1L-336.5,301.1z M-394.9,292.4h-12.8
	v11.8h12.8V292.4z M-372.7,292.4h-12.8v11.8h12.8V292.4z M-350.4,292.4h-12.8v11.8h12.8V292.4z"/>
</svg>
