<?xml version="1.0" encoding="utf-8"?>
<!-- Generator: Adobe Illustrator 19.1.0, SVG Export Plug-In . SVG Version: 6.00 Build 0)  -->
<svg version="1.1" id="Icon" xmlns="http://www.w3.org/2000/svg" xmlns:xlink="http://www.w3.org/1999/xlink" x="0px" y="0px"
	 viewBox="0 0 64 64" style="enable-background:new 0 0 64 64;" xml:space="preserve">
<style type="text/css">
	.st0{fill:#33BEFF;}
</style>
<g>
	<path class="st0" d="M25.6,43.3c0,1.5,1.2,2.7,2.7,2.7h7.6c1.5,0,2.7-1.2,2.7-2.7v-4.9h4.9c1.5,0,2.7-1.2,2.7-2.7v-7.6
		c0-1.5-1.2-2.7-2.7-2.7h-4.9v-4.9c0-1.5-1.2-2.7-2.7-2.7h-7.6c-1.5,0-2.7,1.2-2.7,2.7v4.9h-4.9c-1.5,0-2.7,1.2-2.7,2.7v7.6
		c0,1.5,1.2,2.7,2.7,2.7h4.9V43.3z M20.7,35.8v-7.6h7.6v-7.6h7.6v7.6h7.6v7.6h-7.6v7.6h-7.6v-7.6H20.7z"/>
	<path class="st0" d="M19.9,51.3C13.2,47.1,9.2,39.9,9.2,32C9.2,19.4,19.4,9.2,32,9.2c3.1,0,6.2,0.6,9,1.9c0.7,0.3,1.5,0,1.8-0.7
		c0.3-0.7,0-1.5-0.7-1.8C38.9,7.2,35.5,6.5,32,6.5C18,6.5,6.5,18,6.5,32c0,8.8,4.5,16.9,12,21.6c0.2,0.1,0.5,0.2,0.7,0.2
		c0.4,0,0.9-0.2,1.1-0.6C20.7,52.5,20.5,51.7,19.9,51.3z"/>
	<path class="st0" d="M55.5,22.3c-0.3-0.7-1.1-1-1.7-0.7c-0.7,0.3-1,1.1-0.7,1.7c1.1,2.8,1.7,5.7,1.7,8.7
		c0,12.6-10.2,22.8-22.8,22.8c-2.3,0-4.6-0.4-6.8-1c-0.7-0.2-1.5,0.2-1.7,0.9c-0.2,0.7,0.2,1.5,0.9,1.7c2.5,0.8,5,1.2,7.6,1.2
		C46,57.5,57.5,46,57.5,32C57.5,28.6,56.8,25.4,55.5,22.3z"/>
	<path class="st0" d="M45.8,13.9c1.8,1.4,3.4,3.1,4.8,5c0.3,0.4,0.7,0.6,1.1,0.6c0.3,0,0.5-0.1,0.8-0.2c0.6-0.4,0.7-1.3,0.3-1.9
		c-1.5-2.1-3.3-4-5.3-5.5c-0.6-0.4-1.4-0.3-1.9,0.2C45.1,12.6,45.2,13.4,45.8,13.9z"/>
	<path class="st0" d="M32,0C14.4,0,0,14.4,0,32c0,17.6,14.4,32,32,32c17.6,0,32-14.4,32-32C64,14.4,49.6,0,32,0z M32,60
		C16.6,60,4,47.4,4,32C4,16.6,16.6,4,32,4c15.4,0,28,12.6,28,28C60,47.4,47.4,60,32,60z"/>
</g>
</svg>
