<?xml version="1.0" encoding="utf-8"?>
<!-- Generator: Adobe Illustrator 19.1.0, SVG Export Plug-In . SVG Version: 6.00 Build 0)  -->
<svg version="1.1" id="Capa_1" xmlns="http://www.w3.org/2000/svg" xmlns:xlink="http://www.w3.org/1999/xlink" x="0px" y="0px"
	 viewBox="-274 176.9 186.2 264.1" style="enable-background:new -274 176.9 186.2 264.1;" xml:space="preserve">
<style type="text/css">
	.st0{fill:#C3C6CA;}
</style>
<g id="_x33_4-Coffee_mug">
	<path class="st0" d="M-93.8,176.9h-24.9h-27.3h-122c-3.3,0-6,2.7-6,6v35.6c0,3.3,2.7,6,6,6h7.9l0.6,6c45.2,18,66.9,33.4,88,48.2
		c16.7,11.8,32.7,23.1,60.5,35.9l9.2-90.1h7.9c3.3,0,6-2.7,6-6v-35.6C-87.7,179.6-90.4,176.9-93.8,176.9z"/>
	<path class="st0" d="M-256.4,260.1l4.7,46c40,16.7,60.4,31.1,80.2,45.1c15.2,10.8,29.9,21.1,53.4,32.5l4.3-41.7
		c-35.2-15.3-54.3-28.8-72.8-41.9C-205,287.1-222.7,274.6-256.4,260.1z"/>
	<path class="st0" d="M-248.6,336l10.8,105h113.9l3-29.6c-30.7-14-48.4-26.6-65.7-38.8C-203.6,360.6-219.8,349.1-248.6,336z"/>
</g>
</svg>
