<?xml version="1.0" encoding="utf-8"?>
<!-- Generator: Adobe Illustrator 19.1.0, SVG Export Plug-In . SVG Version: 6.00 Build 0)  -->
<svg version="1.1" id="Icon" xmlns="http://www.w3.org/2000/svg" xmlns:xlink="http://www.w3.org/1999/xlink" x="0px" y="0px"
	 viewBox="0 0 64 39.8" style="enable-background:new 0 0 64 39.8;" xml:space="preserve">
<style type="text/css">
	.st0{fill:#33BEFF;}
</style>
<path class="st0" d="M63.2,10.4c-1.3-2.7-3.9-4.2-7.1-4.2c-0.4,0-0.7,0-1.1,0.1c0-1,0-2.1,0-3.1V2c0-1.1-0.9-2-2-2H2
	C0.9,0,0,0.9,0,2v1.1c0,11.3,0,24,12.7,30.4v4.2c0,1.1,0.9,2,2,2h25.5c1.1,0,2-0.9,2-2v-4.2c2.8-1.4,4.9-3.1,6.6-4.9
	c7.5-2.4,12.3-5.8,14.2-10.3C64.3,15.7,64.3,12.7,63.2,10.4z M39.5,30.4c-0.1,0-0.2,0.1-0.3,0.1h-2.7c-0.7,0-1.3,0.6-1.3,1.3
	s0.6,1.3,1.3,1.3h1.7v2.5H16.7v-2.5h13.2c0.7,0,1.3-0.6,1.3-1.3s-0.6-1.3-1.3-1.3H15.8c-0.1-0.1-0.2-0.1-0.3-0.1
	C6.3,26.3,4.5,18.6,4.1,9.9h32.1c0.7,0,1.3-0.6,1.3-1.3c0-0.7-0.6-1.3-1.3-1.3H4c0-1,0-2.1,0-3.2h47c0,1.1,0,2.1,0,3.2h-7.4
	c-0.7,0-1.3,0.6-1.3,1.3c0,0.7,0.6,1.3,1.3,1.3h7.3C50.5,18.6,48.7,26.3,39.5,30.4z M59.4,16.7c-0.8,1.7-2.5,4-6.6,6
	c1.6-4,2-8.3,2.1-12.4c0.4-0.1,0.8-0.1,1.2-0.1c2.3,0,3.2,1.4,3.5,2C60,13.1,60.3,14.8,59.4,16.7z"/>
</svg>
