<svg id="Icon" xmlns="http://www.w3.org/2000/svg" viewBox="0 0 49.97 64"><defs><style>.cls-1{fill:#33beff;}</style></defs><title>curriculum</title><path class="cls-1" d="M47.76,0H23.94a4,4,0,0,0-2.83,1.17L3,19.33a4,4,0,0,0-1.17,2.83V60a4,4,0,0,0,4,4h42a4,4,0,0,0,4-4V4A4,4,0,0,0,47.76,0ZM21.51,6.43V19.59H8.34ZM47.76,60h-42V22.26H22.84a1.33,1.33,0,0,0,1.33-1.33V4H47.76V60Z" transform="translate(-1.78)"/><path class="cls-1" d="M11.84,29.35a1.33,1.33,0,1,0,0,2.67H40.67a1.33,1.33,0,1,0,0-2.67H11.84Z" transform="translate(-1.78)"/><path class="cls-1" d="M11.84,39.14H26.26a1.33,1.33,0,0,0,0-2.67H11.84A1.33,1.33,0,1,0,11.84,39.14Z" transform="translate(-1.78)"/><path class="cls-1" d="M33.33,36.48a1.33,1.33,0,0,0,0,2.67h7.85a1.33,1.33,0,0,0,0-2.67H33.33Z" transform="translate(-1.78)"/><path class="cls-1" d="M11.84,46.27H40.67a1.33,1.33,0,0,0,0-2.67H11.84A1.33,1.33,0,1,0,11.84,46.27Z" transform="translate(-1.78)"/><path class="cls-1" d="M41.19,50.72H26.77a1.33,1.33,0,1,0,0,2.67H41.19A1.33,1.33,0,0,0,41.19,50.72Z" transform="translate(-1.78)"/><path class="cls-1" d="M19.69,50.72H11.84a1.33,1.33,0,1,0,0,2.67h7.85A1.33,1.33,0,1,0,19.69,50.72Z" transform="translate(-1.78)"/></svg>