<?xml version="1.0" encoding="utf-8"?>
<!-- Generator: Adobe Illustrator 18.1.1, SVG Export Plug-In . SVG Version: 6.00 Build 0)  -->
<!DOCTYPE svg PUBLIC "-//W3C//DTD SVG 1.1//EN" "http://www.w3.org/Graphics/SVG/1.1/DTD/svg11.dtd">
<svg version="1.1" id="Layer_1" xmlns="http://www.w3.org/2000/svg" xmlns:xlink="http://www.w3.org/1999/xlink" x="0px" y="0px"
	 viewBox="-161.3 86.7 388.6 388.6" enable-background="new -161.3 86.7 388.6 388.6" xml:space="preserve">
<g>
	<path d="M33,86.7c-107.1,0-194.3,87.2-194.3,194.3S-74.1,475.3,33,475.3c107.1,0,194.3-87.2,194.3-194.3S140.1,86.7,33,86.7z
		 M135.6,331.3c1,2.4,2.9,4.4,5.5,5.5l33.1,13.8c-25.7,52-79.4,87.9-141.2,87.9c-61.9,0-115.6-35.9-141.3-88l33.2-13.7
		c5.2-2.1,7.6-8.1,5.5-13.2c-2.1-5.2-8.1-7.6-13.2-5.5l-33.2,13.7c-5.4-15.9-8.4-32.9-8.4-50.7c0-17.8,3-34.9,8.4-50.9l33.2,13.8
		c5.2,2.1,11.1-0.3,13.3-5.5c2.1-5.2-0.3-11.1-5.5-13.2l-33.1-13.8c15.4-31.1,40.7-56.4,71.8-71.7l13.7,33.2
		c2.1,5.2,8.1,7.6,13.2,5.5c5.2-2.1,7.6-8.1,5.5-13.2l-13.7-33.2c15.9-5.4,32.9-8.4,50.7-8.4c17.8,0,34.9,3,50.9,8.4l-13.8,33.2
		c-1.1,2.6-1,5.4,0,7.8c1,2.4,2.9,4.4,5.5,5.5c5.2,2.1,11.1-0.3,13.3-5.5l13.7-33.1c31.1,15.4,56.4,40.7,71.7,71.8l-33.2,13.7
		c-5.2,2.1-7.6,8.1-5.5,13.2c2.1,5.2,8.1,7.6,13.2,5.5l33.2-13.7c5.4,15.9,8.4,32.9,8.4,50.7c0,17.8-3,34.9-8.4,50.9l-33.2-13.8
		c-5.2-2.1-11.1,0.3-13.3,5.5C134.5,326.2,134.6,328.9,135.6,331.3z"/>
	<path d="M106.3,193.1c-0.9-0.7-2.3-0.7-3.2,0.1c-3.7,3.3-7.6,6.8-11.5,10.6c-3.1,3-6.3,6.1-9.4,9.2c-0.9,0.9-1.8,1.8-2.7,2.7l0,0
		c-0.7-0.1-1.4-0.2-2-0.2c-3.9,0-7.6,1.7-10.2,4.7c-2.7,3.2-3.7,7.4-2.7,11.5c-1,1.1-2,2.2-2.9,3.3c-3.2,3.6-6.3,7.2-9.3,10.8
		l-2.8,3.3c-2.8,3.5-5.8,7-8.5,10.6l-0.5,0.6c-2.5-0.7-5.1-1.1-7.6-1.1c-15.2,0-27.7,12.4-27.7,27.7c0,5.8,1.8,11.3,5.1,16l-0.7,1.1
		c-1.7,2.8-3.2,5.3-4.4,7.4c-2.1,3.6-3.2,5.9-3.6,6.7c-0.8,1.6-0.5,3.5,0.6,4.9c0.9,1.1,2.2,1.7,3.5,1.7c1.1,0,2.1-0.4,2.9-1.1
		c0.4-0.3,2.4-2,5.6-5c1.8-1.7,3.9-3.7,6.2-6l0.7-0.7h0c3.7,1.7,7.6,2.6,11.7,2.6c15.2,0,27.6-12.4,27.6-27.7
		c0-5.3-1.5-10.4-4.3-14.8l0.1-0.2c2.8-3.5,5.6-7.2,8.3-10.8l2.6-3.5c2.8-3.8,5.6-7.7,8.3-11.5c1-1.4,2-2.9,3-4.3
		c3.5-0.3,6.7-2,8.9-4.7c2.3-2.7,3.4-6.1,3.1-9.7c-0.1-0.9-0.3-1.9-0.6-2.8v0c0.8-1.3,1.6-2.5,2.4-3.7c2.3-3.7,4.6-7.5,6.8-11.2
		c2.7-4.7,5.3-9.2,7.6-13.7C107.5,195.1,107.3,193.8,106.3,193.1z"/>
	<path d="M101.3,256.6c-0.8,0-1.6,0.1-2.3,0.2c-3.5,0.6-6.5,2.5-8.6,5.4c-2,2.9-2.8,6.4-2.2,9.9c1.1,6.3,6.6,11,13,11
		c0.8,0,1.6-0.1,2.3-0.2c3.5-0.6,6.5-2.6,8.6-5.4c2-2.9,2.8-6.4,2.2-9.9C113.2,261.2,107.7,256.6,101.3,256.6z"/>
	<path d="M-22.2,272.1c0.6-3.5-0.2-7-2.2-9.9c-2-2.9-5.1-4.8-8.6-5.4c-0.8-0.1-1.6-0.2-2.3-0.2c-6.4,0-11.9,4.6-13,11
		c-0.6,3.5,0.2,7,2.2,9.9c2,2.9,5.1,4.8,8.6,5.4c0.8,0.1,1.6,0.2,2.3,0.2C-28.8,283.1-23.3,278.5-22.2,272.1z"/>
	<path d="M-11.5,242c2.2,0,5.5-0.5,8.5-3.1c5.6-4.7,6.3-13.1,1.6-18.7c-2.5-3-6.2-4.7-10.2-4.7c-2.2,0-5.5,0.5-8.5,3.1
		c-2.7,2.3-4.4,5.5-4.7,9c-0.3,3.5,0.8,7,3.1,9.7C-19.2,240.3-15.5,242-11.5,242z"/>
	<path d="M33,225.8c7.3,0,13.2-5.9,13.2-13.2c0-7.3-5.9-13.2-13.2-13.2s-13.2,5.9-13.2,13.2C19.8,219.9,25.7,225.8,33,225.8z"/>
	<path d="M78,349H-12c-12.5,0-22.6,10.1-22.6,22.6s10.1,22.6,22.6,22.6H78c12.5,0,22.6-10.1,22.6-22.6S90.5,349,78,349z"/>
</g>
</svg>
