<?xml version="1.0" encoding="utf-8"?>
<!-- Generator: Adobe Illustrator 19.1.0, SVG Export Plug-In . SVG Version: 6.00 Build 0)  -->
<!DOCTYPE svg PUBLIC "-//W3C//DTD SVG 1.1//EN" "http://www.w3.org/Graphics/SVG/1.1/DTD/svg11.dtd">
<svg version="1.1" id="Icon" xmlns="http://www.w3.org/2000/svg" xmlns:xlink="http://www.w3.org/1999/xlink" x="0px" y="0px"
	 width="63.9420738px" height="64px" viewBox="0 0 63.9420738 64" style="enable-background:new 0 0 63.9420738 64;"
	 xml:space="preserve">
<style type="text/css">
	.st0{fill:#FFFFFF;}
</style>
<path class="st0" d="M62.7662773,47.3857002L48.9303741,33.5477982c-0.7519989-0.7518997-1.7734985-1.1747971-2.8378983-1.1747971
	c-1.0625,0-2.0839996,0.4228973-2.8359985,1.1747971l-4.9570007,4.955101
	c-0.7520027,0.7528992-1.1738014,1.7733994-1.1738014,2.8379021c0,0.4413986,0.0722008,0.8729973,0.2108994,1.2821999
	l-0.3085976,0.309597c-5.2441006-4.4804993-11.5371017-10.7782974-16.0137005-16.0253983l0.3027992-0.3027
	c0.4160004,0.1406002,0.8495998,0.2098999,1.2831993,0.2098999c1.0254002,0,2.0527-0.3915997,2.8359013-1.174799
	l4.9570999-4.9541016c0.7518997-0.7518997,1.1737995-1.7723999,1.1737995-2.8368988
	c0-1.0643997-0.4218998-2.085-1.1737995-2.8379002L16.5553761,1.1748C15.7721758,0.3916,14.7447758,0,13.7174759,0
	c-1.0254002,0-2.0528002,0.3916-2.8360004,1.1748L5.9264255,6.1299C5.1744757,6.8818002,4.7506456,7.9032998,4.7506456,8.9677
	c0,0.6153002,0.14258,1.2149,0.40625,1.7568998c-1.5878899,2.2645998-3.2382801,4.6142006-3.6914001,5.2461004
	c-1.7207069,1.9541006-1.957036,4.7860994-0.54493,7.0185003c9.3066101,14.6767998,25.4199104,30.7901001,40.0957108,40.0976982
	C41.9615746,63.6855011,43.0474739,64,44.1607742,64c1.4258003,0,2.8241997-0.5312996,3.8907013-1.4687996
	c0.5956993-0.4365005,2.9375-2.1152,5.1953011-3.732399c0.544899,0.2598,1.1366997,0.389698,1.7285004,0.389698
	c1.0253983,0,2.0527-0.3917007,2.8358994-1.1749001l4.955101-4.9540977
	c0.7519989-0.7519035,1.1757965-1.7723999,1.1757965-2.8369026C63.9420738,49.1591988,63.5182762,48.1376991,62.7662773,47.3857002z
	 M55.1764755,54.9756012l-6.8242989-6.8243027c-0.5214005-0.5213966-1.3691025-0.5213966-1.8906021,0
	c-0.5233994,0.5235023-0.5233994,1.3692017,0,1.8916016l5.0586014,5.0586014
	c-2.3516006,1.6816978-5.9746017,4.2784004-6.0391006,4.3417969c-0.3554001,0.3544998-0.8339005,0.5440025-1.3203011,0.5440025
	c-0.3417969,0-0.6854973-0.0918007-0.9960976-0.2881012C29.0260754,50.7313995,13.2760754,34.9833984,4.3111959,20.8446999
	c-0.4746103-0.75-0.3496103-1.7138996,0.2558599-2.3183994C4.6315055,18.4619007,7.1940055,14.8076,8.8561153,12.4375
	l1.5663605,1.5654001c0.2598,0.2616997,0.6015997,0.3926001,0.9454002,0.3926001
	c0.3417997,0,0.6835995-0.1309004,0.9452991-0.3926001c0.5215006-0.5215006,0.5215006-1.3682003,0-1.8906002L8.9654961,8.7645998
	l4.7519798-4.7518997l13.8379002,13.8359003l-4.7539005,4.7519989l-7.2460995-7.2460995
	c-0.5235004-0.5214996-1.3692007-0.5214996-1.8907003,0c-0.5234003,0.5234003-0.5234003,1.3691006,0,1.8924999l5.6680002,5.6680012
	l-3.7227001,3.7216988c5.2735004,6.7607002,14.9277992,16.422802,21.6855984,21.7020988l3.7305031-3.7304001l2.1913986,2.1914024
	c0.2616997,0.2607002,0.6035004,0.3915977,0.9453011,0.3915977c0.3417969,0,0.6854973-0.1308975,0.9452972-0.3915977
	c0.5234032-0.5214996,0.5234032-1.3692017,0-1.8916016l-3.7675972-3.7695999l4.7519989-4.7538986L59.9283752,50.222599
	L55.1764755,54.9756012z"/>
</svg>
