<?xml version="1.0" encoding="utf-8"?>
<!-- Generator: Adobe Illustrator 19.1.0, SVG Export Plug-In . SVG Version: 6.00 Build 0)  -->
<!DOCTYPE svg PUBLIC "-//W3C//DTD SVG 1.1//EN" "http://www.w3.org/Graphics/SVG/1.1/DTD/svg11.dtd">
<svg version="1.1" id="Icon" xmlns="http://www.w3.org/2000/svg" xmlns:xlink="http://www.w3.org/1999/xlink" x="0px" y="0px"
	 width="64px" height="43.7246094px" viewBox="0 0 64 43.7246094" style="enable-background:new 0 0 64 43.7246094;"
	 xml:space="preserve">
<style type="text/css">
	.st0{fill:#FFFFFF;}
</style>
<path class="st0" d="M57.7333984,0H6.2665997C2.8114998,0,0,2.8125086,0,6.2685084v31.1884918
	c0,3.4551086,2.8114998,6.2676086,6.2665997,6.2676086h51.4667969c3.455101,0,6.2666016-2.8125,6.2666016-6.2676086V6.2685084
	C64,2.8125086,61.1884995,0,57.7333984,0z M57.7333984,4.0351086c0.294899,0,0.5761986,0.0605998,0.8339996,0.1659999
	L32.6395988,24.5039082L6.4717088,4.0351086H57.7333984z M7.2528996,39.6894073l17.3358994-12.222599
	c0.6075001-0.4278088,0.7520008-1.267601,0.3243008-1.8740997c-0.4286995-0.6064014-1.2665997-0.7529011-1.875-0.3241997
	L4.2958999,38.4824066C4.1347084,38.1738091,4.0351,37.8291092,4.0351,37.4570007V6.2685084
	c0-0.2235999,0.0440001-0.4365087,0.1054997-0.6416001l26.8407993,20.9960899
	c0.4873085,0.380909,1.0723076,0.5713081,1.6581993,0.5713081c0.5849991,0,1.1708984-0.1903992,1.6581993-0.5713081
	L59.964798,6.5234084v30.9335918c0,0.0449066-0.0107002,0.0869064-0.0126991,0.1318054L42.4764977,25.2685089
	c-0.6083984-0.4287014-1.4461975-0.2822018-1.8740005,0.3241997c-0.4276962,0.6064987-0.2831993,1.446291,0.3242111,1.8740997
	l17.2656898,12.1737976c-0.1484985,0.0312004-0.3008003,0.0488014-0.4589996,0.0488014H7.2528996z"/>
</svg>
