<?xml version="1.0" encoding="utf-8"?>
<!-- Generator: Adobe Illustrator 18.1.1, SVG Export Plug-In . SVG Version: 6.00 Build 0)  -->
<svg version="1.1" id="Layer_1" xmlns="http://www.w3.org/2000/svg" xmlns:xlink="http://www.w3.org/1999/xlink" x="0px" y="0px"
	 width="76px" height="76px" viewBox="-536 718 76 76" style="enable-background:new -536 718 76 76;" xml:space="preserve">
<g>
	<path id="path-1" d="M-483.2,763.3h-30.6c-1.2,0-2.2-1-2.2-2.2v-17.9c0-1.2,1-2.2,2.2-2.2h30.6c1.2,0,2.2,1,2.2,2.2v17.9
		C-481,762.3-482,763.3-483.2,763.3z M-483.2,759.5h-5.2c-0.4,0-0.7-0.3-0.7-0.7c0-0.4,0.3-0.7,0.7-0.7h5.2v-14.8h-30.6V758h21
		c0.4,0,0.7,0.3,0.7,0.7c0,0.4-0.3,0.7-0.7,0.7h-21v1.6h30.6V759.5z M-504,767.8h4.4v-2c0-0.6,0.5-1.1,1.1-1.1s1.1,0.5,1.1,1.1v2
		h4.4c0.6,0,1.1,0.5,1.1,1.1c0,0.6-0.5,1.1-1.1,1.1h-11c-0.6,0-1.1-0.5-1.1-1.1C-505.1,768.3-504.6,767.8-504,767.8z"/>
	<path id="circle-1" d="M-498,721c19.3,0,35,15.7,35,35s-15.7,35-35,35s-35-15.7-35-35S-517.3,721-498,721 M-498,718
		c-21,0-38,17-38,38s17,38,38,38s38-17,38-38S-477,718-498,718L-498,718z"/>
</g>
</svg>
