<?xml version="1.0" encoding="utf-8"?>
<!-- Generator: Adobe Illustrator 25.4.0, SVG Export Plug-In . SVG Version: 6.00 Build 0)  -->
<svg version="1.1" id="Layer_1" xmlns="http://www.w3.org/2000/svg" xmlns:xlink="http://www.w3.org/1999/xlink" x="0px" y="0px"
	 viewBox="0 0 512 512" style="enable-background:new 0 0 512 512;" xml:space="preserve">
<style type="text/css">
	.st0{fill:#45B5FF;}
</style>
<g id="_x23_000000ff">
	<path class="st0" d="M219,107.7c8-0.9,16-0.6,24-0.7c39.4,0,78.7,0,118.1,0c38.9,0.3,77.4,16.5,105,43.9
		c28,27.3,44.7,65.6,46,104.7v10.2c-1.4,41.5-20.4,82-51.5,109.4c-27.4,24.5-63.8,38.5-100.5,38.8c-43,0-86,0-129,0
		c-28.4-0.1-56.7-10.5-78.4-28.8c-21.4-17.8-36.5-43-41.9-70.4c-0.6-4.9-0.1-9.9-0.3-14.8c2.7,0,5.3,0,8,0c0,2.7,0,5.3,0,8
		c13.4-3.5,25.3-12.7,31.5-25.1c7.4-14.1,7.3-31.8-0.3-45.8c-6.4-12.1-18-21.1-31.2-24.5c0,2.7,0,5.3,0,8c-2.7,0-5.3,0-8,0
		c0.2-6.1-0.7-12.4,1-18.4c5.1-22,16.4-42.5,32.3-58.5C163.8,123.7,190.8,110.6,219,107.7 M206.3,165.4c-8.1,0.8-14.6,8.5-14.3,16.6
		c0,52.7,0,105.4,0,158.1c0,8.8,8.2,16.4,17,15.9c46.7,0,93.4,0,140.1,0c8.8,0,16.4-8.2,16-17c0-52.4,0-104.7,0-157.1
		c0.4-9.1-7.9-17.3-17-16.8C300.8,165.3,253.5,165,206.3,165.4 M402.4,184.7c-5.2,1-9.1,6-9,11.2c-0.1,10.7-0.1,21.4,0,32.1
		c-0.1,6.2,5.4,11.6,11.5,11.5c8,0.1,16.1,0.1,24.1,0c6.2,0.1,11.7-5.4,11.6-11.6c0-10.7,0-21.3-0.1-32c0.2-6.2-5.3-11.8-11.5-11.6
		C420.2,184.6,411.3,184.1,402.4,184.7 M400.4,282.5c-4.1,1.8-6.9,6-6.9,10.5c-0.1,10.7-0.1,21.4,0,32.1
		c-0.2,5.8,4.7,11.2,10.5,11.5c7,0.2,14,0,21,0.1c2.9,0,6,0.2,8.7-1c4.1-1.8,6.9-6.1,6.9-10.6c0.1-10.6,0-21.3,0-31.9
		c0.1-5.8-4.7-11.2-10.5-11.5c-7-0.2-14.1,0-21.1-0.1C406.1,281.6,403.1,281.3,400.4,282.5z"/>
	<path class="st0" d="M25.3,143.2c2-1.3,4.7-0.4,5.7,1.6c6.7,9.6,13,19.6,17.8,30.3c1.7,4.1,3.3,8.4,3.1,12.9
		c-0.4,8.5-5.7,16.6-13.4,20.4c-7.9,4.1-18.1,3.4-25.3-1.8c-8-5.6-12.4-16.4-9.4-25.9c2.4-7.6,6.4-14.7,10.4-21.5
		C17.8,153.9,21,148.1,25.3,143.2z"/>
	<path class="st0" d="M206.4,173.4c2.5-0.4,5.1-0.2,7.6-0.2c44.7,0,89.4,0,134.1,0c4.8-0.4,9.3,3.9,9,8.8c0,52.4,0,104.8,0,157.2
		c0.3,4.9-4.1,9.2-9,8.9c-46.4,0-92.8,0-139.2,0c-4.9,0.4-9.4-4-9-8.9c0-52.4,0-104.8,0-157.1C199.7,178,202.5,174.3,206.4,173.4z"
		/>
	<path class="st0" d="M404.4,192.6c7.9-0.3,15.8-0.1,23.7-0.1c2.2-0.3,4.6,1.3,4.4,3.7c0.1,10.6,0.1,21.2,0,31.7
		c0.1,2-1.6,3.8-3.6,3.7c-7.9,0.1-15.8,0.1-23.8,0c-2,0.1-3.8-1.7-3.7-3.7c-0.1-10.3,0-20.6,0-30.9
		C401.1,195.1,402.2,192.8,404.4,192.6z"/>
	<path class="st0" d="M0,231.8c0.9-1.4,2-3.1,4-2.9c14.2-0.1,28.3,0,42.5,0c0,21.2,0,42.4,0,63.6c-14.2,0-28.4,0.1-42.6,0
		C2.1,292.5,1,291,0,289.8V231.8z"/>
	<path class="st0" d="M54.5,292.4c0-21.2,0-42.4,0-63.6c26,0,51.9,0,77.9,0c10.6,8.6,16.4,22.6,14.9,36.2
		c-1.1,10.6-6.6,20.7-14.9,27.4C106.4,292.4,80.4,292.4,54.5,292.4z"/>
	<path class="st0" d="M403.1,290c1.5-0.8,3.2-0.4,4.9-0.5c7,0.1,14-0.1,21.1,0.1c2.3-0.1,3.7,2.3,3.5,4.3c0,10.3,0,20.6,0,30.9
		c0.2,2-1.5,3.9-3.6,3.8c-7.9,0.1-15.9,0.1-23.8,0c-2.1,0.1-3.9-1.7-3.7-3.8c-0.1-10,0-20,0-29.9C401.3,293.2,401.3,291,403.1,290z"
		/>
</g>
</svg>
