<?xml version="1.0" encoding="utf-8"?>
<!-- Generator: Adobe Illustrator 19.1.0, SVG Export Plug-In . SVG Version: 6.00 Build 0)  -->
<svg version="1.1" id="Layer_1" xmlns="http://www.w3.org/2000/svg" xmlns:xlink="http://www.w3.org/1999/xlink" x="0px" y="0px"
	 viewBox="0 0 412.5 92.5" style="enable-background:new 0 0 412.5 92.5;" xml:space="preserve">
<style type="text/css">
	.st0{fill:#DE5849;}
	.st1{fill:#FFFFFF;}
	.st2{font-family:'Gotham-Book';}
	.st3{font-size:36px;}
	.st4{letter-spacing:-2;}
</style>
<g>
	<path class="st0" d="M399.5,92.5H13c-7.2,0-13-5.8-13-13V13C0,5.8,5.8,0,13,0h386.5c7.1,0,13,5.8,13,13v66.5
		C412.5,86.7,406.6,92.5,399.5,92.5z"/>
	<g>
		<path class="st1" d="M37,15.3c-0.8,0.6-1.2,1.6-1.2,2.7v56.8c0,1.6,1,2.8,2.3,3.4l30.8-30.6L37,15.3z"/>
		<polygon class="st1" points="70.4,49.1 41.8,77.6 78.6,57.3 		"/>
		<path class="st1" d="M70.5,45.9l9.3-9.2L41.2,14.8c-0.6-0.3-1.3-0.5-1.9-0.5L70.5,45.9z"/>
		<path class="st1" d="M93.3,44.4l-11.5-6.5L72,47.5l8.6,8.7l12.7-7C95.1,48.1,95.2,45.4,93.3,44.4z"/>
	</g>
	<g>
		<g>
			<path class="st1" d="M186,38.2c-7.4,0-13.3,6-13.3,13.3s6,13.3,13.3,13.3c7.4,0,13.3-6,13.3-13.3S193.4,38.2,186,38.2z M186,59.4
				c-4,0-7.3-3.6-7.3-7.9c0-4.4,3.3-7.9,7.3-7.9c4,0,7.3,3.6,7.3,7.9C193.3,55.9,190,59.4,186,59.4z"/>
			<path class="st1" d="M214.6,38.2c-7.4,0-13.3,6-13.3,13.3s6,13.3,13.3,13.3c7.4,0,13.3-6,13.3-13.3S222,38.2,214.6,38.2z
				 M214.6,59.4c-4,0-7.3-3.6-7.3-7.9c0-4.4,3.3-7.9,7.3-7.9c4,0,7.3,3.6,7.3,7.9C221.9,55.9,218.7,59.4,214.6,59.4z"/>
			<path class="st1" d="M249.3,39.1V40c-1.9-1.1-4.2-1.8-6.6-1.8c-7.2,0-13.1,6-13.1,13.3s5.9,13.3,13.1,13.3c2.3,0,4.5-0.6,6.4-1.7
				c0.1,0.4,0.1,0.9,0.1,1.3c0,3.8-3.1,6.9-6.9,6.9c-3.1,0-5.6-2-6.5-4.8l-5.2,2.1c1.9,4.5,5.9,7.9,11.6,7.9
				c8.5,0,12.5-5.8,12.6-12.7h0V39.1H249.3z M242.7,59.4c-3.9,0-7.1-3.6-7.1-7.9c0-4.4,3.2-7.9,7.1-7.9c2.9,0,5.5,2,6.6,4.8v6.3
				C248.2,57.5,245.7,59.4,242.7,59.4z"/>
			<rect x="258.5" y="25.3" class="st1" width="5.8" height="38.5"/>
			<path class="st1" d="M280.3,59.4c-3.5,0-5.6-1.1-6.9-3.6l17.5-7.5c0,0-4.6-13.1-16.6-8.9c-11.1,3.9-9.5,25.4,5.3,25.4
				c7.6,0,11.3-6,11.3-6l-4.9-2.9C286,55.9,283.8,59.4,280.3,59.4z M277.8,43.6c5.4-1,6.4,2.8,6.4,2.8l-11.9,5.1
				C272.3,51.5,272.8,44.5,277.8,43.6z"/>
			<path class="st1" d="M152.1,42.7v5.5h13.3c-1.1,6.6-5.8,11.2-13,11.2c-8.4,0-15.1-6.8-15.1-15.1c0-8.4,6.8-15.1,15.1-15.1
				c3.9,0,7,1.6,9.2,4.1l4.3-3.9c-3.4-3.6-8.1-5.5-13.7-5.5c-11.3,0-20.4,9.2-20.4,20.4c0,11.3,9.2,20.4,20.4,20.4
				c10.1,0,17.4-6.9,18.8-16.5h0v0c0.2-1.1,0.2-2.2,0.2-3.4c0-0.7,0-1.4-0.1-2.1H152.1z"/>
		</g>
		<text transform="matrix(1 0 0 1 300.3107 62.25)" class="st1 st2 st3 st4">play</text>
	</g>
</g>
</svg>
