<?xml version="1.0" encoding="utf-8"?>
<!-- Generator: Adobe Illustrator 19.1.0, SVG Export Plug-In . SVG Version: 6.00 Build 0)  -->
<svg version="1.1" id="Icon" xmlns="http://www.w3.org/2000/svg" xmlns:xlink="http://www.w3.org/1999/xlink" x="0px" y="0px"
	 viewBox="0 0 64 63.2" style="enable-background:new 0 0 64 63.2;" xml:space="preserve">
<style type="text/css">
	.st0{fill:#33BEFF;}
</style>
<g>
	<path class="st0" d="M12.8,31c0.7,0,1.3-0.6,1.3-1.3V1.3c0-0.7-0.6-1.3-1.3-1.3c-0.7,0-1.3,0.6-1.3,1.3v28.3
		C11.5,30.4,12.1,31,12.8,31z"/>
	<path class="st0" d="M22.8,19.5c0.7,0,1.3-0.6,1.3-1.3V1.3c0-0.7-0.6-1.3-1.3-1.3c-0.7,0-1.3,0.6-1.3,1.3v16.8
		C21.4,18.9,22,19.5,22.8,19.5z"/>
	<path class="st0" d="M32.8,25.1c0.7,0,1.3-0.6,1.3-1.3V1.3c0-0.7-0.6-1.3-1.3-1.3c-0.7,0-1.3,0.6-1.3,1.3v22.5
		C31.4,24.5,32,25.1,32.8,25.1z"/>
	<path class="st0" d="M42.7,13c0.7,0,1.3-0.6,1.3-1.3V1.3c0-0.7-0.6-1.3-1.3-1.3s-1.3,0.6-1.3,1.3v10.3C41.4,12.4,42,13,42.7,13z"/>
	<path class="st0" d="M62.7,18.4c-0.7,0-1.3,0.6-1.3,1.3v39.4H54V28.7c0-0.7-0.6-1.3-1.3-1.3c-0.7,0-1.3,0.6-1.3,1.3v30.4h-7.3V42.9
		c0-0.7-0.6-1.3-1.3-1.3s-1.3,0.6-1.3,1.3v16.3h-7.3v-9.8c0-0.7-0.6-1.3-1.3-1.3c-0.7,0-1.3,0.6-1.3,1.3v9.8h-7.3V47.1
		c0-0.7-0.6-1.3-1.3-1.3c-0.7,0-1.3,0.6-1.3,1.3v12.1h-7.3v-1.3c0-0.7-0.6-1.3-1.3-1.3c-0.7,0-1.3,0.6-1.3,1.3v1.3H5.8l17.8-26
		l10.3,6.4c0.9,0.6,2.1,0.3,2.7-0.6L58.9,7.2l0.9,4.7c0.2,1,1,1.6,2,1.6c0.1,0,0.3,0,0.4,0c1.1-0.2,1.8-1.3,1.6-2.3l-1.8-9.2
		c-0.1-0.5-0.4-1-0.8-1.3c-0.4-0.3-1-0.4-1.5-0.3l-9.2,1.8c-1.1,0.2-1.8,1.3-1.6,2.3C49,5.5,50.1,6.2,51.2,6l4.2-0.8l-21,30
		l-10.3-6.5c-0.9-0.6-2.1-0.3-2.7,0.6L4,54.7V2.2c0-1.1-0.9-2-2-2s-2,0.9-2,2v59c0,0,0,0,0,0v0c0,0,0,0,0,0.1c0,0.1,0,0.2,0,0.3
		c0,0.1,0,0.1,0,0.2c0,0.1,0,0.1,0.1,0.2c0,0.1,0.1,0.1,0.1,0.2c0,0.1,0.1,0.1,0.1,0.2c0,0.1,0.1,0.1,0.1,0.2c0,0.1,0.1,0.1,0.1,0.2
		c0.1,0.1,0.1,0.1,0.2,0.2c0,0,0.1,0,0.1,0.1c0,0,0,0,0,0c0,0,0,0,0,0C1,62.9,1.1,62.9,1.2,63c0,0,0.1,0,0.1,0
		c0.1,0,0.2,0.1,0.2,0.1c0,0,0.1,0,0.1,0c0.1,0,0.2,0,0.4,0h0c0,0,0,0,0,0h59.8c0.7,0,1.4-0.4,1.7-1c0.3-0.2,0.4-0.6,0.4-1V19.8
		C64,19,63.4,18.4,62.7,18.4z"/>
</g>
</svg>
