<?xml version="1.0" encoding="utf-8"?>
<!-- Generator: Adobe Illustrator 19.1.0, SVG Export Plug-In . SVG Version: 6.00 Build 0)  -->
<svg version="1.1" id="Icon" xmlns="http://www.w3.org/2000/svg" xmlns:xlink="http://www.w3.org/1999/xlink" x="0px" y="0px"
	 viewBox="0 0 64 54.4" style="enable-background:new 0 0 64 54.4;" xml:space="preserve">
<style type="text/css">
	.st0{fill:#33BEFF;}
</style>
<g>
	<path class="st0" d="M46,0c-5.5,0-10.6,2.5-14,6.7C28.6,2.5,23.5,0,18,0C8.1,0,0,8.1,0,18c0,5.9,2.9,10.1,5.2,13.4
		C12,41.1,29,53.2,29.7,53.7c0.7,0.5,1.5,0.7,2.3,0.7c0.8,0,1.6-0.2,2.3-0.7C35,53.2,52,41.1,58.8,31.4C61.1,28.1,64,23.9,64,18
		C64,8.1,55.9,0,46,0z M55.5,29.1C49.1,38.4,32,50.4,32,50.4S14.9,38.4,8.5,29.1C6.1,25.7,4,22.5,4,18c0-7.7,6.3-14,14-14
		c5.7,0,10.6,3.4,12.8,8.3v0h0c0.2,0.5,0.6,0.9,1.2,0.9c0.6,0,1-0.4,1.2-0.9h0C35.4,7.4,40.3,4,46,4c7.7,0,14,6.3,14,14
		C60,22.5,57.9,25.7,55.5,29.1z"/>
	<path class="st0" d="M36.7,15.4c0.2,0.1,0.4,0.1,0.6,0.1c0.5,0,1-0.3,1.2-0.7c0-0.1,0.1-0.2,0.1-0.3c1.3-3,4.3-4.9,7.6-4.9
		c2.3,0,4.4,0.9,5.9,2.5c0.5,0.5,1.4,0.5,1.9,0c0.5-0.5,0.5-1.4,0-1.9c-2.1-2.1-4.9-3.3-7.9-3.3c-4.3,0-8.3,2.6-10,6.5
		c0,0.1,0,0.1-0.1,0.2C35.8,14.2,36,15,36.7,15.4z"/>
	<path class="st0" d="M55.9,16.5c-0.7,0-1.3,0.6-1.3,1.3c0,2.7-1.3,4.8-3.5,7.9c-4.2,6.1-14.2,14-19,17.7
		c-4.9-3.7-14.8-11.6-19-17.7c-2.2-3.1-3.5-5.2-3.5-7.9c0-4.6,3.7-8.3,8.3-8.3c3.3,0,6.3,1.9,7.6,5c0,0.1,0.1,0.2,0.1,0.3
		c0.3,0.7,1.1,0.9,1.8,0.6c0.7-0.3,0.9-1.1,0.6-1.8c0,0,0-0.1-0.1-0.2c-1.8-4-5.7-6.5-10-6.5c-6.1,0-11,4.9-11,11
		c0,3.5,1.7,6.1,4,9.5c4.5,6.5,14.7,14.6,20.4,18.9c0.2,0.2,0.5,0.3,0.8,0.3c0.3,0,0.6-0.1,0.8-0.3c5.7-4.2,15.9-12.4,20.4-18.9
		c2.3-3.4,4-6,4-9.5C57.2,17.1,56.6,16.5,55.9,16.5z"/>
</g>
</svg>
