<?xml version="1.0" encoding="utf-8"?>
<!-- Generator: Adobe Illustrator 18.1.0, SVG Export Plug-In . SVG Version: 6.00 Build 0)  -->
<!DOCTYPE svg PUBLIC "-//W3C//DTD SVG 1.1//EN" "http://www.w3.org/Graphics/SVG/1.1/DTD/svg11.dtd">
<svg version="1.1" id="Capa_1" xmlns="http://www.w3.org/2000/svg" xmlns:xlink="http://www.w3.org/1999/xlink" x="0px" y="0px"
	 viewBox="-173 -26 612 612" enable-background="new -173 -26 612 612" xml:space="preserve">
<path d="M285.4,204.7c0-3.7-1.4-6.5-4.3-8.6L140.3,87.2c-4.1-3.3-8.6-3.3-13.5,0L-9,196.2c-2.4,2-3.7,4.9-3.7,8.6v196.5
	c0,3.3,1,5.9,3.1,8s4.5,3.1,7.3,3.1h80.8c3.3,0,5.9-1,8-3.1c2-2,3.1-4.7,3.1-8V280.6h93v120.6c0,3.3,1,5.9,3.1,8s4.7,3.1,8,3.1h80.8
	c3.3,0,5.9-1,8-3.1s3.1-4.7,3.1-8V204.7z M133-26c42,0,81.7,8.1,119,24.2s69.8,37.9,97.3,65.5s49.4,60,65.5,97.3S439,238,439,280
	c0,28.2-3.7,55.3-11,81.4c-7.3,26.1-17.6,50.5-30.9,73.1c-13.3,22.6-29.2,43.2-47.7,61.8c-18.6,18.6-39.2,34.5-61.8,47.7
	c-22.6,13.3-47,23.6-73.1,30.9c-26.1,7.3-53.2,11-81.4,11s-55.3-3.7-81.4-11c-26.1-7.3-50.5-17.6-73.1-30.9s-43.2-29.2-61.8-47.7
	c-18.6-18.6-34.5-39.2-47.7-61.8c-13.3-22.6-23.6-47-30.9-73.1c-7.3-26.1-11-53.2-11-81.4s3.7-55.3,11-81.4
	c7.3-26.1,17.6-50.5,30.9-73.1s29.2-43.2,47.7-61.8s39.2-34.5,61.8-47.7S25.5-7.6,51.6-15S104.8-26,133-26z"/>
</svg>
