<?xml version="1.0" encoding="utf-8"?>
<!-- Generator: Adobe Illustrator 19.1.0, SVG Export Plug-In . SVG Version: 6.00 Build 0)  -->
<svg version="1.1" id="Icon" xmlns="http://www.w3.org/2000/svg" xmlns:xlink="http://www.w3.org/1999/xlink" x="0px" y="0px"
	 viewBox="0 0 54.3 64" style="enable-background:new 0 0 54.3 64;" xml:space="preserve">
<style type="text/css">
	.st0{fill:#33BEFF;}
</style>
<g>
	<path class="st0" d="M53.1,24.5L30,1.2C29.2,0.4,28.2,0,27.1,0c-1.1,0-2.1,0.4-2.8,1.2L13.8,11.8V8.6c0-1.1-0.9-2-2-2
		c-1.1,0-2,0.9-2,2v7.1c0,0,0,0.1,0,0.1l-8.6,8.7C0.4,25.3,0,26.3,0,27.3V60c0,2.2,1.8,4,4,4h46.3c2.2,0,4-1.8,4-4V27.3
		C54.3,26.3,53.9,25.3,53.1,24.5z M43.4,60H30.9V36.1h12.5V60z M46,60V34.7c0-0.7-0.6-1.3-1.3-1.3H29.5c-0.7,0-1.3,0.6-1.3,1.3V60H4
		V28.7h32.3c0.7,0,1.3-0.6,1.3-1.3c0-0.7-0.6-1.3-1.3-1.3H5.3L27.1,4L49,26h-5c-0.7,0-1.3,0.6-1.3,1.3c0,0.7,0.6,1.3,1.3,1.3h6.3V60
		H46z"/>
	<path class="st0" d="M22.7,33.4H9.2c-0.7,0-1.3,0.6-1.3,1.3v14.4c0,0.7,0.6,1.3,1.3,1.3h13.5c0.7,0,1.3-0.6,1.3-1.3V34.7
		C24,34,23.4,33.4,22.7,33.4z M21.4,47.8H10.5V36.1h10.8V47.8z"/>
	<path class="st0" d="M34.4,50.5c0.7,0,1.3-0.6,1.3-1.3v-3.3c0-0.7-0.6-1.3-1.3-1.3s-1.3,0.6-1.3,1.3v3.3
		C33.1,49.9,33.7,50.5,34.4,50.5z"/>
</g>
</svg>
