<?xml version="1.0" encoding="utf-8"?>
<!-- Generator: Adobe Illustrator 18.1.1, SVG Export Plug-In . SVG Version: 6.00 Build 0)  -->
<svg version="1.1" id="glyphicons" xmlns="http://www.w3.org/2000/svg" xmlns:xlink="http://www.w3.org/1999/xlink" x="0px" y="0px"
	 viewBox="0 0 54 48" enable-background="new 0 0 54 48" xml:space="preserve">
<g id="charts_1_">
	<path d="M50,44V15c0-0.5508003-0.4502068-1-1-1h-8c-0.5498047,0-1,0.4491997-1,1v29h-2V1c0-0.5508-0.4502068-1-1-1h-8
		c-0.5498066,0-1,0.4492-1,1v43h-2V23c0-0.5508003-0.4502068-1-1-1h-8c-0.5498066,0-1,0.4491997-1,1v21h-2v-9
		c0-0.5508003-0.4502058-1-1-1H5c-0.5498056,0-1,0.4491997-1,1v1v8H0v4h54v-2v-2H50z"/>
</g>
</svg>
