<?xml version="1.0" encoding="utf-8"?>
<!-- Generator: Adobe Illustrator 18.1.1, SVG Export Plug-In . SVG Version: 6.00 Build 0)  -->
<!DOCTYPE svg PUBLIC "-//W3C//DTD SVG 1.1//EN" "http://www.w3.org/Graphics/SVG/1.1/DTD/svg11.dtd">
<svg version="1.1" id="Capa_1" xmlns="http://www.w3.org/2000/svg" xmlns:xlink="http://www.w3.org/1999/xlink" x="0px" y="0px"
	 viewBox="-243.0370026 348.0079956 69.0660019 96.9919968"
	 enable-background="new -243.0370026 348.0079956 69.0660019 96.9919968" xml:space="preserve">
<g>
	<path d="M-174.7030029,364.9840088l-16.2689972-16.2440186c-0.4690094-0.4689941-1.1040039-0.7319946-1.7680054-0.7319946
		h-47.7969971c-1.3809967,0-2.5,1.118988-2.5,2.5V442.5c0,1.3809814,1.1190033,2.5,2.5,2.5h64.0659943
		c1.3809967,0,2.5-1.1190186,2.5-2.5v-75.7480164C-173.9710083,366.0889893-174.2340088,365.4530029-174.7030029,364.9840088z
		 M-237.1309967,369.4750061c0-0.82901,0.6719971-1.5,1.5-1.5h27.2619934c0.8280029,0,1.5,0.67099,1.5,1.5v4.3889771
		c0,0.82901-0.6719971,1.5-1.5,1.5h-27.2619934c-0.8280029,0-1.5-0.67099-1.5-1.5V369.4750061z M-237.1309967,384.4750061
		c0-0.82901,0.6719971-1.5,1.5-1.5h27.2619934c0.8280029,0,1.5,0.67099,1.5,1.5v4.3889771c0,0.82901-0.6719971,1.5-1.5,1.5
		h-27.2619934c-0.8280029,0-1.5-0.67099-1.5-1.5V384.4750061z M-201.6309967,384.4750061c0-0.82901,0.6719971-1.5,1.5-1.5
		h16.7619934c0.8280029,0,1.5,0.67099,1.5,1.5v34.38797c0,0.8300171-0.6719971,1.5-1.5,1.5h-16.7619934
		c-0.8280029,0-1.5-0.6699829-1.5-1.5V384.4750061z M-237.1309967,399.4750061c0-0.8280029,0.6719971-1.5,1.5-1.5h27.2619934
		c0.8280029,0,1.5,0.6719971,1.5,1.5v4.3889771c0,0.8300171-0.6719971,1.5-1.5,1.5h-27.2619934c-0.8280029,0-1.5-0.6699829-1.5-1.5
		V399.4750061z M-237.1309967,414.4750061c0-0.8280029,0.6719971-1.5,1.5-1.5h27.2619934c0.8280029,0,1.5,0.6719971,1.5,1.5
		v4.3890076c0,0.8299866-0.6719971,1.5-1.5,1.5h-27.2619934c-0.8280029,0-1.5-0.6700134-1.5-1.5V414.4750061z
		 M-181.3690033,433.8630066c0,0.8280029-0.6719971,1.5-1.5,1.5h-52.7619934c-0.8280029,0-1.5-0.6719971-1.5-1.5v-4.3900146
		c0-0.82901,0.6719971-1.5,1.5-1.5h52.7619934c0.8280029,0,1.5,0.67099,1.5,1.5V433.8630066z M-194.9490051,370.3509827
		c-0.3370056,0-0.6580048-0.1340027-0.8959961-0.3719788c-0.2369995-0.2380066-0.3720093-0.5610046-0.3720093-0.8970032
		l0.0019989-15.1260071l16.3950043,16.3959961L-194.9490051,370.3509827L-194.9490051,370.3509827z"/>
</g>
</svg>
