<?xml version="1.0" encoding="utf-8"?>
<!-- Generator: Adobe Illustrator 18.1.1, SVG Export Plug-In . SVG Version: 6.00 Build 0)  -->
<!DOCTYPE svg PUBLIC "-//W3C//DTD SVG 1.1//EN" "http://www.w3.org/Graphics/SVG/1.1/DTD/svg11.dtd">
<svg version="1.1" id="Capa_1" xmlns="http://www.w3.org/2000/svg" xmlns:xlink="http://www.w3.org/1999/xlink" x="0px" y="0px"
	 viewBox="-64 155.8649902 482.1359863 482.1350098" enable-background="new -64 155.8649902 482.1359863 482.1350098"
	 xml:space="preserve">
<g>
	<path d="M391.4819946,354.0490112L262.82901,482.696991c-35.5350037,35.5400085-93.1080017,35.5400085-128.6459961,0
		l-42.8809967-42.8860168l42.8809967-42.8760071l42.8840027,42.8760071c11.8450012,11.821991,31.0639954,11.8460083,42.8859863,0
		l128.6439819-128.6430054c11.8160095-11.8309937,11.8160095-31.0660095,0-42.8999939l-42.881012-42.881012
		c-11.821991-11.8139954-31.0639954-11.8139954-42.8869934,0l-45.928009,45.9360046
		c-21.2919922-12.5310059-45.4909973-17.9049988-69.4490051-16.2910004l72.5010071-72.526001
		c35.5350037-35.5209961,93.1360168-35.5209961,128.6440125,0l42.8859863,42.8809967
		C427.0180054,260.9099731,427.0180054,318.5279846,391.4819946,354.0490112z M137.2059937,522.5629883l-45.9029999,45.9000244
		c-11.8450012,11.8459473-31.0639954,11.8169556-42.8809967,0L5.5379944,525.5819702
		c-11.8450012-11.8209839-11.8450012-31.0410156,0-42.8859863l128.6459961-128.6480103
		c11.8190002-11.8139648,31.0690002-11.8139648,42.8840027,0l42.8859863,42.8860168l42.8760071-42.8860168l-42.8760071-42.8809814
		c-35.5400085-35.5209961-93.1130066-35.5209961-128.6499939,0L-37.3450012,439.8110046
		c-35.5379944,35.5450134-35.5379944,93.1460266,0,128.6520081l42.8830032,42.881958
		c35.5100021,35.5400391,93.1100082,35.5400391,128.6459961,0l72.4960022-72.4989624
		C182.723999,540.4429932,158.5879974,535.0620117,137.2059937,522.5629883z"/>
</g>
</svg>
