<?xml version="1.0" encoding="utf-8"?>
<!-- Generator: Adobe Illustrator 18.1.0, SVG Export Plug-In . SVG Version: 6.00 Build 0)  -->
<svg version="1.1" id="Layer_1" xmlns="http://www.w3.org/2000/svg" xmlns:xlink="http://www.w3.org/1999/xlink" x="0px" y="0px"
	 viewBox="-397.4079895 230.0370026 90.3320007 102" enable-background="new -397.4079895 230.0370026 90.3320007 102"
	 xml:space="preserve">
<path fill="#B2BAC3" d="M-361.8349915,278.8410034c-1.0239868,0-1.7170105,0.1000061-2.07901,0.196991v6.5660095
	c0.4300232,0.1000061,0.9570312,0.1329956,1.6830139,0.1329956c2.6740112,0,4.322998-1.3540039,4.322998-3.6309814
	C-357.9079895,280.0620117-359.3289795,278.8410034-361.8349915,278.8410034z"/>
<path fill="#B2BAC3" d="M-312.7929993,266.5209961h-2.4489746v-11.8179932c0-0.0740051-0.0120239-0.147995-0.0210266-0.2230072
	c-0.0039978-0.4689941-0.1539917-0.9299927-0.4749756-1.2949982l-19.6660156-22.4639893
	c-0.0059814-0.006012-0.0119934-0.0080109-0.0159912-0.0140076c-0.1170044-0.1309967-0.2539978-0.2399902-0.3980103-0.3339996
	c-0.0429993-0.0289917-0.0859985-0.0529938-0.1309814-0.0780029c-0.125-0.0679932-0.2580261-0.125-0.3950195-0.1660004
	c-0.0369873-0.0099945-0.0699768-0.0249939-0.1069946-0.0349884c-0.1480103-0.0350037-0.303009-0.0570068-0.4589844-0.0570068
	h-48.3320312c-2.2069702,0-4,1.7949982-4,4v32.4839935h-2.4489746c-3.1570129,0-5.7170105,2.559021-5.7170105,5.7170105v29.730011
	c0,3.1559753,2.5599976,5.71698,5.7170105,5.71698h2.4489746v20.3520203c0,2.2049866,1.7929993,4,4,4h66
	c2.2050171,0,4-1.7950134,4-4v-20.3510132h2.4490051c3.1570129,0,5.7170105-2.5610046,5.7170105-5.7170105v-29.730011
	C-307.0759888,269.0800171-309.6359863,266.5209961-312.7929993,266.5209961z M-385.2420044,234.0370026h46.3320007v20.4649963
	c0,1.1049957,0.8960266,2.0000153,2,2.0000153h17.6679993v10.019989h-66V234.0370026z M-351.4059753,279.4370117v-4.2250061
	h17.0899963v4.2250061h-6.0700073v18.0119934h-5.0469971v-18.0119934H-351.4059753z M-352.9289856,281.9760132
	c0,2.1759949-0.723999,4.0229797-2.0440063,5.2769775c-1.7170105,1.6170044-4.2579956,2.3440247-7.2250061,2.3440247
	c-0.6619873,0-1.2559814-0.03302-1.71698-0.1000061v7.9509888h-4.9819946v-21.9389954
	c1.5509949-0.2640076,3.7290039-0.4630127,6.7969971-0.4630127c3.1029968,0,5.3119812,0.5940247,6.7980042,1.7810059
	C-353.8829956,277.9500122-352.9289856,279.7980042-352.9289856,281.9760132z M-388.065979,297.447998v-21.9389954
	c1.5509949-0.2640076,3.7269897-0.4630127,6.7949829-0.4630127c3.1020203,0,5.3110046,0.5940247,6.7969971,1.7810059
	c1.4190063,1.1230164,2.375,2.9710083,2.375,5.1480103c0,2.1759949-0.7259827,4.0229797-2.04599,5.2769775
	c-1.7170105,1.6170044-4.256012,2.3440247-7.2260132,2.3440247c-0.6579895,0-1.2549744-0.03302-1.71698-0.1000061v7.9509888
	h-4.9779968V297.447998z M-319.2419739,326.9530029h-66v-19.2669983h66V326.9530029z M-319.3339844,297.447998l-2.0130005-4.0249939
	c-0.8240051-1.5509949-1.3540039-2.7050171-1.9810181-3.9920044h-0.0639954
	c-0.4620056,1.2870178-1.0239868,2.4410095-1.7149963,3.9920044l-1.848999,4.0249939h-5.7389832l6.4319763-11.2519836
	l-6.2009888-10.9840088h5.7730103l1.9449768,4.0589905c0.6610107,1.3519897,1.1560059,2.4410095,1.6830139,3.6950073h0.0669861
	c0.5270081-1.4200134,0.9570007-2.4100037,1.5180054-3.6950073l1.8800049-4.0589905h5.7420044l-6.2690125,10.855011
	l6.5979919,11.3809814H-319.3339844z"/>
<path fill="#B2BAC3" d="M-377.0809937,282.1060181c0-2.0450134-1.4190063-3.2660217-3.927002-3.2660217
	c-1.0209961,0-1.71698,0.1000061-2.0799866,0.1970215v6.565979c0.4309998,0.1000061,0.9570007,0.1330261,1.6839905,0.1330261
	C-378.7299805,285.7369995-377.0809937,284.3840027-377.0809937,282.1060181z"/>
</svg>
