<?xml version="1.0" encoding="utf-8"?>
<!-- Generator: Adobe Illustrator 18.1.0, SVG Export Plug-In . SVG Version: 6.00 Build 0)  -->
<svg version="1.1" id="Layer_1" xmlns="http://www.w3.org/2000/svg" xmlns:xlink="http://www.w3.org/1999/xlink" x="0px" y="0px"
	 viewBox="-467 269 20 24" enable-background="new -467 269 20 24" xml:space="preserve">
<g>
	<g>
		<path fill="#B2BAC3" d="M-449,269h-16c-1.1040039,0-2,0.8959961-2,2v20c0,1.1040039,0.8959961,2,2,2h16
			c1.1040039,0,2-0.8959961,2-2v-20C-447,269.8959961-447.8959961,269-449,269z M-456,286.5c0,0.276001-0.2250061,0.5-0.5,0.5h-7
			c-0.276001,0-0.5-0.223999-0.5-0.5v-1c0-0.276001,0.223999-0.5,0.5-0.5h7c0.2749939,0,0.5,0.223999,0.5,0.5V286.5z M-450,282.5
			c0,0.276001-0.2250061,0.5-0.5,0.5h-13c-0.276001,0-0.5-0.223999-0.5-0.5v-1c0-0.276001,0.223999-0.5,0.5-0.5h13
			c0.2749939,0,0.5,0.223999,0.5,0.5V282.5z M-450,278.5c0,0.276001-0.2250061,0.5-0.5,0.5h-13c-0.276001,0-0.5-0.223999-0.5-0.5v-1
			c0-0.276001,0.223999-0.5,0.5-0.5h13c0.2749939,0,0.5,0.223999,0.5,0.5V278.5z M-450,274.5c0,0.276001-0.2250061,0.5-0.5,0.5h-13
			c-0.276001,0-0.5-0.223999-0.5-0.5v-1c0-0.276001,0.223999-0.5,0.5-0.5h13c0.2749939,0,0.5,0.223999,0.5,0.5V274.5z"/>
	</g>
</g>
</svg>
