<?xml version="1.0" encoding="utf-8"?>
<!-- Generator: Adobe Illustrator 18.1.0, SVG Export Plug-In . SVG Version: 6.00 Build 0)  -->
<svg version="1.1" id="Layer_2" xmlns="http://www.w3.org/2000/svg" xmlns:xlink="http://www.w3.org/1999/xlink" x="0px" y="0px"
	 viewBox="-411.3598633 243.0570068 63.8478584 75.8880005"
	 enable-background="new -411.3598633 243.0570068 63.8478584 75.8880005" xml:space="preserve">
<path fill="#B2BAC3" d="M-401.696991,303.6380005h51.6929932c0.1579895,0,0.3110046-0.0230103,0.4580078-0.0579834
	c0.0119934,0,0.0220032,0.0029907,0.0339966,0.0029907c1.1039734,0,2-0.8959961,2-2v-56.526001c0-1.1040039-0.8960266-2-2-2
	h-0.4890137h-48.4970093h-3.1959839c-5.322998,0-9.6530151,4.3309937-9.6530151,9.6529999
	c0,0.0709991,0.0140076,0.1389923,0.0210266,0.2079926c-0.007019,4.9160156-0.0680237,50.0880127-0.007019,56.0270081
	c-0.0039978,0.1159973-0.0180054,0.2290039-0.0180054,0.3460083c0,5.117981,4.007019,9.3069763,9.0469971,9.6229858
	c0.1010132,0.0159912,0.2000122,0.0310059,0.3050232,0.0310059h52.4869995c1.1039734,0,2-0.8959961,2-2v-7.5280151
	c0-1.1039734-0.8960266-2-2-2c-1.1040039,0-2,0.8960266-2,2v5.5280151h-50.1849976
	c-3.0390015,0-5.5200195-2.4129944-5.6419983-5.4219971c0.0029907-0.053009,0.0130005-0.1040039,0.0119934-0.1589966
	c-0.0020142-0.0880127-0.0050049-0.2250061-0.007019-0.4070129
	C-407.1589966,305.9960022-404.7009888,303.6380005-401.696991,303.6380005z M-400.3330078,252.7100067c0-1.1040039,0.8959961-2,2-2
	s2,0.8959961,2,2v40.6240082c0,1.1040039-0.8959961,2-2,2s-2-0.8959961-2-2V252.7100067z"/>
</svg>
