<?xml version="1.0" encoding="utf-8"?>
<!-- Generator: Adobe Illustrator 18.1.1, SVG Export Plug-In . SVG Version: 6.00 Build 0)  -->
<!DOCTYPE svg PUBLIC "-//W3C//DTD SVG 1.1//EN" "http://www.w3.org/Graphics/SVG/1.1/DTD/svg11.dtd">
<svg version="1.1" id="Layer_1" xmlns="http://www.w3.org/2000/svg" xmlns:xlink="http://www.w3.org/1999/xlink" x="0px" y="0px"
	 viewBox="-947 529 24 20" enable-background="new -947 529 24 20" xml:space="preserve">
<path d="M-935,540c-1.9500122,0-12-8.1099854-12-8.1099854V531c0-1.1040039,0.8959961-2,1.9990234-2H-925
	c1.1040039,0,2,0.8959961,2,2l-0.0159912,1C-923.0159912,532-932.9559937,540-935,540z M-935,542.75
	c2.1380005,0,11.9840088-7.75,11.9840088-7.75L-923,547c0,1.1040039-0.8959961,2-2,2h-20.0009766
	C-946.1040039,549-947,548.1040039-947,547l0.0159912-12C-946.9840088,535-936.9500122,542.75-935,542.75z"/>
</svg>
