<?xml version="1.0" encoding="utf-8"?>
<!-- Generator: Adobe Illustrator 18.1.1, SVG Export Plug-In . SVG Version: 6.00 Build 0)  -->
<!DOCTYPE svg PUBLIC "-//W3C//DTD SVG 1.1//EN" "http://www.w3.org/Graphics/SVG/1.1/DTD/svg11.dtd">
<svg version="1.1" id="Layer_1" xmlns="http://www.w3.org/2000/svg" xmlns:xlink="http://www.w3.org/1999/xlink" x="0px" y="0px"
	 viewBox="-467 269 24 20" enable-background="new -467 269 24 20" xml:space="preserve">
<path d="M-445,289h-20c-1.1040039,0-2-0.8959961-2-2v-15.9989929C-467,269.8959961-466.1040039,269-465,269h20
	c1.1040039,0,2,0.8959961,2,2.0010071V287C-443,288.1040039-443.8959961,289-445,289z M-446,271.9989929h-18v13
	c1.1090088-1.1089783,2.8890076-2.8890076,4-4c0.9580078-0.9579773,1.9689941-0.0310059,1.9689941-0.0310059L-456,282.9989929
	c0,0,3.2529907-3.2529907,4.9689941-4.9689941c1.0310059-1.0310059,2.0150146-0.0469971,2.0150146-0.0469971L-446,280.9989929
	V271.9989929z M-460,277.9989929c-1.1040039,0-2-0.8959961-2-2s0.8959961-2,2-2s2,0.8959961,2,2
	S-458.8959961,277.9989929-460,277.9989929z"/>
</svg>
