<?xml version="1.0" encoding="utf-8"?>
<!-- Generator: Adobe Illustrator 18.1.0, SVG Export Plug-In . SVG Version: 6.00 Build 0)  -->
<svg version="1.1" id="Layer_1" xmlns="http://www.w3.org/2000/svg" xmlns:xlink="http://www.w3.org/1999/xlink" x="0px" y="0px"
	 viewBox="-463 265 32 32" enable-background="new -463 265 32 32" xml:space="preserve">
<g>
	<path fill="#E6EAED" d="M-459.2090149,268.0329895h11.0920105v4.927002c0,0.4450073,0.1650085,0.8730164,0.480011,1.1880188
		c0.3169861,0.3129883,0.7389832,0.4729919,1.1849976,0.4700012l4.9899902-0.0460205h0.0299988v9.5500183h2.5710144v-9.6080017
		c0-1.1100159-0.4240112-2.178009-1.2059937-2.9680176l-4.9500122-4.992981
		c-0.7919922-0.8000183-1.8630066-1.2369995-2.9880066-1.2369995h-11.4909973c-1.2569885,0-2.2839966,0.993988-2.2839966,2.2519836
		v24.4240112c0,1.2569885,1.0270081,2.2689819,2.2839966,2.2689819h6.0180054v-2.571991h-5.730011v-23.6560059H-459.2090149z
		 M-445.5450134,269.803009L-443.2659912,272h-0.0050049l-2.2740173,0.053009V269.803009z"/>
	<path fill="#E6EAED" d="M-456.0339966,273.5440063h3.6069946c0.7180176,0,1.3009949-0.5679932,1.3009949-1.2879944
		c0-0.7170105-0.5830078-1.2840271-1.3009949-1.2840271h-3.6069946c-0.7189941,0-1.2999878,0.5670166-1.2999878,1.2840271
		C-457.3340149,272.9760132-456.7529907,273.5440063-456.0339966,273.5440063z"/>
	<path fill="#E6EAED" d="M-444.5390015,275.9670105h-11.4949951c-0.7189941,0-1.2999878,0.565979-1.2999878,1.2850037
		c0,0.7189941,0.5809937,1.2869873,1.2999878,1.2869873h11.4949951c0.7189941,0,1.302002-0.5679932,1.302002-1.2869873
		C-443.2369995,276.5329895-443.8200073,275.9670105-444.5390015,275.9670105z"/>
	<path fill="#E6EAED" d="M-444.5390015,280.8150024h-11.4949951c-0.7189941,0-1.2999878,0.6789856-1.2999878,1.3959961
		c0,0.7189941,0.5809937,1.3959961,1.2999878,1.3959961h11.4949951c0.7189941,0,1.302002-0.6779785,1.302002-1.3959961
		C-443.2369995,281.493988-443.8200073,280.8150024-444.5390015,280.8150024z"/>
	<path fill="#E6EAED" d="M-457.3340149,287.0979919c0,0.7180176,0.5810242,1.2839966,1.3000183,1.2839966h2.5559998v-2.5699768
		h-2.5559998C-456.7529907,285.8120117-457.3340149,286.381012-457.3340149,287.0979919z"/>
	<path fill="#E6EAED" d="M-445.9849854,289.5669861c-0.2520142,0-0.4420166,0.0240173-0.5150146,0.0490112v1.618988
		c0.1470032,0.0230103,0.2380066,0.0310059,0.4179993,0.0310059c0.6579895,0,1.0669861-0.3320007,1.0669861-0.894989
		C-445.0150146,289.8680115-445.3680115,289.5669861-445.9849854,289.5669861z"/>
	<path fill="#E6EAED" d="M-449.6910095,285.7380066c-1.0369873,0-1.8779907,0.8410034-1.8779907,1.8789978v7.5549927
		c0,1.0379944,0.8410034,1.8789978,1.8779907,1.8789978h16.8130188c1.0379944,0,1.8789978-0.8410034,1.8789978-1.8789978v-7.5549927
		c0-1.0379944-0.8410034-1.8789978-1.8789978-1.8789978H-449.6910095z M-444.2910156,291.6409912
		c-0.4229736,0.3990173-1.0529785,0.5769958-1.7839966,0.5769958c-0.1629944,0-0.2769775-0.0069885-0.4249878-0.0239868v1.9930115
		h-1.2489929v-5.4390259c0.4400024-0.065979,0.9329834-0.1139832,1.6889954-0.1139832
		c0.7640076,0,1.3150024,0.1470032,1.6820068,0.4389954c0.348999,0.276001,0.5879822,0.7310181,0.5879822,1.2669983
		C-443.7900085,290.875-443.9670105,291.3309937-444.2910156,291.6409912z M-439.0610046,293.5020142
		c-0.5769958,0.4789734-1.4450073,0.7079773-2.5180054,0.7079773c-0.6429749,0-1.1019897-0.0409851-1.3959961-0.0809937v-5.3819885
		c0.4400024-0.072998,1.0370178-0.1140137,1.6629944-0.1140137c1.0410156,0,1.7109985,0.1870117,2.2400208,0.5849915
		c0.5669861,0.4230042,0.9230042,1.0980225,0.9230042,2.0640259
		C-438.1470032,292.3320007-438.5320129,293.0559998-439.0610046,293.5020142z M-434.0119934,289.7049866h-2.0580139v1.2480164
		h1.9830017v1.0279846h-1.9830017v2.2050171h-1.2479858v-5.5110168h3.3059998V289.7049866z"/>
	<path fill="#E6EAED" d="M-441.177002,289.5839844c-0.276001,0-0.4750061,0.0240173-0.5480042,0.0490112v3.5849915
		c0.072998,0.0250244,0.2640076,0.0250244,0.4160156,0.0250244c1.1219788,0.0069885,1.84198-0.6100159,1.84198-1.9200134
		C-439.4599915,290.1870117-440.1119995,289.5839844-441.177002,289.5839844z"/>
</g>
</svg>
