<?xml version="1.0" encoding="utf-8"?>
<!-- Generator: Adobe Illustrator 18.1.0, SVG Export Plug-In . SVG Version: 6.00 Build 0)  -->
<!DOCTYPE svg PUBLIC "-//W3C//DTD SVG 1.1//EN" "http://www.w3.org/Graphics/SVG/1.1/DTD/svg11.dtd">
<svg version="1.1" id="Layer_1" xmlns="http://www.w3.org/2000/svg" xmlns:xlink="http://www.w3.org/1999/xlink" x="0px" y="0px"
	 viewBox="-467 269 24 12" enable-background="new -467 269 24 12" xml:space="preserve">
<path d="M-449,269c-2.9,0-4.6,1.6-6,3.4c-1.4-1.8-3.1-3.4-6-3.4c-2.4,0-6,1.6-6,6s3.6,6,6,6c2.9,0,4.6-1.6,6-3.4
	c1.4,1.8,3.1,3.4,6,3.4c2.4,0,6-1.6,6-6S-446.6,269-449,269z M-461,278c-0.5,0-3-0.1-3-3c0-2.7,2.3-3,3-3c1.8,0,2.9,1.1,4.2,3
	C-458.1,276.9-459.2,278-461,278z M-449,278c-1.8,0-2.9-1.1-4.2-3c1.3-1.9,2.4-3,4.2-3c0.5,0,3,0.1,3,3
	C-446,277.7-448.3,278-449,278z"/>
</svg>
