<?xml version="1.0" encoding="utf-8"?>
<!-- Generator: Adobe Illustrator 18.1.0, SVG Export Plug-In . SVG Version: 6.00 Build 0)  -->
<!DOCTYPE svg PUBLIC "-//W3C//DTD SVG 1.1//EN" "http://www.w3.org/Graphics/SVG/1.1/DTD/svg11.dtd">
<svg version="1.1" id="Capa_1" xmlns="http://www.w3.org/2000/svg" xmlns:xlink="http://www.w3.org/1999/xlink" x="0px" y="0px"
	 viewBox="-435.5 265.7 40.9 33.1" enable-background="new -435.5 265.7 40.9 33.1" xml:space="preserve">
<path d="M-429.6,271.9l7.1,2.4c0.6,0.3,3.3,1.3,8.2,0.1c6.2-1.5,19.6-4.2,19.7-4.2l-0.5-2.5c0,0,0,0-0.1,0l-12.8-1.8
	c-1.4-0.2-3.7-0.1-5.1,0.1l-17.1,3.3c-2.2-0.1-4.3,1.2-5,3.5c-0.4,1.3-0.3,2.6,0.3,3.8c0.3,0.6,0.7,1.1,1.3,1.6
	c-0.8,0.6-1.4,1.4-1.7,2.4c-0.4,1.3-0.3,2.6,0.3,3.8c0.3,0.6,0.8,1.2,1.3,1.6c-0.8,0.6-1.4,1.4-1.7,2.4c-0.4,1.3-0.3,2.6,0.3,3.8
	c0.6,1.2,1.7,2.1,2.9,2.5l12.3,3.9c0.7,0.2,1.8,0.3,2.5,0.1l21.6-5c0,0-0.1-0.6-0.3-1.3c-0.2-0.7-0.8-1.1-1.5-1l-19.7,4.5
	c-0.7,0.2-1.8,0.1-2.5-0.1l-11.6-3.7c-0.6-0.2-1.1-0.6-1.4-1.2c-0.3-0.6-0.4-1.2-0.2-1.9c0.4-1.3,1.8-2,3.1-1.6c0,0,7.1,2.3,10,3.2
	c0.7,0.2,1.8,0.3,2.5,0.1l21.6-5c0,0-0.1-0.6-0.3-1.3c-0.2-0.7-0.8-1.1-1.5-1l-19.7,4.5c-0.7,0.2-1.8,0.1-2.5-0.1l-11.6-3.7
	c-0.6-0.2-1.1-0.6-1.4-1.2c-0.3-0.6-0.4-1.2-0.2-1.9c0.4-1.3,1.8-2,3.1-1.6c0,0,7.2,2.3,10.2,3.2c0.7,0.2,1.8,0.3,2.5,0.1l21.6-5
	c0,0-0.1-0.6-0.3-1.3c-0.2-0.7-0.8-1.1-1.5-1l-19.7,4.5c-0.7,0.2-1.8,0.1-2.5-0.1l-11.6-3.7c-0.6-0.2-1.1-0.6-1.4-1.2
	c-0.3-0.6-0.4-1.2-0.2-1.9C-432.2,272.2-430.9,271.5-429.6,271.9z"/>
</svg>
