<?xml version="1.0" encoding="utf-8"?>
<!-- Generator: Adobe Illustrator 22.1.0, SVG Export Plug-In . SVG Version: 6.00 Build 0)  -->
<svg version="1.1" id="Layer_1" xmlns="http://www.w3.org/2000/svg" xmlns:xlink="http://www.w3.org/1999/xlink" x="0px" y="0px"
	 viewBox="0 0 1280 1024" style="enable-background:new 0 0 1280 1024;" xml:space="preserve">
<style type="text/css">
	.st0{fill:#347322;}
	.st1{fill:#6D0A77;}
</style>
<g>
	<polygon class="st0" points="317.8,434.9 309.8,434.9 309.8,508.9 309.8,516.9 317.8,516.9 349.4,516.9 349.4,508.9 317.8,508.9 	
		"/>
	<rect x="359.9" y="456.1" class="st0" width="8" height="60.7"/>
	
		<ellipse transform="matrix(0.9871 -0.1602 0.1602 0.9871 -65.4208 63.9431)" class="st0" cx="363.9" cy="437.8" rx="6.3" ry="6.3"/>
	<path class="st0" d="M387.9,439.9l-0.5,7.3v8.9h-7.8v7h7.8v53.7h8v-53.7H408v-7h-12.6v-8.9c-1.3-14.5,13.3-6.3,13.3-6.3v-8
		c-1.2-0.7-1.5-0.5-5.5-1.5C394.4,429.3,388.3,434,387.9,439.9z"/>
	<polygon class="st0" points="565.7,433.5 557.7,433.5 557.7,456.1 547.2,456.1 547.2,463.2 557.7,463.2 557.7,516.9 565.7,516.9 
		565.7,463.2 578.4,463.2 578.4,456.1 565.7,456.1 	"/>
	<rect x="649.2" y="433.5" class="st0" width="8" height="83.3"/>
	<polygon class="st0" points="612.2,503.4 591.4,456.1 583.4,456.1 608.2,512.6 596.7,538.7 604.7,538.7 640.6,456.9 632.6,456.9 	
		"/>
	<path class="st0" d="M448.9,454.5c-17.7,0-32,14.3-32,32c0,17.7,14.3,32,32,32c12.7,0,23.7-7.4,28.9-18.2l-7-3.6
		c0,0-6.8,14.6-22.5,14.6c-12.9,0-23.4-11.1-23.4-24.7l54.7,0.1c0-0.2,0,0,0-0.3C479.5,468.8,466.6,454.5,448.9,454.5z M425.5,480.3
		c2.7-10.6,11.8-18.4,22.6-18.4s20,7.8,22.6,18.4L425.5,480.3z"/>
	<path class="st0" d="M733.1,486.5c0-17.7-12.9-32-30.6-32c-17.7,0-32,14.3-32,32c0,17.7,14.3,32,32,32c12.7,0,23.7-7.4,28.9-18.2
		l-7-3.6c0,0-6.8,14.6-22.5,14.6c-12.9,0-23.4-11.1-23.4-24.7l54.7,0.1C733.1,486.5,733.1,486.8,733.1,486.5z M679.2,480.3
		c2.7-10.6,11.8-18.4,22.6-18.4s20,7.8,22.6,18.4L679.2,480.3z"/>
	<path class="st0" d="M515.6,470c-8.3-5.8-16.9-12.3-14.6-20.7c1.1-4.1,4.7-7.1,8.9-7.8c9-1.5,13.7,5.9,16.7,9.7l6.8-5
		c0,0-7-13.4-22.6-13.4c-17.2,0-25.5,21.4-12.2,34.6l23.1,19.5c2.8,2.8,4.4,6.7,4.1,11c-0.4,6.8-5.9,12.5-12.6,13.2
		c-3.5,0.4-6.8-0.6-9.5-2.3c0,0-5.7-3.1-9.7-11.4l-7,4.5c0,0,6.9,17.3,25.5,17.3c17,0,22.2-15.5,22.2-23.4
		C534.6,488.8,529.2,479.6,515.6,470z"/>
</g>
<path class="st1" d="M363.9,565.9c16.1-11.4,54.8-10,54.8-10v-22c0,0-108.9-4.7-108.9,84s81.4,89.3,108.9,89.3v-21.3
	c0,0-46.4,9.3-69.4-23.3c-7.9-11.3-13.1-23.1-15-34.9h84.3v-21.5h-83.8C338.1,591.5,347.4,577.6,363.9,565.9z"/>
<rect x="618.2" y="608.4" transform="matrix(-1.836970e-16 1 -1 -1.836970e-16 1324.7562 -84.7378)" class="st1" width="173" height="23.2"/>
<path class="st1" d="M519.9,588.1l-33.4,93.7l-36.7-93.7h-25.6l41,103.4c0,0,3,18.1,20.2,18.1s20.3-18.1,20.3-18.1l39.1-103.4H519.9
	z"/>
<path class="st1" d="M822.1,588.1l-33.4,93.7L752,588.1h-25.6l41,103.4c0,0,3,18.1,20.2,18.1s20.3-18.1,20.3-18.1l39.1-103.4H822.1z
	"/>
<path class="st1" d="M608.7,584.6c-34.1,0-61.8,28-61.8,62.5s27.7,62.5,61.8,62.5s61.8-28,61.8-62.5S642.9,584.6,608.7,584.6z
	 M646.1,652.8c0,19.4-15.7,35.1-35.1,35.1h-5.5c-19.4,0-35.1-15.7-35.1-35.1v-11.4c0-19.4,15.7-35.1,35.1-35.1h5.5
	c19.4,0,35.1,15.7,35.1,35.1V652.8z"/>
<g>
	<path class="st1" d="M948.4,652.9l-1.2,0.4c-2.6,13.1-10.1,36.3-31.4,36.3c-29.7,0-45.1-16.3-45.3-47
		c-0.3-35.3,51.7-44.1,63.3-22.6l-57.3,32.2l9.6,17.5c12.4-6.7,57-30.9,80.9-44c-8.6-24-31.4-41.2-58.1-41.2
		c-34.1,0-61.8,28-61.8,62.5s27.7,62.5,61.8,62.5c31.6,0,57.6-24,61.3-54.9L948.4,652.9z"/>
</g>
<path class="st1" d="M897.2,398.4c0,0-171.6,40-129.8,181.5c0,0-39.2-74.6-10.7-123.8S897.2,398.4,897.2,398.4z"/>
<path class="st1" d="M653.2,396.3c0,0,76.2,1.8,89.2,63.4c0,0,13.7-22.8,21-26.1C763.4,433.5,738.4,389.3,653.2,396.3z"/>
<path class="st0" d="M908.6,395.5c0,0,24.1,79.4,4.1,110.4s-121.5,58.4-121.5,82.2c0,0-3.5-30.6,26-54.6
	c29.5-24.1,87-39.3,83.5-89.4c0,0-7,28.3-31,45.1s-86.5,29.7-86.5,99c0,0-23.3-63,5.5-107.8S901,458.6,908.6,395.5z"/>
<path class="st1" d="M795.7,588.1c0,0,8-7.3,29.4-16.5c24.9-10.7,97.1-14.5,112.7-62.3c12.3-37.6-1.1-87.9-1.1-87.9s-2.8,17-14.5,26
	c0,0,6.3,43.4-7,63.5C892.2,545.7,816,558.1,795.7,588.1z"/>
</svg>
