<?xml version="1.0" encoding="utf-8"?>
<!-- Generator: Adobe Illustrator 18.1.1, SVG Export Plug-In . SVG Version: 6.00 Build 0)  -->
<!DOCTYPE svg PUBLIC "-//W3C//DTD SVG 1.1//EN" "http://www.w3.org/Graphics/SVG/1.1/DTD/svg11.dtd">
<svg version="1.1" id="Layer_1" xmlns="http://www.w3.org/2000/svg" xmlns:xlink="http://www.w3.org/1999/xlink" x="0px" y="0px"
	 viewBox="0 0 112.8734665 116.3663483" enable-background="new 0 0 112.8734665 116.3663483" xml:space="preserve">
<path fill-rule="evenodd" clip-rule="evenodd" fill="#232020" d="M79.9050674,5.8409853
	c-0.0735245-0.0569468-0.5337067-0.3746829-1.383606-0.9682512L79.9050674,5.8409853z"/>
<g>
	<polygon fill-rule="evenodd" clip-rule="evenodd" fill="#FFFFFF" points="23.7840157,30.9304733 10.4887829,53.6708488 
		5.3411665,69.6870346 4.1840248,84.7677994 9.8554544,94.0895157 23.8578358,95.5837021 50.1923599,82.0807953 
		60.3453598,67.4069748 78.5211639,36.745285 79.9049225,21.4115906 77.1934738,9.6483202 69.526886,5.3465576 
		60.1935501,5.3465576 53.6935501,5.891984 39.360218,15.6033926 	"/>
	<polygon fill-rule="evenodd" clip-rule="evenodd" fill="#8BAF2B" points="84.1935501,15.5778933 95.8602142,26.5883923 
		100.3602142,34.7445602 106.1935501,51.0502434 109.526886,61.5778923 108.026886,77.4112244 106.8602142,95.7445602 
		103.526886,100.7445602 93.026886,103.4112244 81.3602142,106.4112244 68.3602142,110.9112244 55.9947281,111.4112244 
		45.4088936,109.5778961 32.5268822,106.4112244 25.1935501,102.5778961 22.6935501,99.0778961 27.8602161,95.5778961 
		50.360218,80.481369 68.3602142,56.9112282 77.3602142,37.2445602 79.9050674,19.9112263 	"/>
	<path fill-rule="evenodd" clip-rule="evenodd" fill="#6D8921" d="M112.3040314,73.0733566
		c1.732811-11.877964-0.5217285-24.6282425-6.3181915-36.5676041C100.4141006,25.0370121,91.585022,14.3027458,79.9050674,5.8409853
		l-2.509346-1.7328134c-0.3507385-0.3057637-0.7074661-0.5995545-1.0867538-0.8784564
		C69.2607498-1.8787768,59.012146-0.7244887,48.1355934,5.2624598
		c-10.0416946,5.5341358-20.8418083,15.2880239-30.0216236,27.9469719
		C8.9387617,45.8743668,3.028254,59.1732407,0.8997285,70.4321518c-2.3114927,12.201683-0.2159685,22.3003235,6.8293333,27.4088211
		c0.3746829,0.2713776,0.7599578,0.5157394,1.1512179,0.7479782c0.3267927,0.2549591,0.6864338,0.5321732,1.1002579,0.8439255
		c0.827342,0.6221161,1.2770844,0.9624176,1.3519907,1.0193634c12.0188704,8.7105789,25.3792953,13.8086319,38.365036,15.3841095
		c13.3978767,1.6308975,26.4075623-0.509758,37.174675-6.3168106c0.0690765-0.0328445,0.1409149-0.0718307,0.2098312-0.1079025
		c2.7971573-1.5289764,6.1623917-2.1345139,9.3056793-2.7010651c5.4653702-0.9848328,10.4165344-1.879715,13.5688705-6.5295563
		c3.0039139-3.8240433,2.6696014-12.2858047,2.3893204-19.4118423
		C112.2156219,77.46241,112.0971222,74.4824448,112.3040314,73.0733566z M8.3436584,71.8381729
		C10.27878,61.6316261,15.738163,49.4314766,24.2628574,37.667408c8.5291462-11.7640667,18.425478-20.747406,27.5213299-25.759964
		c8.2697372-4.5539126,15.6103668-5.7606959,20.0683441-2.525773c0.5545731,0.4016981,1.058197,0.8723164,1.5108566,1.3984995
		c0.0061417,0,0.0090561,0.0044518,0.0121231,0.010438c0.2233353,0.2607899,0.4360809,0.5337048,0.6339417,0.8215094
		c0.003067,0.0059862,0.006134,0.0119724,0.0105896,0.0179586c0.1993866,0.2878046,0.3866577,0.5935688,0.5561142,0.9053183
		c0.0029144,0.0061398,0.0059891,0.012126,0.0075226,0.0181131c1.5843811,2.8929338,2.1555405,6.9102249,1.7897568,11.6679802
		c0,0.0105896-0.0015335,0.0270138-0.0015335,0.0389881c-0.0405197,0.5036182-0.0914841,1.0193653-0.1513443,1.5409431
		c-0.0015335,0.0449734-0.0075226,0.0839615-0.0135117,0.1289368c-0.0584793,0.4887295-0.1273956,0.9803772-0.2038422,1.4839973
		c-0.0105896,0.0854969-0.0254745,0.1708393-0.0405197,0.2548027c-0.071991,0.4586449-0.1528854,0.9234295-0.2368469,1.3940487
		c-0.0224075,0.124485-0.0478897,0.2488155-0.0733719,0.3688488c-0.0914764,0.475071-0.1904831,0.9502926-0.2953262,1.4330368
		c-0.0449677,0.1978569-0.0899429,0.3957119-0.1349182,0.5935688c-0.1019211,0.4422207-0.2158127,0.890274-0.3298645,1.337101
		c-0.0554123,0.2158165-0.1092911,0.4316292-0.1693039,0.6460648c-0.1154327,0.4360809-0.2412949,0.8829079-0.3702316,1.3309593
		c-0.0660019,0.2264061-0.1333923,0.4528122-0.2009277,0.6850548c-0.1363068,0.4362335-0.2758331,0.8784561-0.4196548,1.3191414
		c-0.0795135,0.2443657-0.1559525,0.4887314-0.2383804,0.7255745c-0.1468964,0.4422188-0.3028488,0.8842888-0.4586487,1.3251266
		c-0.0899429,0.2488174-0.181427,0.4990158-0.2713776,0.7539711c-0.164856,0.4360847-0.3343124,0.8769226-0.5036163,1.3205261
		c-0.1019211,0.259407-0.2038422,0.520195-0.3057632,0.7794495c-0.1769867,0.4377708-0.3597946,0.8784561-0.5441437,1.3206787
		c-0.1138992,0.2652397-0.2264099,0.5381546-0.3432159,0.8049316c-0.1889572,0.4406853-0.3883438,0.8829079-0.592186,1.3251305
		c-0.1183472,0.271225-0.2412949,0.5426064-0.3671646,0.8153687c-0.2039948,0.4406853-0.4227295,0.8888931-0.6416092,1.337101
		c-0.1289368,0.2713814-0.2594147,0.5485954-0.3957138,0.8215103c-0.2204208,0.4526596-0.4526596,0.8993301-0.6881256,1.3519897
		c-0.1393738,0.2729149-0.274292,0.5456772-0.4181213,0.8170586c-0.2414474,0.4586449-0.496254,0.9172897-0.7466049,1.3805389
		c-0.1468964,0.266777-0.2878036,0.5335541-0.4376144,0.8004799c-0.2578735,0.4646339-0.530632,0.9277306-0.7960281,1.3925133
		c-0.1557999,0.2652435-0.3057632,0.5321732-0.4617157,0.7989464c-0.2802811,0.4752235-0.5756073,0.9562798-0.866333,1.4330368
		c-0.1559448,0.2548027-0.3042221,0.5036201-0.4617081,0.7584229c-0.3117523,0.4976349-0.6340942,0.9968033-0.9578171,1.4959717
		c-0.1468964,0.230854-0.2908745,0.4647827-0.4437561,0.6956406c-0.349205,0.5335503-0.7105331,1.0657196-1.0701714,1.5978928
		c-0.1364594,0.1978531-0.2669296,0.39571-0.4063034,0.5935669c-0.5007057,0.7315598-1.0162964,1.4569817-1.5394096,2.1825562
		c-0.5277176,0.7238884-1.0568199,1.4374886-1.5919037,2.1404991c-0.1783638,0.2368393-0.3628654,0.4646301-0.5412292,0.695488
		c-0.3596382,0.4647827-0.7165146,0.9294205-1.0792274,1.3820724c-0.2142792,0.2729187-0.4331627,0.5337067-0.65205,0.8004837
		c-0.3267937,0.4016953-0.6565018,0.8093796-0.9908142,1.211235c-0.2323914,0.2772141-0.4692383,0.5485916-0.7014771,0.8213577
		c-0.3223381,0.3732986-0.6400757,0.7525864-0.9639511,1.1212845c-0.2428322,0.2727585-0.4810562,0.5381546-0.7238884,0.8033981
		c-0.3208046,0.3628616-0.6431465,0.7195892-0.9668694,1.0703278c-0.2399139,0.260788-0.4827423,0.5155869-0.727108,0.7703934
		c-0.3221893,0.346283-0.6489792,0.698555-0.9742393,1.0313339c-0.2458992,0.2548065-0.4931793,0.4976349-0.7360115,0.7479858
		c-0.3283272,0.328331-0.65205,0.6626434-0.9803772,0.9788437c-0.2428284,0.2443695-0.4916458,0.4767609-0.7360115,0.7136002
		c-0.3312454,0.3177414-0.662487,0.6354752-0.9968033,0.9473801c-0.2383766,0.2262497-0.4812088,0.4406815-0.7225037,0.6624832
		c-0.3372307,0.3117523-0.6775284,0.6175156-1.0133781,0.9172897c-0.238224,0.2099838-0.4766045,0.4198151-0.7134476,0.6236572
		c-0.3432159,0.2937927-0.6865883,0.5935669-1.0282707,0.8829041c-0.2323914,0.1934052-0.4647827,0.3792877-0.6970215,0.5711594
		c-0.3507385,0.2907257-0.7030106,0.5725403-1.0537491,0.8514404c-0.2204208,0.1797485-0.4468269,0.3507385-0.6715431,0.5260315
		c-0.3597946,0.2773666-0.7165184,0.5501328-1.0733986,0.8215103c-0.2142792,0.1573334-0.4300919,0.3162003-0.6445274,0.4690857
		c-0.3686981,0.266922-0.734478,0.533699-1.0987206,0.7885056c-0.2038422,0.1409073-0.4107552,0.2818146-0.6175156,0.424263
		c-0.3733025,0.2547989-0.7481384,0.5096054-1.1212845,0.7539673c-0.1934052,0.1229553-0.3852768,0.2488174-0.5786819,0.3733063
		c-0.3851204,0.2442093-0.7688599,0.4810562-1.1525993,0.7134476c-0.1798973,0.1123581-0.3628616,0.2204208-0.5396881,0.3283234
		c-0.4167442,0.242836-0.8304138,0.4825897-1.2442398,0.7074661c-0.1214142,0.0689163-0.2397575,0.1364594-0.3596382,0.2038422
		c-0.4016991,0.2219543-0.8064671,0.431778-1.2067852,0.6356277c-0.092865,0.0509567-0.1858826,0.095932-0.280283,0.1468887
		c-0.4331646,0.2158203-0.8634129,0.4256439-1.2875214,0.6235046c-0.0600166,0.0270157-0.1200352,0.0569458-0.1814327,0.0839615
		c-0.4586449,0.2098312-0.9099236,0.4076843-1.3596649,0.5951004c-0.0283966,0.0105896-0.059864,0.0285492-0.0884132,0.0405273
		c-0.4721546,0.191864-0.9458408,0.3777466-1.4089375,0.5485916c-0.009058,0-0.0150433,0.0059891-0.0210304,0.0059891
		c-3.8344765,1.4046326-7.3180637,1.9036484-10.2036304,1.3641129c-0.0029163,0-0.0044498,0-0.0075207,0
		c-0.3567238-0.0675354-0.7030106-0.1528778-1.0431566-0.2488174c-0.0030708-0.0059814-0.0059872-0.0059814-0.0135078-0.0059814
		c-0.3373842-0.1019211-0.6655579-0.2144394-0.9803772-0.3447571c-0.0059872-0.0059814-0.0075216-0.0059814-0.0135078-0.0059814
		c-0.6400776-0.2669296-1.2471533-0.5997086-1.801733-1.0014114C7.7319779,88.4619217,6.5882812,81.1093216,8.3436584,71.8381729z
		 M104.7641678,81.0704803c0.2353058,5.9194107,0.5155945,12.9811401-0.7209702,14.3916092
		c-0.1109772,0.1304779-0.2128983,0.2669296-0.3059158,0.4018555h-0.0029144
		c-1.365654,2.0744934-4.8432541,2.7010651-8.6835632,3.3936386c-3.7549667,0.6744614-7.7707214,1.3984985-11.5992126,3.4895706
		c-0.0598679,0.0330048-0.1169662,0.0660019-0.173912,0.1019211c-9.3701477,5.0636749-20.8118782,6.9148331-32.6777115,5.4758072
		c-8.4648323-1.0298004-17.1393394-3.7370071-25.4393139-8.1619797c0.0030689,0,0.0075207-0.0059891,0.0135078-0.0059891
		c1.834734-0.4586487,3.7159786-1.0927353,5.6302242-1.8916855c0.07337-0.0270081,0.1424446-0.0569458,0.2158146-0.0899429
		c1.6084805-0.6804504,3.2363033-1.4614334,4.8851566-2.3684387c0.2683105-0.1468964,0.5441437-0.3117523,0.8155212-0.4690857
		c0.0478935-0.0285492,0.0988541-0.0509644,0.1498146-0.0795135c0.0824242-0.0449753,0.1650047-0.095932,0.2474327-0.1468964
		c0.4436035-0.2547989,0.8858261-0.5215759,1.3280449-0.7929535c0.1858864-0.1138992,0.3702316-0.2262573,0.5545807-0.3462906
		c0.4302483-0.266777,0.8604965-0.5426025,1.2905922-0.8273392c0.2024612-0.1289368,0.4032326-0.2653961,0.6012421-0.4017029
		c0.4211922-0.2818146,0.8408508-0.5726852,1.262043-0.866478c0.2158165-0.1468964,0.4287148-0.2997818,0.641613-0.4586487
		c0.4076843-0.2878036,0.8184395-0.589119,1.2276573-0.8948822c0.2264099-0.1694565,0.4571114-0.346283,0.6850548-0.520195
		c0.3941765-0.2997742,0.7944908-0.6070709,1.1902046-0.9234314c0.2412949-0.1872635,0.4810562-0.3866501,0.7254219-0.5845108
		c0.385273-0.3119049,0.7674789-0.6221161,1.1527519-0.944458c0.2518883-0.2098312,0.5036201-0.431633,0.7555046-0.6474457
		c0.3733025-0.3163528,0.7479858-0.6386948,1.1212883-0.9684067c0.260788-0.2308578,0.5215797-0.4692307,0.786972-0.7074585
		c0.3627129-0.328331,0.7254219-0.6566544,1.088131-0.9908142c0.2698479-0.2549591,0.5381584-0.509758,0.809536-0.7705536
		c0.3507385-0.3343124,0.7030106-0.6684723,1.0537491-1.0087738c0.2773666-0.2713776,0.556118-0.5545807,0.8350182-0.8363953
		c0.3401451-0.341835,0.6804466-0.674614,1.0176773-1.0253525c0.2893372-0.2953262,0.5711555-0.6010895,0.8604965-0.9024048
		c0.3252563-0.3447495,0.65205-0.6835098,0.9803772-1.0357895c0.2937927-0.3223343,0.5889626-0.6520462,0.8829079-0.9788361
		c0.3117485-0.341835,0.6235008-0.680603,0.9352493-1.0313416c0.3088341-0.35672,0.6176682-0.7134476,0.9234314-1.0761566
		c0.2907219-0.3343124,0.5831299-0.6686325,0.8723145-1.013382c0.3267937-0.3927917,0.6506691-0.7944946,0.9759293-1.1902008
		c0.2638588-0.3237228,0.5321693-0.6400833,0.7958755-0.9743958c0.3657799-0.4526596,0.7225037-0.9172897,1.0822983-1.3880615
		c0.220417-0.2772141,0.4406853-0.5545807,0.6626396-0.8423843c0.5725403-0.7555084,1.1436996-1.5199127,1.7073364-2.3009033
		c0.5636368-0.780983,1.119751-1.5635071,1.6563721-2.3444901c0.1708374-0.2442169,0.3237228-0.4810562,0.4871902-0.7254257
		c0.3686981-0.5441437,0.7358627-1.080761,1.0927353-1.6308899c0.2023087-0.3057632,0.3911133-0.6115265,0.5904999-0.912838
		c0.3059158-0.4796753,0.6176682-0.9684067,0.91745-1.448082c0.2038422-0.3297081,0.4016953-0.6640205,0.602623-0.9923477
		c0.2772141-0.4586449,0.5574951-0.9113045,0.8244247-1.3701019c0.2067566-0.3461342,0.4016953-0.6970253,0.599556-1.0492973
		c0.2547989-0.4347,0.5096054-0.8723183,0.7539673-1.3130035c0.1978607-0.3627129,0.3912582-0.7195892,0.5860443-1.0822983
		c0.2294769-0.424263,0.4617157-0.8483734,0.6850586-1.2741699c0.1964722-0.3731461,0.3823547-0.7464485,0.5756073-1.1211319
		c0.2069092-0.4078369,0.4122849-0.8155251,0.6145935-1.2172203c0.1889572-0.3912621,0.3762207-0.7825241,0.5636368-1.1677971
		c0.1814346-0.3911057,0.3673172-0.7748451,0.5485916-1.1661072c0.1874237-0.4032326,0.3628693-0.7989464,0.5441437-1.2006454
		c0.1619415-0.3688469,0.328331-0.737545,0.4871979-1.1048622c0.1754456-0.4136696,0.346283-0.8259583,0.5186615-1.2396317
		c0.1439819-0.352272,0.2908783-0.7030106,0.4331665-1.0552826c0.1694565-0.4227257,0.3312454-0.8423843,0.4916458-1.2681808
		c0.1260223-0.3281746,0.2549591-0.6565018,0.3748398-0.9908142c0.1619339-0.4362373,0.3177338-0.8723183,0.4676971-1.3085518
		c0.1063766-0.3057632,0.2142792-0.6115265,0.3192749-0.9234314c0.1498108-0.4466743,0.2953262-0.8948822,0.4362335-1.3430862
		c0.0899506-0.2818184,0.1812744-0.5650215,0.266777-0.8483734c0.1409073-0.4646301,0.2772141-0.9294167,0.4076843-1.3880615
		c0.0735245-0.2548027,0.1439743-0.5096054,0.2113647-0.7645607c0.1304703-0.4810562,0.2547989-0.9562798,0.3746796-1.4390259
		c0.0524979-0.2202644,0.1094437-0.4466705,0.163475-0.6684723c0.1198807-0.4976349,0.2293243-0.995266,0.3343124-1.4899826
		c0.0194931-0.0959358,0.0478897-0.1918697,0.0658493-0.2878056c0.0105896-0.0569477,0.0165787-0.1138935,0.0314636-0.1708412
		c0.0644684-0.3057632,0.1320114-0.6161308,0.1889572-0.9174442c0.3507385-1.8467064,0.5860443-3.636467,0.7315598-5.375267
		c0.00737-0.0779762,0.0133514-0.1634731,0.020874-0.2428303c0.1588669-2.061142,0.1769791-4.0383205,0.0465088-5.9180298
		c0-0.0119724,0-0.0179577,0-0.029932c6.5251083,6.2656975,11.6500244,13.3453827,15.2476578,20.7487907
		c5.1370392,10.5798492,7.1470718,21.7953224,5.6346741,32.1532173
		C104.4927902,74.2006302,104.6232605,77.4504395,104.7641678,81.0704803z"/>
	<path fill-rule="evenodd" clip-rule="evenodd" fill="#9FC931" d="M47.4435501,92.6612244
		c-3.7984047,4.1238174-7.1686287,4.75-11.7048073,6.9355621c19.8060188,6.1234055,28.3370781,6.9279022,47.7578163-1.7152939
		c2.5153351-1.1212845,1.0094833-1.3869324,1.0094833-1.3869324C71.9435501,94.9112244,63.25177,99.4366837,47.4435501,92.6612244z"
		/>
</g>
<path class="slice3" fill-rule="evenodd" clip-rule="evenodd" fill="#A9D634" d="M58.399086,58.0970802
	c3.1944008-4.7129326,5.8566284-9.4421387,7.9477005-13.9840775l-19.8241272,3.789505L58.399086,58.0970802z"/>
<path class="slice4" fill-rule="evenodd" clip-rule="evenodd" fill="#A9D634" d="M37.7431602,80.481369
	c6.1263237-4.6289749,12.4835052-11.119545,18.2515678-18.9742279L44.3642006,49.980072L37.7431602,80.481369z"/>
<path class="slice5" fill-rule="evenodd" clip-rule="evenodd" fill="#A9D634" d="M15.3168173,86.5866623
	c0.1154289,0.1019211,0.2399139,0.1993866,0.3657808,0.2893372c3.2783623,2.3788757,8.6761932,1.5289688,14.9388199-1.7957458
	l11.4583054-34.0300102L15.3168173,86.5866623z"/>
<path class="slice7" fill-rule="evenodd" clip-rule="evenodd" fill="#A9D634" d="M39.3200226,26.5883923
	c-3.9977951,3.8568878-7.9625912,8.4048138-11.6755009,13.5312672c-3.8149834,5.2615242-6.9733124,10.5858345-9.4195728,15.7124367
	l23.9986-8.8769646L39.3200226,26.5883923z"/>
<path class="slice6" fill-rule="evenodd" clip-rule="evenodd" fill="#A9D634" d="M40.2749214,49.7492142L15.8460712,61.3198776
	c-1.1753178,3.0189514-2.0731144,5.9300003-2.6847944,8.6596146c-1.2800016,5.7441177-1.2859879,10.5918198,0.1439791,13.838562
	L40.2749214,49.7492142z"/>
<path class="slice2" fill-rule="evenodd" clip-rule="evenodd" fill="#A9D634" d="M68.9744797,37.6434631
	c0.7989502-2.2649841,1.4359589-4.4565964,1.903656-6.5521183c1.2965775-5.8055172,1.2846069-10.6937428-0.1934052-13.9449368
	L45.4088936,45.6989212L68.9744797,37.6434631z"/>
<path class="slice1" fill-rule="evenodd" clip-rule="evenodd" fill="#A9D634" d="M66.4305954,13.2385597
	c-3.6858902-1.1677952-8.9848709,0.3057632-14.9133377,3.8238869c-2.5827217,1.5349579-5.2553902,3.4476681-7.9460144,5.7020607
	l0.8663292,21.1326828L66.4305954,13.2385597z"/>
</svg>
