<?xml version="1.0" encoding="utf-8"?>
<!-- Generator: Adobe Illustrator 18.1.0, SVG Export Plug-In . SVG Version: 6.00 Build 0)  -->
<!DOCTYPE svg PUBLIC "-//W3C//DTD SVG 1.1//EN" "http://www.w3.org/Graphics/SVG/1.1/DTD/svg11.dtd">
<svg version="1.1" id="Layer_1" xmlns="http://www.w3.org/2000/svg" xmlns:xlink="http://www.w3.org/1999/xlink" x="0px" y="0px"
	 viewBox="0 0 828.1 116.4" enable-background="new 0 0 828.1 116.4" xml:space="preserve">
<polygon fill-rule="evenodd" clip-rule="evenodd" fill="#FFFFFF" points="23.8,30.9 10.5,53.7 5.3,69.7 4.2,84.8 9.9,94.1 
	23.9,95.6 50.2,82.1 60.3,67.4 78.5,36.7 79.9,21.4 77.2,9.6 69.5,5.2 60.2,5.2 53.7,5.8 39.4,15.6 "/>
<polygon fill-rule="evenodd" clip-rule="evenodd" fill="#8BAF2B" points="84.2,15.6 95.9,26.6 100.4,34.7 106.2,51.1 109.5,61.6 
	108,77.4 106.9,95.7 103.5,100.7 93,103.4 81.4,106.4 68.4,110.9 56,111.4 45.4,109.6 32.5,106.4 25.2,102.6 22.7,99.1 27.9,95.6 
	50.4,80.5 68.4,56.9 77.4,37.2 79.9,19.9 "/>
<path fill-rule="evenodd" clip-rule="evenodd" fill="#6D8921" d="M112.3,73.1c1.7-11.9-0.5-24.6-6.3-36.6
	C100.4,25,91.6,14.3,79.9,5.8l-2.5-1.7c-0.4-0.3-0.7-0.6-1.1-0.9c-7-5.1-17.3-4-28.2,2c-10,5.5-20.8,15.3-30,27.9
	C8.9,45.9,3,59.2,0.9,70.4c-2.3,12.2-0.2,22.3,6.8,27.4c0.4,0.3,0.8,0.5,1.2,0.7c0.3,0.3,0.7,0.5,1.1,0.8c0.8,0.6,1.3,1,1.4,1
	c12,8.7,25.4,13.8,38.4,15.4c13.4,1.6,26.4-0.5,37.2-6.3c0.1,0,0.1-0.1,0.2-0.1c2.8-1.5,6.2-2.1,9.3-2.7c5.5-1,10.4-1.9,13.6-6.5
	c3-3.8,2.7-12.3,2.4-19.4C112.2,77.5,112.1,74.5,112.3,73.1z M8.3,71.8c1.9-10.2,7.4-22.4,15.9-34.2c8.5-11.8,18.4-20.7,27.5-25.8
	c8.3-4.6,15.6-5.8,20.1-2.5c0.6,0.4,1.1,0.9,1.5,1.4c0,0,0,0,0,0c0.2,0.3,0.4,0.5,0.6,0.8c0,0,0,0,0,0c0.2,0.3,0.4,0.6,0.6,0.9
	c0,0,0,0,0,0c1.6,2.9,2.2,6.9,1.8,11.7c0,0,0,0,0,0c0,0.5-0.1,1-0.2,1.5c0,0,0,0.1,0,0.1c-0.1,0.5-0.1,1-0.2,1.5c0,0.1,0,0.2,0,0.3
	c-0.1,0.5-0.2,0.9-0.2,1.4c0,0.1,0,0.2-0.1,0.4c-0.1,0.5-0.2,1-0.3,1.4c0,0.2-0.1,0.4-0.1,0.6c-0.1,0.4-0.2,0.9-0.3,1.3
	c-0.1,0.2-0.1,0.4-0.2,0.6c-0.1,0.4-0.2,0.9-0.4,1.3c-0.1,0.2-0.1,0.5-0.2,0.7c-0.1,0.4-0.3,0.9-0.4,1.3c-0.1,0.2-0.2,0.5-0.2,0.7
	c-0.1,0.4-0.3,0.9-0.5,1.3c-0.1,0.2-0.2,0.5-0.3,0.8c-0.2,0.4-0.3,0.9-0.5,1.3c-0.1,0.3-0.2,0.5-0.3,0.8c-0.2,0.4-0.4,0.9-0.5,1.3
	c-0.1,0.3-0.2,0.5-0.3,0.8c-0.2,0.4-0.4,0.9-0.6,1.3c-0.1,0.3-0.2,0.5-0.4,0.8c-0.2,0.4-0.4,0.9-0.6,1.3c-0.1,0.3-0.3,0.5-0.4,0.8
	c-0.2,0.5-0.5,0.9-0.7,1.4c-0.1,0.3-0.3,0.5-0.4,0.8c-0.2,0.5-0.5,0.9-0.7,1.4c-0.1,0.3-0.3,0.5-0.4,0.8c-0.3,0.5-0.5,0.9-0.8,1.4
	c-0.2,0.3-0.3,0.5-0.5,0.8c-0.3,0.5-0.6,1-0.9,1.4c-0.2,0.3-0.3,0.5-0.5,0.8c-0.3,0.5-0.6,1-1,1.5c-0.1,0.2-0.3,0.5-0.4,0.7
	c-0.3,0.5-0.7,1.1-1.1,1.6c-0.1,0.2-0.3,0.4-0.4,0.6c-0.5,0.7-1,1.5-1.5,2.2c-0.5,0.7-1.1,1.4-1.6,2.1c-0.2,0.2-0.4,0.5-0.5,0.7
	c-0.4,0.5-0.7,0.9-1.1,1.4c-0.2,0.3-0.4,0.5-0.7,0.8c-0.3,0.4-0.7,0.8-1,1.2c-0.2,0.3-0.5,0.5-0.7,0.8c-0.3,0.4-0.6,0.8-1,1.1
	c-0.2,0.3-0.5,0.5-0.7,0.8c-0.3,0.4-0.6,0.7-1,1.1c-0.2,0.3-0.5,0.5-0.7,0.8c-0.3,0.3-0.6,0.7-1,1c-0.2,0.3-0.5,0.5-0.7,0.7
	c-0.3,0.3-0.7,0.7-1,1c-0.2,0.2-0.5,0.5-0.7,0.7c-0.3,0.3-0.7,0.6-1,0.9c-0.2,0.2-0.5,0.4-0.7,0.7c-0.3,0.3-0.7,0.6-1,0.9
	c-0.2,0.2-0.5,0.4-0.7,0.6c-0.3,0.3-0.7,0.6-1,0.9c-0.2,0.2-0.5,0.4-0.7,0.6c-0.4,0.3-0.7,0.6-1.1,0.9c-0.2,0.2-0.4,0.4-0.7,0.5
	c-0.4,0.3-0.7,0.6-1.1,0.8c-0.2,0.2-0.4,0.3-0.6,0.5c-0.4,0.3-0.7,0.5-1.1,0.8c-0.2,0.1-0.4,0.3-0.6,0.4c-0.4,0.3-0.7,0.5-1.1,0.8
	c-0.2,0.1-0.4,0.2-0.6,0.4c-0.4,0.2-0.8,0.5-1.2,0.7c-0.2,0.1-0.4,0.2-0.5,0.3c-0.4,0.2-0.8,0.5-1.2,0.7c-0.1,0.1-0.2,0.1-0.4,0.2
	c-0.4,0.2-0.8,0.4-1.2,0.6c-0.1,0.1-0.2,0.1-0.3,0.1c-0.4,0.2-0.9,0.4-1.3,0.6c-0.1,0-0.1,0.1-0.2,0.1c-0.5,0.2-0.9,0.4-1.4,0.6
	c0,0-0.1,0-0.1,0c-0.5,0.2-0.9,0.4-1.4,0.5c0,0,0,0,0,0c-3.8,1.4-7.3,1.9-10.2,1.4c0,0,0,0,0,0c-0.4-0.1-0.7-0.2-1-0.2c0,0,0,0,0,0
	c-0.3-0.1-0.7-0.2-1-0.3c0,0,0,0,0,0c-0.6-0.3-1.2-0.6-1.8-1C7.7,88.5,6.6,81.1,8.3,71.8z M104.8,81.1c0.2,5.9,0.5,13-0.7,14.4
	c-0.1,0.1-0.2,0.3-0.3,0.4h0c-1.4,2.1-4.8,2.7-8.7,3.4c-3.8,0.7-7.8,1.4-11.6,3.5c-0.1,0-0.1,0.1-0.2,0.1
	c-9.4,5.1-20.8,6.9-32.7,5.5c-8.5-1-17.1-3.7-25.4-8.2c0,0,0,0,0,0c1.8-0.5,3.7-1.1,5.6-1.9c0.1,0,0.1-0.1,0.2-0.1
	c1.6-0.7,3.2-1.5,4.9-2.4c0.3-0.1,0.5-0.3,0.8-0.5c0,0,0.1-0.1,0.1-0.1c0.1,0,0.2-0.1,0.2-0.1c0.4-0.3,0.9-0.5,1.3-0.8
	c0.2-0.1,0.4-0.2,0.6-0.3c0.4-0.3,0.9-0.5,1.3-0.8c0.2-0.1,0.4-0.3,0.6-0.4c0.4-0.3,0.8-0.6,1.3-0.9c0.2-0.1,0.4-0.3,0.6-0.5
	c0.4-0.3,0.8-0.6,1.2-0.9c0.2-0.2,0.5-0.3,0.7-0.5c0.4-0.3,0.8-0.6,1.2-0.9c0.2-0.2,0.5-0.4,0.7-0.6c0.4-0.3,0.8-0.6,1.2-0.9
	c0.3-0.2,0.5-0.4,0.8-0.6c0.4-0.3,0.7-0.6,1.1-1c0.3-0.2,0.5-0.5,0.8-0.7c0.4-0.3,0.7-0.7,1.1-1c0.3-0.3,0.5-0.5,0.8-0.8
	c0.4-0.3,0.7-0.7,1.1-1c0.3-0.3,0.6-0.6,0.8-0.8c0.3-0.3,0.7-0.7,1-1c0.3-0.3,0.6-0.6,0.9-0.9c0.3-0.3,0.7-0.7,1-1
	c0.3-0.3,0.6-0.7,0.9-1c0.3-0.3,0.6-0.7,0.9-1c0.3-0.4,0.6-0.7,0.9-1.1c0.3-0.3,0.6-0.7,0.9-1c0.3-0.4,0.7-0.8,1-1.2
	c0.3-0.3,0.5-0.6,0.8-1c0.4-0.5,0.7-0.9,1.1-1.4c0.2-0.3,0.4-0.6,0.7-0.8c0.6-0.8,1.1-1.5,1.7-2.3c0.6-0.8,1.1-1.6,1.7-2.3
	c0.2-0.2,0.3-0.5,0.5-0.7c0.4-0.5,0.7-1.1,1.1-1.6c0.2-0.3,0.4-0.6,0.6-0.9c0.3-0.5,0.6-1,0.9-1.4c0.2-0.3,0.4-0.7,0.6-1
	c0.3-0.5,0.6-0.9,0.8-1.4c0.2-0.3,0.4-0.7,0.6-1c0.3-0.4,0.5-0.9,0.8-1.3c0.2-0.4,0.4-0.7,0.6-1.1c0.2-0.4,0.5-0.8,0.7-1.3
	c0.2-0.4,0.4-0.7,0.6-1.1c0.2-0.4,0.4-0.8,0.6-1.2c0.2-0.4,0.4-0.8,0.6-1.2c0.2-0.4,0.4-0.8,0.5-1.2c0.2-0.4,0.4-0.8,0.5-1.2
	c0.2-0.4,0.3-0.7,0.5-1.1c0.2-0.4,0.3-0.8,0.5-1.2c0.1-0.4,0.3-0.7,0.4-1.1c0.2-0.4,0.3-0.8,0.5-1.3c0.1-0.3,0.3-0.7,0.4-1
	c0.2-0.4,0.3-0.9,0.5-1.3c0.1-0.3,0.2-0.6,0.3-0.9c0.1-0.4,0.3-0.9,0.4-1.3c0.1-0.3,0.2-0.6,0.3-0.8c0.1-0.5,0.3-0.9,0.4-1.4
	c0.1-0.3,0.1-0.5,0.2-0.8c0.1-0.5,0.3-1,0.4-1.4c0.1-0.2,0.1-0.4,0.2-0.7c0.1-0.5,0.2-1,0.3-1.5c0-0.1,0-0.2,0.1-0.3
	c0-0.1,0-0.1,0-0.2c0.1-0.3,0.1-0.6,0.2-0.9c0.4-1.8,0.6-3.6,0.7-5.4c0-0.1,0-0.2,0-0.2c0.2-2.1,0.2-4,0-5.9c0,0,0,0,0,0
	c6.5,6.3,11.7,13.3,15.2,20.7c5.1,10.6,7.1,21.8,5.6,32.2C104.5,74.2,104.6,77.5,104.8,81.1z"/>
<path fill-rule="evenodd" clip-rule="evenodd" fill="#232020" d="M79.9,5.8c-0.1-0.1-0.5-0.4-1.4-1L79.9,5.8z"/>
<g>
	<path fill-rule="evenodd" clip-rule="evenodd" fill="#A9D634" d="M58.4,58.1c3.2-4.7,5.9-9.4,7.9-14l-19.8,3.8L58.4,58.1z"/>
	<path fill-rule="evenodd" clip-rule="evenodd" fill="#A9D634" d="M37.7,80.5c6.1-4.6,12.5-11.1,18.3-19L44.4,50L37.7,80.5z"/>
	<path fill-rule="evenodd" clip-rule="evenodd" fill="#A9D634" d="M15.3,86.6c0.1,0.1,0.2,0.2,0.4,0.3c3.3,2.4,8.7,1.5,14.9-1.8
		l11.5-34L15.3,86.6z"/>
	<path fill-rule="evenodd" clip-rule="evenodd" fill="#A9D634" d="M39.3,26.6c-4,3.9-8,8.4-11.7,13.5c-3.8,5.3-7,10.6-9.4,15.7
		l24-8.9L39.3,26.6z"/>
	<path fill-rule="evenodd" clip-rule="evenodd" fill="#A9D634" d="M40.3,49.7L15.8,61.3c-1.2,3-2.1,5.9-2.7,8.7
		c-1.3,5.7-1.3,10.6,0.1,13.8L40.3,49.7z"/>
	<path fill-rule="evenodd" clip-rule="evenodd" fill="#A9D634" d="M69,37.6c0.8-2.3,1.4-4.5,1.9-6.6c1.3-5.8,1.3-10.7-0.2-13.9
		L45.4,45.7L69,37.6z"/>
	<path fill-rule="evenodd" clip-rule="evenodd" fill="#A9D634" d="M66.4,13.2c-3.7-1.2-9,0.3-14.9,3.8c-2.6,1.5-5.3,3.4-7.9,5.7
		l0.9,21.1L66.4,13.2z"/>
</g>
<path fill-rule="evenodd" clip-rule="evenodd" fill="#9FC931" d="M47.4,92.7c-3.8,4.1-7.2,4.8-11.7,6.9c19.8,6.1,28.3,6.9,47.8-1.7
	c2.5-1.1,1-1.4,1-1.4C71.9,94.9,63.3,99.4,47.4,92.7z"/>
<g>
	<path fill="#FFFFFF" d="M168.6,102.1V17.5h10.7v74.8h37v9.8H168.6z"/>
	<path fill="#FFFFFF" d="M232.8,102.1V17.5h10.7v84.6H232.8z"/>
	<path fill="#FFFFFF" d="M264.6,102.1l3-84.6h13.8L305.9,83l24.3-65.4h13.9l3,84.6h-10.7l-1.7-68.6l-21.6,58.3h-14.7l-21.6-58.3
		l-1.6,68.6H264.6z"/>
	<path fill="#FFFFFF" d="M367.2,102.1V17.5H417v9.8h-39.1v26.5h36.3v9.8h-36.3v28.7h39.3v9.8H367.2z"/>
	<path fill="#FFFFFF" d="M431,98.2l2.8-12.8c8.6,2.6,16.5,3.9,23.9,3.9c5.6,0,9.2-0.7,10.9-2c1.7-1.4,2.5-4.1,2.5-8.3
		c0-2.7-0.1-4.5-0.2-5.5c-0.1-1-0.8-2.1-1.9-3.2c-1.1-1.1-2.6-1.9-4.4-2.4s-4.8-1.1-8.9-2.1c-5.3-1.2-9.4-2.3-12.3-3.5
		c-2.9-1.1-5.2-2.7-6.9-4.8c-1.7-2-2.8-4.3-3.3-6.9c-0.5-2.6-0.7-6.2-0.7-11c0-8.1,2.1-14,6.4-17.7c4.3-3.7,11.6-5.5,22-5.5
		c8.2,0,16.4,1,24.6,2.9l-1.8,13.7c-7.8-1.7-15.3-2.5-22.5-2.5c-5.3,0-8.7,0.6-10.3,1.9c-1.6,1.3-2.4,3.8-2.4,7.6
		c0,2.8,0,4.7,0.1,5.8c0.1,1,0.7,2.1,1.9,3.2c1.2,1.1,2.6,1.8,4.2,2.2c1.6,0.4,4.4,1.1,8.5,2.2c3.9,0.9,7.1,1.8,9.7,2.6
		s4.8,1.7,6.6,2.9c1.9,1.1,3.3,2.1,4.2,3.1c0.9,1,1.7,2.4,2.2,4.2s0.9,3.7,1,5.4c0.1,1.7,0.2,4.2,0.2,7.4c0,4.3-0.4,7.9-1.1,10.7
		s-2.2,5.3-4.3,7.5s-5.1,3.8-9.1,4.8s-9,1.5-15.2,1.5c-4.7,0-9.5-0.5-14.5-1.5C437.9,100.8,433.9,99.6,431,98.2z"/>
	<path fill="#FFFFFF" d="M501.7,102.1l3.8-84.6h17.6L545,77.6l21.9-60.1h17.6l3.7,84.6h-16l-1.4-54.8l-15.6,43.8h-20.3l-15.6-43.8
		l-1.4,54.8H501.7z"/>
	<path fill="#FFFFFF" d="M600.3,102.1l26.6-84.6h21.7l25.9,84.6h-16l-5.5-17.3h-31.6l-5.1,17.3H600.3z M625.5,70.7h23.4l-11.6-40.2
		L625.5,70.7z"/>
	<path fill="#FFFFFF" d="M688.7,102.1V17.5h34.7c9.5,0,16.4,1.9,20.6,5.7c4.2,3.8,6.3,9.5,6.3,17.3v11.1c0,10.6-4.2,17.5-12.7,20.5
		l21,30h-19.2l-19.5-27.7h-15.2v27.7H688.7z M704.7,60.3h18c4.3,0,7.3-0.8,9-2.4c1.7-1.6,2.6-4.2,2.6-7.9v-8.4
		c0-3.6-0.9-6.1-2.6-7.7c-1.7-1.6-4.7-2.4-9-2.4h-18V60.3z"/>
	<path fill="#FFFFFF" d="M764.8,31.6V17.5h63.3v14.1h-23.6v70.5h-16V31.6H764.8z"/>
</g>
</svg>
