<?xml version="1.0" encoding="utf-8"?>
<!-- Generator: Adobe Illustrator 18.1.1, SVG Export Plug-In . SVG Version: 6.00 Build 0)  -->
<!DOCTYPE svg PUBLIC "-//W3C//DTD SVG 1.1//EN" "http://www.w3.org/Graphics/SVG/1.1/DTD/svg11.dtd">
<svg version="1.1" id="Layer_1" xmlns="http://www.w3.org/2000/svg" xmlns:xlink="http://www.w3.org/1999/xlink" x="0px" y="0px"
	 viewBox="0 0 163.5337067 168.4755249" enable-background="new 0 0 163.5337067 168.4755249" xml:space="preserve">
<polygon fill="#FFFFFF" points="34.4784012,44.8398438 15.205368,77.8793335 7.6700459,101.0649338 6.076035,122.9463577 
	14.335907,136.4229889 34.6233139,138.5966339 72.7346573,119.033783 87.3705673,97.7320099 113.744194,53.2446251 
	115.772934,31.0733891 111.8603592,13.9740057 100.7022934,7.5979633 87.2256546,7.5979633 77.8065033,8.4674244 
	57.0843697,22.6686077 "/>
<polygon fill="#8BAF2B" points="122.0040588,22.6686077 138.9585419,38.6087112 145.4794922,50.3464241 153.8842621,74.1116714 
	158.6663055,89.3272247 156.4926605,112.2230148 154.8986511,138.7415466 149.9717102,145.9870453 134.7561493,149.8996277 
	117.9465866,154.2469177 99.108284,160.767868 81.1394348,161.4924316 65.7789764,158.8840332 47.0855751,154.2469177 
	36.5071449,148.7403412 32.8843918,143.6684875 40.4197121,138.5966339 73.0244751,116.7152252 99.108284,82.5164566 
	112.1501846,53.9691772 115.772934,28.8997383 "/>
<path fill="#6D8921" d="M162.7237854,105.9918747c2.4634705-17.2442932-0.7245483-35.6478653-9.1293335-53.0370674
	c-8.1149597-16.6646576-20.8670502-32.1700287-37.8215179-44.487381l-3.6227493-2.4634705
	c-0.5796432-0.4347301-1.0143661-0.8694601-1.5940094-1.3041906c-10.1436996-7.3904114-25.0694351-5.7964015-40.8646317,2.898201
	C55.2005424,15.568017,39.5502586,29.7691994,26.2185345,48.0278625
	c-13.331728,18.5484924-21.8814201,37.8215256-24.92453,54.051445c-3.3329306,17.6790237-0.2898201,32.3149338,9.8538828,39.7053604
	c0.5796404,0.4347229,1.1592798,0.7245483,1.7389212,1.0143585c0.4347296,0.4347382,1.01437,0.7245483,1.5940104,1.1592865
	c1.1592808,0.8694611,1.8838301,1.4490967,2.0287409,1.4490967c17.3892059,12.6071777,36.807148,19.9975891,55.6454544,22.3161469
	c19.4179535,2.3185577,38.2562561-0.7245483,53.9065323-9.1293335c0.1449051,0,0.1449051-0.1449127,0.2898178-0.1449127
	c4.0574799-2.173645,8.9844208-3.0431061,13.4766388-3.9125671c7.970047-1.4490967,15.0706482-2.7532806,19.7077637-9.4191437
	c4.34729-5.5065918,3.9125671-17.8239441,3.4778442-28.1125488
	C162.5788727,112.3679199,162.43396,108.0206223,162.7237854,105.9918747z M12.0173473,104.1080551
	c2.7532902-14.7808304,10.7233429-32.4598541,23.0406971-49.5592346S61.721489,24.5524406,74.9083023,17.1620312
	c12.0275345-6.6658621,22.6059723-8.4047832,29.1269226-3.6227512c0.8694611,0.5796394,1.5940094,1.3041897,2.1736526,2.0287399l0,0
	c0.2898102,0.4347305,0.5796432,0.7245502,0.8694534,1.1592808l0,0c0.2898178,0.4347305,0.5796432,0.8694611,0.8694611,1.3041897
	l0,0c2.3185577,4.2023926,3.1880188,9.9987926,2.6083832,16.9544754l0,0c0,0.7245483-0.1449051,1.4491005-0.2898178,2.1736488
	v0.1449089c-0.1449051,0.7245522-0.1449051,1.4491005-0.2898102,2.1736526c0,0.1449089,0,0.2898216,0,0.4347305
	c-0.1449127,0.7245483-0.2898178,1.3041878-0.2898178,2.0287399c0,0.1449089,0,0.2898178-0.1449051,0.5796394
	c-0.1449127,0.7245483-0.2898178,1.4491005-0.4347382,2.0287399c0,0.2898178-0.1449051,0.5796394-0.1449051,0.8694611
	c-0.1449127,0.5796394-0.2898178,1.3041878-0.4347382,1.883831c-0.1449051,0.2898216-0.1449051,0.5796432-0.2898102,0.8694572
	c-0.1449127,0.5796432-0.2898178,1.3041916-0.5796432,1.883831c-0.1449127,0.2898178-0.1449127,0.7245483-0.2898178,1.01437
	c-0.1449051,0.5796432-0.4347382,1.3041916-0.5796432,1.883831c-0.1449051,0.2898178-0.2898178,0.7245483-0.2898178,1.01437
	c-0.1449051,0.5796432-0.4347305,1.3041916-0.7245483,1.8838272c-0.1449051,0.2898216-0.2898178,0.7245522-0.4347305,1.1592827
	c-0.2898178,0.5796394-0.4347382,1.3041916-0.724556,1.8838272c-0.1449051,0.4347305-0.2898102,0.7245522-0.4347305,1.1592789
	c-0.2898178,0.5796432-0.5796432,1.3041916-0.7245483,1.883831c-0.1449127,0.4347267-0.2898178,0.7245483-0.4347382,1.1592789
	c-0.2898178,0.5796432-0.5796432,1.3041916-0.8694611,1.8838272c-0.1449051,0.4347305-0.2898102,0.7245483-0.5796356,1.1592789
	c-0.2898178,0.5796432-0.5796432,1.3041916-0.8694611,1.8838348c-0.1449051,0.4347229-0.4347382,0.7245483-0.5796432,1.1592789
	c-0.2898178,0.7245483-0.7245483,1.3041916-1.0143661,2.0287399c-0.1449051,0.4347305-0.4347305,0.7245483-0.5796432,1.1592789
	c-0.2898102,0.7245483-0.7245483,1.3041916-1.0143661,2.0287399c-0.1449051,0.4347305-0.4347305,0.724556-0.5796432,1.1592789
	c-0.4347305,0.724556-0.7245483,1.3041992-1.1592789,2.0287476c-0.2898178,0.4347305-0.4347382,0.7245483-0.724556,1.1592789
	c-0.4347305,0.7245483-0.8694534,1.4490967-1.3041916,2.0287399c-0.2898102,0.4347305-0.4347305,0.7245483-0.7245483,1.1592789
	c-0.4347305,0.7245483-0.8694611,1.4491043-1.4490967,2.1736526c-0.1449127,0.2898178-0.4347305,0.7245483-0.5796432,1.0143738
	c-0.4347305,0.7245483-1.0143738,1.5940018-1.5940094,2.3185577c-0.1449127,0.2898178-0.4347305,0.5796432-0.5796432,0.8694534
	c-0.7245483,1.0143738-1.4491043,2.1736526-2.1736526,3.1880264c-0.7245483,1.0143661-1.5940094,2.0287323-2.3185577,3.0431137
	c-0.2898178,0.2898178-0.5796432,0.7245483-0.7245483,1.0143661c-0.5796432,0.7245483-1.0143738,1.3041916-1.5940094,2.0287399
	c-0.2898178,0.4347382-0.5796432,0.7245483-1.0143738,1.1592865c-0.4347229,0.5796432-1.0143661,1.1592865-1.4490967,1.7389145
	c-0.2898254,0.4347382-0.7245483,0.7245483-1.0143738,1.1592865c-0.4347305,0.5796432-0.8694534,1.1592865-1.4490967,1.5940094
	c-0.2898254,0.4347305-0.724556,0.7245483-1.0143738,1.1592789c-0.4347305,0.5796432-0.8694611,1.0143661-1.4490967,1.5940094
	c-0.2898254,0.4347382-0.724556,0.724556-1.0143738,1.1592865c-0.4347305,0.4347382-0.8694611,1.0143661-1.4491043,1.4491043
	c-0.2898178,0.4347305-0.7245483,0.7245483-1.0143661,1.0143661c-0.4347305,0.4347305-1.0143738,1.0143585-1.4491043,1.4490967
	c-0.2898178,0.2898178-0.7245483,0.7245483-1.0143661,1.0143661c-0.4347305,0.4347305-1.0143738,0.8694611-1.4491043,1.3041916
	c-0.2898178,0.2898178-0.7245483,0.5796432-1.0143738,1.0143661c-0.4347229,0.4347382-1.0143661,0.8694611-1.4490967,1.3041916
	c-0.2898254,0.2898178-0.7245483,0.5796432-1.0143738,0.8694611c-0.4347267,0.4347305-1.01437,0.8694534-1.4491005,1.3041916
	c-0.2898178,0.2898178-0.7245483,0.5796432-1.01437,0.8694611c-0.5796432,0.4347305-1.01437,0.8694534-1.5940094,1.3041916
	c-0.2898216,0.2898102-0.5796394,0.5796432-1.01437,0.7245483c-0.5796432,0.4347305-1.01437,0.8694534-1.5940094,1.1592865
	c-0.2898216,0.2898102-0.5796394,0.4347305-0.8694572,0.7245483c-0.5796432,0.4347305-1.01437,0.7245483-1.5940094,1.1592865
	c-0.2898178,0.1449051-0.5796394,0.4347305-0.8694572,0.5796432c-0.5796432,0.4347305-1.01437,0.7245483-1.5940056,1.1592789
	c-0.2898216,0.1449127-0.5796432,0.2898178-0.8694611,0.5796432c-0.5796394,0.2898178-1.1592789,0.7245483-1.7389221,1.0143661
	c-0.2898178,0.1449051-0.5796394,0.2898178-0.7245483,0.4347382c-0.5796432,0.2898102-1.1592789,0.7245407-1.7389221,1.0143661
	c-0.1449089,0.1448975-0.2898216,0.1448975-0.5796432,0.2898102c-0.5796394,0.2898254-1.1592789,0.5796509-1.7389183,0.8694611
	c-0.1449127,0.1449127-0.2898216,0.1449127-0.4347305,0.1449127c-0.5796394,0.2898102-1.3041916,0.5796356-1.883831,0.8694458
	c-0.1449089,0-0.1449089,0.1449127-0.2898216,0.1449127c-0.7245483,0.2898102-1.3041878,0.5796509-2.0287399,0.8694611H39.984993
	c-0.7245483,0.2898102-1.3041916,0.5796356-2.0287399,0.7245483l0,0c-5.5065804,2.0287476-10.578434,2.7532959-14.7808228,2.0287476
	l0,0c-0.5796394-0.1449127-1.01437-0.2898254-1.4491005-0.2898254l0,0c-0.4347305-0.1448975-1.01437-0.2898102-1.4491005-0.4347229
	l0,0c-0.8694592-0.4347382-1.7389202-0.8694611-2.6083794-1.4491119
	C11.1478863,128.3080292,9.5538759,117.5846786,12.0173473,104.1080551z M151.855545,117.5846786
	c0.2898102,8.5496979,0.7245483,18.8383102-1.0143738,20.8670425c-0.1449127,0.1449127-0.2898102,0.4347382-0.4347382,0.5796509l0,0
	c-2.0287323,3.0431061-6.9556885,3.9125671-12.6071625,4.9269409c-5.5065918,1.0143738-11.3029861,2.0287476-16.8095627,5.0718536
	c-0.1449127,0-0.1449127,0.1449127-0.2898178,0.1449127c-13.6215439,7.3903961-30.1412888,9.9987946-47.385582,7.970047
	c-12.3173523-1.4490967-24.7796211-5.3616638-36.8071518-11.8826141l0,0
	c2.6083832-0.7245636,5.3616753-1.5940094,8.1149635-2.7532959c0.1449127,0,0.1449127-0.1449127,0.2898216-0.1449127
	c2.3185577-1.0143585,4.6371231-2.173645,7.1005936-3.4778442c0.4347305-0.1448975,0.7245522-0.4347382,1.1592789-0.7245483
	l0.1449089-0.1449127c0.1449089,0,0.2898216-0.1448975,0.2898216-0.1448975
	c0.5796432-0.4347382,1.3041916-0.7245483,1.883831-1.1592865c0.2898178-0.1449127,0.5796394-0.2898254,0.8694572-0.4347382
	c0.5796394-0.4347382,1.3041916-0.7245483,1.8838272-1.1592865c0.2898216-0.1449127,0.5796432-0.4347382,0.8694572-0.5796356
	c0.5796432-0.4347382,1.1592827-0.8694611,1.883831-1.3041992c0.2898216-0.1449127,0.5796432-0.4347382,0.8694572-0.7245483
	c0.5796432-0.4347382,1.1592789-0.8694611,1.7389221-1.3041992c0.2898216-0.2898102,0.7245522-0.4347229,1.01437-0.7245483
	c0.5796432-0.4347229,1.1592789-0.8694458,1.7389221-1.304184c0.2898254-0.2898254,0.7245483-0.5796509,1.0143738-0.8694611
	c0.5796432-0.4347382,1.1592789-0.8694611,1.7389221-1.3041916c0.4347305-0.2898178,0.7245483-0.5796432,1.1592789-0.8694611
	c0.5796432-0.4347305,1.0143738-0.8694534,1.5940094-1.4490967c0.4347229-0.2898178,0.7245483-0.7245483,1.1592789-1.0143661
	c0.5796432-0.4347382,1.0143661-1.0143661,1.5940094-1.4491043c0.4347229-0.4347305,0.7245483-0.7245483,1.1592789-1.1592789
	c0.5796356-0.4347382,1.0143661-1.0143661,1.5940018-1.4491043c0.4347305-0.4347305,0.8694611-0.8694534,1.1592789-1.1592865
	c0.4347305-0.4347305,1.0143738-1.0143661,1.4491043-1.4490967c0.4347305-0.4347382,0.8694611-0.8694611,1.3041916-1.3041916
	c0.4347305-0.4347382,1.0143738-1.0143661,1.4491043-1.4491043c0.4347229-0.4347305,0.8694534-1.0143661,1.3041916-1.4490967
	c0.4347229-0.4347382,0.8694534-1.0143661,1.3041916-1.4491043c0.4347305-0.5796432,0.8694534-1.0143661,1.3041916-1.5940094
	c0.4347305-0.4347305,0.8694611-1.0143661,1.3041916-1.4490967c0.4347305-0.5796432,1.0143738-1.1592865,1.4491043-1.7389145
	c0.4347229-0.4347382,0.7245483-0.8694611,1.1592789-1.4491043c0.5796356-0.7245483,1.0143661-1.3041916,1.5940018-2.0287399
	c0.2898254-0.4347382,0.5796432-0.8694611,1.0143661-1.1592865c0.8694611-1.1592865,1.5940094-2.1736526,2.4634705-3.3329315
	c0.8694534-1.1592865,1.5940094-2.3185577,2.4634628-3.3329391c0.2898178-0.2898178,0.4347382-0.7245483,0.724556-1.0143661
	c0.5796356-0.7245483,1.0143585-1.5940094,1.5940018-2.3185577c0.2898178-0.4347305,0.5796432-0.8694611,0.8694611-1.3041916
	c0.4347382-0.7245483,0.8694611-1.4491043,1.3041916-2.0287399c0.2898178-0.4347305,0.5796432-1.0143738,0.8694611-1.4491043
	c0.4347305-0.7245483,0.8694534-1.3041916,1.1592789-2.0287399c0.2898178-0.4347305,0.5796432-1.0143738,0.8694611-1.4491043
	c0.4347382-0.5796432,0.7245483-1.3041916,1.1592865-1.8838272c0.2898178-0.5796432,0.5796432-1.0143738,0.8694534-1.5940094
	c0.2898178-0.5796432,0.724556-1.1592789,1.0143661-1.8838272c0.2898178-0.5796432,0.5796432-1.0143738,0.8694611-1.5940094
	c0.2898178-0.5796432,0.5796432-1.1592789,0.8694611-1.7389221c0.2898102-0.5796432,0.5796356-1.1592789,0.8694534-1.7389221
	s0.5796432-1.1592789,0.7245483-1.7389221c0.2898178-0.5796432,0.5796432-1.1592789,0.724556-1.7389221
	c0.2898102-0.5796432,0.4347305-1.0143661,0.7245483-1.5940094c0.2898178-0.5796356,0.4347305-1.1592789,0.7245483-1.7389145
	c0.1449127-0.5796432,0.4347382-1.0143738,0.5796432-1.5940094c0.2898178-0.5796432,0.4347382-1.1592827,0.7245483-1.883831
	c0.1449127-0.4347305,0.4347382-1.0143738,0.5796432-1.4491005c0.2898178-0.5796432,0.4347382-1.3041916,0.7245483-1.883831
	c0.1449127-0.4347267,0.2898178-0.8694572,0.4347382-1.3041916c0.1449051-0.5796432,0.4347305-1.3041916,0.5796432-1.883831
	c0.1449051-0.4347267,0.2898178-0.8694572,0.4347305-1.1592789c0.1449127-0.7245483,0.4347382-1.3041916,0.5796432-2.0287399
	c0.1449127-0.4347305,0.1449127-0.7245522,0.2898178-1.1592789c0.1449051-0.7245522,0.4347305-1.4491005,0.5796432-2.0287437
	c0.1449051-0.2898216,0.1449051-0.5796432,0.2898178-1.0143738c0.1449051-0.7245483,0.2898102-1.4491005,0.4347305-2.1736488
	c0-0.1449089,0-0.2898216,0.1449051-0.4347305c0-0.1449089,0-0.1449089,0-0.2898178
	c0.1449127-0.4347305,0.1449127-0.8694611,0.2898178-1.3041916c0.5796432-2.6083794,0.8694611-5.2167625,1.0143661-7.8251419
	c0-0.1449089,0-0.2898216,0-0.2898216c0.2898178-3.0431099,0.2898178-5.7964001,0-8.5496902l0,0
	c9.4191589,9.1293335,16.9544678,19.273037,22.0263214,29.996376c7.3904114,15.3604622,10.2886047,31.5903893,8.1149597,46.6610374
	C151.4208069,107.5858841,151.5657043,112.3679199,151.855545,117.5846786z"/>
<path fill="#232020" d="M115.772934,8.4674244c-0.1449051-0.1449099-0.7245483-0.5796404-2.0287399-1.4491005L115.772934,8.4674244z
	"/>
<g>
	<path fill="#A9D634" d="M84.6172791,84.2553711c4.6371231-6.8107758,8.5496902-13.6215439,11.4478912-20.2874031
		l-28.6921844,5.5065804L84.6172791,84.2553711z"/>
	<path fill="#A9D634" d="M54.6208992,116.7152252c8.8395081-6.665863,18.1137581-16.0850143,26.5185356-27.5329132
		l-16.8095627-16.66465L54.6208992,116.7152252z"/>
	<path fill="#A9D634" d="M22.1610489,125.5547333c0.1449108,0.1449051,0.2898216,0.2898178,0.5796413,0.4347305
		c4.7820301,3.4778519,12.607172,2.1736526,21.5915928-2.6083832l16.6646538-49.2694092L22.1610489,125.5547333z"/>
	<path fill="#A9D634" d="M56.9394569,38.6087112c-5.796402,5.6514931-11.592804,12.1724434-16.9544754,19.5628548
		c-5.5065804,7.680233-10.1437016,15.3604622-13.621542,22.7508736l34.7784042-12.8969879L56.9394569,38.6087112z"/>
	<path fill="#A9D634" d="M58.3885574,72.0829315L22.8855991,88.8924942
		c-1.7389202,4.3473053-3.0431099,8.5496902-3.912569,12.6071701c-1.883831,8.2598724-1.883831,15.360466,0.1449089,19.9975967
		L58.3885574,72.0829315z"/>
	<path fill="#A9D634" d="M99.9777374,54.5488129c1.1592865-3.3329277,2.0287476-6.5209503,2.7532959-9.564064
		c1.8838348-8.4047813,1.8838348-15.5053711-0.2898178-20.1424923L65.7789764,66.2865295L99.9777374,54.5488129z"/>
	<path fill="#A9D634" d="M96.210083,19.1907673c-5.3616714-1.7389202-13.0419083,0.4347305-21.5915985,5.5065804
		c-3.767662,2.1736507-7.6802292,4.9269409-11.4478951,8.2598743l1.3041878,30.5760193L96.210083,19.1907673z"/>
</g>
<path fill="#9FC931" d="M68.6771774,134.3942413c-5.5065842,5.9413147-10.4335289,6.9556885-16.9544792,9.9987946
	c28.6921883,8.8395081,41.0095406,9.9987946,69.2669983-2.4634705c3.622757-1.5940094,1.4491043-2.0287323,1.4491043-2.0287323
	C104.18013,137.5822754,91.717865,144.1032257,68.6771774,134.3942413z"/>
</svg>
