<?xml version="1.0" encoding="utf-8"?>
<!-- Generator: Adobe Illustrator 18.1.0, SVG Export Plug-In . SVG Version: 6.00 Build 0)  -->
<!DOCTYPE svg PUBLIC "-//W3C//DTD SVG 1.1//EN" "http://www.w3.org/Graphics/SVG/1.1/DTD/svg11.dtd">
<svg version="1.1" id="Layer_1" xmlns="http://www.w3.org/2000/svg" xmlns:xlink="http://www.w3.org/1999/xlink" x="0px" y="0px"
	 viewBox="-467 269 20 24" enable-background="new -467 269 20 24" xml:space="preserve">
<path fill="#7F8A95" d="M-449,293h-16c-1.1,0-2-0.9-2-2v-10c0-1.1,0.9-2,2-2h1v-3c0-3.9,3.1-7,7-7s7,3.1,7,7v3h1c1.1,0,2,0.9,2,2v10
	C-447,292.1-447.9,293-449,293z M-453,276c0-2.2-1.8-4-4-4s-4,1.8-4,4v3h8V276z"/>
</svg>
