<svg id="Icon" xmlns="http://www.w3.org/2000/svg" viewBox="0 0 53.54 51.07"><defs><style>.cls-1{fill:#33beff;}</style></defs><title>messaging</title><path class="cls-1" d="M44.66,6.46H8.88A8.89,8.89,0,0,0,0,15.34V37.48a8.89,8.89,0,0,0,8.88,8.88H24.54a19.76,19.76,0,0,0,8.23,8.4,26.23,26.23,0,0,0,8.5,2.74,3.43,3.43,0,0,0,.54,0,3.35,3.35,0,0,0,2.36-5.74,14.33,14.33,0,0,1-3.61-5.44h4.1a8.89,8.89,0,0,0,8.88-8.88V15.34A8.89,8.89,0,0,0,44.66,6.46Zm5.53,31A5.54,5.54,0,0,1,44.66,43H36.33a1.89,1.89,0,0,0,0,.52c0.89,4.24,2.15,7.35,5.5,10.66C38.53,53.65,30.29,52.11,26.69,43H8.88a5.54,5.54,0,0,1-5.53-5.53V15.34A5.54,5.54,0,0,1,8.88,9.82H44.66a5.54,5.54,0,0,1,5.53,5.53V37.48Z" transform="translate(0 -6.46)"/><path class="cls-1" d="M43.81,34.56H35.52a1.12,1.12,0,0,0,0,2.24h8.29A1.12,1.12,0,1,0,43.81,34.56Z" transform="translate(0 -6.46)"/><path class="cls-1" d="M30,34.56H9.62a1.12,1.12,0,0,0,0,2.24H30A1.12,1.12,0,0,0,30,34.56Z" transform="translate(0 -6.46)"/><path class="cls-1" d="M43.81,28.31h-23a1.12,1.12,0,1,0,0,2.24h23A1.12,1.12,0,1,0,43.81,28.31Z" transform="translate(0 -6.46)"/><path class="cls-1" d="M9.62,30.55h5.78a1.12,1.12,0,1,0,0-2.24H9.62A1.12,1.12,0,0,0,9.62,30.55Z" transform="translate(0 -6.46)"/><path class="cls-1" d="M43.81,22.07H30.91a1.12,1.12,0,1,0,0,2.24H43.81A1.12,1.12,0,1,0,43.81,22.07Z" transform="translate(0 -6.46)"/><path class="cls-1" d="M9.62,24.31H23.54a1.12,1.12,0,0,0,0-2.24H9.62A1.12,1.12,0,0,0,9.62,24.31Z" transform="translate(0 -6.46)"/><path class="cls-1" d="M43.81,15.83H35.52a1.12,1.12,0,0,0,0,2.24h8.29A1.12,1.12,0,0,0,43.81,15.83Z" transform="translate(0 -6.46)"/><path class="cls-1" d="M9.62,18.06H29.07a1.12,1.12,0,0,0,0-2.24H9.62A1.12,1.12,0,0,0,9.62,18.06Z" transform="translate(0 -6.46)"/></svg>