<?xml version="1.0" encoding="utf-8"?>
<!-- Generator: Adobe Illustrator 18.1.1, SVG Export Plug-In . SVG Version: 6.00 Build 0)  -->
<!DOCTYPE svg PUBLIC "-//W3C//DTD SVG 1.1//EN" "http://www.w3.org/Graphics/SVG/1.1/DTD/svg11.dtd">
<svg version="1.1" id="Layer_1" xmlns="http://www.w3.org/2000/svg" xmlns:xlink="http://www.w3.org/1999/xlink" x="0px" y="0px"
	 viewBox="0 0 101.5 106.8" enable-background="new 0 0 101.5 106.8" xml:space="preserve">
<path d="M53.4,20.2c0-5.5,1.6-10.4,4.4-15.4H5c-2.8,0-5,2.6-5,5.4v15.6h53.9C53.5,23.8,53.4,22,53.4,20.2z"/>
<path d="M69,45.8H16v-4h47.5c-3.9-3-6.9-7-8.6-12H0v75c0,1.1,0.9,2,2,2h77.2c1.1,0,1.8-0.9,1.8-2V48.2c-4,0-8-1-12-2.8V45.8z
	 M12,49.8h41v4H12V49.8z M33,94.8H12v-4h21V94.8z M69,86.8H12v-4h57V86.8z M69,78.8H12v-5h57V78.8z M69,69.8H12v-4h57V69.8z
	 M69,61.8H16v-4h53V61.8z"/>
<path d="M81.3,0C70.1,0,61,9.1,61,20.2s9.1,20.2,20.2,20.2s20.2-9.1,20.2-20.2S92.4,0,81.3,0z M66.4,20.2c0-8.2,6.7-14.9,14.9-14.9
	c2.9,0,5.6,0.9,7.9,2.3L68.7,28.2C67.3,25.9,66.4,23.2,66.4,20.2z M81.3,35.1c-2.9,0-5.6-0.9-7.9-2.3l20.5-20.5
	c1.5,2.3,2.3,5,2.3,7.9C96.2,28.5,89.5,35.1,81.3,35.1z"/>
</svg>
