<?xml version="1.0" encoding="utf-8"?>
<!-- Generator: Adobe Illustrator 18.1.1, SVG Export Plug-In . SVG Version: 6.00 Build 0)  -->
<!DOCTYPE svg PUBLIC "-//W3C//DTD SVG 1.1//EN" "http://www.w3.org/Graphics/SVG/1.1/DTD/svg11.dtd">
<svg version="1.1" id="Layer_1" xmlns="http://www.w3.org/2000/svg" xmlns:xlink="http://www.w3.org/1999/xlink" x="0px" y="0px"
	 viewBox="-461.8 265.3 30.8 31.7" enable-background="new -461.8 265.3 30.8 31.7" xml:space="preserve">
<g>
	<path fill="#161616" d="M-459.2,268h11.1v4.9c0,0.4,0.2,0.9,0.5,1.2c0.3,0.3,0.7,0.5,1.2,0.5l5,0h0v9.5h2.6v-9.6
		c0-1.1-0.4-2.2-1.2-3l-5-5c-0.8-0.8-1.9-1.2-3-1.2h-11.5c-1.3,0-2.3,1-2.3,2.3V292c0,1.3,1,2.3,2.3,2.3h6v-2.6h-5.7L-459.2,268
		L-459.2,268z M-445.5,269.8l2.3,2.2h0l-2.3,0.1V269.8z"/>
	<path fill="#161616" d="M-456,273.5h3.6c0.7,0,1.3-0.6,1.3-1.3c0-0.7-0.6-1.3-1.3-1.3h-3.6c-0.7,0-1.3,0.6-1.3,1.3
		C-457.3,273-456.8,273.5-456,273.5z"/>
	<path fill="#161616" d="M-444.5,276H-456c-0.7,0-1.3,0.6-1.3,1.3s0.6,1.3,1.3,1.3h11.5c0.7,0,1.3-0.6,1.3-1.3S-443.8,276-444.5,276
		z"/>
	<path fill="#161616" d="M-444.5,280.8H-456c-0.7,0-1.3,0.7-1.3,1.4c0,0.7,0.6,1.4,1.3,1.4h11.5c0.7,0,1.3-0.7,1.3-1.4
		C-443.2,281.5-443.8,280.8-444.5,280.8z"/>
	<path fill="#161616" d="M-457.3,287.1c0,0.7,0.6,1.3,1.3,1.3h2.6v-2.6h-2.6C-456.8,285.8-457.3,286.4-457.3,287.1z"/>
	<path fill="#161616" d="M-446,289.6c-0.3,0-0.4,0-0.5,0v1.6c0.1,0,0.2,0,0.4,0c0.7,0,1.1-0.3,1.1-0.9
		C-445,289.9-445.4,289.6-446,289.6z"/>
	<path fill="#161616" d="M-449.7,285.7c-1,0-1.9,0.8-1.9,1.9v7.6c0,1,0.8,1.9,1.9,1.9h16.8c1,0,1.9-0.8,1.9-1.9v-7.6
		c0-1-0.8-1.9-1.9-1.9H-449.7z M-444.3,291.6c-0.4,0.4-1.1,0.6-1.8,0.6c-0.2,0-0.3,0-0.4,0v2h-1.2v-5.4c0.4-0.1,0.9-0.1,1.7-0.1
		c0.8,0,1.3,0.1,1.7,0.4c0.3,0.3,0.6,0.7,0.6,1.3C-443.8,290.9-444,291.3-444.3,291.6z M-439.1,293.5c-0.6,0.5-1.4,0.7-2.5,0.7
		c-0.6,0-1.1,0-1.4-0.1v-5.4c0.4-0.1,1-0.1,1.7-0.1c1,0,1.7,0.2,2.2,0.6c0.6,0.4,0.9,1.1,0.9,2.1
		C-438.1,292.3-438.5,293.1-439.1,293.5z M-434,289.7h-2.1v1.2h2v1h-2v2.2h-1.2v-5.5h3.3V289.7z"/>
	<path fill="#161616" d="M-441.2,289.6c-0.3,0-0.5,0-0.5,0v3.6c0.1,0,0.3,0,0.4,0c1.1,0,1.8-0.6,1.8-1.9
		C-439.5,290.2-440.1,289.6-441.2,289.6z"/>
</g>
</svg>
