<?xml version="1.0" encoding="utf-8"?>
<!-- Generator: Adobe Illustrator 19.1.0, SVG Export Plug-In . SVG Version: 6.00 Build 0)  -->
<svg version="1.1" id="Icon" xmlns="http://www.w3.org/2000/svg" xmlns:xlink="http://www.w3.org/1999/xlink" x="0px" y="0px"
	 viewBox="0 0 40.7 64" style="enable-background:new 0 0 40.7 64;" xml:space="preserve">
<style type="text/css">
	.st0{fill:#33BEFF;}
</style>
<g>
	<path class="st0" d="M36.7,0H4C1.8,0,0,1.8,0,4v56c0,2.2,1.8,4,4,4h32.6c2.2,0,4-1.8,4-4V4C40.7,1.8,38.9,0,36.7,0z M36.7,60H4V4
		h32.6V60z"/>
	<circle class="st0" cx="20.3" cy="54.3" r="2.9"/>
	<path class="st0" d="M8.5,41.9c0.7,0,1.3-0.6,1.3-1.3V15h21.1v4.4c0,0.7,0.6,1.3,1.3,1.3c0.7,0,1.3-0.6,1.3-1.3v-5.7
		c0-0.7-0.6-1.3-1.3-1.3H8.5c-0.7,0-1.3,0.6-1.3,1.3v26.9C7.1,41.3,7.7,41.9,8.5,41.9z"/>
	<path class="st0" d="M8.5,48h23.7c0.7,0,1.3-0.6,1.3-1.3V25.8c0-0.7-0.6-1.3-1.3-1.3c-0.7,0-1.3,0.6-1.3,1.3v19.5H8.5
		c-0.7,0-1.3,0.6-1.3,1.3C7.1,47.4,7.7,48,8.5,48z"/>
	<path class="st0" d="M16.3,9.5h8.1c0.7,0,1.3-0.6,1.3-1.3s-0.6-1.3-1.3-1.3h-8.1c-0.7,0-1.3,0.6-1.3,1.3S15.6,9.5,16.3,9.5z"/>
</g>
</svg>
