<?xml version="1.0" encoding="utf-8"?>
<!-- Generator: Adobe Illustrator 18.1.0, SVG Export Plug-In . SVG Version: 6.00 Build 0)  -->
<!DOCTYPE svg PUBLIC "-//W3C//DTD SVG 1.1//EN" "http://www.w3.org/Graphics/SVG/1.1/DTD/svg11.dtd">
<svg version="1.1" id="glyphicons" xmlns="http://www.w3.org/2000/svg" xmlns:xlink="http://www.w3.org/1999/xlink" x="0px" y="0px"
	 viewBox="0 0 49 49" enable-background="new 0 0 49 49" xml:space="preserve">
<g id="play_x5F_button_2_">
	<path d="M24.5,49C11,49,0,38,0,24.5S11,0,24.5,0S49,11,49,24.5S38,49,24.5,49z M24.5,6.5c-9.9,0-18,8.1-18,18s8.1,18,18,18
		s18-8.1,18-18S34.4,6.5,24.5,6.5z M34.4,24.8l-15.5,9.1c-0.2,0.2-0.4,0.1-0.4-0.2V15.3c0-0.3,0.2-0.4,0.4-0.2l15.5,9.1
		C34.6,24.3,34.6,24.7,34.4,24.8z"/>
</g>
</svg>
