<?xml version="1.0" encoding="utf-8"?>
<!-- Generator: Adobe Illustrator 18.1.0, SVG Export Plug-In . SVG Version: 6.00 Build 0)  -->
<!DOCTYPE svg PUBLIC "-//W3C//DTD SVG 1.1//EN" "http://www.w3.org/Graphics/SVG/1.1/DTD/svg11.dtd">
<svg version="1.1" id="Layer_1" xmlns="http://www.w3.org/2000/svg" xmlns:xlink="http://www.w3.org/1999/xlink" x="0px" y="0px"
	 viewBox="-397.4 230 90.3 102" enable-background="new -397.4 230 90.3 102" xml:space="preserve">
<path d="M-361.8,278.8c-1,0-1.7,0.1-2.1,0.2v6.6c0.4,0.1,1,0.1,1.7,0.1c2.7,0,4.3-1.4,4.3-3.6C-357.9,280.1-359.3,278.8-361.8,278.8
	z"/>
<path d="M-312.8,266.5h-2.4v-11.8c0-0.1,0-0.1,0-0.2c0-0.5-0.2-0.9-0.5-1.3l-19.7-22.5c0,0,0,0,0,0c-0.1-0.1-0.3-0.2-0.4-0.3
	c0,0-0.1-0.1-0.1-0.1c-0.1-0.1-0.3-0.1-0.4-0.2c0,0-0.1,0-0.1,0c-0.1,0-0.3-0.1-0.5-0.1h-48.3c-2.2,0-4,1.8-4,4v32.5h-2.4
	c-3.2,0-5.7,2.6-5.7,5.7V302c0,3.2,2.6,5.7,5.7,5.7h2.4V328c0,2.2,1.8,4,4,4h66c2.2,0,4-1.8,4-4v-20.4h2.4c3.2,0,5.7-2.6,5.7-5.7
	v-29.7C-307.1,269.1-309.6,266.5-312.8,266.5z M-385.2,234h46.3v20.5c0,1.1,0.9,2,2,2h17.7v10h-66V234z M-351.4,279.4v-4.2h17.1v4.2
	h-6.1v18h-5v-18H-351.4z M-352.9,282c0,2.2-0.7,4-2,5.3c-1.7,1.6-4.3,2.3-7.2,2.3c-0.7,0-1.3,0-1.7-0.1v8h-5v-21.9
	c1.6-0.3,3.7-0.5,6.8-0.5c3.1,0,5.3,0.6,6.8,1.8C-353.9,278-352.9,279.8-352.9,282z M-388.1,297.4v-21.9c1.6-0.3,3.7-0.5,6.8-0.5
	c3.1,0,5.3,0.6,6.8,1.8c1.4,1.1,2.4,3,2.4,5.1c0,2.2-0.7,4-2,5.3c-1.7,1.6-4.3,2.3-7.2,2.3c-0.7,0-1.3,0-1.7-0.1v8L-388.1,297.4
	L-388.1,297.4z M-319.2,327h-66v-19.3h66V327z M-319.3,297.4l-2-4c-0.8-1.6-1.4-2.7-2-4h-0.1c-0.5,1.3-1,2.4-1.7,4l-1.8,4h-5.7
	l6.4-11.3l-6.2-11h5.8l1.9,4.1c0.7,1.4,1.2,2.4,1.7,3.7h0.1c0.5-1.4,1-2.4,1.5-3.7l1.9-4.1h5.7l-6.3,10.9l6.6,11.4H-319.3z"/>
<path d="M-377.1,282.1c0-2-1.4-3.3-3.9-3.3c-1,0-1.7,0.1-2.1,0.2v6.6c0.4,0.1,1,0.1,1.7,0.1C-378.7,285.7-377.1,284.4-377.1,282.1z"
	/>
</svg>
