<?xml version="1.0" encoding="utf-8"?>
<!-- Generator: Adobe Illustrator 18.1.0, SVG Export Plug-In . SVG Version: 6.00 Build 0)  -->
<!DOCTYPE svg PUBLIC "-//W3C//DTD SVG 1.1//EN" "http://www.w3.org/Graphics/SVG/1.1/DTD/svg11.dtd">
<svg version="1.1" id="Layer_1" xmlns="http://www.w3.org/2000/svg" xmlns:xlink="http://www.w3.org/1999/xlink" x="0px" y="0px"
	 viewBox="-467 269 21 24" enable-background="new -467 269 21 24" xml:space="preserve">
<path d="M-447,291h-1c0,0-1,0-1-1v-3.5c0-0.3-0.2-0.5-0.5-0.5s-0.5,0.2-0.5,0.5l0,4.3c0,0.6-2,2.2-6.5,2.2s-6.5-1.6-6.5-2.2l0-4.3
	c0-0.3-0.2-0.5-0.5-0.5c-0.3,0-0.5,0.2-0.5,0.5v3.5c0,1-1,1-1,1h-1c0,0-1,0-1-1v-5.2c0-2.9,2.9-5.4,6.9-6.3c0,0,1.2,1.1,3.6,1.1
	c2.3,0,3.6-1.1,3.6-1.1c4,0.9,6.9,3.4,6.9,6.3v5.2C-446,291-447,291-447,291z M-456.5,278c-2.5,0-4.5-2-4.5-4.5c0-2.5,2-4.5,4.5-4.5
	c2.5,0,4.5,2,4.5,4.5C-452,276-454,278-456.5,278z"/>
</svg>
