<?xml version="1.0" encoding="utf-8"?>
<!-- Generator: Adobe Illustrator 18.1.0, SVG Export Plug-In . SVG Version: 6.00 Build 0)  -->
<!DOCTYPE svg PUBLIC "-//W3C//DTD SVG 1.1//EN" "http://www.w3.org/Graphics/SVG/1.1/DTD/svg11.dtd">
<svg version="1.1" id="Layer_1" xmlns="http://www.w3.org/2000/svg" xmlns:xlink="http://www.w3.org/1999/xlink" x="0px" y="0px"
	 viewBox="0 874.5 792 89" enable-background="new 0 874.5 792 89" xml:space="preserve">
<g>
	<g>
		<g>
			<g>
				<polygon fill="#83C041" points="48.9,963.5 76,963.5 53,924.1 39.8,947.9 				"/>
			</g>
			<polyline fill="#83C041" points="20.7,921.4 20.7,898.6 0,898.6 0,957.3 			"/>
			<g>
				<path fill="#FFFFFF" d="M39.3,895.2H0v-20.7h66.6h10.1l-49.3,88.8H0.2L39.3,895.2z"/>
			</g>
		</g>
	</g>
	<g>
		<path fill="#FFFFFF" d="M137.8,879.7H171c9.5,0,17.1,2.9,21.9,7.7c3.7,3.7,5.9,9.2,5.9,15.3v0.2c0,12.8-8.8,20.3-21,22.5
			l23.7,31.6H191l-22.4-30h-22.1v30h-8.7V879.7z M170.3,919.1c11.6,0,19.9-5.9,19.9-15.9V903c0-9.5-7.3-15.3-19.7-15.3h-23.9V919
			L170.3,919.1L170.3,919.1z"/>
		<path fill="#FFFFFF" d="M218.4,879.7h8.7V957h-8.7V879.7z"/>
		<path fill="#FFFFFF" d="M249.8,879.7h8.1l48.7,62v-62h8.5V957h-7l-49.9-63.4V957h-8.5L249.8,879.7L249.8,879.7z"/>
		<path fill="#FFFFFF" d="M333.5,918.6v-0.2c0-21.2,15.6-40,38.8-40c13,0,21.1,3.7,28.8,10.3l-5.7,6.6c-5.9-5.2-12.6-8.8-23.5-8.8
			c-17.1,0-29.4,14.5-29.4,31.7v0.2c0,18.4,11.8,32.2,30.6,32.2c8.8,0,17-3.5,22.3-7.7v-19.3H372v-7.8h31.9v30.8
			c-7.2,6.4-18,11.8-31.1,11.8C348.6,958.3,333.5,940.7,333.5,918.6z"/>
		<path fill="#FFFFFF" d="M416.6,945.8l10.1-12c7,5.7,14.2,9.4,23.1,9.4c7,0,11.2-2.8,11.2-7.3v-0.2c0-4.3-2.6-6.5-15.6-9.8
			c-15.6-4-25.6-8.3-25.6-23.6V902c0-14,11.2-23.3,27.1-23.3c11.2,0,20.8,3.5,28.7,9.8l-8.8,12.8c-6.8-4.8-13.6-7.6-20.1-7.6
			s-9.9,3-9.9,6.8v0.2c0,5.1,3.3,6.8,16.7,10.1c15.7,4.1,24.5,9.7,24.5,23.2v0.2c0,15.3-11.7,23.9-28.4,23.9
			C437.7,958.1,425.9,954.1,416.6,945.8z"/>
		<path fill="#FFFFFF" d="M492.6,879.7h58.3v15.1h-41.4v15.7h36.4v15.1h-36.4v16.2h42V957h-58.9V879.7z"/>
		<path fill="#FFFFFF" d="M559.9,879.7h18.8l20.2,54.5l20.2-54.5h18.4l-31.3,77.8h-15L559.9,879.7z"/>
		<path fill="#FFFFFF" d="M649.3,879.7h58.3v15.1h-41.4v15.7h36.4v15.1h-36.4v16.2h42V957h-58.9L649.3,879.7L649.3,879.7z"/>
		<path fill="#FFFFFF" d="M723.3,879.7H739l36.2,47.6v-47.6H792V957h-14.5l-37.4-49.1V957h-16.8V879.7z"/>
	</g>
</g>
</svg>
