<?xml version="1.0" encoding="utf-8"?>
<!-- Generator: Adobe Illustrator 18.1.0, SVG Export Plug-In . SVG Version: 6.00 Build 0)  -->
<!DOCTYPE svg PUBLIC "-//W3C//DTD SVG 1.1//EN" "http://www.w3.org/Graphics/SVG/1.1/DTD/svg11.dtd">
<svg version="1.1" id="Layer_1" xmlns="http://www.w3.org/2000/svg" xmlns:xlink="http://www.w3.org/1999/xlink" x="0px" y="0px"
	 viewBox="-467 269 20 23" enable-background="new -467 269 20 23" xml:space="preserve">
<g>
	<path d="M-467,280.5c0,0.8,0.7,1.5,1.5,1.5h7.4l-2.5,2.5c-0.6,0.6-0.6,1.5,0,2c0.6,0.6,1.5,0.6,2,0l5.1-5c0.5-0.5,0.6-1.6,0-2.2
		c-0.5-0.5-5.1-5-5.1-5c-0.6-0.6-1.5-0.6-2,0s-0.6,1.5,0,2.1l2.5,2.5h-7.4C-466.3,279-467,279.7-467,280.5z"/>
	<path d="M-449,269h-16c-1.1,0-2,0.9-2,2v4h3v-3h14v17h-14v-3h-3v4c0,1.1,0.9,2,2,2h16c1.1,0,2-0.9,2-2v-19
		C-447,269.9-447.9,269-449,269z"/>
</g>
</svg>
