<?xml version="1.0" encoding="utf-8"?>
<!-- Generator: Adobe Illustrator 18.1.1, SVG Export Plug-In . SVG Version: 6.00 Build 0)  -->
<svg version="1.1" id="Layer_1" xmlns="http://www.w3.org/2000/svg" xmlns:xlink="http://www.w3.org/1999/xlink" x="0px" y="0px"
	 width="76px" height="76px" viewBox="-268 359 76 76" style="enable-background:new -268 359 76 76;" xml:space="preserve">
<g id="stats">
	<g id="circle-1">
		<path d="M-230,362c19.3,0,35,15.7,35,35s-15.7,35-35,35s-35-15.7-35-35S-249.3,362-230,362 M-230,359c-21,0-38,17-38,38
			s17,38,38,38s38-17,38-38S-209,359-230,359L-230,359z"/>
	</g>
	<g id="path-1">
		<path d="M-225,381c-0.4,0-0.7,0.3-0.7,0.7v5.2c0,0.4,0.3,0.7,0.7,0.7c0.4,0,0.7-0.3,0.7-0.7v-5.2C-224.3,381.3-224.6,381-225,381
			L-225,381z M-230.1,381c-0.4,0-0.7,0.3-0.7,0.7v11.4c0,0.4,0.3,0.7,0.7,0.7c0.4,0,0.7-0.3,0.7-0.7v-11.4
			C-229.4,381.3-229.7,381-230.1,381L-230.1,381z M-235.3,381c-0.4,0-0.7,0.3-0.7,0.7v8.5c0,0.4,0.3,0.7,0.7,0.7s0.7-0.3,0.7-0.7
			v-8.5C-234.6,381.3-234.9,381-235.3,381L-235.3,381z M-240.4,381c-0.4,0-0.7,0.3-0.7,0.7V396c0,0.4,0.3,0.7,0.7,0.7
			c0.4,0,0.7-0.3,0.7-0.7v-14.3C-239.7,381.3-240,381-240.4,381L-240.4,381z M-246,381.1c-0.6,0-1,0.5-1,1V412c0,0,0,0,0,0v0
			c0,0,0,0,0,0c0,0.1,0,0.1,0,0.2c0,0,0,0.1,0,0.1c0,0,0,0.1,0,0.1c0,0,0,0.1,0,0.1c0,0,0,0.1,0,0.1s0,0.1,0.1,0.1
			c0,0,0,0.1,0.1,0.1c0,0,0.1,0.1,0.1,0.1c0,0,0,0,0,0c0,0,0,0,0,0c0,0,0,0,0,0c0,0,0.1,0.1,0.1,0.1c0,0,0,0,0.1,0c0,0,0.1,0,0.1,0
			c0,0,0,0,0.1,0c0.1,0,0.1,0,0.2,0h0h30.9c0.4,0,0.7-0.2,0.9-0.5c0.1-0.1,0.2-0.3,0.2-0.5v-21c0-0.4-0.3-0.7-0.7-0.7
			c-0.4,0-0.7,0.3-0.7,0.7V411h-3.8v-15.4c0-0.4-0.3-0.7-0.7-0.7c-0.4,0-0.7,0.3-0.7,0.7V411h-3.8v-8.3c0-0.4-0.3-0.7-0.7-0.7
			c-0.4,0-0.7,0.3-0.7,0.7v8.3h-3.8v-5c0-0.4-0.3-0.7-0.7-0.7c-0.4,0-0.7,0.3-0.7,0.7v5h-3.8v-6.1c0-0.4-0.3-0.7-0.7-0.7
			s-0.7,0.3-0.7,0.7v6.1h-3.8v-0.7c0-0.4-0.3-0.7-0.7-0.7c-0.4,0-0.7,0.3-0.7,0.7v0.7h-2.9l9.2-13.2l5.3,3.3
			c0.2,0.1,0.4,0.2,0.5,0.2c0.3,0,0.6-0.2,0.8-0.4l11.5-16.1l0.5,2.4c0.1,0.5,0.5,0.8,1,0.8c0.1,0,0.1,0,0.2,0
			c0.6-0.1,0.9-0.6,0.8-1.2l-0.9-4.7c-0.1-0.3-0.2-0.5-0.4-0.6c-0.2-0.1-0.4-0.2-0.6-0.2c-0.1,0-0.1,0-0.2,0l-4.7,0.9
			c-0.6,0.1-0.9,0.6-0.8,1.2c0.1,0.5,0.5,0.8,1,0.8c0.1,0,0.1,0,0.2,0l2.2-0.4l-10.8,15.2l-5.3-3.3c-0.2-0.1-0.4-0.2-0.5-0.2
			c-0.3,0-0.7,0.2-0.9,0.4l-8.9,12.9v-26.6C-244.9,381.6-245.4,381.1-246,381.1L-246,381.1z"/>
	</g>
</g>
</svg>
