<?xml version="1.0" encoding="utf-8"?>
<!-- Generator: Adobe Illustrator 18.1.0, SVG Export Plug-In . SVG Version: 6.00 Build 0)  -->
<!DOCTYPE svg PUBLIC "-//W3C//DTD SVG 1.1//EN" "http://www.w3.org/Graphics/SVG/1.1/DTD/svg11.dtd">
<svg version="1.1" id="Layer_1" xmlns="http://www.w3.org/2000/svg" xmlns:xlink="http://www.w3.org/1999/xlink" x="0px" y="0px"
	 viewBox="200 5.1 560 549.8" enable-background="new 200 5.1 560 549.8" xml:space="preserve">
<path d="M436,307.5c0,15.9-12.9,28.8-28.8,28.8c-15.9,0-28.8-12.9-28.8-28.8c0-15.9,12.9-28.8,28.8-28.8
	C423.1,278.8,436,291.6,436,307.5z M552.7,278.8c-15.9,0-28.8,12.9-28.8,28.8c0,15.9,12.9,28.8,28.8,28.8
	c15.9,0,28.8-12.9,28.8-28.8C581.5,291.6,568.6,278.8,552.7,278.8z M760,291.5v54.6c0,27.4-22.2,49.7-49.7,49.7h-36
	C638.6,495,547.4,554.9,480,554.9S321.4,495,285.7,395.8h-36c-27.4,0-49.7-22.2-49.7-49.7v-54.6c0-18.9,10.5-35.3,26-43.7
	c0.5-77.6,23.1-138.2,67.3-180.1C337.2,26.2,400,5.1,480,5.1s142.8,21.1,186.7,62.6c44.2,41.9,66.8,102.5,67.3,180.1
	C749.5,256.2,760,272.6,760,291.5z M654.9,307.7c0-12.8-0.7-24.8-1.6-36.4c-22-20.2-62.1-35.5-112.6-41.2
	c6.6,7.5,12.4,17.3,15.8,30.2c-30.9-24.4-91.7-18.6-137.6-73.1c-2.6-3-4.9-6-6.9-8.6c0,0,0-0.1-0.1-0.1l0,0
	c-8.2-11.1-11-17.6-11.1-10.3c-1.3,62.7-45.8,111.6-95.1,118.5c-0.3,6.9-0.6,13.9-0.6,21.1c0,26.5,4.3,50.6,11.7,72.4
	c27.7,33.4,73.5,42.9,114,45.4c7.5-12,24.4-20.3,44-20.3c26.6,0,48.2,15.3,48.2,34.2s-21.6,34.2-48.2,34.2c-20.5,0-38-9.1-44.9-21.9
	c-28.3-1.6-59.4-6.5-87.2-19.6c39,57.5,99.5,87.9,137.3,87.9C539.3,520.1,654.9,445.1,654.9,307.7z M704.1,241.8
	C700.9,106.4,623.6,34.9,480,34.9s-220.9,71.5-224.1,206.9h19.1c7-45.6,21.8-83.2,44.2-112c35.7-46,89.8-69.3,160.8-69.3
	s125,23.3,160.8,69.3c22.4,28.9,37.2,66.4,44.2,112L704.1,241.8L704.1,241.8z"/>
</svg>
