<?xml version="1.0" encoding="utf-8"?>
<!-- Generator: Adobe Illustrator 22.0.1, SVG Export Plug-In . SVG Version: 6.00 Build 0)  -->
<svg version="1.1" id="Layer_1" xmlns="http://www.w3.org/2000/svg" xmlns:xlink="http://www.w3.org/1999/xlink" x="0px" y="0px"
	 viewBox="0 0 244 112.5" style="enable-background:new 0 0 244 112.5;" xml:space="preserve">
<style type="text/css">
	.st8{fill:#252E37;}
	.st1{fill:#631548;}
</style>
<g>
	<path class="st8" d="M102.5,104.7c-2.1,0-4.2-0.7-5.7-1.9l1.4-2c1.3,1,2.9,1.5,4.2,1.5c1.5,0,3.1-0.9,3.1-2.3c0-1.8-1.6-2.4-3.5-3
		c-2.2-0.8-4.8-1.9-4.8-4.9c0-2.7,2.6-4.4,5.2-4.4c1.8,0,3.5,0.4,5.2,1.6l-1.2,2c-1.3-0.9-2.6-1.3-4-1.3c-1.3,0-2.7,0.6-2.7,2
		c0,1.4,1.3,2,3.3,2.7c2.4,0.9,5,2,5,5.3C108.1,102.7,105.5,104.7,102.5,104.7"/>
	<path class="st8" d="M117.5,90.2c-3.4,0-5.7,2.6-5.7,6.1c0,3.6,2.3,6.2,5.7,6.2c3.6,0,5.8-2.6,5.8-6.2
		C123.3,92.6,120.9,90.2,117.5,90.2 M117.6,104.8c-4.7,0-8.4-3.5-8.4-8.5c0-4.7,3.5-8.5,8.3-8.5c4.8,0,8.4,3.7,8.4,8.4
		C126,101.1,122.4,104.8,117.6,104.8"/>
	<path class="st8" d="M138.6,104.3V94.1c0-2.3-1.3-3.9-3.8-3.9c-3,0-4.6,2.6-4.6,4.9v9.3h-2.6V88.2h2.6v2.3c1-1.7,2.9-2.8,5-2.8
		c3.6,0,6,2.3,6,5.9v10.7H138.6z"/>
	<path class="st8" d="M151.1,90.2c-3.4,0-5.7,2.6-5.7,6.1c0,3.6,2.3,6.2,5.7,6.2c3.6,0,5.8-2.6,5.8-6.2
		C156.9,92.6,154.5,90.2,151.1,90.2 M151.2,104.8c-4.7,0-8.4-3.5-8.4-8.5c0-4.7,3.5-8.5,8.3-8.5c4.8,0,8.4,3.7,8.4,8.4
		C159.6,101.1,155.9,104.8,151.2,104.8"/>
	<path class="st8" d="M170.7,88.8c4.3,0,6.9,3.6,6.9,7.6c0,4-2.6,7.6-6.9,7.6c-3.4,0-6.5-3.4-6.5-7.6
		C164.2,92.3,167.4,88.8,170.7,88.8 M163.3,78.5v25.8h0.9v-4.6c0.6,2.2,3.2,5.1,6.6,5.1c4.7,0,7.7-3.9,7.7-8.4c0-4.5-3-8.4-7.7-8.4
		c-3.5,0-5.8,2.8-6.6,5.1V78.5H163.3z"/>
	<path class="st8" d="M194.9,95.4c-0.4-3.3-2.4-6.5-6.5-6.5c-3.5,0-6.2,2.8-6.6,6.5H194.9z M181.7,96.5c0,4.3,2.9,7.5,6.9,7.5
		c3,0,4.7-1.1,6.2-2.7l0.6,0.6c-1.7,1.7-3.6,2.9-6.8,2.9c-4.5,0-7.8-3.6-7.8-8.3c0-4.8,3.3-8.4,7.6-8.4c4.9,0,7.2,3.9,7.5,8.1h-14.2
		V96.5z"/>
	<rect x="199.7" y="78.5" class="st8" width="0.9" height="25.8"/>
	<rect x="207.1" y="78.5" class="st8" width="0.9" height="25.8"/>
	<path class="st8" d="M219.9,88.8c-4.1,0-7.3,3.5-7.3,7.6c0,4.1,3.1,7.6,7.3,7.6c4.1,0,7.3-3.4,7.3-7.6
		C227.1,92.3,224,88.8,219.9,88.8 M219.9,104.8c-4.6,0-8.1-3.7-8.1-8.4c0-4.6,3.5-8.4,8.1-8.4c4.6,0,8.1,3.8,8.1,8.4
		C228,101,224.5,104.8,219.9,104.8"/>
	<path class="st8" d="M229.3,87.7c-0.8,0-1.5-0.7-1.5-1.5c0-0.8,0.7-1.5,1.5-1.5c0.8,0,1.5,0.7,1.5,1.5
		C230.8,87,230.1,87.7,229.3,87.7 M229.3,84.8c-0.8,0-1.3,0.6-1.3,1.4c0,0.7,0.6,1.3,1.3,1.3c0.8,0,1.3-0.6,1.3-1.4
		C230.6,85.4,230,84.8,229.3,84.8 M229.6,86.3l0.5,0.6h-0.3l-0.4-0.6h-0.4v0.6h-0.2v-1.5h0.7c0.3,0,0.6,0.2,0.6,0.5
		C229.9,86.1,229.8,86.2,229.6,86.3 M229.4,85.6h-0.4v0.5h0.4c0.2,0,0.4-0.1,0.4-0.3C229.7,85.7,229.6,85.6,229.4,85.6"/>
</g>
<g>
	<path class="st8" d="M69,102.6v2.2h-1.7v-16H69v6.9c0.9-1.4,2.3-2.5,4.3-2.5c2.7,0,5.4,2.1,5.4,5.9v0c0,3.7-2.7,5.9-5.4,5.9
		C71.2,105,69.9,103.9,69,102.6z M77,99.2L77,99.2c0-2.7-1.8-4.4-4-4.4c-2.1,0-4.1,1.8-4.1,4.3v0c0,2.6,2,4.4,4.1,4.4
		C75.2,103.5,77,101.9,77,99.2z"/>
	<path class="st8" d="M89.2,93.5H91l-4.7,11.7c-1,2.3-2.1,3.2-3.8,3.2c-0.9,0-1.6-0.2-2.4-0.6l0.6-1.3c0.5,0.3,1,0.4,1.8,0.4
		c1,0,1.6-0.5,2.3-2.1l-5.1-11.3h1.9l4.1,9.4L89.2,93.5z"/>
</g>
<g>
	<path class="st1" d="M12.9,58.1V27.1H6v-1.7h6.9V10.3h1.8v15.2h16.2v1.7H14.7v30.8c0,6.6,3.2,10.4,9.4,10.4c2.2,0,4.6-0.5,6.7-1.6
		v1.9c-2.1,1-4.4,1.4-6.7,1.4C16.8,70.1,12.9,65.7,12.9,58.1z"/>
	<path class="st1" d="M36.6,5.3h1.8v32.2c1.4-5.3,7.2-13.1,17.6-13.1c11.8,0,18.4,8,18.4,20.1v24.8h-1.8V44.7
		c0-11-5.7-18.5-16.7-18.5c-9.7,0-17.4,8.3-17.4,18.8v24.3h-1.8V5.3z"/>
	<path class="st1" d="M83.4,8h2.7v5h-2.7V8z M83.8,25.5h1.8v43.8h-1.8V25.5z"/>
	<path class="st1" d="M95.9,25.5h1.8v12c1.4-5.3,7.2-13.1,17.6-13.1c11.8,0,18.4,8,18.4,20.1v24.8h-1.8V44.7
		c0-11-5.7-18.5-16.7-18.5c-9.7,0-17.4,8.3-17.4,18.8v24.3h-1.8V25.5z"/>
	<path class="st1" d="M138.6,56.2V56c0-9.6,7.9-14.6,19.4-14.6c5.8,0,9.9,0.8,13.9,1.9v-1.6c0-8.1-5-12.4-13.5-12.4
		c-5.3,0-9.5,1.4-13.8,3.3l-2-5.5c5-2.3,9.9-3.8,16.5-3.8c6.4,0,11.3,1.7,14.6,5c3.1,3.1,4.6,7.4,4.6,13.2v27.7h-6.5v-6.8
		c-3.2,4.1-8.4,7.8-16.4,7.8C147.1,70.3,138.6,65.4,138.6,56.2z M172,52.6v-4.4c-3.3-1-7.8-1.9-13.3-1.9c-8.5,0-13.2,3.7-13.2,9.4
		v0.2c0,5.7,5.3,9,11.4,9C165.1,64.9,172,59.8,172,52.6z"/>
	<path class="st1" d="M186.3,6.6h7.7v7.4h-7.7V6.6z M186.8,24h6.7v45.3h-6.7V24z"/>
	<path class="st1" d="M202.6,24h6.7v11.8c3.3-7.5,9.9-13,18.5-12.6v7.3h-0.5c-9.9,0-18,7.1-18,20.8v18h-6.7V24z"/>
</g>
<g>
	<path d="M230,16.3v-5.4h-2v-0.7h4.8v0.7h-2v5.4H230z"/>
	<path d="M233.7,16.3v-6.1h1.2l1.4,4.3c0.1,0.4,0.2,0.7,0.3,0.9c0.1-0.2,0.2-0.5,0.3-1l1.5-4.3h1.1v6.1h-0.8v-5.1l-1.8,5.1h-0.7
		l-1.8-5.2v5.2H233.7z"/>
</g>
</svg>
