<?xml version="1.0" encoding="utf-8"?>
<!-- Generator: Adobe Illustrator 18.1.0, SVG Export Plug-In . SVG Version: 6.00 Build 0)  -->
<!DOCTYPE svg PUBLIC "-//W3C//DTD SVG 1.1//EN" "http://www.w3.org/Graphics/SVG/1.1/DTD/svg11.dtd">
<svg version="1.1" id="Layer_1" xmlns="http://www.w3.org/2000/svg" xmlns:xlink="http://www.w3.org/1999/xlink" x="0px" y="0px"
	 viewBox="-223 57 512 448" enable-background="new -223 57 512 448" xml:space="preserve">
<path d="M-14.1,356.1l11.9,29.7c-11.5,4.6-23,8.1-34.2,10.4l-6.5-31.3C-33.5,362.9-23.8,360-14.1,356.1z M-109.3,394.4
	c11.7,3.4,24.1,5.2,36.7,5.4l0.5-32c-9.8-0.2-19.3-1.5-28.3-4.1L-109.3,394.4z M142.7,338.6c9.2,1.8,18.2,5,26.8,9.4l14.7-28.4
	c-11.2-5.8-23.1-9.9-35.2-12.3L142.7,338.6z M75.9,312.3l9.6,30.5c9.8-3.1,19.4-5,28.8-5.8l-2.6-31.9C100,306.2,88,308.6,75.9,312.3
	z M24.6,336.4c-3.6,2.2-7.1,4.3-10.6,6.2l15.6,27.9c3.9-2.2,7.9-4.5,11.9-7c5.5-3.4,10.9-6.4,16.2-9.1L43.1,326
	C37.1,329,30.9,332.5,24.6,336.4z M113,137c0,13.1-3.1,25.4-8.7,36.3L33,313c0,0-71.9-140.8-72.2-141.4c-5-10.4-7.8-22.2-7.8-34.6
	c0-44.2,35.8-80,80-80S113,92.8,113,137z M81,137c0-26.5-21.5-48-48-48s-48,21.5-48,48s21.5,48,48,48S81,163.5,81,137z M193,217
	h-75.1l-16.3,32h68.3l34.5,103.6l-11,12.2c11.8,10.6,17.8,20.4,17.9,20.4l3.4-2l29.9,89.8h-423.2l32.1-96.1c1.1,0.8,2,1.5,3.2,2.3
	l17-27.1c-3.8-2.4-6.9-4.8-9.7-7l32.1-96.2h68.4c-6.8-13.2-12.1-23.7-16.3-32H-127l-96,288h512L193,217z"/>
</svg>
