<?xml version="1.0" encoding="utf-8"?>
<!-- Generator: Adobe Illustrator 18.1.1, SVG Export Plug-In . SVG Version: 6.00 Build 0)  -->
<svg version="1.1" id="Layer_1" xmlns="http://www.w3.org/2000/svg" xmlns:xlink="http://www.w3.org/1999/xlink" x="0px" y="0px"
	 width="76px" height="76px" viewBox="-268 359 76 76" style="enable-background:new -268 359 76 76;" xml:space="preserve">
<g id="user">
	<g id="circle-1">
		<path d="M-230,362c19.3,0,35,15.7,35,35s-15.7,35-35,35s-35-15.7-35-35S-249.3,362-230,362 M-230,359c-21,0-38,17-38,38
			s17,38,38,38s38-17,38-38S-209,359-230,359L-230,359z"/>
	</g>
	<g id="path-1">
		<path d="M-230,381c-4.1,0-7.5,3.3-7.5,7.5c0,4.1,3.4,7.5,7.5,7.5c4.1,0,7.5-3.3,7.5-7.5C-222.5,384.3-225.9,381-230,381L-230,381z
			 M-230,394c-3,0-5.5-2.5-5.5-5.5c0-3,2.5-5.5,5.5-5.5c3,0,5.5,2.5,5.5,5.5C-224.5,391.5-227,394-230,394L-230,394z M-225.8,396.8
			c-0.4,0-0.7,0.2-0.9,0.5c-0.7,1.5-1.9,2.8-3.3,3.8c-1.4-0.9-2.5-2.2-3.3-3.8c-0.2-0.3-0.5-0.5-0.9-0.5c-0.1,0-0.2,0-0.3,0
			c-3.6,1.1-6.5,3.5-8.4,6.7c-0.2,0.3-0.2,0.7,0,1c2.7,4.6,7.6,7.4,12.9,7.4c5.3,0,10.2-2.8,12.9-7.4c0.2-0.3,0.2-0.7,0-1
			c-1.9-3.2-4.9-5.6-8.4-6.7C-225.6,396.9-225.7,396.8-225.8,396.8L-225.8,396.8z M-227.1,404c-0.2-0.1-0.3-0.3-0.5-0.4
			c-0.3-0.3-0.7-0.6-1.1-0.9c1.4-0.9,2.5-2.2,3.3-3.6c0.5,0.2,1.1,0.4,1.6,0.7C-224.6,401.1-225.7,402.7-227.1,404L-227.1,404z
			 M-232.9,404c-1.4-1.3-2.5-2.9-3.3-4.2c0.5-0.3,1-0.5,1.6-0.7c0.8,1.4,2,2.7,3.3,3.6c-0.4,0.3-0.7,0.6-1.1,0.9
			C-232.6,403.7-232.7,403.8-232.9,404L-232.9,404z M-227.1,405.5c0.1,0,0.3,0,0.4-0.1c1.8-1.4,3.1-3.3,4-4.9c1.4,1,2.6,2.2,3.6,3.7
			c-2.2,3.5-6.1,5.7-10.2,5.9v-4.3c0-0.4-0.3-0.6-0.7-0.6c-0.4,0-0.7,0.3-0.7,0.6v4.3c-4.2-0.2-8-2.4-10.2-5.9
			c0.9-1.5,2.2-2.7,3.6-3.7c0.9,1.6,2.3,3.5,4,4.9c0.1,0.1,0.3,0.1,0.4,0.1c0.1,0,0.3,0,0.4-0.1c0.3-0.2,0.6-0.5,1-0.8
			c0.5-0.4,1-0.9,1.5-1.2c0.5,0.3,1,0.8,1.5,1.2c0.3,0.3,0.7,0.6,1,0.8C-227.4,405.4-227.3,405.5-227.1,405.5L-227.1,405.5z"/>
	</g>
</g>
</svg>
