<svg xmlns="http://www.w3.org/2000/svg" xmlns:xlink="http://www.w3.org/1999/xlink" preserveAspectRatio="xMidYMid" width="236" height="50" viewBox="0 0 236 50">
  <defs>
    <style>

      .cls-2 {
        fill: #ffffff;
      }
    </style>
  </defs>
  <path d="M82.263,32.569 C82.263,32.569 82.263,31.825 82.263,31.825 C82.263,31.825 236.000,31.825 236.000,31.825 C236.000,31.825 236.000,32.569 236.000,32.569 C236.000,32.569 82.263,32.569 82.263,32.569 ZM234.967,15.062 C234.920,15.062 234.864,15.065 234.800,15.071 C234.736,15.077 234.651,15.091 234.546,15.114 C234.255,15.172 234.074,15.314 234.004,15.540 C233.934,15.765 233.899,16.138 233.899,16.659 C233.899,16.659 233.863,26.831 233.863,26.831 C233.863,27.121 233.861,27.347 233.855,27.508 C233.849,27.671 233.840,27.792 233.829,27.873 C233.817,27.954 233.802,28.006 233.785,28.029 C233.767,28.052 233.741,28.064 233.706,28.064 C233.671,28.064 233.627,28.049 233.575,28.020 C233.522,27.991 233.449,27.936 233.356,27.856 C233.262,27.775 233.143,27.662 232.997,27.517 C232.851,27.372 232.661,27.184 232.428,26.953 C232.381,26.907 232.203,26.730 231.894,26.423 C231.585,26.117 231.208,25.735 230.765,25.278 C230.321,24.821 229.842,24.326 229.329,23.794 C228.815,23.261 228.325,22.746 227.858,22.249 C227.345,21.705 226.846,21.170 226.361,20.643 C225.877,20.116 225.430,19.628 225.022,19.176 C224.613,18.725 224.257,18.334 223.954,18.004 C223.650,17.675 223.429,17.429 223.289,17.267 C223.289,17.267 223.516,25.582 223.516,25.582 C223.528,25.940 223.548,26.238 223.578,26.475 C223.607,26.713 223.648,26.909 223.700,27.066 C223.753,27.222 223.820,27.341 223.901,27.422 C223.983,27.503 224.082,27.560 224.199,27.595 C224.363,27.641 224.529,27.671 224.698,27.682 C224.867,27.694 224.993,27.699 225.075,27.699 C225.168,27.699 225.215,27.734 225.215,27.804 C225.215,27.896 225.110,27.942 224.899,27.942 C224.398,27.942 223.983,27.934 223.656,27.916 C223.329,27.899 223.125,27.890 223.044,27.890 C222.962,27.890 222.761,27.899 222.440,27.916 C222.118,27.934 221.760,27.942 221.363,27.942 C221.176,27.942 221.083,27.896 221.083,27.804 C221.083,27.734 221.129,27.699 221.223,27.699 C221.293,27.699 221.398,27.694 221.538,27.682 C221.678,27.671 221.812,27.641 221.941,27.595 C222.162,27.537 222.305,27.352 222.369,27.040 C222.433,26.727 222.466,26.178 222.466,25.391 C222.466,25.391 222.483,15.444 222.483,15.444 C222.483,15.109 222.498,14.880 222.527,14.758 C222.556,14.637 222.606,14.576 222.676,14.576 C222.746,14.576 222.842,14.646 222.965,14.784 C223.087,14.923 223.195,15.039 223.289,15.132 C223.359,15.201 223.560,15.418 223.893,15.783 C224.225,16.147 224.648,16.601 225.162,17.145 C225.676,17.689 226.250,18.303 226.887,18.985 C227.523,19.668 228.179,20.368 228.856,21.086 C229.288,21.549 229.723,22.017 230.161,22.492 C230.598,22.966 231.010,23.412 231.395,23.828 C231.780,24.245 232.119,24.612 232.410,24.931 C232.702,25.249 232.918,25.477 233.058,25.616 C233.058,25.616 232.866,16.798 232.866,16.798 C232.854,16.231 232.804,15.832 232.717,15.600 C232.629,15.369 232.451,15.218 232.183,15.149 C232.019,15.114 231.853,15.091 231.684,15.080 C231.515,15.068 231.395,15.062 231.325,15.062 C231.231,15.062 231.185,15.022 231.185,14.941 C231.185,14.860 231.301,14.819 231.535,14.819 C231.733,14.819 231.929,14.822 232.121,14.828 C232.314,14.834 232.495,14.840 232.664,14.845 C232.833,14.851 232.979,14.857 233.102,14.863 C233.225,14.869 233.309,14.871 233.356,14.871 C233.449,14.871 233.630,14.863 233.899,14.845 C234.167,14.828 234.482,14.819 234.844,14.819 C235.054,14.819 235.159,14.860 235.159,14.941 C235.159,15.022 235.095,15.062 234.967,15.062 ZM211.611,27.942 C211.541,27.942 211.412,27.942 211.226,27.942 C211.051,27.942 210.835,27.942 210.578,27.942 C210.333,27.942 210.062,27.939 209.764,27.934 C209.466,27.928 209.166,27.919 208.862,27.908 C208.699,27.896 208.570,27.888 208.477,27.881 C208.383,27.876 208.337,27.844 208.337,27.786 C208.337,27.728 208.378,27.688 208.460,27.664 C208.518,27.641 208.565,27.592 208.600,27.517 C208.635,27.442 208.623,27.335 208.565,27.196 C208.565,27.196 206.936,22.926 206.936,22.926 C206.901,22.856 206.849,22.821 206.779,22.821 C206.779,22.821 203.014,22.821 203.014,22.821 C202.933,22.821 202.875,22.868 202.840,22.960 C202.840,22.960 201.789,26.033 201.789,26.033 C201.625,26.484 201.544,26.872 201.544,27.196 C201.544,27.370 201.617,27.497 201.763,27.578 C201.909,27.659 202.057,27.699 202.209,27.699 C202.209,27.699 202.384,27.699 202.384,27.699 C202.501,27.699 202.559,27.734 202.559,27.804 C202.559,27.896 202.472,27.942 202.297,27.942 C202.192,27.942 202.069,27.939 201.929,27.934 C201.789,27.928 201.655,27.922 201.526,27.916 C201.398,27.910 201.278,27.905 201.167,27.899 C201.056,27.893 200.978,27.890 200.931,27.890 C200.884,27.890 200.794,27.893 200.660,27.899 C200.525,27.905 200.365,27.910 200.178,27.916 C199.991,27.922 199.793,27.928 199.583,27.934 C199.373,27.939 199.163,27.942 198.953,27.942 C198.731,27.942 198.620,27.896 198.620,27.804 C198.620,27.734 198.673,27.699 198.778,27.699 C198.836,27.699 198.918,27.697 199.023,27.691 C199.128,27.685 199.215,27.676 199.285,27.664 C199.694,27.607 200.000,27.430 200.205,27.135 C200.409,26.840 200.593,26.473 200.756,26.033 C200.756,26.033 204.730,15.253 204.730,15.253 C204.835,14.964 204.911,14.779 204.958,14.698 C205.004,14.617 205.057,14.576 205.116,14.576 C205.174,14.576 205.226,14.614 205.273,14.689 C205.319,14.764 205.396,14.935 205.501,15.201 C205.547,15.305 205.655,15.577 205.825,16.017 C205.994,16.457 206.198,16.992 206.437,17.623 C206.677,18.254 206.942,18.945 207.234,19.697 C207.526,20.449 207.815,21.193 208.101,21.928 C208.387,22.662 208.661,23.360 208.923,24.019 C209.186,24.679 209.405,25.229 209.580,25.668 C209.732,26.050 209.880,26.363 210.026,26.606 C210.172,26.849 210.307,27.040 210.429,27.178 C210.552,27.317 210.668,27.416 210.779,27.474 C210.890,27.532 210.992,27.572 211.086,27.595 C211.214,27.641 211.340,27.671 211.462,27.682 C211.585,27.694 211.693,27.699 211.786,27.699 C211.903,27.699 211.961,27.734 211.961,27.804 C211.961,27.862 211.926,27.899 211.856,27.916 C211.786,27.934 211.704,27.942 211.611,27.942 ZM206.621,22.075 C206.621,22.075 204.958,17.388 204.958,17.388 C204.864,17.134 204.777,17.134 204.695,17.388 C204.695,17.388 203.155,22.075 203.155,22.075 C203.120,22.156 203.137,22.197 203.207,22.197 C203.207,22.197 206.551,22.197 206.551,22.197 C206.621,22.197 206.645,22.156 206.621,22.075 ZM188.816,27.942 C188.571,27.942 188.326,27.939 188.081,27.934 C187.835,27.928 187.611,27.922 187.407,27.916 C187.202,27.910 187.033,27.905 186.899,27.899 C186.764,27.893 186.686,27.890 186.663,27.890 C186.639,27.890 186.560,27.893 186.426,27.899 C186.292,27.905 186.137,27.910 185.962,27.916 C185.787,27.922 185.606,27.928 185.419,27.934 C185.233,27.939 185.075,27.942 184.947,27.942 C184.760,27.942 184.667,27.896 184.667,27.804 C184.667,27.734 184.713,27.699 184.807,27.699 C184.888,27.699 184.976,27.694 185.069,27.682 C185.163,27.671 185.250,27.653 185.332,27.630 C185.507,27.595 185.626,27.491 185.691,27.317 C185.755,27.144 185.805,26.930 185.840,26.675 C185.886,26.305 185.913,25.793 185.918,25.139 C185.924,24.485 185.927,23.742 185.927,22.908 C185.927,22.908 185.927,19.853 185.927,19.853 C185.927,19.182 185.927,18.632 185.927,18.204 C185.927,17.776 185.927,17.435 185.927,17.180 C185.927,16.914 185.924,16.703 185.918,16.546 C185.913,16.390 185.904,16.243 185.892,16.104 C185.857,15.537 185.658,15.213 185.297,15.132 C185.203,15.109 185.104,15.091 184.999,15.080 C184.894,15.068 184.812,15.062 184.754,15.062 C184.660,15.062 184.614,15.028 184.614,14.958 C184.614,14.866 184.707,14.819 184.894,14.819 C185.034,14.819 185.203,14.822 185.402,14.828 C185.600,14.834 185.787,14.840 185.962,14.845 C186.137,14.851 186.292,14.857 186.426,14.863 C186.560,14.869 186.639,14.871 186.663,14.871 C186.686,14.871 186.764,14.869 186.899,14.863 C187.033,14.857 187.188,14.851 187.363,14.845 C187.538,14.840 187.719,14.834 187.906,14.828 C188.092,14.822 188.250,14.819 188.378,14.819 C188.565,14.819 188.658,14.866 188.658,14.958 C188.658,15.028 188.612,15.062 188.518,15.062 C188.460,15.062 188.399,15.065 188.334,15.071 C188.270,15.077 188.186,15.091 188.081,15.114 C187.847,15.161 187.687,15.262 187.599,15.418 C187.512,15.574 187.456,15.803 187.433,16.104 C187.421,16.243 187.412,16.390 187.407,16.546 C187.400,16.703 187.398,16.914 187.398,17.180 C187.398,17.435 187.398,17.776 187.398,18.204 C187.398,18.632 187.398,19.182 187.398,19.853 C187.398,19.853 187.398,22.908 187.398,22.908 C187.398,23.742 187.400,24.485 187.407,25.139 C187.412,25.793 187.439,26.305 187.485,26.675 C187.509,26.930 187.561,27.144 187.643,27.317 C187.724,27.491 187.899,27.595 188.168,27.630 C188.296,27.653 188.440,27.671 188.597,27.682 C188.755,27.694 188.874,27.699 188.956,27.699 C189.049,27.699 189.096,27.734 189.096,27.804 C189.096,27.896 189.003,27.942 188.816,27.942 ZM172.534,24.097 C172.359,24.508 172.157,24.881 171.930,25.217 C171.702,25.553 171.466,25.848 171.221,26.102 C171.034,26.299 170.792,26.513 170.494,26.745 C170.196,26.976 169.831,27.193 169.400,27.395 C168.968,27.598 168.466,27.766 167.894,27.899 C167.322,28.032 166.663,28.098 165.916,28.098 C165.542,28.098 165.137,28.087 164.699,28.064 C164.261,28.041 163.856,28.018 163.482,27.994 C163.097,27.971 162.770,27.948 162.502,27.925 C162.233,27.902 162.075,27.890 162.029,27.890 C162.005,27.890 161.930,27.890 161.801,27.890 C161.673,27.890 161.515,27.896 161.329,27.908 C161.154,27.908 160.972,27.913 160.786,27.925 C160.599,27.936 160.441,27.942 160.313,27.942 C160.126,27.942 160.033,27.896 160.033,27.804 C160.033,27.734 160.079,27.699 160.173,27.699 C160.255,27.699 160.342,27.694 160.436,27.682 C160.529,27.671 160.617,27.653 160.698,27.630 C160.874,27.595 160.993,27.491 161.057,27.317 C161.121,27.144 161.171,26.930 161.206,26.675 C161.253,26.305 161.279,25.793 161.285,25.139 C161.291,24.485 161.294,23.742 161.294,22.908 C161.294,22.908 161.294,19.853 161.294,19.853 C161.294,19.182 161.294,18.632 161.294,18.204 C161.294,17.776 161.294,17.435 161.294,17.180 C161.294,16.914 161.291,16.703 161.285,16.546 C161.279,16.390 161.270,16.243 161.259,16.104 C161.235,15.803 161.177,15.577 161.084,15.427 C160.990,15.277 160.797,15.172 160.506,15.114 C160.436,15.091 160.339,15.077 160.217,15.071 C160.094,15.065 159.992,15.062 159.910,15.062 C159.817,15.062 159.770,15.028 159.770,14.958 C159.770,14.866 159.864,14.819 160.051,14.819 C160.249,14.819 160.459,14.822 160.681,14.828 C160.902,14.834 161.110,14.840 161.302,14.845 C161.495,14.851 161.658,14.857 161.793,14.863 C161.927,14.869 162.005,14.871 162.029,14.871 C162.075,14.871 162.178,14.869 162.335,14.863 C162.493,14.857 162.680,14.851 162.896,14.845 C163.111,14.840 163.348,14.834 163.605,14.828 C163.861,14.822 164.124,14.819 164.392,14.819 C164.824,14.819 165.335,14.822 165.924,14.828 C166.514,14.834 167.130,14.895 167.772,15.010 C168.413,15.126 169.050,15.320 169.680,15.592 C170.310,15.864 170.888,16.266 171.413,16.798 C171.635,17.030 171.848,17.290 172.052,17.579 C172.256,17.869 172.437,18.195 172.595,18.560 C172.753,18.925 172.878,19.327 172.972,19.766 C173.065,20.206 173.111,20.686 173.111,21.207 C173.111,21.751 173.059,22.266 172.954,22.752 C172.849,23.238 172.709,23.687 172.534,24.097 ZM171.378,20.235 C171.273,19.784 171.136,19.376 170.967,19.011 C170.797,18.647 170.614,18.329 170.415,18.057 C170.217,17.785 170.030,17.556 169.855,17.371 C169.446,16.943 169.015,16.598 168.559,16.338 C168.104,16.078 167.637,15.878 167.159,15.739 C166.680,15.600 166.187,15.511 165.679,15.470 C165.172,15.430 164.655,15.409 164.130,15.409 C164.036,15.409 163.934,15.412 163.824,15.418 C163.712,15.424 163.599,15.433 163.482,15.444 C163.365,15.456 163.263,15.470 163.176,15.487 C163.088,15.505 163.027,15.520 162.992,15.531 C162.852,15.589 162.782,15.704 162.782,15.878 C162.782,16.029 162.779,16.243 162.773,16.520 C162.767,16.798 162.764,17.111 162.764,17.458 C162.764,17.793 162.764,18.146 162.764,18.517 C162.764,18.887 162.764,19.240 162.764,19.575 C162.764,19.575 162.764,21.728 162.764,21.728 C162.764,22.191 162.764,22.631 162.764,23.047 C162.764,23.464 162.767,23.840 162.773,24.175 C162.779,24.511 162.785,24.795 162.791,25.026 C162.796,25.258 162.799,25.414 162.799,25.495 C162.799,25.599 162.805,25.718 162.817,25.851 C162.828,25.984 162.840,26.114 162.852,26.241 C162.863,26.369 162.881,26.484 162.904,26.588 C162.928,26.692 162.957,26.768 162.992,26.814 C163.050,26.895 163.141,26.976 163.263,27.057 C163.386,27.138 163.561,27.213 163.788,27.283 C164.016,27.352 164.308,27.407 164.664,27.447 C165.020,27.488 165.454,27.508 165.968,27.508 C166.785,27.508 167.553,27.370 168.271,27.092 C168.988,26.814 169.610,26.415 170.135,25.894 C170.357,25.674 170.555,25.408 170.731,25.095 C170.905,24.783 171.054,24.445 171.177,24.080 C171.299,23.715 171.390,23.337 171.448,22.943 C171.507,22.550 171.536,22.150 171.536,21.745 C171.536,21.190 171.483,20.686 171.378,20.235 ZM147.900,27.942 C147.655,27.942 147.410,27.939 147.165,27.934 C146.920,27.928 146.695,27.922 146.491,27.916 C146.286,27.910 146.117,27.905 145.983,27.899 C145.849,27.893 145.770,27.890 145.747,27.890 C145.723,27.890 145.644,27.893 145.510,27.899 C145.376,27.905 145.221,27.910 145.046,27.916 C144.871,27.922 144.690,27.928 144.504,27.934 C144.317,27.939 144.159,27.942 144.031,27.942 C143.844,27.942 143.751,27.896 143.751,27.804 C143.751,27.734 143.797,27.699 143.891,27.699 C143.972,27.699 144.060,27.694 144.154,27.682 C144.247,27.671 144.334,27.653 144.416,27.630 C144.591,27.595 144.711,27.491 144.775,27.317 C144.839,27.144 144.889,26.930 144.924,26.675 C144.970,26.305 144.997,25.793 145.003,25.139 C145.008,24.485 145.011,23.742 145.011,22.908 C145.011,22.908 145.011,19.853 145.011,19.853 C145.011,19.182 145.011,18.632 145.011,18.204 C145.011,17.776 145.011,17.435 145.011,17.180 C145.011,16.914 145.008,16.703 145.003,16.546 C144.997,16.390 144.988,16.243 144.976,16.104 C144.941,15.537 144.743,15.213 144.381,15.132 C144.288,15.109 144.188,15.091 144.083,15.080 C143.978,15.068 143.897,15.062 143.838,15.062 C143.745,15.062 143.698,15.028 143.698,14.958 C143.698,14.866 143.792,14.819 143.978,14.819 C144.118,14.819 144.288,14.822 144.486,14.828 C144.685,14.834 144.871,14.840 145.046,14.845 C145.221,14.851 145.376,14.857 145.510,14.863 C145.644,14.869 145.723,14.871 145.747,14.871 C145.770,14.871 145.849,14.869 145.983,14.863 C146.117,14.857 146.272,14.851 146.447,14.845 C146.622,14.840 146.803,14.834 146.990,14.828 C147.176,14.822 147.334,14.819 147.462,14.819 C147.649,14.819 147.743,14.866 147.743,14.958 C147.743,15.028 147.696,15.062 147.603,15.062 C147.544,15.062 147.483,15.065 147.419,15.071 C147.354,15.077 147.270,15.091 147.165,15.114 C146.931,15.161 146.771,15.262 146.683,15.418 C146.596,15.574 146.540,15.803 146.517,16.104 C146.505,16.243 146.497,16.390 146.491,16.546 C146.485,16.703 146.482,16.914 146.482,17.180 C146.482,17.435 146.482,17.776 146.482,18.204 C146.482,18.632 146.482,19.182 146.482,19.853 C146.482,19.853 146.482,22.908 146.482,22.908 C146.482,23.742 146.485,24.485 146.491,25.139 C146.497,25.793 146.523,26.305 146.570,26.675 C146.593,26.930 146.645,27.144 146.727,27.317 C146.809,27.491 146.984,27.595 147.252,27.630 C147.381,27.653 147.524,27.671 147.681,27.682 C147.839,27.694 147.958,27.699 148.040,27.699 C148.134,27.699 148.180,27.734 148.180,27.804 C148.180,27.896 148.087,27.942 147.900,27.942 ZM134.524,27.942 C134.524,27.942 133.281,27.942 133.281,27.942 C132.791,27.942 132.411,27.919 132.143,27.873 C131.874,27.827 131.629,27.740 131.408,27.612 C131.034,27.416 130.672,27.106 130.322,26.684 C129.972,26.262 129.546,25.720 129.044,25.061 C128.857,24.818 128.670,24.569 128.484,24.314 C128.297,24.060 128.119,23.817 127.950,23.585 C127.781,23.354 127.623,23.143 127.477,22.952 C127.331,22.761 127.217,22.608 127.136,22.492 C127.066,22.422 126.990,22.388 126.908,22.388 C126.908,22.388 124.755,22.353 124.755,22.353 C124.673,22.353 124.632,22.399 124.632,22.492 C124.632,22.492 124.632,22.908 124.632,22.908 C124.632,23.742 124.635,24.485 124.641,25.139 C124.647,25.793 124.673,26.305 124.720,26.675 C124.743,26.930 124.795,27.144 124.877,27.317 C124.959,27.491 125.134,27.595 125.402,27.630 C125.531,27.653 125.674,27.671 125.832,27.682 C125.989,27.694 126.108,27.699 126.190,27.699 C126.284,27.699 126.330,27.734 126.330,27.804 C126.330,27.896 126.237,27.942 126.050,27.942 C125.805,27.942 125.560,27.939 125.315,27.934 C125.070,27.928 124.845,27.922 124.641,27.916 C124.437,27.910 124.267,27.905 124.133,27.899 C123.999,27.893 123.920,27.890 123.897,27.890 C123.652,27.902 123.441,27.910 123.266,27.916 C123.091,27.922 122.910,27.928 122.724,27.934 C122.537,27.939 122.379,27.942 122.251,27.942 C122.064,27.942 121.971,27.896 121.971,27.804 C121.971,27.734 122.017,27.699 122.111,27.699 C122.192,27.699 122.280,27.694 122.374,27.682 C122.467,27.671 122.554,27.653 122.636,27.630 C122.811,27.595 122.931,27.491 122.995,27.317 C123.059,27.144 123.109,26.930 123.144,26.675 C123.190,26.305 123.217,25.793 123.223,25.139 C123.228,24.485 123.231,23.742 123.231,22.908 C123.231,22.908 123.231,19.853 123.231,19.853 C123.231,19.182 123.231,18.632 123.231,18.204 C123.231,17.776 123.231,17.435 123.231,17.180 C123.231,16.914 123.228,16.703 123.223,16.546 C123.217,16.390 123.208,16.243 123.197,16.104 C123.173,15.803 123.115,15.577 123.021,15.427 C122.928,15.277 122.735,15.172 122.443,15.114 C122.374,15.091 122.277,15.077 122.155,15.071 C122.032,15.065 121.930,15.062 121.848,15.062 C121.755,15.062 121.708,15.028 121.708,14.958 C121.708,14.866 121.802,14.819 121.988,14.819 C122.187,14.819 122.397,14.822 122.619,14.828 C122.840,14.834 123.048,14.840 123.240,14.845 C123.433,14.851 123.596,14.857 123.730,14.863 C123.865,14.869 123.943,14.871 123.967,14.871 C124.013,14.871 124.121,14.869 124.291,14.863 C124.460,14.857 124.652,14.851 124.868,14.845 C125.084,14.840 125.297,14.834 125.507,14.828 C125.718,14.822 125.893,14.819 126.033,14.819 C126.593,14.819 127.150,14.863 127.705,14.949 C128.259,15.036 128.770,15.247 129.237,15.583 C129.342,15.664 129.464,15.777 129.604,15.921 C129.744,16.066 129.876,16.237 129.998,16.433 C130.121,16.630 130.226,16.856 130.313,17.111 C130.401,17.365 130.445,17.643 130.445,17.944 C130.445,18.592 130.287,19.243 129.972,19.897 C129.657,20.550 129.108,21.236 128.326,21.954 C129.050,22.868 129.709,23.701 130.305,24.453 C130.900,25.206 131.454,25.854 131.968,26.397 C132.446,26.895 132.867,27.219 133.228,27.370 C133.590,27.520 133.882,27.612 134.104,27.647 C134.267,27.671 134.407,27.685 134.524,27.691 C134.641,27.697 134.728,27.699 134.787,27.699 C134.892,27.699 134.944,27.734 134.944,27.804 C134.944,27.862 134.915,27.899 134.857,27.916 C134.798,27.934 134.687,27.942 134.524,27.942 ZM128.668,20.521 C128.872,20.064 128.974,19.506 128.974,18.846 C128.974,17.759 128.705,16.908 128.169,16.295 C127.632,15.681 126.891,15.375 125.945,15.375 C125.677,15.375 125.438,15.386 125.227,15.409 C125.017,15.433 124.865,15.456 124.772,15.479 C124.679,15.513 124.632,15.583 124.632,15.687 C124.632,15.687 124.632,21.363 124.632,21.363 C124.632,21.456 124.673,21.526 124.755,21.572 C124.883,21.653 125.125,21.719 125.481,21.771 C125.837,21.823 126.208,21.849 126.593,21.849 C126.803,21.849 127.025,21.829 127.258,21.789 C127.492,21.748 127.707,21.659 127.906,21.520 C128.210,21.311 128.463,20.979 128.668,20.521 ZM109.838,27.942 C109.593,27.942 109.348,27.939 109.103,27.934 C108.858,27.928 108.633,27.922 108.429,27.916 C108.224,27.910 108.055,27.905 107.921,27.899 C107.787,27.893 107.708,27.890 107.685,27.890 C107.661,27.890 107.582,27.893 107.448,27.899 C107.314,27.905 107.159,27.910 106.984,27.916 C106.809,27.922 106.628,27.928 106.442,27.934 C106.255,27.939 106.097,27.942 105.969,27.942 C105.782,27.942 105.689,27.896 105.689,27.804 C105.689,27.734 105.735,27.699 105.829,27.699 C105.910,27.699 105.998,27.694 106.092,27.682 C106.185,27.671 106.272,27.653 106.354,27.630 C106.529,27.595 106.649,27.491 106.713,27.317 C106.777,27.144 106.827,26.930 106.862,26.675 C106.908,26.305 106.935,25.793 106.941,25.139 C106.946,24.485 106.949,23.742 106.949,22.908 C106.949,22.908 106.949,19.853 106.949,19.853 C106.949,19.182 106.949,18.632 106.949,18.204 C106.949,17.776 106.949,17.435 106.949,17.180 C106.949,16.914 106.946,16.703 106.941,16.546 C106.935,16.390 106.926,16.243 106.914,16.104 C106.879,15.537 106.681,15.213 106.319,15.132 C106.226,15.109 106.126,15.091 106.021,15.080 C105.916,15.068 105.835,15.062 105.776,15.062 C105.683,15.062 105.636,15.028 105.636,14.958 C105.636,14.866 105.730,14.819 105.916,14.819 C106.056,14.819 106.226,14.822 106.424,14.828 C106.623,14.834 106.809,14.840 106.984,14.845 C107.159,14.851 107.314,14.857 107.448,14.863 C107.582,14.869 107.661,14.871 107.685,14.871 C107.708,14.871 107.787,14.869 107.921,14.863 C108.055,14.857 108.210,14.851 108.385,14.845 C108.560,14.840 108.741,14.834 108.928,14.828 C109.114,14.822 109.272,14.819 109.400,14.819 C109.587,14.819 109.681,14.866 109.681,14.958 C109.681,15.028 109.634,15.062 109.541,15.062 C109.482,15.062 109.421,15.065 109.357,15.071 C109.292,15.077 109.208,15.091 109.103,15.114 C108.869,15.161 108.709,15.262 108.621,15.418 C108.534,15.574 108.478,15.803 108.455,16.104 C108.443,16.243 108.435,16.390 108.429,16.546 C108.423,16.703 108.420,16.914 108.420,17.180 C108.420,17.435 108.420,17.776 108.420,18.204 C108.420,18.632 108.420,19.182 108.420,19.853 C108.420,19.853 108.420,22.908 108.420,22.908 C108.420,23.742 108.423,24.485 108.429,25.139 C108.435,25.793 108.461,26.305 108.508,26.675 C108.531,26.930 108.583,27.144 108.665,27.317 C108.747,27.491 108.922,27.595 109.190,27.630 C109.319,27.653 109.462,27.671 109.619,27.682 C109.777,27.694 109.897,27.699 109.978,27.699 C110.072,27.699 110.118,27.734 110.118,27.804 C110.118,27.896 110.025,27.942 109.838,27.942 ZM95.552,15.062 C95.493,15.062 95.380,15.071 95.210,15.088 C95.041,15.106 94.875,15.166 94.711,15.271 C94.653,15.305 94.592,15.355 94.528,15.418 C94.463,15.482 94.393,15.574 94.318,15.696 C94.241,15.817 94.157,15.977 94.064,16.173 C93.970,16.370 93.865,16.613 93.749,16.902 C93.702,17.030 93.614,17.244 93.486,17.544 C93.357,17.846 93.206,18.210 93.031,18.638 C92.856,19.066 92.660,19.535 92.444,20.044 C92.228,20.553 92.009,21.074 91.788,21.606 C91.251,22.879 90.790,23.967 90.404,24.870 C90.019,25.772 89.727,26.438 89.529,26.866 C89.284,27.387 89.120,27.737 89.039,27.916 C88.957,28.095 88.875,28.185 88.794,28.185 C88.689,28.185 88.598,28.110 88.523,27.960 C88.446,27.809 88.327,27.526 88.163,27.109 C88.163,27.109 83.874,16.468 83.874,16.468 C83.781,16.225 83.690,16.029 83.603,15.878 C83.515,15.728 83.425,15.603 83.331,15.505 C83.238,15.407 83.133,15.331 83.016,15.279 C82.899,15.227 82.765,15.178 82.614,15.132 C82.485,15.097 82.357,15.077 82.228,15.071 C82.100,15.065 82.007,15.062 81.948,15.062 C81.855,15.062 81.808,15.022 81.808,14.941 C81.808,14.860 81.960,14.819 82.263,14.819 C82.473,14.819 82.689,14.822 82.911,14.828 C83.133,14.834 83.337,14.840 83.524,14.845 C83.711,14.851 83.874,14.857 84.014,14.863 C84.154,14.869 84.253,14.871 84.312,14.871 C84.405,14.871 84.615,14.863 84.942,14.845 C85.269,14.828 85.601,14.819 85.940,14.819 C86.255,14.819 86.413,14.860 86.413,14.941 C86.413,15.022 86.354,15.062 86.238,15.062 C86.144,15.062 86.030,15.068 85.896,15.080 C85.762,15.091 85.654,15.114 85.572,15.149 C85.479,15.195 85.418,15.251 85.389,15.314 C85.359,15.378 85.345,15.438 85.345,15.496 C85.345,15.612 85.391,15.797 85.485,16.052 C85.578,16.306 85.689,16.601 85.817,16.937 C85.817,16.937 89.179,25.824 89.179,25.824 C89.342,25.431 89.541,24.951 89.774,24.384 C90.008,23.817 90.253,23.212 90.510,22.570 C90.766,21.928 91.026,21.274 91.289,20.608 C91.551,19.943 91.793,19.318 92.015,18.734 C92.237,18.149 92.427,17.631 92.584,17.180 C92.742,16.729 92.856,16.399 92.926,16.190 C92.972,16.063 93.010,15.942 93.040,15.826 C93.069,15.711 93.083,15.612 93.083,15.531 C93.083,15.461 93.069,15.389 93.040,15.314 C93.010,15.239 92.949,15.178 92.856,15.132 C92.751,15.097 92.637,15.077 92.514,15.071 C92.392,15.065 92.284,15.062 92.190,15.062 C92.062,15.062 91.998,15.028 91.998,14.958 C91.998,14.866 92.126,14.819 92.383,14.819 C92.733,14.819 93.080,14.828 93.425,14.845 C93.769,14.863 93.994,14.871 94.099,14.871 C94.122,14.871 94.183,14.869 94.282,14.863 C94.382,14.857 94.498,14.851 94.633,14.845 C94.767,14.840 94.907,14.834 95.053,14.828 C95.199,14.822 95.336,14.819 95.464,14.819 C95.663,14.819 95.762,14.860 95.762,14.941 C95.762,15.022 95.692,15.062 95.552,15.062 ZM70.370,8.054 C65.218,6.177 61.500,6.681 54.793,9.205 C50.808,10.703 47.602,13.370 45.068,15.998 C47.325,15.059 51.077,13.855 54.901,14.194 C60.974,14.731 63.491,16.796 63.491,16.796 C60.682,15.678 56.242,14.169 49.759,16.334 C44.973,17.933 41.807,24.774 41.432,26.108 C41.056,27.441 40.651,27.900 40.369,32.237 C40.114,36.156 42.082,42.516 42.950,44.000 C43.817,45.484 44.165,46.925 44.165,46.925 C44.512,48.473 44.165,49.763 44.165,49.763 C39.957,47.290 37.462,43.032 36.182,40.086 C35.274,37.994 34.902,35.485 34.762,34.203 C34.730,34.314 34.694,34.430 34.664,34.538 C33.449,38.882 33.276,38.839 31.541,42.710 C29.955,46.247 25.146,49.460 24.328,49.989 C24.275,50.023 24.206,49.987 24.203,49.925 C24.185,49.549 24.141,48.522 24.166,48.172 C24.204,47.645 24.593,45.518 24.791,44.355 C24.861,43.949 24.994,43.557 25.189,43.193 C26.572,40.620 32.200,28.614 24.513,16.000 C17.163,3.940 3.961,7.745 0.096,9.190 C0.001,9.225 -0.061,9.089 0.029,9.041 C4.823,6.466 10.433,6.190 14.911,6.538 C19.712,6.911 24.050,9.764 24.050,9.764 C31.086,13.754 33.904,22.179 34.342,23.617 C34.364,23.689 34.462,23.695 34.493,23.627 C35.582,21.252 39.358,15.076 42.588,11.957 C45.884,8.774 51.510,6.803 51.610,6.768 C51.612,6.767 51.612,6.767 51.614,6.767 C63.583,3.520 69.081,6.854 70.449,7.915 C70.522,7.972 70.457,8.086 70.370,8.054 ZM46.174,5.506 C44.641,5.506 43.398,4.273 43.398,2.753 C43.398,1.233 44.641,0.000 46.174,0.000 C47.708,0.000 48.951,1.233 48.951,2.753 C48.951,4.273 47.708,5.506 46.174,5.506 ZM37.715,11.699 C36.182,11.699 34.939,10.467 34.939,8.946 C34.939,7.426 36.182,6.194 37.715,6.194 C39.249,6.194 40.492,7.426 40.492,8.946 C40.492,10.467 39.249,11.699 37.715,11.699 ZM28.432,9.764 C26.898,9.764 25.655,8.531 25.655,7.011 C25.655,5.491 26.898,4.258 28.432,4.258 C29.965,4.258 31.208,5.491 31.208,7.011 C31.208,8.531 29.965,9.764 28.432,9.764 ZM98.302,40.847 C98.302,40.847 101.412,40.847 101.412,40.847 C101.412,40.847 101.412,38.073 101.412,38.073 C101.412,38.073 102.521,38.073 102.521,38.073 C102.521,38.073 102.521,44.671 102.521,44.671 C102.521,44.671 101.412,44.671 101.412,44.671 C101.412,44.671 101.412,41.814 101.412,41.814 C101.412,41.814 98.302,41.814 98.302,41.814 C98.302,41.814 98.302,44.671 98.302,44.671 C98.302,44.671 97.198,44.671 97.198,44.671 C97.198,44.671 97.198,38.073 97.198,38.073 C97.198,38.073 98.302,38.073 98.302,38.073 C98.302,38.073 98.302,40.847 98.302,40.847 ZM108.809,39.016 C108.809,39.016 106.313,39.016 106.313,39.016 C106.313,39.016 106.313,40.875 106.313,40.875 C106.313,40.875 108.633,40.875 108.633,40.875 C108.633,40.875 108.633,41.814 108.633,41.814 C108.633,41.814 106.313,41.814 106.313,41.814 C106.313,41.814 106.313,43.728 106.313,43.728 C106.313,43.728 108.962,43.728 108.962,43.728 C108.962,43.728 108.962,44.671 108.962,44.671 C108.962,44.671 105.208,44.671 105.208,44.671 C105.208,44.671 105.208,38.073 105.208,38.073 C105.208,38.073 108.809,38.073 108.809,38.073 C108.809,38.073 108.809,39.016 108.809,39.016 ZM114.202,38.073 C114.202,38.073 116.731,44.671 116.731,44.671 C116.731,44.671 115.516,44.671 115.516,44.671 C115.516,44.671 114.908,43.005 114.908,43.005 C114.908,43.005 112.244,43.005 112.244,43.005 C112.244,43.005 111.664,44.671 111.664,44.671 C111.664,44.671 110.457,44.671 110.457,44.671 C110.457,44.671 112.977,38.073 112.977,38.073 C112.977,38.073 114.202,38.073 114.202,38.073 ZM114.592,42.080 C114.592,42.080 113.678,39.536 113.678,39.536 C113.641,39.429 113.610,39.271 113.585,39.062 C113.585,39.062 113.557,39.062 113.557,39.062 C113.539,39.237 113.506,39.395 113.460,39.536 C113.460,39.536 112.550,42.080 112.550,42.080 C112.550,42.080 114.592,42.080 114.592,42.080 ZM119.715,43.728 C119.715,43.728 122.319,43.728 122.319,43.728 C122.319,43.728 122.319,44.671 122.319,44.671 C122.319,44.671 118.611,44.671 118.611,44.671 C118.611,44.671 118.611,38.073 118.611,38.073 C118.611,38.073 119.715,38.073 119.715,38.073 C119.715,38.073 119.715,43.728 119.715,43.728 ZM127.995,39.016 C127.995,39.016 126.083,39.016 126.083,39.016 C126.083,39.016 126.083,44.671 126.083,44.671 C126.083,44.671 124.969,44.671 124.969,44.671 C124.969,44.671 124.969,39.016 124.969,39.016 C124.969,39.016 123.062,39.016 123.062,39.016 C123.062,39.016 123.062,38.073 123.062,38.073 C123.062,38.073 127.995,38.073 127.995,38.073 C127.995,38.073 127.995,39.016 127.995,39.016 ZM131.081,40.847 C131.081,40.847 134.191,40.847 134.191,40.847 C134.191,40.847 134.191,38.073 134.191,38.073 C134.191,38.073 135.300,38.073 135.300,38.073 C135.300,38.073 135.300,44.671 135.300,44.671 C135.300,44.671 134.191,44.671 134.191,44.671 C134.191,44.671 134.191,41.814 134.191,41.814 C134.191,41.814 131.081,41.814 131.081,41.814 C131.081,41.814 131.081,44.671 131.081,44.671 C131.081,44.671 129.977,44.671 129.977,44.671 C129.977,44.671 129.977,38.073 129.977,38.073 C129.977,38.073 131.081,38.073 131.081,38.073 C131.081,38.073 131.081,40.847 131.081,40.847 ZM144.869,42.241 C145.030,42.637 145.131,42.941 145.171,43.152 C145.171,43.152 145.199,43.152 145.199,43.152 C145.335,42.784 145.452,42.478 145.551,42.232 C145.551,42.232 147.292,38.073 147.292,38.073 C147.292,38.073 148.805,38.073 148.805,38.073 C148.805,38.073 148.805,44.671 148.805,44.671 C148.805,44.671 147.709,44.671 147.709,44.671 C147.709,44.671 147.709,40.470 147.709,40.470 C147.709,40.004 147.723,39.605 147.751,39.274 C147.751,39.274 147.765,39.053 147.765,39.053 C147.765,39.053 147.746,39.053 147.746,39.053 C147.682,39.390 147.618,39.636 147.556,39.789 C147.556,39.789 145.542,44.671 145.542,44.671 C145.542,44.671 144.823,44.671 144.823,44.671 C144.823,44.671 142.795,39.835 142.795,39.835 C142.764,39.761 142.700,39.501 142.604,39.053 C142.604,39.053 142.577,39.053 142.577,39.053 C142.607,39.427 142.623,39.945 142.623,40.608 C142.623,40.608 142.623,44.671 142.623,44.671 C142.623,44.671 141.597,44.671 141.597,44.671 C141.597,44.671 141.597,38.073 141.597,38.073 C141.597,38.073 143.175,38.073 143.175,38.073 C143.175,38.073 144.869,42.241 144.869,42.241 ZM154.420,38.073 C154.420,38.073 156.949,44.671 156.949,44.671 C156.949,44.671 155.733,44.671 155.733,44.671 C155.733,44.671 155.126,43.005 155.126,43.005 C155.126,43.005 152.462,43.005 152.462,43.005 C152.462,43.005 151.882,44.671 151.882,44.671 C151.882,44.671 150.675,44.671 150.675,44.671 C150.675,44.671 153.195,38.073 153.195,38.073 C153.195,38.073 154.420,38.073 154.420,38.073 ZM154.810,42.080 C154.810,42.080 153.896,39.536 153.896,39.536 C153.859,39.429 153.828,39.271 153.803,39.062 C153.803,39.062 153.775,39.062 153.775,39.062 C153.757,39.237 153.724,39.395 153.678,39.536 C153.678,39.536 152.768,42.080 152.768,42.080 C152.768,42.080 154.810,42.080 154.810,42.080 ZM163.164,42.844 C163.297,43.062 163.389,43.218 163.442,43.314 C163.442,43.314 163.461,43.314 163.461,43.314 C163.426,43.087 163.410,42.732 163.410,42.251 C163.410,42.251 163.410,38.073 163.410,38.073 C163.410,38.073 164.496,38.073 164.496,38.073 C164.496,38.073 164.496,44.671 164.496,44.671 C164.496,44.671 163.173,44.671 163.173,44.671 C163.173,44.671 160.124,39.789 160.124,39.789 C159.997,39.587 159.918,39.436 159.887,39.338 C159.887,39.338 159.855,39.338 159.855,39.338 C159.895,39.528 159.915,39.876 159.915,40.383 C159.915,40.383 159.915,44.671 159.915,44.671 C159.915,44.671 158.829,44.671 158.829,44.671 C158.829,44.671 158.829,38.073 158.829,38.073 C158.829,38.073 160.226,38.073 160.226,38.073 C160.226,38.073 163.164,42.844 163.164,42.844 ZM170.120,38.073 C170.120,38.073 172.650,44.671 172.650,44.671 C172.650,44.671 171.434,44.671 171.434,44.671 C171.434,44.671 170.826,43.005 170.826,43.005 C170.826,43.005 168.162,43.005 168.162,43.005 C168.162,43.005 167.582,44.671 167.582,44.671 C167.582,44.671 166.375,44.671 166.375,44.671 C166.375,44.671 168.895,38.073 168.895,38.073 C168.895,38.073 170.120,38.073 170.120,38.073 ZM170.510,42.080 C170.510,42.080 169.596,39.536 169.596,39.536 C169.559,39.429 169.528,39.271 169.503,39.062 C169.503,39.062 169.475,39.062 169.475,39.062 C169.457,39.237 169.424,39.395 169.378,39.536 C169.378,39.536 168.468,42.080 168.468,42.080 C168.468,42.080 170.510,42.080 170.510,42.080 ZM177.546,37.962 C178.282,37.962 178.905,38.073 179.416,38.294 C179.416,38.294 179.416,39.421 179.416,39.421 C178.890,39.084 178.245,38.915 177.481,38.915 C176.809,38.915 176.253,39.143 175.812,39.600 C175.371,40.057 175.151,40.657 175.151,41.399 C175.151,42.166 175.351,42.764 175.752,43.191 C176.153,43.619 176.696,43.833 177.383,43.833 C177.807,43.833 178.181,43.751 178.506,43.585 C178.506,43.585 178.506,42.025 178.506,42.025 C178.506,42.025 177.128,42.025 177.128,42.025 C177.128,42.025 177.128,41.082 177.128,41.082 C177.128,41.082 179.615,41.082 179.615,41.082 C179.615,41.082 179.615,44.220 179.615,44.220 C178.947,44.597 178.175,44.786 177.300,44.786 C176.309,44.786 175.509,44.487 174.898,43.889 C174.287,43.291 173.982,42.484 173.982,41.468 C173.982,40.432 174.318,39.588 174.991,38.938 C175.664,38.288 176.515,37.962 177.546,37.962 ZM185.690,39.016 C185.690,39.016 183.194,39.016 183.194,39.016 C183.194,39.016 183.194,40.875 183.194,40.875 C183.194,40.875 185.514,40.875 185.514,40.875 C185.514,40.875 185.514,41.814 185.514,41.814 C185.514,41.814 183.194,41.814 183.194,41.814 C183.194,41.814 183.194,43.728 183.194,43.728 C183.194,43.728 185.844,43.728 185.844,43.728 C185.844,43.728 185.844,44.671 185.844,44.671 C185.844,44.671 182.089,44.671 182.089,44.671 C182.089,44.671 182.089,38.073 182.089,38.073 C182.089,38.073 185.690,38.073 185.690,38.073 C185.690,38.073 185.690,39.016 185.690,39.016 ZM191.274,42.241 C191.434,42.637 191.535,42.941 191.575,43.152 C191.575,43.152 191.603,43.152 191.603,43.152 C191.739,42.784 191.857,42.478 191.956,42.232 C191.956,42.232 193.696,38.073 193.696,38.073 C193.696,38.073 195.209,38.073 195.209,38.073 C195.209,38.073 195.209,44.671 195.209,44.671 C195.209,44.671 194.114,44.671 194.114,44.671 C194.114,44.671 194.114,40.470 194.114,40.470 C194.114,40.004 194.128,39.605 194.155,39.274 C194.155,39.274 194.169,39.053 194.169,39.053 C194.169,39.053 194.151,39.053 194.151,39.053 C194.086,39.390 194.022,39.636 193.961,39.789 C193.961,39.789 191.946,44.671 191.946,44.671 C191.946,44.671 191.227,44.671 191.227,44.671 C191.227,44.671 189.199,39.835 189.199,39.835 C189.168,39.761 189.105,39.501 189.009,39.053 C189.009,39.053 188.981,39.053 188.981,39.053 C189.012,39.427 189.027,39.945 189.027,40.608 C189.027,40.608 189.027,44.671 189.027,44.671 C189.027,44.671 188.002,44.671 188.002,44.671 C188.002,44.671 188.002,38.073 188.002,38.073 C188.002,38.073 189.580,38.073 189.580,38.073 C189.580,38.073 191.274,42.241 191.274,42.241 ZM201.488,39.016 C201.488,39.016 198.991,39.016 198.991,39.016 C198.991,39.016 198.991,40.875 198.991,40.875 C198.991,40.875 201.312,40.875 201.312,40.875 C201.312,40.875 201.312,41.814 201.312,41.814 C201.312,41.814 198.991,41.814 198.991,41.814 C198.991,41.814 198.991,43.728 198.991,43.728 C198.991,43.728 201.641,43.728 201.641,43.728 C201.641,43.728 201.641,44.671 201.641,44.671 C201.641,44.671 197.887,44.671 197.887,44.671 C197.887,44.671 197.887,38.073 197.887,38.073 C197.887,38.073 201.488,38.073 201.488,38.073 C201.488,38.073 201.488,39.016 201.488,39.016 ZM208.134,42.844 C208.267,43.062 208.359,43.218 208.412,43.314 C208.412,43.314 208.431,43.314 208.431,43.314 C208.397,43.087 208.380,42.732 208.380,42.251 C208.380,42.251 208.380,38.073 208.380,38.073 C208.380,38.073 209.466,38.073 209.466,38.073 C209.466,38.073 209.466,44.671 209.466,44.671 C209.466,44.671 208.143,44.671 208.143,44.671 C208.143,44.671 205.094,39.789 205.094,39.789 C204.967,39.587 204.888,39.436 204.857,39.338 C204.857,39.338 204.825,39.338 204.825,39.338 C204.865,39.528 204.885,39.876 204.885,40.383 C204.885,40.383 204.885,44.671 204.885,44.671 C204.885,44.671 203.799,44.671 203.799,44.671 C203.799,44.671 203.799,38.073 203.799,38.073 C203.799,38.073 205.196,38.073 205.196,38.073 C205.196,38.073 208.134,42.844 208.134,42.844 ZM216.385,39.016 C216.385,39.016 214.473,39.016 214.473,39.016 C214.473,39.016 214.473,44.671 214.473,44.671 C214.473,44.671 213.360,44.671 213.360,44.671 C213.360,44.671 213.360,39.016 213.360,39.016 C213.360,39.016 211.452,39.016 211.452,39.016 C211.452,39.016 211.452,38.073 211.452,38.073 C211.452,38.073 216.385,38.073 216.385,38.073 C216.385,38.073 216.385,39.016 216.385,39.016 Z" id="path-1" class="cls-2" fill-rule="evenodd"/>
</svg>
