<svg xmlns="http://www.w3.org/2000/svg" xmlns:xlink="http://www.w3.org/1999/xlink" preserveAspectRatio="xMidYMid" width="71" height="50" viewBox="0 0 71 50">
  <defs>
    <style>

      .cls-2 {
        fill: #ffffff;
        opacity: 0.2;
      }
    </style>
  </defs>
  <path d="M70.890,8.054 C65.701,6.177 61.956,6.681 55.200,9.204 C51.189,10.702 47.968,13.366 45.416,15.993 C47.691,15.055 51.464,13.855 55.310,14.193 C61.427,14.731 63.961,16.795 63.961,16.795 C61.132,15.677 56.660,14.168 50.130,16.334 C45.309,17.932 42.121,24.773 41.743,26.107 C41.364,27.440 40.956,27.899 40.672,32.235 C40.415,36.154 42.398,42.515 43.272,43.999 C44.146,45.482 44.495,46.923 44.495,46.923 C44.845,48.471 44.495,49.762 44.495,49.762 C40.257,47.289 37.745,43.031 36.456,40.085 C35.540,37.992 35.166,35.484 35.025,34.202 C34.993,34.313 34.957,34.428 34.926,34.536 C33.703,38.880 33.528,38.837 31.780,42.708 C30.184,46.245 25.340,49.459 24.516,49.987 C24.463,50.021 24.392,49.986 24.389,49.923 C24.372,49.547 24.327,48.520 24.353,48.170 C24.391,47.644 24.783,45.517 24.982,44.353 C25.052,43.947 25.186,43.555 25.383,43.192 C26.776,40.619 32.445,28.613 24.702,15.999 C17.299,3.940 4.002,7.744 0.109,9.189 C0.013,9.225 -0.049,9.089 0.041,9.041 C4.870,6.466 10.521,6.190 15.031,6.537 C19.867,6.910 24.236,9.763 24.236,9.763 C31.322,13.754 34.161,22.178 34.602,23.616 C34.624,23.688 34.723,23.695 34.754,23.627 C35.851,21.251 39.654,15.076 42.908,11.957 C46.228,8.774 51.894,6.802 51.995,6.767 C51.997,6.767 51.997,6.767 51.999,6.766 C64.054,3.519 69.592,6.854 70.970,7.914 C71.044,7.971 70.978,8.086 70.890,8.054 ZM46.520,5.505 C44.975,5.505 43.723,4.273 43.723,2.753 C43.723,1.232 44.975,0.000 46.520,0.000 C48.064,0.000 49.316,1.232 49.316,2.753 C49.316,4.273 48.064,5.505 46.520,5.505 ZM38.000,11.699 C36.455,11.699 35.203,10.466 35.203,8.946 C35.203,7.426 36.455,6.193 38.000,6.193 C39.544,6.193 40.796,7.426 40.796,8.946 C40.796,10.466 39.544,11.699 38.000,11.699 ZM28.649,9.763 C27.105,9.763 25.853,8.531 25.853,7.011 C25.853,5.490 27.105,4.258 28.649,4.258 C30.194,4.258 31.445,5.490 31.445,7.011 C31.445,8.531 30.194,9.763 28.649,9.763 Z" id="path-1" class="cls-2" fill-rule="evenodd"/>
</svg>
