<?xml version="1.0" encoding="utf-8"?>
<!-- Generator: Adobe Illustrator 18.1.1, SVG Export Plug-In . SVG Version: 6.00 Build 0)  -->
<svg version="1.1" id="Layer_1" xmlns="http://www.w3.org/2000/svg" xmlns:xlink="http://www.w3.org/1999/xlink" x="0px" y="0px"
	 width="76px" height="76px" viewBox="-268 359 76 76" style="enable-background:new -268 359 76 76;" xml:space="preserve">
<g id="watch">
	<path id="circle-1" d="M-230,362c19.3,0,35,15.7,35,35s-15.7,35-35,35s-35-15.7-35-35S-249.3,362-230,362 M-230,359
		c-21,0-38,17-38,38s17,38,38,38s38-17,38-38S-209,359-230,359L-230,359z"/>
	<path id="path-1" d="M-228.3,377h-4.4c-1.3,0-2.4,1.1-2.4,2.4v2.5c-6.9,2-11.9,8.5-11.9,16.2c0,6.3,3.3,11.7,8.3,14.7l-0.8,1.2
		c-0.4,0.6-0.2,1.3,0.3,1.7c0.2,0.1,0.4,0.2,0.7,0.2c0.4,0,0.7-0.2,1-0.5l1.1-1.6c1.9,0.8,3.9,1.2,6,1.2s4.2-0.4,6-1.2l1.1,1.6
		c0.2,0.3,0.6,0.5,1,0.5c0.2,0,0.5-0.1,0.7-0.2c0.5-0.4,0.7-1.1,0.3-1.7l-0.8-1.2c5-2.9,8.3-8.4,8.3-14.7c0-7.7-5.1-14.2-11.9-16.2
		v-2.5C-225.9,378.1-227,377-228.3,377L-228.3,377z M-232.7,381.4v-2h4.4v2c-0.7-0.1-1.4-0.2-2.2-0.2
		C-231.2,381.3-232,381.3-232.7,381.4L-232.7,381.4z M-230.5,412.6c-7.8,0-14.1-6.5-14.1-14.5c0-8,6.3-14.5,14.1-14.5
		s14.1,6.5,14.1,14.5C-216.4,406.2-222.7,412.6-230.5,412.6L-230.5,412.6z M-230.5,385.6c-6.8,0-12.3,5.7-12.3,12.6
		c0,7,5.5,12.6,12.3,12.6s12.3-5.7,12.3-12.6c0-1.6-0.3-3.1-0.8-4.5c-0.1-0.3-0.4-0.5-0.7-0.5c-0.1,0-0.2,0-0.3,0.1
		c-0.4,0.2-0.6,0.6-0.5,1.1c0.5,1.3,0.7,2.6,0.7,4c0,6.1-4.8,11-10.7,11s-10.7-4.9-10.7-11c0-6.1,4.8-11,10.7-11
		c0.4,0,0.8-0.4,0.8-0.8C-229.7,385.9-230.1,385.6-230.5,385.6L-230.5,385.6z M-227.2,386.1c-0.3,0-0.7,0.2-0.8,0.6
		c-0.1,0.4,0.1,0.9,0.5,1c2.1,0.6,4,1.9,5.3,3.7c0.2,0.2,0.4,0.3,0.6,0.3c0.2,0,0.3-0.1,0.5-0.2c0.3-0.3,0.4-0.8,0.1-1.1
		c-1.6-2-3.7-3.5-6.1-4.3C-227,386.1-227.1,386.1-227.2,386.1L-227.2,386.1z M-230.5,389c-0.4,0-0.8,0.4-0.8,0.8v4.9
		c0,0.4,0.4,0.8,0.8,0.8s0.8-0.4,0.8-0.8v-4.9C-229.7,389.3-230.1,389-230.5,389L-230.5,389z M-230.5,396.8c-0.8,0-1.4,0.6-1.4,1.4
		c0,0.8,0.6,1.4,1.4,1.4s1.4-0.6,1.4-1.4C-229.1,397.4-229.7,396.8-230.5,396.8L-230.5,396.8z M-222.2,397.4h-4.8
		c-0.4,0-0.8,0.4-0.8,0.8c0,0.4,0.4,0.8,0.8,0.8h4.8c0.4,0,0.8-0.4,0.8-0.8C-221.4,397.7-221.8,397.4-222.2,397.4L-222.2,397.4z"/>
</g>
</svg>
