<?xml version="1.0" encoding="utf-8"?>
<!-- Generator: Adobe Illustrator 19.1.0, SVG Export Plug-In . SVG Version: 6.00 Build 0)  -->
<svg version="1.1" id="Layer_1" xmlns="http://www.w3.org/2000/svg" xmlns:xlink="http://www.w3.org/1999/xlink" x="0px" y="0px"
	 viewBox="0 0 279.4 130" style="enable-background:new 0 0 279.4 130;" xml:space="preserve">
<style type="text/css">
	.st0{fill:#DADEE0;}
</style>
<path class="st0" d="M272.7,42.6C235.6,15.8,190.1,0,140.9,0C90.6,0,44.1,16.5,6.5,44.4c-7.4,5.5-8.7,15.9-2.9,23l46.6,56.8
	c4.5,5.5,12,7.3,18.5,4.6c22.2-9.3,46.6-14.4,72.1-14.4s49.8,5.1,71.9,14.3c6.7,2.8,14.5,0.7,18.9-5.1l44.5-58.4
	C281.6,58.2,280.1,47.9,272.7,42.6z M91.3,101.5l5.9-70.7c0.2-2,2.9-2.5,3.8-0.7l31.3,65.8c0.6,1.2-0.2,2.7-1.5,2.8l-37.2,5
	C92.3,103.8,91.2,102.8,91.3,101.5z"/>
</svg>
