<?xml version="1.0" encoding="UTF-8"?>
<svg width="585px" height="478px" viewBox="0 0 585 478" xmlns="http://www.w3.org/2000/svg" xmlns:xlink="http://www.w3.org/1999/xlink" version="1.1">
 <!-- Generated by Pixelmator Pro 2.1.2 -->
 <path id="Polygon" d="M131 180 L72.986 221.113 95.145 287.637 166.855 287.637 189.014 221.113 Z" fill="#ffffff" fill-opacity="1" stroke="none"/>
 <g id="g10">
  <g id="g12">
   <g id="g14">
    <g id="g20">
     <path id="path22" d="M223.403 242.041 C229.784 242.041 235.795 239.383 239.252 234.277 L233.774 230.341 C231.54 233.851 227.71 235.66 223.456 235.66 216.17 235.66 211.118 230.341 211.118 222.736 211.118 215.024 216.33 209.813 223.456 209.813 227.604 209.813 231.22 211.515 233.455 214.493 L239.039 210.771 C236.007 206.623 230.476 203.431 223.456 203.431 212.5 203.431 204.258 211.301 204.258 222.736 204.258 234.064 212.394 242.041 223.403 242.041" fill="#ffffff" fill-opacity="1" stroke="none"/>
    </g>
    <g id="g24">
     <path id="path26" d="M256.109 226.14 L261.906 211.089 267.649 226.14 Z M258.077 204.121 L243.133 241.349 250.258 241.349 253.715 232.309 270.042 232.309 273.499 241.349 280.626 241.349 265.682 204.121 Z" fill="#ffffff" fill-opacity="1" stroke="none"/>
    </g>
    <g id="g28">
     <path id="path30" d="M293.441 210.345 L301.523 210.345 C306.045 210.345 308.543 212.631 308.543 216.726 308.543 220.821 306.045 223.109 301.523 223.109 L293.441 223.109 Z M293.441 229.33 L301.578 229.33 C310.191 229.33 315.405 224.171 315.405 216.726 315.405 209.281 310.191 204.122 301.578 204.122 L286.793 204.122 286.793 241.35 293.441 241.35 Z" fill="#ffffff" fill-opacity="1" stroke="none"/>
    </g>
    <g id="g32">
     <path id="path34" d="M329.285 210.345 L337.367 210.345 C341.889 210.345 344.387 212.631 344.387 216.726 344.387 220.821 341.889 223.109 337.367 223.109 L329.285 223.109 Z M329.285 229.33 L337.422 229.33 C346.035 229.33 351.249 224.171 351.249 216.726 351.249 209.281 346.035 204.122 337.422 204.122 L322.637 204.122 322.637 241.35 329.285 241.35 Z" fill="#ffffff" fill-opacity="1" stroke="none"/>
    </g>
    <g id="g36">
     <path id="path38" d="M370.235 211.089 L375.979 226.14 364.438 226.14 Z M362.044 232.309 L378.372 232.309 381.828 241.349 388.955 241.349 374.011 204.121 366.406 204.121 351.462 241.349 358.588 241.349 Z" fill="#ffffff" fill-opacity="1" stroke="none"/>
    </g>
    <g id="g40">
     <path id="path42" d="M423.572 235.127 L416.022 235.127 416.022 210.344 423.572 210.344 C431.178 210.344 436.124 215.184 436.124 222.736 436.124 230.287 431.178 235.127 423.572 235.127 M423.572 204.122 L409.374 204.122 409.374 241.35 423.572 241.35 C434.742 241.35 442.984 234.116 442.984 222.736 442.984 211.355 434.742 204.122 423.572 204.122" fill="#ffffff" fill-opacity="1" stroke="none"/>
    </g>
    <g id="g44">
     <path id="path46" d="M456.969 210.345 L465.052 210.345 C469.573 210.345 472.072 212.631 472.072 216.726 472.072 220.821 469.573 223.109 465.052 223.109 L456.969 223.109 Z M456.969 229.33 L465.107 229.33 C473.72 229.33 478.933 224.171 478.933 216.726 478.933 209.281 473.72 204.122 465.107 204.122 L450.321 204.122 450.321 241.35 456.969 241.35 Z" fill="#ffffff" fill-opacity="1" stroke="none"/>
    </g>
    <g id="g48">
     <path id="path50" d="M492.813 210.345 L500.896 210.345 C505.417 210.345 507.916 212.631 507.916 216.726 507.916 220.821 505.417 223.109 500.896 223.109 L492.813 223.109 Z M492.813 229.33 L500.951 229.33 C509.564 229.33 514.777 224.171 514.777 216.726 514.777 209.281 509.564 204.122 500.951 204.122 L486.165 204.122 486.165 241.35 492.813 241.35 Z" fill="#ffffff" fill-opacity="1" stroke="none"/>
    </g>
    <g id="g52">
     <path id="path54" d="M188.087 275.048 L136.411 304.884 C133.381 306.632 129.649 306.632 126.62 304.884 L74.945 275.048 C71.916 273.298 70.051 270.068 70.051 266.57 L70.051 270.678 C70.051 274.176 71.916 277.408 74.945 279.156 L126.62 308.992 C129.649 310.741 133.381 310.741 136.411 308.992 L188.087 279.156 C191.115 277.408 192.981 274.176 192.981 270.678 L192.981 266.57 C192.981 270.068 191.115 273.298 188.087 275.048" fill="#5cbd6e" fill-opacity="1" stroke="none"/>
    </g>
    <g id="g56">
     <path id="path58" d="M106.055 253.977 L129.311 267.404 C130.675 268.192 132.355 268.192 133.718 267.404 L153.783 255.821 C155.735 254.693 158.161 254.781 160.027 256.045 L170.087 262.859 C170.987 263.468 170.939 264.808 169.999 265.351 L135.022 285.547 C132.853 286.799 130.179 286.799 128.01 285.547 L90.997 264.176 C88.827 262.924 87.49 260.609 87.49 258.104 L87.49 215.365 C87.49 212.86 88.827 210.545 90.997 209.292 L128.01 187.923 C130.179 186.671 132.853 186.671 135.022 187.923 L169.999 208.117 C170.939 208.661 170.987 210.001 170.087 210.611 L160.027 217.425 C158.161 218.689 155.735 218.776 153.783 217.649 L133.718 206.064 C132.355 205.279 130.675 205.279 129.311 206.064 L106.055 219.492 C104.694 220.279 103.854 221.733 103.854 223.308 L103.854 250.163 C103.854 251.736 104.693 253.191 106.055 253.977 M188.086 198.421 L136.411 168.585 C133.381 166.837 129.649 166.837 126.621 168.585 L74.945 198.421 C71.915 200.171 70.05 203.401 70.05 206.899 L70.05 211.007 70.05 266.569 C70.05 270.067 71.915 273.299 74.945 275.048 L126.621 304.884 C129.649 306.632 133.381 306.632 136.411 304.884 L188.086 275.048 C191.115 273.299 192.981 270.067 192.981 266.569 L192.981 211.007 192.981 206.899 C192.981 203.401 191.115 200.171 188.086 198.421" fill="#68d67c" fill-opacity="1" stroke="none"/>
    </g>
    <g id="g60">
     <path id="path62" d="M290.572 264.72 L302.035 264.72 302.035 261.057 290.572 261.057 290.572 255.626 302.54 255.626 302.54 251.964 286.626 251.964 286.626 274.066 302.792 274.066 302.792 270.404 290.572 270.404 Z" fill="#ffffff" fill-opacity="1" stroke="none"/>
    </g>
    <g id="g64">
     <path id="path66" d="M315.548 261.183 C311.758 260.551 310.56 259.858 310.56 258.278 310.56 256.415 312.106 255.215 315.296 255.215 317.442 255.215 319.494 255.783 321.516 257.015 L323.378 253.731 C321.105 252.342 318.484 251.552 315.485 251.552 311.349 251.552 306.358 253.068 306.358 258.688 306.358 262.131 308.254 263.614 314.885 264.972 317.442 265.446 319.685 265.762 319.685 267.878 319.685 269.803 317.853 270.814 315.2 270.814 312.58 270.814 309.518 269.771 307.59 268.319 L305.696 271.635 C307.244 272.771 311.065 274.476 315.106 274.476 320.41 274.476 323.916 271.792 323.916 267.688 323.916 262.667 318.484 261.688 315.548 261.183" fill="#ffffff" fill-opacity="1" stroke="none"/>
    </g>
    <g id="g68">
     <path id="path70" d="M337.239 263.235 L332.439 263.235 332.439 255.657 337.239 255.657 C339.924 255.657 341.408 257.015 341.408 259.446 341.408 261.878 339.924 263.235 337.239 263.235 M337.271 251.963 L328.492 251.963 328.492 274.066 332.439 274.066 332.439 266.93 337.271 266.93 C342.386 266.93 345.482 263.867 345.482 259.446 345.482 255.026 342.386 251.963 337.271 251.963" fill="#ffffff" fill-opacity="1" stroke="none"/>
    </g>
    <g id="g72">
     <path id="path74" d="M353.312 265.035 L356.753 256.1 360.164 265.035 Z M354.48 251.963 L345.608 274.065 349.839 274.065 351.891 268.699 361.584 268.699 363.637 274.065 367.868 274.065 358.996 251.963 Z" fill="#ffffff" fill-opacity="1" stroke="none"/>
    </g>
    <g id="g76">
     <path id="path78" d="M383.023 246.47 C382.708 246.47 382.265 246.342 381.603 245.964 L380.876 245.584 C379.865 245.079 379.14 244.795 378.413 244.795 376.803 244.795 375.697 246.058 375.223 248.458 L377.372 249.311 C377.592 248.331 377.844 247.7 378.603 247.7 379.012 247.7 379.455 247.922 379.96 248.174 L380.656 248.584 C381.76 249.154 382.487 249.374 383.117 249.374 385.012 249.374 385.992 247.795 386.401 245.679 L384.192 244.764 C384.033 245.743 383.749 246.47 383.023 246.47" fill="#ffffff" fill-opacity="1" stroke="none"/>
    </g>
    <g id="g80">
     <path id="path82" d="M386.085 267.088 L375.065 251.963 371.529 251.963 371.529 274.065 375.445 274.065 375.445 259.005 386.433 274.065 389.969 274.065 389.969 251.963 386.085 251.963 Z" fill="#ffffff" fill-opacity="1" stroke="none"/>
    </g>
    <g id="g84">
     <path id="path86" d="M405.851 270.687 C401.432 270.687 398.4 267.56 398.4 263.014 398.4 258.467 401.432 255.342 405.851 255.342 410.272 255.342 413.304 258.467 413.304 263.014 413.304 267.56 410.272 270.687 405.851 270.687 M405.851 251.552 C399.22 251.552 394.326 256.258 394.326 263.014 394.326 269.771 399.22 274.476 405.851 274.476 412.483 274.476 417.378 269.771 417.378 263.014 417.378 256.258 412.483 251.552 405.851 251.552" fill="#ffffff" fill-opacity="1" stroke="none"/>
    </g>
    <g id="g88">
     <path id="path90" d="M425.679 251.963 L421.732 251.963 421.732 274.066 436.858 274.066 436.858 270.403 425.679 270.403 Z" fill="#ffffff" fill-opacity="1" stroke="none"/>
    </g>
    <path id="path92" d="M209.468 265.54 L279.765 265.54 279.765 261.637 209.468 261.637 Z" fill="#ffffff" fill-opacity="1" stroke="none"/>
    <path id="path94" d="M441.364 265.54 L511.663 265.54 511.663 261.637 441.364 261.637 Z" fill="#ffffff" fill-opacity="1" stroke="none"/>
   </g>
  </g>
 </g>
</svg>
