<?xml version="1.0" encoding="utf-8"?>
<!-- Generator: Adobe Illustrator 25.2.3, SVG Export Plug-In . SVG Version: 6.00 Build 0)  -->
<svg version="1.1" id="Layer_1" xmlns="http://www.w3.org/2000/svg" xmlns:xlink="http://www.w3.org/1999/xlink" x="0px" y="0px"
	 viewBox="0 0 457.8 166.4" style="enable-background:new 0 0 457.8 166.4;" xml:space="preserve">
<style type="text/css">
	.st0{fill:#12B4C3;}
	.st1{fill:#C4DC70;}
	.st2{fill:#82CCB5;}
	.st3{fill:#129096;}
	.st4{fill:#07B4C8;}
</style>
<g>
	<path class="st0" d="M446.1,96c0,0,0-5.4,0-12.4l-61.9-36.4l0.1,18.2l60.6,35.9C446.5,98.6,446.1,96,446.1,96L446.1,96z"/>
	<path class="st1" d="M446.1,51.5c0-6.2-4.8-8.4-4.8-8.4L384.1,9.7l0.1,18.6l61.9,36.4C446.1,58.6,446.1,53.5,446.1,51.5L446.1,51.5
		z"/>
	<path class="st2" d="M446.1,64.6l-61.9-36.4l0.1,19l61.9,36.4C446.1,77.8,446.1,70.7,446.1,64.6L446.1,64.6z"/>
	<path class="st3" d="M411.2,81.5l-27.1,15.9l0.2,41.2c0,0,50.9-29.7,56.8-33.4c1.8-1.2,3-2.5,3.8-3.8L411.2,81.5L411.2,81.5z"/>
	<g>
		<polygon class="st4" points="11.7,38.3 24.3,38.3 30.2,96.2 36.5,38.3 48.6,38.3 54.9,96 60.8,38.3 72.3,38.3 62.3,120.3 
			47.6,120.3 42,71.2 36.5,120.3 21.7,120.3 11.7,38.3 		"/>
		<polygon class="st4" points="104,38.3 104,49.6 88.7,49.6 88.7,72.8 103.4,72.8 103.4,84.2 88.7,84.2 88.7,108.9 104.3,108.9 
			104.3,120.3 76.1,120.3 76.1,38.3 104,38.3 		"/>
		<polygon class="st4" points="121.5,38.3 121.5,108.9 135.3,108.9 135.3,120.3 109,120.3 109,38.3 121.5,38.3 		"/>
		<polygon class="st2" points="151.9,38.3 151.9,108.9 165.7,108.9 164.1,120.3 139.3,120.3 139.3,38.3 151.9,38.3 		"/>
		<path class="st2" d="M190.6,96.3h10.2l-5-41L190.6,96.3L190.6,96.3z M216.3,120.3h-12.4l-1.6-12.9h-13l-1.5,12.9h-11.6l11.7-82.1
			h16.6L216.3,120.3L216.3,120.3z"/>
		<polygon class="st4" points="244.1,72.8 244.1,38.3 256.6,38.3 256.6,120.3 244.1,120.3 244.1,84.2 232,84.2 232,120.3 
			219.5,120.3 219.5,38.3 232,38.3 232,72.8 244.1,72.8 		"/>
		<polygon class="st4" points="290,38.3 290,49.6 274.7,49.6 274.7,72.8 289.4,72.8 289.4,84.2 274.7,84.2 274.7,108.9 290.2,108.9 
			290.2,120.3 262.1,120.3 262.1,38.3 290,38.3 		"/>
		<path class="st4" d="M306.8,96.3H317l-5-41L306.8,96.3L306.8,96.3z M332.4,120.3H320l-1.6-12.9h-13l-1.5,12.9h-11.6L304,38.1h16.6
			L332.4,120.3L332.4,120.3z"/>
		<path class="st4" d="M348.1,109.3h4.6c4.9,0,7.1-2.3,7.1-7.3V56.5c0-4.9-2.2-7.3-7.1-7.3h-4.6V109.3L348.1,109.3z M335.6,38.3
			h18.9c12.2,0,17.9,5.9,17.9,17.9v46.2c0,12.1-5.7,17.9-17.9,17.9h-18.9V38.3L335.6,38.3z"/>
		<polygon class="st2" points="173.1,84.3 160,84.3 160,72.8 174.7,72.8 173.1,84.3 		"/>
	</g>
	<g>
		<path class="st4" d="M76,143.9h3l2.6,8.6l2.8-8.6h2.4l2.8,8.6l2.6-8.6h2.9l-4.3,12.8h-2.4l-2.9-8.3l-2.9,8.3h-2.4L76,143.9z"/>
		<path class="st4" d="M101.8,143.9h9.6v2.5h-6.8v2.6h6v2.5h-6v2.7h6.9v2.5h-9.6V143.9z"/>
		<path class="st4" d="M118.4,143.9h2.8V154h6.3v2.5h-9.1V143.9z"/>
		<path class="st4" d="M134.2,143.9h2.8V154h6.3v2.5h-9.1V143.9z"/>
		<path class="st4" d="M154.2,143.8h2.6l5.4,12.8h-2.9l-1.2-2.8h-5.4l-1.2,2.8h-2.8L154.2,143.8z M157.2,151.2l-1.7-4.1l-1.7,4.1
			H157.2z"/>
		<path class="st4" d="M168.7,143.9h2.8v5h5.1v-5h2.8v12.7h-2.8v-5.1h-5.1v5.1h-2.8V143.9z"/>
		<path class="st4" d="M187,143.9h9.6v2.5h-6.8v2.6h6v2.5h-6v2.7h6.9v2.5H187V143.9z"/>
		<path class="st4" d="M208,143.8h2.6l5.4,12.8h-2.9l-1.2-2.8h-5.4l-1.2,2.8h-2.8L208,143.8z M210.9,151.2l-1.7-4.1l-1.7,4.1H210.9z
			"/>
		<path class="st4" d="M222.5,143.9h4.9c4,0,6.7,2.7,6.7,6.3v0c0,3.6-2.8,6.3-6.7,6.3h-4.9V143.9z M227.4,154c2.3,0,3.8-1.5,3.8-3.8
			v0c0-2.2-1.5-3.8-3.8-3.8h-2.2v7.6H227.4z"/>
		<path class="st2" d="M241.1,143.9h2.8V154h6.3v2.5h-9.1V143.9z"/>
		<path class="st2" d="M261.2,143.8h2.6l5.4,12.8h-2.9l-1.2-2.8h-5.4l-1.2,2.8h-2.8L261.2,143.8z M264.1,151.2l-1.7-4.1l-1.7,4.1
			H264.1z"/>
		<path class="st4" d="M275.3,153.6h2.9v2.9h-2.9V153.6z"/>
		<path class="st4" d="M284.1,150.2L284.1,150.2c0-3.6,2.7-6.6,6.6-6.6c2.4,0,3.8,0.8,5,2l-1.8,2c-1-0.9-2-1.4-3.2-1.4
			c-2.1,0-3.7,1.8-3.7,3.9v0c0,2.2,1.5,4,3.7,4c1.4,0,2.3-0.6,3.3-1.5l1.8,1.8c-1.3,1.4-2.8,2.3-5.2,2.3
			C286.9,156.8,284.1,153.9,284.1,150.2z"/>
		<path class="st4" d="M301.6,150.2L301.6,150.2c0-3.6,2.8-6.6,6.8-6.6c3.9,0,6.7,2.9,6.7,6.5v0c0,3.6-2.8,6.6-6.8,6.6
			C304.4,156.8,301.6,153.8,301.6,150.2z M312.2,150.2L312.2,150.2c0-2.2-1.6-4-3.8-4c-2.2,0-3.8,1.8-3.8,3.9v0c0,2.2,1.6,4,3.8,4
			C310.6,154.2,312.2,152.4,312.2,150.2z"/>
		<path class="st4" d="M322.1,143.9h3l3.3,5.4l3.3-5.4h3v12.7H332v-8.3l-3.6,5.4h-0.1l-3.5-5.4v8.2h-2.7V143.9z"/>
	</g>
</g>
</svg>
