<?xml version="1.0" encoding="utf-8"?>
<!-- Generator: Adobe Illustrator 25.2.3, SVG Export Plug-In . SVG Version: 6.00 Build 0)  -->
<svg version="1.1" id="Layer_1" xmlns="http://www.w3.org/2000/svg" xmlns:xlink="http://www.w3.org/1999/xlink" x="0px" y="0px"
	 viewBox="0 0 459.2 167.3" style="enable-background:new 0 0 459.2 167.3;" xml:space="preserve">
<style type="text/css">
	.st0{fill:#FFFFFF;}
</style>
<g>
	<g>
		<g>
			<path class="st0" d="M76.6,144.2h3l2.6,8.6l2.8-8.6h2.4l2.8,8.6l2.6-8.6h2.9L91.5,157h-2.4l-2.9-8.3l-2.9,8.3H81L76.6,144.2z"/>
			<path class="st0" d="M102.5,144.2h9.6v2.5h-6.8v2.6h6v2.5h-6v2.7h6.9v2.5h-9.6V144.2z"/>
			<path class="st0" d="M119.1,144.2h2.8v10.1h6.3v2.5h-9.1V144.2z"/>
			<path class="st0" d="M134.8,144.2h2.8v10.1h6.3v2.5h-9.1V144.2z"/>
			<path class="st0" d="M154.9,144.1h2.6l5.4,12.8H160l-1.2-2.8h-5.4l-1.2,2.8h-2.8L154.9,144.1z M157.8,151.6l-1.7-4.1l-1.7,4.1
				H157.8z"/>
			<path class="st0" d="M169.4,144.2h2.8v5h5.1v-5h2.8v12.7h-2.8v-5.1h-5.1v5.1h-2.8V144.2z"/>
			<path class="st0" d="M187.7,144.2h9.6v2.5h-6.8v2.6h6v2.5h-6v2.7h6.9v2.5h-9.6V144.2z"/>
			<path class="st0" d="M208.7,144.1h2.6l5.4,12.8h-2.9l-1.2-2.8h-5.4l-1.2,2.8h-2.8L208.7,144.1z M211.6,151.6l-1.7-4.1l-1.7,4.1
				H211.6z"/>
			<path class="st0" d="M223.1,144.2h4.9c4,0,6.7,2.7,6.7,6.3v0c0,3.6-2.8,6.3-6.7,6.3h-4.9V144.2z M228.1,154.4
				c2.3,0,3.8-1.5,3.8-3.8v0c0-2.2-1.5-3.8-3.8-3.8h-2.2v7.6H228.1z"/>
			<path class="st0" d="M241.8,144.2h2.8v10.1h6.3v2.5h-9.1V144.2z"/>
			<path class="st0" d="M261.9,144.1h2.6l5.4,12.8H267l-1.2-2.8h-5.4l-1.2,2.8h-2.8L261.9,144.1z M264.8,151.6l-1.7-4.1l-1.7,4.1
				H264.8z"/>
			<path class="st0" d="M276,154h2.9v2.9H276V154z"/>
			<path class="st0" d="M284.8,150.6L284.8,150.6c0-3.6,2.7-6.6,6.6-6.6c2.4,0,3.8,0.8,5,2l-1.8,2c-1-0.9-2-1.4-3.2-1.4
				c-2.1,0-3.7,1.8-3.7,3.9v0c0,2.2,1.5,4,3.7,4c1.4,0,2.3-0.6,3.3-1.5l1.8,1.8c-1.3,1.4-2.8,2.3-5.2,2.3
				C287.6,157.1,284.8,154.2,284.8,150.6z"/>
			<path class="st0" d="M302.3,150.6L302.3,150.6c0-3.6,2.8-6.6,6.8-6.6c3.9,0,6.7,2.9,6.7,6.5v0c0,3.6-2.8,6.6-6.8,6.6
				C305.1,157.1,302.3,154.2,302.3,150.6z M312.9,150.6L312.9,150.6c0-2.2-1.6-4-3.8-4c-2.2,0-3.8,1.8-3.8,3.9v0c0,2.2,1.6,4,3.8,4
				C311.3,154.5,312.9,152.8,312.9,150.6z"/>
			<path class="st0" d="M322.8,144.2h3l3.3,5.4l3.3-5.4h3v12.7h-2.8v-8.3l-3.6,5.4H329l-3.5-5.4v8.2h-2.7V144.2z"/>
		</g>
	</g>
	<g>
		<g>
			<g>
				<polygon class="st0" points="12.4,38.8 25.1,38.8 30.9,96.7 37.3,38.8 49.3,38.8 55.6,96.6 61.5,38.8 73,38.8 63,120.8 
					48.3,120.8 42.8,71.7 37.3,120.8 22.4,120.8 12.4,38.8 				"/>
				<polygon class="st0" points="104.7,38.8 104.7,50.2 89.4,50.2 89.4,73.4 104.2,73.4 104.2,84.8 89.4,84.8 89.4,109.5 105,109.5 
					105,120.8 76.8,120.8 76.8,38.8 104.7,38.8 				"/>
				<polygon class="st0" points="122.2,38.8 122.2,109.5 136,109.5 136,120.8 109.7,120.8 109.7,38.8 122.2,38.8 				"/>
				<polygon class="st0" points="152.6,38.8 152.6,109.5 166.4,109.5 164.8,120.8 140,120.8 140,38.8 152.6,38.8 				"/>
				<path class="st0" d="M191.3,96.8h10.2l-5-41L191.3,96.8L191.3,96.8z M217,120.8h-12.4l-1.6-12.9h-13l-1.5,12.9h-11.6l11.7-82.1
					h16.6L217,120.8L217,120.8z"/>
				<polygon class="st0" points="244.7,73.4 244.7,38.8 257.3,38.8 257.3,120.8 244.7,120.8 244.7,84.8 232.7,84.8 232.7,120.8 
					220.1,120.8 220.1,38.8 232.7,38.8 232.7,73.4 244.7,73.4 				"/>
				<polygon class="st0" points="290.7,38.8 290.7,50.2 275.3,50.2 275.3,73.4 290.1,73.4 290.1,84.8 275.3,84.8 275.3,109.5 
					290.9,109.5 290.9,120.8 262.8,120.8 262.8,38.8 290.7,38.8 				"/>
				<path class="st0" d="M307.4,96.8h10.2l-5-41L307.4,96.8L307.4,96.8z M333.1,120.8h-12.4l-1.6-12.9h-13l-1.5,12.9h-11.6
					l11.7-82.1h16.6L333.1,120.8L333.1,120.8z"/>
				<path class="st0" d="M348.8,109.8h4.6c4.9,0,7.1-2.3,7.1-7.3V57.1c0-4.9-2.2-7.3-7.1-7.3h-4.6V109.8L348.8,109.8z M336.2,38.8
					h18.9c12.2,0,17.9,5.9,17.9,17.9v46.2c0,12.1-5.7,17.9-17.9,17.9h-18.9V38.8L336.2,38.8z"/>
				<polygon class="st0" points="173.8,84.9 160.7,84.9 160.7,73.4 175.4,73.4 173.8,84.9 				"/>
			</g>
		</g>
		<g>
			<line class="st0" x1="446.3" y1="60.3" x2="446.3" y2="87.6"/>
			<path class="st0" d="M446.7,96.6c0,0,0-3.7,0-9h0V60.3h0c0-3.8,0-6.8,0-8.2c0-6.2-4.8-8.4-4.8-8.4l-57.1-33.4l0,16.8v30.8l0,8
				l60.7,36.1C447.2,99.2,446.7,96.6,446.7,96.6z M386.2,48.8V29.8l59.5,34.8v19L386.2,48.8z"/>
		</g>
		<g>
			<path class="st0" d="M409.9,83.2L384.7,98l0.2,41.2c0,0,50.9-29.7,56.8-33.4c1.1-0.7,1.9-1.4,2.6-2.1L409.9,83.2z"/>
		</g>
	</g>
</g>
</svg>
