<?xml version="1.0" encoding="utf-8"?>
<!-- Generator: Adobe Illustrator 19.1.0, SVG Export Plug-In . SVG Version: 6.00 Build 0)  -->
<!DOCTYPE svg PUBLIC "-//W3C//DTD SVG 1.1//EN" "http://www.w3.org/Graphics/SVG/1.1/DTD/svg11.dtd">
<svg version="1.1" id="Layer_1" xmlns="http://www.w3.org/2000/svg" xmlns:xlink="http://www.w3.org/1999/xlink" x="0px" y="0px"
	 width="305.4853516px" height="263.9492188px" viewBox="0 0 305.4853516 263.9492188"
	 style="enable-background:new 0 0 305.4853516 263.9492188;" xml:space="preserve">
<style type="text/css">
	.st0{fill:#5FBD6F;}
	.st1{fill:#75C37A;}
	.st2{fill:#FFFFFF;}
	.st3{fill:#EDEFF0;}
</style>
<g>
	<path class="st0" d="M218.7643585,144.3757019l-66.6845398,38.5003204c-3.9087067,2.2566986-8.7244263,2.2566986-12.6331329,0
		L72.762146,144.3757019c-3.9087067-2.2566986-6.3165741-6.4272461-6.3165741-10.9406281V56.4344025
		c0-4.5133896,2.4078674-8.6839294,6.3165741-10.9406242l66.6845398-38.5003357
		c3.9087067-2.2566938,8.7244263-2.2566938,12.6331329,0l66.6845398,38.5003357
		c3.9087067,2.2566948,6.3165741,6.4272346,6.3165741,10.9406242v77.0006714
		C225.0809326,137.9484558,222.6730652,142.1190033,218.7643585,144.3757019z"/>
	<path class="st1" d="M218.7643585,139.0747681l-66.6845398,38.5003357c-3.9087067,2.2566986-8.7244263,2.2566986-12.6331329,0
		L72.762146,139.0747681c-3.9087067-2.2566833-6.3165741-6.4272308-6.3165741-10.9406128V51.1334801
		c0-4.5133896,2.4078674-8.6839294,6.3165741-10.9406242l66.6845398-38.5003357
		c3.9087067-2.2566936,8.7244263-2.2566936,12.6331329,0l66.6845398,38.5003357
		c3.9087067,2.2566948,6.3165741,6.4272346,6.3165741,10.9406242v77.0006714
		C225.0809326,132.6475372,222.6730652,136.8180847,218.7643585,139.0747681z"/>
	<path class="st2" d="M174.4976196,114.2628174l-25.8917084,14.9485016
		c-1.7591248,1.0156097-3.9264374,1.0156097-5.6855469-0.0000153l-30.0111694-17.3269882
		c-1.7590332-1.0155792-2.8426437-2.8924484-2.8426437-4.9236069V72.3070221c0-2.0313263,1.0836945-3.9083481,2.8428726-4.9240112
		l30.0109406-17.3268547c1.7591095-1.0156212,3.9264221-1.015625,5.6855469-0.0000076l25.8917084,14.9484978
		c2.5196991,1.4547424,5.6489716,1.3424988,8.0579834-0.2890244l12.9833679-8.7931137
		c1.1608429-0.7862015,1.0988007-2.5160942-0.115387-3.2171097l-45.136261-26.0594559
		c-2.7995758-1.6163349-6.2487946-1.6163311-9.0483704,0.0000095L93.476265,54.2219124
		c-2.7995453,1.6163292-4.5241394,4.6034203-4.5241394,7.836071v55.1514969c0,3.2326508,1.7245941,6.2197418,4.5241394,7.8360672
		l47.7626724,27.5759583c2.7995758,1.6163483,6.2488098,1.6163483,9.0484009,0l45.1362457-26.0594406
		c1.2141876-0.7010193,1.2762299-2.4309082,0.115387-3.2171097l-12.9833679-8.7931137
		C180.1465912,112.9203186,177.0173187,112.808075,174.4976196,114.2628174z"/>
</g>
<g>
	<path class="st3" d="M0,233.6151123v-0.1685486c0-16.7561035,12.5447636-30.4807281,30.39645-30.4807281
		c10.8617172,0,17.4278297,3.7899475,23.0693779,9.1786652l-6.6503868,7.6616974
		c-4.7169876-4.3786316-9.7686043-7.3258209-16.5032673-7.3258209c-11.198822,0-19.4504547,9.2629395-19.4504547,20.7976227
		v0.1685638c0,11.5346832,8.1673574,20.8806763,19.4504547,20.8806763c7.2403202,0,11.870554-2.862915,16.9221706-7.5774384
		l6.6528625,6.7359009c-6.1472054,6.3987885-12.8818665,10.4403534-23.912138,10.4403534
		C12.7975922,263.9260559,0,250.5385284,0,233.6151123z"/>
	<path class="st3" d="M98.1455231,202.9486694h-9.8648071l-26.6474037,60.9971313h10.9014931l6.2301025-14.62146h28.6366577
		l6.1434937,14.62146h11.2478638L98.1455231,202.9486694z M82.6568146,239.8925781l10.3818359-24.2251587l10.4709473,24.2251587
		H82.6568146z"/>
	<path class="st3" d="M159.0736237,203.0498657h-24.0134277v60.899353h10.703064v-19.5749512h12.0912476
		c13.3974609,0,24.3591919-7.1341553,24.3591919-20.7928467v-0.1741333
		C182.2136993,211.140625,173.3418732,203.0498657,159.0736237,203.0498657z M171.3390045,223.8427124
		c0,6.3504028-5.0454712,10.8746948-13.1361694,10.8746948h-12.4395752v-21.923584h12.4395752
		c8.0036011,0,13.1361694,3.7406006,13.1361694,10.8746948V223.8427124z"/>
	<path class="st3" d="M216.4910431,203.0585938h-24.0100708v60.890625h10.7015991v-19.5722046h12.0894775
		c13.3955688,0,24.3557739-7.1330566,24.3557739-20.7897949v-0.1741333
		C239.6278229,211.1481323,230.7572174,203.0585938,216.4910431,203.0585938z M228.7546539,223.8483887
		c0,6.3494873-5.0447388,10.8731689-13.1342773,10.8731689h-12.4378052v-21.9204102h12.4378052
		c8.0024414,0,13.1342773,3.7400513,13.1342773,10.8731079V223.8483887z"/>
	<path class="st3" d="M278.8404541,202.9577026h-9.8613281l-26.6475067,60.9915161h10.9004517l6.229538-14.6201172h28.6365356
		l6.1430054,14.6201172h11.2442017L278.8404541,202.9577026z M263.3557129,239.8981934l10.3808594-24.2229004l10.4674683,24.2229004
		H263.3557129z"/>
</g>
</svg>
