<svg id="Layer_1" data-name="Layer 1" xmlns="http://www.w3.org/2000/svg" viewBox="0 0 1558.88 1363.31"><defs><style>.cls-1{fill:#fff;}.cls-2{fill:#285c9b;}</style></defs><title>halt-logo-white</title><text x="-116.86" y="-137.99"/><path class="cls-1" d="M184.6,733.64V820H158.88V783.71h-7.69V820H125.47V733.64h25.72v30.87h7.69V733.64Z" transform="translate(-116.86 -137.99)"/><path class="cls-1" d="M250.1,785.84h-32v15.3q0,4.8.8,6.19a3.22,3.22,0,0,0,3.05,1.38c1.88,0,3.13-.61,3.76-1.83s.95-3.6.95-7.12v-9.33h23.4v5.22a41.12,41.12,0,0,1-.95,10.08,19.76,19.76,0,0,1-4.43,7.52,21.57,21.57,0,0,1-8.83,6,38.7,38.7,0,0,1-13.41,2,44,44,0,0,1-13.81-2,22.47,22.47,0,0,1-9.31-5.41,18.83,18.83,0,0,1-4.61-7.57c-.86-2.76-1.29-6.76-1.29-12V773.63c0-6.19,1-11.06,2.87-14.64a18.66,18.66,0,0,1,9.41-8.21,37.31,37.31,0,0,1,15-2.85q10.38,0,17.14,3.44a20.11,20.11,0,0,1,9.47,9.12q2.72,5.67,2.72,16Zm-24.75-11.52v-5.17q0-5.49-.67-7.09a2.67,2.67,0,0,0-2.75-1.6c-1.71,0-2.77.45-3.18,1.36s-.61,3.35-.61,7.33v5.17Z" transform="translate(-116.86 -137.99)"/><path class="cls-1" d="M280.21,776.62H257.06v-4.75q0-8.21,2.17-12.66c1.44-3,4.35-5.59,8.7-7.87s10-3.41,17-3.41q12.52,0,18.87,3.87t7.64,9.49q1.29,5.63,1.28,23.16V820h-24v-6.3a15,15,0,0,1-5.84,5.69,18,18,0,0,1-8.52,1.89,23,23,0,0,1-11.88-3.17q-5.42-3.17-5.41-13.89v-5.81q0-7.95,2.87-10.82t14.24-6.72q12.15-4.16,13-5.6c.57-1,.85-2.91.85-5.87q0-5.54-.94-7.22a3.33,3.33,0,0,0-3.15-1.68q-2.51,0-3.12,1.41c-.4,1-.61,3.39-.61,7.33Zm7.82,9.7q-5.92,3.78-6.87,6.35a22.11,22.11,0,0,0-1,7.35q0,5.51.83,7.09c.55,1.07,1.64,1.6,3.27,1.6s2.55-.41,3-1.25.7-3,.7-6.58Z" transform="translate(-116.86 -137.99)"/><path class="cls-1" d="M346.62,733.64V820H321.21V733.64Z" transform="translate(-116.86 -137.99)"/><path class="cls-1" d="M381.5,739.77v11.15h6.66v11.19H381.5V800q0,7,.83,7.78c.55.54,2.84.8,6.87.8V820h-10a81.25,81.25,0,0,1-12-.61,13.67,13.67,0,0,1-6.36-2.82,9.28,9.28,0,0,1-3.42-5.07q-.68-2.85-.67-13.41V762.11h-5.31V750.92h5.31V739.77Z" transform="translate(-116.86 -137.99)"/><path class="cls-1" d="M418.28,733.64v19.42a22.94,22.94,0,0,1,6.87-3.85,24.18,24.18,0,0,1,7.92-1.28,20.19,20.19,0,0,1,11,2.88q4.56,2.88,5.56,6.64t1,13.73V820H426v-49.8c0-4.12-.24-6.77-.7-7.94s-1.52-1.76-3.15-1.76a3,3,0,0,0-3.05,1.81q-.79,1.82-.8,7.2V820H393.6V733.64Z" transform="translate(-116.86 -137.99)"/><path class="cls-1" d="M526.4,733.64,541.11,820H514.82l-1.38-15.51h-9.2L502.7,820H476.1l13.12-86.32Zm-13.63,55.51q-1.95-14.67-3.92-36.26-3.93,24.79-4.94,36.26Z" transform="translate(-116.86 -137.99)"/><path class="cls-1" d="M569.85,749.21l-.43,6.52a17.51,17.51,0,0,1,6.57-5.85,19.68,19.68,0,0,1,9-2,18.81,18.81,0,0,1,10.39,2.61,11.73,11.73,0,0,1,5.19,6.59q1.15,4,1.16,13.25V820H577V771c0-4.87-.18-7.83-.55-8.9s-1.39-1.6-3.06-1.6-2.85.61-3.29,1.84-.68,4.51-.68,9.84V820H544.74V749.21Z" transform="translate(-116.86 -137.99)"/><path class="cls-1" d="M666.32,733.64V820H641.63v-5.13a25.51,25.51,0,0,1-7.45,4.81,21.38,21.38,0,0,1-8.19,1.6,18.45,18.45,0,0,1-10-2.63c-2.81-1.76-4.62-3.8-5.41-6.11s-1.19-6.08-1.19-11.3V768.09q0-8.16,1.19-11.58c.79-2.27,2.62-4.27,5.47-6a19.28,19.28,0,0,1,10.2-2.59,23.66,23.66,0,0,1,8.4,1.44,21.19,21.19,0,0,1,6.93,4.33V733.64ZM641.63,767c0-2.6-.25-4.34-.76-5.23s-1.52-1.33-3-1.33a3.26,3.26,0,0,0-3,1.2q-.76,1.2-.76,5.36v34.66q0,4.32.73,5.68a2.91,2.91,0,0,0,2.81,1.35c1.59,0,2.65-.5,3.18-1.52s.79-3.49.79-7.43Z" transform="translate(-116.86 -137.99)"/><path class="cls-1" d="M723.68,733.64v69.05h15.64V820H698V733.64Z" transform="translate(-116.86 -137.99)"/><path class="cls-1" d="M770.23,733.64v11.25H744.82V733.64Zm0,15.57V820H744.82V749.21Z" transform="translate(-116.86 -137.99)"/><path class="cls-1" d="M810.55,733.64v10.93c-5.09,0-8.09.21-9,.61s-1.37,1.58-1.37,3.5v2.24h10.38v11.19h-5.86V820H780V762.11h-5.07V750.92H780a49.68,49.68,0,0,1,.55-9.33,7.76,7.76,0,0,1,2.72-4.19,14.65,14.65,0,0,1,6.07-2.8,55.74,55.74,0,0,1,12.16-1Z" transform="translate(-116.86 -137.99)"/><path class="cls-1" d="M871.16,785.84H839.21v15.3q0,4.8.79,6.19a3.22,3.22,0,0,0,3,1.38c1.88,0,3.13-.61,3.76-1.83s1-3.6,1-7.12v-9.33h23.4v5.22a41.12,41.12,0,0,1-.95,10.08,19.76,19.76,0,0,1-4.43,7.52,21.5,21.5,0,0,1-8.83,6,38.7,38.7,0,0,1-13.41,2,43.94,43.94,0,0,1-13.8-2,22.44,22.44,0,0,1-9.32-5.41,18.83,18.83,0,0,1-4.61-7.57c-.86-2.76-1.29-6.76-1.29-12V773.63c0-6.19,1-11.06,2.88-14.64a18.64,18.64,0,0,1,9.4-8.21,37.31,37.31,0,0,1,15-2.85q10.39,0,17.14,3.44t9.47,9.12q2.71,5.67,2.72,16Zm-24.74-11.52v-5.17q0-5.49-.68-7.09a2.67,2.67,0,0,0-2.75-1.6c-1.71,0-2.77.45-3.17,1.36s-.61,3.35-.61,7.33v5.17Z" transform="translate(-116.86 -137.99)"/><path class="cls-1" d="M929.62,771.82H907.75V768q0-4.9-.64-6.21c-.43-.87-1.5-1.31-3.21-1.31a3.89,3.89,0,0,0-3.11,1.2,5.34,5.34,0,0,0-1,3.6,15.8,15.8,0,0,0,.52,4.77,7.74,7.74,0,0,0,3.11,3.33A70.83,70.83,0,0,0,914,778.64q10.76,4.59,14.12,8.64t3.36,11.78q0,8.64-2.57,13t-8.58,6.77a39.66,39.66,0,0,1-14.51,2.37,45.29,45.29,0,0,1-16.1-2.55q-6.69-2.57-9.2-6.94t-2.5-13.22v-3.41h21.87v4.48q0,5.7.83,7.41a3.26,3.26,0,0,0,3.26,1.7c1.76,0,3-.38,3.67-1.14s1-2.37,1-4.83c0-3.37-.45-5.49-1.34-6.34S901.66,793,893,788.83q-10.87-5.34-13.26-9.68a21.15,21.15,0,0,1-2.38-10.32q0-8.48,2.56-12.5t8.71-6.21a42.41,42.41,0,0,1,14.27-2.19,45.92,45.92,0,0,1,13.71,1.79,21.52,21.52,0,0,1,8.67,4.72,12.36,12.36,0,0,1,3.67,5.43,34.55,34.55,0,0,1,.64,7.84Z" transform="translate(-116.86 -137.99)"/><path class="cls-1" d="M964.14,739.77v11.15h6.66v11.19h-6.66V800q0,7,.82,7.78c.55.54,2.85.8,6.88.8V820h-10a81.5,81.5,0,0,1-12-.61,13.63,13.63,0,0,1-6.35-2.82,9.28,9.28,0,0,1-3.42-5.07q-.68-2.85-.67-13.41V762.11h-5.32V750.92h5.32V739.77Z" transform="translate(-116.86 -137.99)"/><path class="cls-1" d="M1030.41,749.21l-7.05,51.19q-1.68,12.15-2.81,16.58a16.73,16.73,0,0,1-3.75,7.3,15.47,15.47,0,0,1-7.3,4.24q-4.68,1.37-14.94,1.36h-15v-11.3a32.33,32.33,0,0,0,7.4-.51,2.15,2.15,0,0,0,1.65-2.26,70.74,70.74,0,0,0-1.53-7.42l-13.51-59.18H996l8.11,47.77,4-47.77Z" transform="translate(-116.86 -137.99)"/><path class="cls-1" d="M1060.24,733.64V820h-25.42V733.64Z" transform="translate(-116.86 -137.99)"/><path class="cls-1" d="M1125,785.84h-32v15.3q0,4.8.8,6.19a3.22,3.22,0,0,0,3.05,1.38c1.88,0,3.13-.61,3.76-1.83s.95-3.6.95-7.12v-9.33H1125v5.22a41.21,41.21,0,0,1-.94,10.08,19.76,19.76,0,0,1-4.43,7.52,21.57,21.57,0,0,1-8.83,6,38.7,38.7,0,0,1-13.41,2,44,44,0,0,1-13.81-2,22.47,22.47,0,0,1-9.31-5.41,18.83,18.83,0,0,1-4.61-7.57c-.86-2.76-1.29-6.76-1.29-12V773.63c0-6.19,1-11.06,2.87-14.64a18.66,18.66,0,0,1,9.41-8.21,37.31,37.31,0,0,1,15-2.85q10.38,0,17.14,3.44a20.11,20.11,0,0,1,9.47,9.12q2.71,5.67,2.71,16Zm-24.74-11.52v-5.17q0-5.49-.67-7.09a2.67,2.67,0,0,0-2.75-1.6c-1.71,0-2.77.45-3.18,1.36s-.61,3.35-.61,7.33v5.17Z" transform="translate(-116.86 -137.99)"/><path class="cls-1" d="M1207.65,733.64v17.28h-15.27v69h-25.72v-69h-15.21V733.64Z" transform="translate(-116.86 -137.99)"/><path class="cls-1" d="M1237.47,749.21l-1,9.3q5.37-10,15.58-10.58v24.9q-6.78,0-10,1.6a6.91,6.91,0,0,0-3.91,4.45q-.73,2.85-.73,13.15V820h-24.69V749.21Z" transform="translate(-116.86 -137.99)"/><path class="cls-1" d="M1279.62,776.62h-23.16v-4.75q0-8.21,2.17-12.66t8.71-7.87q6.54-3.4,17-3.41,12.53,0,18.88,3.87t7.64,9.49q1.28,5.63,1.28,23.16V820h-24v-6.3a14.93,14.93,0,0,1-5.83,5.69,18,18,0,0,1-8.53,1.89,23,23,0,0,1-11.88-3.17q-5.4-3.17-5.41-13.89v-5.81q0-7.95,2.88-10.82t14.23-6.72q12.15-4.16,13-5.6c.57-1,.86-2.91.86-5.87q0-5.54-1-7.22a3.32,3.32,0,0,0-3.14-1.68c-1.68,0-2.71.47-3.12,1.41s-.61,3.39-.61,7.33Zm7.82,9.7q-5.93,3.78-6.88,6.35a22.15,22.15,0,0,0-.94,7.35q0,5.51.82,7.09c.55,1.07,1.64,1.6,3.27,1.6s2.56-.41,3-1.25.7-3,.7-6.58Z" transform="translate(-116.86 -137.99)"/><path class="cls-1" d="M1346,733.64v11.25h-25.41V733.64Zm0,15.57V820h-25.41V749.21Z" transform="translate(-116.86 -137.99)"/><path class="cls-1" d="M1380,749.21l-.42,6.52a17.48,17.48,0,0,1,6.56-5.85,19.68,19.68,0,0,1,8.95-2,18.81,18.81,0,0,1,10.39,2.61,11.69,11.69,0,0,1,5.19,6.59q1.17,4,1.16,13.25V820h-24.68V771c0-4.87-.18-7.83-.55-8.9s-1.38-1.6-3-1.6-2.85.61-3.3,1.84-.67,4.51-.67,9.84V820h-24.69V749.21Z" transform="translate(-116.86 -137.99)"/><path class="cls-1" d="M1445.73,733.64v11.25h-25.42V733.64Zm0,15.57V820h-25.42V749.21Z" transform="translate(-116.86 -137.99)"/><path class="cls-1" d="M1479.7,749.21l-.43,6.52a17.44,17.44,0,0,1,6.57-5.85,19.62,19.62,0,0,1,9-2,18.8,18.8,0,0,1,10.38,2.61,11.69,11.69,0,0,1,5.19,6.59q1.17,4,1.16,13.25V820h-24.68V771c0-4.87-.18-7.83-.55-8.9s-1.38-1.6-3-1.6-2.85.61-3.3,1.84-.67,4.51-.67,9.84V820h-24.68V749.21Z" transform="translate(-116.86 -137.99)"/><path class="cls-1" d="M1576.1,749.21V803.7q0,11-.58,14.27t-4.12,6.82a22.74,22.74,0,0,1-9.87,5.49,56.55,56.55,0,0,1-15.92,1.9q-11.79,0-18.93-3.5t-7.4-13.73h24q0,4.69,3.91,4.7c1.87,0,3.12-.48,3.73-1.45s.91-3,.91-6v-5.33a23.84,23.84,0,0,1-6.69,3.79,21.14,21.14,0,0,1-7.36,1.28,22.79,22.79,0,0,1-11-2.34,12.6,12.6,0,0,1-5.9-6.16q-1.59-3.81-1.59-10.85v-25.7q0-10.08,4.16-14.5t12.64-4.43a20.9,20.9,0,0,1,8.46,1.66,19.76,19.76,0,0,1,6.82,5l1.77-5.34ZM1551.36,768c0-3.24-.22-5.3-.64-6.19s-1.38-1.33-2.85-1.33a3.22,3.22,0,0,0-3,1.52q-.88,1.51-.89,6v23.78c0,3.16.23,5.22.68,6.16a2.78,2.78,0,0,0,2.81,1.41c1.62,0,2.68-.57,3.17-1.71s.74-3.71.74-7.73Z" transform="translate(-116.86 -137.99)"/><path class="cls-1" d="M529.49,138V716.17H350V473.33H296.32V716.17H116.86V138H296.32V344.76H350V138Z" transform="translate(-116.86 -137.99)"/><path class="cls-1" d="M911.75,138l102.62,578.18H831l-9.63-103.92h-64.2L746.35,716.17H560.82L652.36,138ZM816.63,509.76Q803,411.53,789.3,266.91,761.88,433,754.86,509.76Z" transform="translate(-116.86 -137.99)"/><path class="cls-1" d="M1224.31,138V600.46h109.13V716.17H1044.85V138Z" transform="translate(-116.86 -137.99)"/><path class="cls-1" d="M1675.73,138V253.7H1569.16V716.17H1389.7V253.7H1283.56V138Z" transform="translate(-116.86 -137.99)"/><path class="cls-2" d="M643,518.19v80.74H622.92v-4.8a20.68,20.68,0,0,1-6.07,4.49,15.43,15.43,0,0,1-6.66,1.5,13.47,13.47,0,0,1-8.11-2.47,11,11,0,0,1-4.41-5.71c-.64-2.16-1-5.68-1-10.57v-31c0-5.09.33-8.7,1-10.82a10.76,10.76,0,0,1,4.46-5.61,14.13,14.13,0,0,1,8.3-2.42,16.43,16.43,0,0,1,12.49,5.4V518.19Zm-20.09,31.22a12.72,12.72,0,0,0-.62-4.89,3.12,3.12,0,0,0-4.88-.12c-.41.75-.62,2.42-.62,5v32.41q0,4,.6,5.31a2.28,2.28,0,0,0,2.29,1.27,2.54,2.54,0,0,0,2.58-1.42q.65-1.41.65-7Z" transform="translate(-116.86 -137.99)"/><path class="cls-2" d="M670.92,518.19v10.52H650.23V518.19Zm0,14.56v66.18H650.23V532.75Z" transform="translate(-116.86 -137.99)"/><path class="cls-2" d="M696.09,558.39H677.23V554q0-7.68,1.77-11.85t7.09-7.35q5.32-3.19,13.83-3.19,10.19,0,15.37,3.61a14.1,14.1,0,0,1,6.22,8.88q1,5.26,1,21.67v33.21H703V593a12.25,12.25,0,0,1-11.69,7.09,17,17,0,0,1-9.67-3q-4.41-3-4.41-13v-5.44q0-7.43,2.34-10.12t11.59-6.29q9.9-3.89,10.6-5.23t.69-5.49c0-3.45-.25-5.71-.77-6.75a2.64,2.64,0,0,0-2.56-1.57c-1.36,0-2.2.44-2.54,1.32s-.49,3.16-.49,6.85Zm6.36,9.07c-3.21,2.36-5.08,4.34-5.59,5.94a23.35,23.35,0,0,0-.77,6.88q0,5.13.67,6.63a2.61,2.61,0,0,0,2.66,1.49,2.46,2.46,0,0,0,2.46-1.17q.57-1.17.57-6.16Z" transform="translate(-116.86 -137.99)"/><path class="cls-2" d="M749.56,518.19V537.3A16.62,16.62,0,0,1,755.1,533a15.6,15.6,0,0,1,6.65-1.42,18.2,18.2,0,0,1,7.16,1.29,10.35,10.35,0,0,1,4.62,3.64,11.06,11.06,0,0,1,1.92,4.59,88.24,88.24,0,0,1,.32,9.58v29.82a44.38,44.38,0,0,1-1,10.84,11.28,11.28,0,0,1-4.55,6.18,14,14,0,0,1-8.5,2.62,14.32,14.32,0,0,1-6.6-1.55,17.58,17.58,0,0,1-5.59-4.64l-1.29,5H729.46V518.19Zm6.12,33.36c0-3.42-.22-5.66-.65-6.7a2.48,2.48,0,0,0-2.54-1.57,2.27,2.27,0,0,0-2.38,1.37q-.55,1.36-.55,6.9v28.53q0,5.32.62,6.83a2.41,2.41,0,0,0,2.46,1.49,2.34,2.34,0,0,0,2.46-1.54q.58-1.54.58-7.43Z" transform="translate(-116.86 -137.99)"/><path class="cls-2" d="M827.9,567h-26v14.31c0,3,.21,4.92.64,5.79A2.52,2.52,0,0,0,805,588.4a3,3,0,0,0,3.06-1.72q.76-1.71.77-6.65V571.3h19v4.89a44.06,44.06,0,0,1-.77,9.42,19.08,19.08,0,0,1-3.61,7,17.44,17.44,0,0,1-7.18,5.61,27.69,27.69,0,0,1-10.92,1.87,31.61,31.61,0,0,1-11.24-1.84,18.06,18.06,0,0,1-7.59-5.06,18.25,18.25,0,0,1-3.75-7.08,45.66,45.66,0,0,1-1.05-11.25v-19.3q0-8.67,2.34-13.69a16,16,0,0,1,7.66-7.67A27,27,0,0,1,804,531.56q8.44,0,14,3.21a17.75,17.75,0,0,1,7.71,8.53q2.2,5.31,2.21,14.94Zm-20.14-10.77V551.4a24.62,24.62,0,0,0-.55-6.63,2.16,2.16,0,0,0-2.24-1.49c-1.39,0-2.25.42-2.59,1.27s-.49,3.13-.49,6.85v4.84Z" transform="translate(-116.86 -137.99)"/><path class="cls-2" d="M855.66,523.93v10.42h5.42v10.47h-5.42v35.41q0,6.53.67,7.28c.45.5,2.31.74,5.59.74v10.68h-8.1a56.76,56.76,0,0,1-9.8-.58,10.38,10.38,0,0,1-5.17-2.64,8.72,8.72,0,0,1-2.79-4.74q-.55-2.67-.55-12.54V544.82h-4.32V534.35h4.32V523.93Z" transform="translate(-116.86 -137.99)"/><path class="cls-2" d="M911,567H885v14.31c0,3,.21,4.92.64,5.79a2.52,2.52,0,0,0,2.49,1.29,3,3,0,0,0,3.06-1.72Q892,585,892,580V571.3h19v4.89a44.06,44.06,0,0,1-.77,9.42,19.24,19.24,0,0,1-3.61,7,17.44,17.44,0,0,1-7.18,5.61,27.76,27.76,0,0,1-10.92,1.87,31.58,31.58,0,0,1-11.24-1.84,18.06,18.06,0,0,1-7.59-5.06,18.41,18.41,0,0,1-3.76-7.08,46.26,46.26,0,0,1-1-11.25v-19.3q0-8.67,2.34-13.69a16,16,0,0,1,7.66-7.67,26.91,26.91,0,0,1,12.23-2.67q8.46,0,14,3.21a17.75,17.75,0,0,1,7.71,8.53q2.21,5.31,2.21,14.94Zm-20.15-10.77V551.4q0-5.13-.54-6.63a2.16,2.16,0,0,0-2.24-1.49c-1.39,0-2.26.42-2.59,1.27s-.49,3.13-.49,6.85v4.84Z" transform="translate(-116.86 -137.99)"/><path class="cls-2" d="M958.62,553.9H940.81v-3.59q0-4.59-.52-5.81c-.35-.82-1.22-1.22-2.61-1.22a3,3,0,0,0-2.54,1.12,5.58,5.58,0,0,0-.84,3.36,17.22,17.22,0,0,0,.42,4.47,7.08,7.08,0,0,0,2.54,3.11,54.94,54.94,0,0,0,8.68,4.94q8.74,4.29,11.49,8.08t2.73,11q0,8.07-2.09,12.19a13.86,13.86,0,0,1-7,6.33,28.53,28.53,0,0,1-11.82,2.22,32.37,32.37,0,0,1-13.1-2.39q-5.46-2.4-7.49-6.48t-2-12.37v-3.19h17.81v4.19q0,5.34.67,6.93a2.6,2.6,0,0,0,2.66,1.59,3.6,3.6,0,0,0,3-1.07c.56-.71.84-2.22.84-4.51q0-4.74-1.09-5.93t-11.69-7.09q-8.87-5-10.8-9a22.19,22.19,0,0,1-1.94-9.64q0-7.93,2.09-11.7a13.65,13.65,0,0,1,7.09-5.81,30.6,30.6,0,0,1,11.62-2,32.71,32.71,0,0,1,11.16,1.67,17.15,17.15,0,0,1,7.07,4.41,11.91,11.91,0,0,1,3,5.09,36.84,36.84,0,0,1,.52,7.33Z" transform="translate(-116.86 -137.99)"/></svg>