<?xml version="1.0" encoding="utf-8"?>
<!-- Generator: Adobe Illustrator 19.1.0, SVG Export Plug-In . SVG Version: 6.00 Build 0)  -->
<!DOCTYPE svg PUBLIC "-//W3C//DTD SVG 1.1//EN" "http://www.w3.org/Graphics/SVG/1.1/DTD/svg11.dtd">
<svg version="1.1" id="Layer_1" xmlns="http://www.w3.org/2000/svg" xmlns:xlink="http://www.w3.org/1999/xlink" x="0px" y="0px"
	 width="408.7637024px" height="87.7116089px" viewBox="0 0 408.7637024 87.7116089"
	 style="enable-background:new 0 0 408.7637024 87.7116089;" xml:space="preserve">
<style type="text/css">
	.st0{fill:#5CBD6E;}
	.st1{fill:#68D67C;}
	.st2{fill:#FFFFFF;}
</style>
<g>
	<path class="st0" d="M72.3857117,68.6109543L40.6955452,86.90728c-1.8575134,1.0724411-4.1460686,1.0724411-6.0035858,0
		L3.0017934,68.6109543C1.1442772,67.5385208,0,65.556572,0,63.4116974l0-36.5926514
		c0-2.1448746,1.1442772-4.1268215,3.0017934-5.1992588L34.6919594,3.3234599c1.8575172-1.0724375,4.1460724-1.0724375,6.0035858,0
		l31.6901665,18.2963257c1.8575134,1.0724373,3.0017929,3.0543842,3.0017929,5.1992588v36.5926514
		C75.3875046,65.556572,74.2432251,67.5385208,72.3857117,68.6109543z"/>
	<path class="st1" d="M72.3857117,66.0918198L40.6955452,84.3881531c-1.8575134,1.0724335-4.1460686,1.0724335-6.0035858,0
		L3.0017934,66.0918198C1.1442772,65.0193863,0,63.0374413,0,60.8925629l0-36.5926514
		c0-2.1448765,1.1442772-4.1268215,3.0017934-5.1992588L34.6919594,0.8043281c1.8575172-1.0724375,4.1460724-1.0724375,6.0035858,0
		l31.6901665,18.2963257c1.8575134,1.0724373,3.0017929,3.0543823,3.0017929,5.1992588v36.5926514
		C75.3875046,63.0374413,74.2432251,65.0193863,72.3857117,66.0918198z"/>
	<path class="st2" d="M51.3490448,54.30056L39.044651,61.4044609c-0.8359756,0.4826469-1.8659363,0.4826469-2.7019081-0.0000038
		l-14.262064-8.2342186c-0.8359375-0.4826317-1.3508949-1.3745651-1.3508949-2.3398247V34.3621101
		c0-0.9653358,0.5149994-1.8573418,1.3510056-2.3400116l14.2619534-8.2341557
		c0.8359718-0.4826508,1.8659325-0.4826527,2.7019081-0.0000038l12.3043938,7.103899
		c1.1974258,0.6913319,2.6845322,0.6379929,3.8293533-0.1373501l6.1700211-4.178709
		c0.5516663-0.373621,0.5221825-1.1957092-0.0548325-1.5288506L39.8437004,12.6628218
		c-1.3304253-0.7681236-2.9695816-0.7681217-4.3000069,0.0000038L12.845664,25.7676144
		c-1.3304167,0.7681198-2.1499872,2.1876621-2.1499872,3.723896v26.2093792c0,1.5362358,0.8195705,2.9557762,2.1499872,3.723896
		l22.6980209,13.1047859c1.3304291,0.7681274,2.9695892,0.7681274,4.3000221,0l21.4498787-12.3841019
		c0.5770149-0.3331375,0.6064987-1.1552277,0.0548325-1.5288506l-6.1700211-4.1787071
		C54.033577,53.662571,52.5464706,53.60923,51.3490448,54.30056z"/>
	<g>
		<path class="st2" d="M103.2783508,42.7581711v-0.1685524c0-16.7560959,12.5447617-30.4807281,30.3964539-30.4807281
			c10.8617096,0,17.4278259,3.7899513,23.0693817,9.1786718l-6.6503906,7.6617012
			c-4.7169952-4.3786449-9.7686005-7.3258343-16.5032654-7.3258343c-11.1988297,0-19.4504623,9.2629471-19.4504623,20.797636
			v0.1685524c0,11.534687,8.1673584,20.8806725,19.4504623,20.8806725c7.2403107,0,11.8705444-2.8629112,16.9221649-7.5774231
			l6.6528625,6.7359009c-6.1472015,6.3987961-12.8818665,10.4403381-23.9121399,10.4403381
			C116.075943,73.0691071,103.2783508,59.6815796,103.2783508,42.7581711z"/>
		<path class="st2" d="M201.4238739,12.0917225h-9.8648071l-26.6473999,60.9971313h10.9014893l6.2301025-14.6214561h28.6366577
			l6.1434937,14.6214561h11.2478638L201.4238739,12.0917225z M185.9351654,49.0356331l10.3818359-24.2251606l10.4709473,24.2251606
			H185.9351654z"/>
		<path class="st2" d="M262.3519592,12.1929188h-24.0134125v60.899353h10.703064V53.5173225h12.0912323
			c13.3974609,0,24.3591919-7.1341553,24.3591919-20.7928467v-0.1741333
			C285.4920349,20.2836781,276.6202087,12.1929188,262.3519592,12.1929188z M274.6173401,32.9857674
			c0,6.3504028-5.0454712,10.8746948-13.1361694,10.8746948h-12.4395599V21.9368763h12.4395599
			c8.0036011,0,13.1361694,3.7406006,13.1361694,10.8746967V32.9857674z"/>
		<path class="st2" d="M319.7693787,12.2016468h-24.0100708v60.890625h10.7015991V53.5200691h12.0894775
			c13.3955688,0,24.3557739-7.1330566,24.3557739-20.7897949v-0.1741333
			C342.9061584,20.2911854,334.035553,12.2016468,319.7693787,12.2016468z M332.0329895,32.9914436
			c0,6.3494873-5.0447388,10.8731689-13.1342773,10.8731689H306.460907V21.9442005h12.4378052
			c8.0024414,0,13.1342773,3.7400513,13.1342773,10.8731098V32.9914436z"/>
		<path class="st2" d="M382.1188049,12.1007557h-9.8613281l-26.647522,60.9915161h10.9004517l6.2295532-14.6201134h28.6365356
			l6.1430054,14.6201134h11.2442017L382.1188049,12.1007557z M366.6340637,49.0412483l10.3808594-24.2229023l10.4674683,24.2229023
			H366.6340637z"/>
	</g>
</g>
</svg>
