<?xml version="1.0" encoding="UTF-8"?>
<svg width="306px" height="264px" viewBox="0 0 306 264" xmlns="http://www.w3.org/2000/svg" xmlns:xlink="http://www.w3.org/1999/xlink" version="1.1">
 <!-- Generated by Pixelmator Pro 2.1.2 -->
 <g id="group">
  <path id="Path" d="M218.764 144.376 L152.08 182.876 C148.171 185.133 143.355 185.133 139.447 182.876 L72.762 144.376 C68.853 142.119 66.446 137.948 66.446 133.435 L66.446 56.434 C66.446 51.921 68.853 47.75 72.762 45.494 L139.447 6.993 C143.355 4.737 148.171 4.737 152.08 6.993 L218.764 45.494 C222.673 47.75 225.081 51.921 225.081 56.434 L225.081 133.435 C225.081 137.948 222.673 142.119 218.764 144.376 Z" fill="#5fbd6f" fill-opacity="1" stroke="none"/>
  <path id="Path-1" d="M218.764 139.075 L152.08 177.575 C148.171 179.832 143.355 179.832 139.447 177.575 L72.762 139.075 C68.853 136.818 66.446 132.648 66.446 128.134 L66.446 51.133 C66.446 46.62 68.853 42.45 72.762 40.193 L139.447 1.693 C143.355 -0.564 148.171 -0.564 152.08 1.693 L218.764 40.193 C222.673 42.45 225.081 46.62 225.081 51.133 L225.081 128.134 C225.081 132.648 222.673 136.818 218.764 139.075 Z" fill="#75c37a" fill-opacity="1" stroke="none"/>
  <path id="Path-2" d="M174.498 114.263 L148.606 129.211 C146.847 130.227 144.679 130.227 142.92 129.211 L112.909 111.884 C111.15 110.869 110.067 108.992 110.067 106.961 L110.067 72.307 C110.067 70.276 111.15 68.399 112.909 67.383 L142.92 50.056 C144.679 49.041 146.847 49.041 148.606 50.056 L174.498 65.005 C177.017 66.459 180.147 66.347 182.556 64.716 L195.539 55.923 C196.7 55.136 196.638 53.406 195.424 52.705 L150.287 26.646 C147.488 25.03 144.039 25.03 141.239 26.646 L93.476 54.222 C90.677 55.838 88.952 58.825 88.952 62.058 L88.952 117.209 C88.952 120.442 90.677 123.429 93.476 125.046 L141.239 152.622 C144.039 154.238 147.488 154.238 150.287 152.622 L195.424 126.562 C196.638 125.861 196.7 124.131 195.539 123.345 L182.556 114.552 C180.147 112.92 177.017 112.808 174.498 114.263 Z" fill="#ffffff" fill-opacity="1" stroke="none"/>
 </g>
 <g id="group-1">
  <path id="Path-3" d="M0 233.615 L0 233.447 C0 216.69 12.545 202.966 30.396 202.966 41.258 202.966 47.824 206.756 53.466 212.145 L46.815 219.806 C42.098 215.428 37.047 212.48 30.312 212.48 19.113 212.48 10.862 221.743 10.862 233.278 L10.862 233.447 C10.862 244.981 19.029 254.327 30.312 254.327 37.552 254.327 42.183 251.464 47.234 246.75 L53.887 253.486 C47.74 259.884 41.005 263.926 29.975 263.926 12.798 263.926 0 250.539 0 233.615 Z" fill="#edeff0" fill-opacity="1" stroke="none"/>
  <path id="Path-4" d="M98.146 202.949 L88.281 202.949 61.633 263.946 72.535 263.946 78.765 249.324 107.402 249.324 113.545 263.946 124.793 263.946 Z M82.657 239.893 L93.039 215.667 103.51 239.893 Z" fill="#edeff0" fill-opacity="1" stroke="none"/>
  <path id="Path-5" d="M159.074 203.05 L135.06 203.05 135.06 263.949 145.763 263.949 145.763 244.374 157.855 244.374 C171.252 244.374 182.214 237.24 182.214 223.581 L182.214 223.407 C182.214 211.141 173.342 203.05 159.074 203.05 Z M171.339 223.843 C171.339 230.193 166.294 234.717 158.203 234.717 L145.763 234.717 145.763 212.794 158.203 212.794 C166.206 212.794 171.339 216.534 171.339 223.669 Z" fill="#edeff0" fill-opacity="1" stroke="none"/>
  <path id="Path-6" d="M216.491 203.059 L192.481 203.059 192.481 263.949 203.183 263.949 203.183 244.377 215.272 244.377 C228.668 244.377 239.628 237.244 239.628 223.587 L239.628 223.413 C239.628 211.148 230.757 203.059 216.491 203.059 Z M228.755 223.848 C228.755 230.198 223.71 234.722 215.62 234.722 L203.183 234.722 203.183 212.801 215.62 212.801 C223.623 212.801 228.755 216.541 228.755 223.674 Z" fill="#edeff0" fill-opacity="1" stroke="none"/>
  <path id="Path-7" d="M278.84 202.958 L268.979 202.958 242.332 263.949 253.232 263.949 259.462 249.329 288.098 249.329 294.241 263.949 305.485 263.949 Z M263.356 239.898 L273.737 215.675 284.204 239.898 Z" fill="#edeff0" fill-opacity="1" stroke="none"/>
 </g>
 <path id="D-copy" d="M140.831 138.882 C146.877 138.882 151.845 138.3 155.736 137.138 162.679 134.978 168.365 130.826 172.795 124.68 176.326 119.752 178.87 113.441 180.427 105.745 181.325 101.149 181.773 96.886 181.773 92.955 181.773 77.84 178.526 66.102 172.032 57.742 165.537 49.382 155.077 45.201 140.652 45.201 L108.957 45.201 108.957 138.882 Z M91 31 L144.423 31 C162.559 31 176.626 36.952 186.622 48.856 195.541 59.597 200 73.355 200 90.131 200 103.087 197.366 114.797 192.099 125.261 182.821 143.754 166.869 153 144.243 153 L91 153 Z" fill="#971c1c" fill-opacity="1" stroke="none"/>
</svg>
