<?xml version="1.0" encoding="UTF-8"?>
<svg width="409px" height="88px" viewBox="0 0 409 88" xmlns="http://www.w3.org/2000/svg" xmlns:xlink="http://www.w3.org/1999/xlink" version="1.1">
 <!-- Generated by Pixelmator Pro 2.1.2 -->
 <g id="group">
  <path id="Path" d="M72.386 68.611 L40.696 86.907 C38.838 87.98 36.549 87.98 34.692 86.907 L3.002 68.611 C1.144 67.539 -0 65.557 -0 63.412 L-0 26.819 C-0 24.674 1.144 22.692 3.002 21.62 L34.692 3.323 C36.549 2.251 38.838 2.251 40.696 3.323 L72.386 21.62 C74.243 22.692 75.388 24.674 75.388 26.819 L75.388 63.412 C75.388 65.557 74.243 67.539 72.386 68.611 Z" fill="#5cbd6e" fill-opacity="1" stroke="none"/>
  <path id="Path-1" d="M72.386 66.092 L40.696 84.388 C38.838 85.461 36.549 85.461 34.692 84.388 L3.002 66.092 C1.144 65.019 -0 63.037 -0 60.893 L-0 24.3 C-0 22.155 1.144 20.173 3.002 19.101 L34.692 0.804 C36.549 -0.268 38.838 -0.268 40.696 0.804 L72.386 19.101 C74.243 20.173 75.388 22.155 75.388 24.3 L75.388 60.893 C75.388 63.037 74.243 65.019 72.386 66.092 Z" fill="#68d67c" fill-opacity="1" stroke="none"/>
  <path id="Path-2" d="M51.349 54.301 L39.045 61.404 C38.209 61.887 37.179 61.887 36.343 61.404 L22.081 53.17 C21.245 52.688 20.73 51.796 20.73 50.83 L20.73 34.362 C20.73 33.397 21.245 32.505 22.081 32.022 L36.343 23.788 C37.179 23.305 38.209 23.305 39.045 23.788 L51.349 30.892 C52.546 31.583 54.034 31.53 55.178 30.754 L61.348 26.576 C61.9 26.202 61.871 25.38 61.294 25.047 L39.844 12.663 C38.513 11.895 36.874 11.895 35.544 12.663 L12.846 25.768 C11.515 26.536 10.696 27.955 10.696 29.492 L10.696 55.701 C10.696 57.237 11.515 58.657 12.846 59.425 L35.544 72.53 C36.874 73.298 38.513 73.298 39.844 72.53 L61.294 60.145 C61.871 59.812 61.9 58.99 61.348 58.617 L55.178 54.438 C54.034 53.663 52.546 53.609 51.349 54.301 Z" fill="#ffffff" fill-opacity="1" stroke="none"/>
  <g id="group-1">
   <path id="Path-3" d="M103.278 42.758 L103.278 42.59 C103.278 25.834 115.823 12.109 133.675 12.109 144.537 12.109 151.103 15.899 156.744 21.288 L150.094 28.949 C145.377 24.571 140.325 21.623 133.591 21.623 122.392 21.623 114.14 30.886 114.14 42.421 L114.14 42.59 C114.14 54.124 122.307 63.47 133.591 63.47 140.831 63.47 145.461 60.607 150.513 55.893 L157.166 62.629 C151.018 69.028 144.284 73.069 133.253 73.069 116.076 73.069 103.278 59.682 103.278 42.758 Z" fill="#ffffff" fill-opacity="1" stroke="none"/>
   <path id="Path-4" d="M201.424 12.092 L191.559 12.092 164.912 73.089 175.813 73.089 182.043 58.467 210.68 58.467 216.823 73.089 228.071 73.089 Z M185.935 49.036 L196.317 24.81 206.788 49.036 Z" fill="#ffffff" fill-opacity="1" stroke="none"/>
   <path id="Path-5" d="M262.352 12.193 L238.339 12.193 238.339 73.092 249.042 73.092 249.042 53.517 261.133 53.517 C274.53 53.517 285.492 46.383 285.492 32.724 L285.492 32.55 C285.492 20.284 276.62 12.193 262.352 12.193 Z M274.617 32.986 C274.617 39.336 269.572 43.86 261.481 43.86 L249.042 43.86 249.042 21.937 261.481 21.937 C269.485 21.937 274.617 25.677 274.617 32.812 Z" fill="#ffffff" fill-opacity="1" stroke="none"/>
   <path id="Path-6" d="M319.769 12.202 L295.759 12.202 295.759 73.092 306.461 73.092 306.461 53.52 318.55 53.52 C331.946 53.52 342.906 46.387 342.906 32.73 L342.906 32.556 C342.906 20.291 334.036 12.202 319.769 12.202 Z M332.033 32.991 C332.033 39.341 326.988 43.865 318.899 43.865 L306.461 43.865 306.461 21.944 318.899 21.944 C326.901 21.944 332.033 25.684 332.033 32.817 Z" fill="#ffffff" fill-opacity="1" stroke="none"/>
   <path id="Path-7" d="M382.119 12.101 L372.257 12.101 345.61 73.092 356.51 73.092 362.74 58.472 391.376 58.472 397.52 73.092 408.764 73.092 Z M366.634 49.041 L377.015 24.818 387.482 49.041 Z" fill="#ffffff" fill-opacity="1" stroke="none"/>
  </g>
 </g>
 <path id="D-copy" d="M39.601 71.015 C42.707 71.015 45.26 70.686 47.259 70.029 50.826 68.807 53.747 66.459 56.023 62.983 57.837 60.196 59.144 56.626 59.944 52.274 60.405 49.675 60.636 47.263 60.636 45.04 60.636 36.491 58.968 29.853 55.631 25.125 52.294 20.396 46.92 18.032 39.509 18.032 L23.226 18.032 23.226 71.015 Z M14 10 L41.446 10 C50.764 10 57.991 13.366 63.127 20.099 67.709 26.174 70 33.955 70 43.443 70 50.771 68.647 57.393 65.941 63.312 61.174 73.771 52.979 79 41.354 79 L14 79 Z" fill="#971c1c" fill-opacity="1" stroke="none"/>
</svg>
